<svg width="49" height="48" viewBox="0 0 49 48" fill="none" xmlns="http://www.w3.org/2000/svg">
<path d="M8.33301 36V35.6C8.33301 32.2397 8.33301 30.5595 8.98697 29.2761C9.56221 28.1471 10.4801 27.2292 11.6091 26.654C12.8925 26 14.5727 26 17.933 26H30.733C34.0933 26 35.7735 26 37.057 26.654C38.1859 27.2292 39.1038 28.1471 39.679 29.2761C40.333 30.5595 40.333 32.2397 40.333 35.6V36M8.33301 36C6.12387 36 4.33301 37.7909 4.33301 40C4.33301 42.2091 6.12387 44 8.33301 44C10.5421 44 12.333 42.2091 12.333 40C12.333 37.7909 10.5421 36 8.33301 36ZM40.333 36C38.1239 36 36.333 37.7909 36.333 40C36.333 42.2091 38.1239 44 40.333 44C42.5421 44 44.333 42.2091 44.333 40C44.333 37.7909 42.5421 36 40.333 36ZM24.333 36C22.1239 36 20.333 37.7909 20.333 40C20.333 42.2091 22.1239 44 24.333 44C26.5421 44 28.333 42.2091 28.333 40C28.333 37.7909 26.5421 36 24.333 36ZM24.333 36V16M12.333 16H36.333C38.1968 16 39.1287 16 39.8637 15.6955C40.8439 15.2895 41.6226 14.5108 42.0285 13.5307C42.333 12.7956 42.333 11.8638 42.333 10C42.333 8.13623 42.333 7.20435 42.0285 6.46927C41.6226 5.48915 40.8439 4.71046 39.8637 4.30448C39.1287 4 38.1968 4 36.333 4H12.333C10.4692 4 9.53736 4 8.80227 4.30448C7.82216 4.71046 7.04347 5.48915 6.63749 6.46927C6.33301 7.20435 6.33301 8.13623 6.33301 10C6.33301 11.8638 6.33301 12.7956 6.63749 13.5307C7.04347 14.5108 7.82216 15.2895 8.80227 15.6955C9.53736 16 10.4692 16 12.333 16Z" stroke="url(#paint0_linear_32146_3860)" stroke-width="1.5" stroke-linecap="round" stroke-linejoin="round"/>
<defs>
<linearGradient id="paint0_linear_32146_3860" x1="24.333" y1="4" x2="24.333" y2="44" gradientUnits="userSpaceOnUse">
<stop stop-color="#00FFCD"/>
<stop offset="1" stop-color="#00FF80"/>
</linearGradient>
</defs>
</svg>
