<svg width="64" height="64" viewBox="0 0 64 64" fill="none" xmlns="http://www.w3.org/2000/svg">
<path opacity="0.4" fill-rule="evenodd" clip-rule="evenodd" d="M38.5343 30.3162H22.1636C21.0596 30.3162 20.1636 29.4202 20.1636 28.3162C20.1636 27.2122 21.0596 26.3161 22.1636 26.3161H38.5343C39.6383 26.3161 40.5343 27.2122 40.5343 28.3162C40.5343 29.4202 39.6383 30.3162 38.5343 30.3162ZM32.3343 42.4602H22.1609C21.0569 42.4602 20.1609 41.5642 20.1609 40.4602C20.1609 39.3562 21.0569 38.4602 22.1609 38.4602H32.3343C33.4383 38.4602 34.3343 39.3562 34.3343 40.4602C34.3343 41.5642 33.4383 42.4602 32.3343 42.4602ZM45.5129 8.13477H25.6647C25.1797 8.13477 24.8089 8.56271 24.8534 9.04567C24.8923 9.46762 24.9156 9.89359 24.9156 10.3268C24.9156 18.7546 18.2956 25.6371 9.96876 26.0535C9.52751 26.0755 9.16895 26.4316 9.16895 26.8735V44.8042C9.16895 51.9882 14.9636 57.8682 22.1049 57.8682H37.4223C38.1689 57.8682 38.7423 57.2602 38.7423 56.5375V47.2068C38.7423 41.9055 43.0729 37.5588 48.3236 37.5322H57.1289C57.8463 37.5322 58.4196 36.9508 58.4196 36.2282V21.1454C58.4196 13.9588 52.6543 8.13477 45.5129 8.13477Z" fill="#BFBFBF"/>
<path fill-rule="evenodd" clip-rule="evenodd" d="M38.5345 30.3125H22.1638C21.0598 30.3125 20.1638 29.4165 20.1638 28.3125C20.1638 27.2085 21.0598 26.3125 22.1638 26.3125H38.5345C39.6385 26.3125 40.5345 27.2085 40.5345 28.3125C40.5345 29.4165 39.6385 30.3125 38.5345 30.3125ZM32.3345 42.4565H22.1611C21.0571 42.4565 20.1611 41.5605 20.1611 40.4565C20.1611 39.3525 21.0571 38.4565 22.1611 38.4565H32.3345C33.4385 38.4565 34.3345 39.3525 34.3345 40.4565C34.3345 41.5605 33.4385 42.4565 32.3345 42.4565Z" fill="#BFBFBF"/>
<path d="M55.8408 42.2432C56.5532 42.245 56.9524 43.0591 56.5547 43.627L56.4639 43.7363V43.7373L50.7246 49.7637L44.9141 55.8682C44.3811 56.4272 43.4189 56.0579 43.4189 55.2441V47.6074C43.4189 44.7656 45.6654 42.4158 48.4355 42.2715L48.7061 42.2646H48.7109C49.7081 42.254 50.9013 42.2468 52.1396 42.2432H55.8408Z" fill="#BFBFBF" stroke="black"/>
<path d="M15.1152 7.07324C15.6981 6.48841 16.648 6.48798 17.2344 7.07422C17.7838 7.62364 17.8186 8.49094 17.3379 9.08008L17.2344 9.19434L14.3516 12.0762L13.998 12.4297L17.2373 15.6689C17.823 16.2546 17.8232 17.2039 17.2383 17.79C16.9424 18.0839 16.5582 18.2314 16.1748 18.2314C15.839 18.2314 15.5031 18.1188 15.2285 17.8945L15.1152 17.791L12.2295 14.9062L11.876 14.5527L8.6377 17.791C8.05162 18.3771 7.10365 18.3771 6.51758 17.791C5.96827 17.2416 5.93429 16.3726 6.41504 15.7832L6.51758 15.6689L9.40039 12.7832L9.75391 12.4297L9.40039 12.0762L6.51758 9.19434C5.93151 8.60826 5.93151 7.66029 6.51758 7.07422C7.06716 6.52464 7.93693 6.49053 8.52637 6.97168L8.63965 7.07422L11.876 10.3105L12.2295 9.95703L15.1152 7.07422V7.07324Z" fill="#BFBFBF" stroke="black"/>
</svg>
