<svg width="134" height="30" viewBox="0 0 134 30" fill="none" xmlns="http://www.w3.org/2000/svg">
<path d="M3.02177 29.8093C2.98562 29.7846 2.97076 29.7424 2.94793 29.7375C2.40412 29.621 1.91047 29.3975 1.46786 29.0599C0.996593 28.7004 0.644246 28.2475 0.376579 27.7203C0.0738264 27.124 -0.000583662 26.4924 3.43785e-06 25.8322C0.00661641 18.3948 0.000811978 10.9573 0.00962849 3.51988C0.0104719 2.808 0.275674 2.16295 0.687958 1.5816C1.04672 1.07572 1.5051 0.684578 2.0559 0.404027C2.46637 0.194953 2.90415 0.0404418 3.36409 0.0392567C10.9051 0.0198252 18.4461 0.00697331 25.9871 2.05905e-06C26.8715 -0.000815553 27.6968 0.241816 28.3885 0.808439C29.0989 1.39041 29.5837 2.12858 29.739 3.05109C29.7838 3.31707 29.8134 3.58923 29.8135 3.85858C29.8175 11.2773 29.8182 18.696 29.8146 26.1146C29.8142 26.9537 29.5414 27.7072 29.0243 28.3702C28.4686 29.0827 27.7503 29.538 26.8686 29.7366C26.8416 29.7427 26.819 29.768 26.8055 29.7968C18.8909 29.8093 10.9651 29.8093 3.02177 29.8093ZM15.2104 19.5481C14.1856 19.5481 13.1607 19.5432 12.1359 19.5509C11.8066 19.5534 11.4686 19.5478 11.1501 19.6172C10.2461 19.814 9.60704 20.4669 9.44416 21.2613C9.30633 21.9337 9.37555 22.6484 9.35262 23.3605C9.42928 23.3605 9.4657 23.3605 9.50211 23.3605C12.4392 23.3605 15.3763 23.361 18.3134 23.3598C18.6405 23.3596 18.8658 23.134 18.8669 22.8056C18.8696 22.0245 18.8679 21.2433 18.8679 20.4622C18.8679 20.3959 18.8679 20.3295 18.8679 20.2694C18.9832 20.2751 19.0764 20.2836 19.1697 20.2837C20.0258 20.2848 20.882 20.2846 21.7381 20.2842C22.1996 20.2841 22.4126 20.0749 22.4135 19.6156C22.4178 17.5785 22.4211 15.5414 22.4238 13.5043C22.4245 13.0395 22.2123 12.8256 21.7514 12.8265C20.7454 12.8285 19.7394 12.8346 18.7334 12.8351C16.3337 12.8365 13.934 12.8356 11.5344 12.8356C11.4693 12.8356 11.4042 12.8356 11.3399 12.8356C11.3399 11.8898 11.3399 10.9734 11.3399 10.0568C13.3153 10.0568 15.2804 10.0568 17.2442 10.0568C17.3574 8.70876 17.7112 7.44681 18.3976 6.26531C18.3361 6.26195 18.301 6.25836 18.2659 6.25836C16.0162 6.25814 13.7665 6.25762 11.5168 6.25887C11.1808 6.25906 10.9565 6.48515 10.9545 6.82406C10.9516 7.31773 10.9536 7.81142 10.9536 8.30511C10.9535 8.65414 10.9536 9.00317 10.9536 9.35337C10.8884 9.34609 10.8394 9.33591 10.7904 9.33585C9.84051 9.33483 8.89062 9.33105 7.9408 9.33708C7.61697 9.33913 7.39252 9.58788 7.39231 9.92547C7.39103 12.0189 7.38991 14.1124 7.39636 16.2058C7.39671 16.3223 7.44336 16.4521 7.50599 16.5522C7.63228 16.754 7.84692 16.7834 8.0667 16.7833C9.06583 16.7828 10.065 16.7831 11.0641 16.7831C13.4638 16.7831 15.8634 16.7831 18.2631 16.7831C18.3302 16.7831 18.3973 16.7831 18.4744 16.7831C18.4744 17.7193 18.4744 18.635 18.4744 19.5481C17.3948 19.5481 16.3214 19.5481 15.2104 19.5481ZM25.2466 6.80734C25.42 6.25646 25.6128 5.71071 25.7593 5.15279C25.8488 4.81209 25.8677 4.45276 25.917 4.10161C25.9317 3.99698 25.8941 3.93666 25.7778 3.93086C25.6365 3.92381 25.4957 3.90477 25.3545 3.89305C24.3819 3.81227 23.4226 3.90503 22.4851 4.16463C21.5609 4.42051 20.7541 4.88702 20.1252 5.62554C19.5074 6.351 19.1056 7.19044 18.8553 8.10509C18.6939 8.69524 18.5498 9.28869 18.5251 9.90487C18.5202 10.0259 18.5646 10.0764 18.6749 10.0835C18.8915 10.0975 19.1081 10.1129 19.325 10.1211C19.8969 10.1428 20.4651 10.1042 21.0297 10.0092C22.0057 9.84487 22.924 9.53547 23.7057 8.90695C24.396 8.35195 24.8766 7.63568 25.2466 6.80734Z" fill="#00FFA6"/>
<path d="M55.5421 20.4719C55.2993 20.4719 55.0751 20.4719 54.8358 20.4719C54.8358 22.1332 54.8358 23.7859 54.8358 25.449C53.7679 25.449 52.7153 25.449 51.6523 25.449C51.6523 19.5848 51.6523 13.7197 51.6523 7.83445C51.7118 7.83445 51.7719 7.83445 51.832 7.83445C55.1944 7.83445 58.5568 7.82865 61.9192 7.84033C62.4598 7.84221 62.9947 7.95574 63.4634 8.25072C63.9182 8.53695 64.158 8.97865 64.2365 9.4967C64.2907 9.85464 64.3129 10.2205 64.3138 10.583C64.3201 13.1391 64.3259 15.6953 64.3106 18.2514C64.307 18.8552 64.1657 19.4367 63.6931 19.8771C63.3662 20.1817 62.961 20.3396 62.5346 20.3877C61.9764 20.4505 61.4108 20.4655 60.8482 20.4685C59.0858 20.4779 57.3233 20.4719 55.5421 20.4719ZM61.1296 12.6157C61.1296 12.2408 61.1449 11.8652 61.1251 11.4914C61.1071 11.1496 60.9747 10.9677 60.6556 10.8818C60.5095 10.8424 60.3511 10.8366 60.1983 10.8363C58.4677 10.8334 56.7372 10.8344 55.0066 10.8344C54.9522 10.8344 54.8978 10.8344 54.837 10.8344C54.837 13.0526 54.837 15.2546 54.837 17.4496C54.849 17.4609 54.8535 17.469 54.8579 17.469C56.729 17.4578 58.6002 17.441 60.4713 17.4385C60.8771 17.438 61.1346 17.1663 61.1322 16.7203C61.1251 15.3647 61.1296 14.0089 61.1296 12.6157Z" fill="#F2F4F5"/>
<path d="M123.189 17.4713C123.882 17.4713 124.556 17.4713 125.241 17.4713C125.241 18.4696 125.241 19.4597 125.241 20.4623C125.196 20.4652 125.149 20.4709 125.101 20.4709C121.721 20.4713 118.34 20.4781 114.96 20.4646C114.395 20.4623 113.83 20.3493 113.356 20.0138C112.964 19.7365 112.725 19.3342 112.657 18.8557C112.607 18.5095 112.581 18.157 112.58 17.8072C112.574 15.1952 112.57 12.5832 112.582 9.97132C112.584 9.34272 112.775 8.76624 113.284 8.34855C113.595 8.09385 113.969 7.9524 114.361 7.91589C114.927 7.86318 115.498 7.83931 116.066 7.83722C118.328 7.82889 120.591 7.82568 122.852 7.8397C123.393 7.84306 123.926 7.95817 124.397 8.24893C124.858 8.53326 125.091 8.97673 125.171 9.49402C125.225 9.84553 125.247 10.2051 125.248 10.5613C125.256 12.1797 125.252 13.7981 125.252 15.4165C125.252 15.4837 125.252 15.5509 125.252 15.6325C122.085 15.6325 118.933 15.6325 115.8 15.6325C115.8 16.104 115.779 16.5619 115.808 17.0166C115.823 17.2609 116.038 17.3823 116.263 17.4289C116.431 17.4636 116.606 17.4694 116.778 17.4696C118.909 17.4722 121.04 17.4713 123.189 17.4713ZM117.583 12.6338C119.073 12.6338 120.564 12.6338 122.064 12.6338C122.064 12.2402 122.081 11.8653 122.056 11.4933C122.046 11.3424 121.974 11.1766 121.881 11.0542C121.696 10.8089 121.393 10.8428 121.135 10.8404C119.655 10.8268 118.175 10.8327 116.694 10.8355C116.548 10.8357 116.396 10.8413 116.255 10.8761C116.033 10.9309 115.821 11.0501 115.806 11.2965C115.779 11.7381 115.798 12.1824 115.798 12.6338C116.373 12.6338 116.959 12.6338 117.583 12.6338Z" fill="#F2F4F5"/>
<path d="M38.5137 20.4716C37.8958 20.4716 37.2968 20.4716 36.6869 20.4716C36.6869 19.473 36.6869 18.4829 36.6869 17.4716C36.751 17.4716 36.8173 17.4716 36.8835 17.4716C39.6458 17.4716 42.408 17.4731 45.1702 17.4683C45.3633 17.468 45.5619 17.4417 45.748 17.3907C45.9827 17.3265 46.1218 17.116 46.1256 16.8723C46.1285 16.6849 46.1263 16.4973 46.1262 16.3098C46.1259 15.9661 45.9107 15.7108 45.5753 15.6737C45.3671 15.6507 45.1567 15.636 44.9472 15.6357C43.0162 15.6329 41.0851 15.6434 39.1541 15.6279C38.6332 15.6237 38.1118 15.5433 37.6384 15.2937C37.084 15.0013 36.7558 14.5126 36.7272 13.9139C36.6693 12.7007 36.6941 11.4837 36.673 10.2685C36.6663 9.87927 36.6858 9.50178 36.8167 9.12904C37.0059 8.5902 37.3765 8.24847 37.9024 8.05916C38.3429 7.90062 38.7996 7.83455 39.266 7.83445C42.5407 7.83373 45.8154 7.83406 49.09 7.83406C49.1579 7.83406 49.2257 7.83406 49.3034 7.83406C49.3034 8.83373 49.3034 9.82383 49.3034 10.8341C49.2376 10.8341 49.1712 10.8341 49.1048 10.8341C46.3426 10.8341 43.5804 10.8334 40.8182 10.8358C40.659 10.836 40.4967 10.847 40.3413 10.8789C40.0041 10.9483 39.8327 11.1734 39.8288 11.5512C39.8267 11.7538 39.836 11.9591 39.8684 12.1585C39.898 12.341 40.0115 12.4904 40.1903 12.55C40.3377 12.5993 40.4987 12.6302 40.6538 12.6306C42.6473 12.6358 44.6409 12.6261 46.6344 12.6392C47.1876 12.6429 47.7416 12.7127 48.2541 12.9481C48.8087 13.2027 49.116 13.6587 49.235 14.2431C49.2823 14.4757 49.3087 14.7165 49.3103 14.9538C49.3178 16.1099 49.3218 17.2662 49.3098 18.4222C49.3048 18.8985 49.1629 19.3394 48.8519 19.7163C48.5525 20.0792 48.1541 20.2701 47.7077 20.3537C47.3661 20.4178 47.0157 20.4654 46.6691 20.4666C43.9569 20.4756 41.2447 20.4716 38.5137 20.4716Z" fill="#F2F4F5"/>
<path d="M74.6637 17.7344C74.6637 15.1101 74.652 12.5044 74.6711 9.89893C74.6766 9.14579 74.9677 8.49244 75.6926 8.15467C76.0141 8.00484 76.3835 7.89666 76.7353 7.88391C77.9433 7.84012 79.1531 7.84117 80.3622 7.83588C81.7993 7.82958 83.2365 7.83597 84.6736 7.83357C85.203 7.83269 85.7272 7.89153 86.2103 8.10515C86.6235 8.28783 86.9501 8.58304 87.1185 9.0324C87.2824 9.46941 87.3358 9.92026 87.3366 10.3782C87.341 12.9775 87.3462 15.5769 87.3325 18.1762C87.3297 18.7041 87.2364 19.2228 86.8968 19.6705C86.7195 19.9042 86.497 20.0828 86.2452 20.1814C85.9175 20.3096 85.5577 20.42 85.2105 20.4239C82.477 20.4553 79.7431 20.4703 77.0094 20.4626C76.4677 20.4611 75.9225 20.348 75.4586 20.0214C75.0613 19.7416 74.8151 19.3525 74.7447 18.8761C74.6899 18.5059 74.6887 18.1278 74.6637 17.7344ZM77.8512 15.7281C77.8512 16.0969 77.8471 16.4657 77.8527 16.8343C77.8565 17.0885 77.9686 17.3327 78.2654 17.3971C78.4132 17.4291 78.564 17.4692 78.7132 17.4685C80.31 17.4614 81.907 17.4572 83.5034 17.4284C84.0167 17.4192 84.1382 17.18 84.1429 16.7607C84.1627 15.0235 84.1536 13.2859 84.1493 11.5485C84.1484 11.1782 83.9859 10.9679 83.6508 10.8843C83.5152 10.8505 83.3713 10.8358 83.2313 10.8366C81.6345 10.8456 80.0376 10.8585 78.4408 10.8727C78.1185 10.8755 77.8473 11.1159 77.8488 11.472C77.8547 12.8782 77.8512 14.2844 77.8512 15.7281Z" fill="#F2F4F5"/>
<path d="M89.6691 7.83379C90.6859 7.83379 91.6845 7.83379 92.7014 7.83379C92.7014 7.91193 92.7014 7.97857 92.7014 8.04522C92.7014 10.9449 92.7043 13.8447 92.6982 16.7444C92.6973 17.1793 92.9204 17.4321 93.352 17.4345C95.2237 17.4447 97.0954 17.4574 98.9671 17.4688C98.9721 17.4689 98.9772 17.4632 98.9973 17.4514C98.9973 14.2579 98.9973 11.0554 98.9973 7.84337C100.065 7.84337 101.117 7.84337 102.179 7.84337C102.179 12.0475 102.179 16.2498 102.179 20.4713C102.118 20.4713 102.058 20.4713 101.997 20.4713C98.6351 20.4713 95.2729 20.4786 91.9108 20.4641C91.3476 20.4616 90.7831 20.3561 90.3047 20.0186C89.9158 19.7442 89.6701 19.3571 89.5949 18.8884C89.5395 18.5436 89.5178 18.19 89.5172 17.8403C89.5116 14.5656 89.5138 11.2909 89.5142 8.01626C89.5142 7.92308 89.4795 7.80019 89.6691 7.83379Z" fill="#F2F4F5"/>
<path d="M105.642 20.4712C105.3 20.4712 104.975 20.4712 104.641 20.4712C104.641 15.5979 104.641 10.7333 104.641 5.85742C105.69 5.85742 106.742 5.85742 107.81 5.85742C107.81 6.50636 107.81 7.15909 107.81 7.82688C108.865 7.82688 109.906 7.82688 110.957 7.82688C110.957 8.83202 110.957 9.82208 110.957 10.8274C109.919 10.8274 108.879 10.8274 107.824 10.8274C107.824 14.0448 107.824 17.2471 107.824 20.4712C107.093 20.4712 106.377 20.4712 105.642 20.4712Z" fill="#F2F4F5"/>
<path d="M69.8291 17.2837C69.8291 18.3515 69.8291 19.4005 69.8291 20.4604C68.7682 20.4604 67.7157 20.4604 66.6523 20.4604C66.6523 16.2603 66.6523 12.058 66.6523 7.84473C68.7522 7.84473 70.8547 7.84473 72.9682 7.84473C72.9682 8.83186 72.9682 9.82195 72.9682 10.8273C71.9307 10.8273 70.8906 10.8273 69.8291 10.8273C69.8291 12.9833 69.8291 15.1241 69.8291 17.2837Z" fill="#F2F4F5"/>
<path d="M127.578 9.18397C127.578 8.72863 127.578 8.29203 127.578 7.84473C129.689 7.84473 131.792 7.84473 133.905 7.84473C133.905 8.83255 133.905 9.82263 133.905 10.8279C132.854 10.8279 131.802 10.8279 130.728 10.8279C130.728 12.4466 130.728 14.0501 130.728 15.6536C130.728 17.2525 130.728 18.8514 130.728 20.4608C129.679 20.4608 128.639 20.4608 127.578 20.4608C127.578 16.7091 127.578 12.9559 127.578 9.18397Z" fill="#F2F4F5"/>
<path d="M15.2285 19.5478C16.3207 19.5478 17.3941 19.5478 18.4737 19.5478C18.4737 18.6347 18.4737 17.719 18.4737 16.7829C18.3966 16.7829 18.3295 16.7829 18.2624 16.7829C15.8627 16.7829 13.4631 16.7829 11.0634 16.7829C10.0643 16.7829 9.06513 16.7825 8.066 16.7831C7.84622 16.7832 7.63158 16.7538 7.50529 16.5519C7.44266 16.4518 7.39601 16.3221 7.39566 16.2056C7.38921 14.1122 7.39033 12.0187 7.39161 9.92522C7.39182 9.58763 7.61627 9.33888 7.9401 9.33683C8.88992 9.3308 9.83981 9.33458 10.7897 9.3356C10.8387 9.33565 10.8877 9.34584 10.9529 9.35312C10.9529 9.00292 10.9528 8.65389 10.9529 8.30486C10.9529 7.81117 10.9509 7.31748 10.9538 6.82381C10.9558 6.4849 11.1801 6.25881 11.5161 6.25862C13.7658 6.25737 16.0155 6.25788 18.2652 6.25811C18.3003 6.25811 18.3354 6.2617 18.3969 6.26506C17.7105 7.44655 17.3567 8.70851 17.2435 10.0565C15.2797 10.0565 13.3146 10.0565 11.3392 10.0565C11.3392 10.9732 11.3392 11.8895 11.3392 12.8353C11.4035 12.8353 11.4686 12.8353 11.5337 12.8353C13.9333 12.8353 16.333 12.8362 18.7327 12.8349C19.7387 12.8343 20.7447 12.8282 21.7507 12.8262C22.2116 12.8253 22.4238 13.0393 22.4231 13.504C22.4204 15.5411 22.4171 17.5783 22.4128 19.6154C22.4119 20.0746 22.1988 20.2838 21.7374 20.284C20.8813 20.2843 20.0251 20.2845 19.169 20.2835C19.0757 20.2834 18.9825 20.2749 18.8672 20.2692C18.8672 20.3293 18.8672 20.3956 18.8672 20.462C18.8672 21.2431 18.8689 22.0242 18.8662 22.8054C18.8651 23.1338 18.6398 23.3594 18.3127 23.3595C15.3756 23.3607 12.4385 23.3603 9.50141 23.3603C9.46499 23.3603 9.42858 23.3603 9.35192 23.3603C9.37485 22.6482 9.30563 21.9334 9.44346 21.2611C9.60633 20.4666 10.2454 19.8137 11.1494 19.6169C11.4679 19.5476 11.8059 19.5531 12.1352 19.5506C13.16 19.543 14.1849 19.5478 15.2285 19.5478Z" fill="black"/>
<path d="M25.2409 6.82027C24.8753 7.63518 24.3947 8.35145 23.7044 8.90645C22.9227 9.53497 22.0044 9.84436 21.0284 10.0086C20.4638 10.1037 19.8956 10.1423 19.3237 10.1206C19.1068 10.1124 18.8902 10.097 18.6736 10.083C18.5633 10.0759 18.5189 10.0254 18.5238 9.90437C18.5485 9.28818 18.6926 8.69474 18.854 8.10458C19.1043 7.18994 19.5061 6.35049 20.1239 5.62503C20.7528 4.88652 21.5596 4.42001 22.4838 4.16413C23.4213 3.90453 24.3806 3.81176 25.3532 3.89254C25.4944 3.90427 25.6352 3.9233 25.7765 3.93036C25.8928 3.93616 25.9304 3.99647 25.9157 4.10111C25.8664 4.45226 25.8475 4.81158 25.758 5.15229C25.6115 5.71021 25.4187 6.25596 25.2409 6.82027Z" fill="black"/>
</svg>
