<svg width="24" height="24" viewBox="0 0 24 24" fill="none" xmlns="http://www.w3.org/2000/svg">
<rect width="24" height="24" rx="6" fill="#0F62FE"/>
<path d="M8.66553 11.3943L10.1199 12.1992V5.98974C10.1199 5.98974 10.5114 4.37988 12.059 4.37988C13.6067 4.37988 13.9982 6.33471 13.9982 6.33471L15.3314 5.52978C15.3314 5.52978 14.6042 3 11.9379 3C9.27151 3 8.66553 5.75976 8.66553 5.75976V11.3943Z" fill="white"/>
<path d="M10.9752 8.831L10.9732 10.4285L16.6302 7.30601C16.6302 7.30601 18.2937 6.81757 19.0719 8.08677C19.8502 9.35597 18.2661 10.6601 18.2661 10.6601L19.6698 11.3486C19.6698 11.3486 21.6089 9.48015 20.2681 7.29349C18.9273 5.10683 16.1083 5.99763 16.1083 5.99763L10.9752 8.831Z" fill="white"/>
<path d="M14.534 9.41139L13.0377 10.1439L18.5605 13.4757C18.5605 13.4757 19.7823 14.6529 18.9519 15.892C18.1215 17.1311 16.1728 16.3957 16.1728 16.3957L16.1734 17.895C16.1734 17.895 18.8136 18.6702 20.2442 16.5354C21.6749 14.4006 19.5454 12.4346 19.5454 12.4346L14.534 9.41139Z" fill="white"/>
<path d="M15.4482 12.5578L13.942 11.7393L13.942 18.0536C13.942 18.0536 13.5365 19.6907 11.9337 19.6907C10.3308 19.6907 9.92534 17.7028 9.92534 17.7028L8.54461 18.5214C8.54461 18.5214 9.29773 21.0939 12.0592 21.0939C14.8206 21.0939 15.4482 18.2875 15.4482 18.2875L15.4482 12.5578Z" fill="white"/>
<path d="M13.2405 15.0662L13.2379 13.4193L7.46792 16.566C7.46792 16.566 5.76993 17.0482 4.97118 15.7298C4.17243 14.4113 5.78681 13.0872 5.78681 13.0872L4.35078 12.3593C4.35078 12.3593 2.37538 14.2608 3.75152 16.5323C5.12767 18.8038 8.00485 17.9215 8.00485 17.9215L13.2405 15.0662Z" fill="white"/>
<path d="M9.63111 14.457L11.1607 13.6784L5.51576 10.3339C5.51576 10.3339 4.26705 9.14041 5.11603 7.85053C5.96501 6.56065 7.95691 7.28724 7.95691 7.28724L7.9565 5.74253C7.9565 5.74253 5.2578 4.98601 3.79511 7.2083C2.33243 9.4306 4.50886 11.4222 4.50886 11.4222L9.63111 14.457Z" fill="white"/>
</svg>
