<svg width="64" height="64" viewBox="0 0 64 64" fill="none" xmlns="http://www.w3.org/2000/svg">
<path d="M30.7891 5.83398H30.793L31.4277 5.84375C44.7131 6.20935 55.4056 17.1311 55.3877 30.4824C55.3799 36.5654 53.1377 42.129 49.459 46.4326L49.1582 46.7852L49.4863 47.1123L56.8672 54.4658V54.4668C57.7148 55.3122 57.7193 56.6809 56.8721 57.5303H56.8711C56.4489 57.9547 55.8958 58.167 55.3379 58.167C54.7844 58.167 54.2305 57.9571 53.8086 57.5352V57.5342L46.3096 50.0654L46 49.7568L45.6533 50.0225C41.5018 53.1936 36.3389 55.0989 30.7305 55.0996C27.62 55.0706 24.6613 54.5195 21.9121 53.4648H21.9131C20.8656 53.0601 20.3092 51.9335 20.5967 50.876L20.666 50.665C21.0947 49.5479 22.3435 48.9899 23.4648 49.416V49.417C25.7345 50.2903 28.1888 50.743 30.7461 50.7676H30.751C41.9204 50.7676 51.0373 41.6662 51.0537 30.4785C51.0673 19.3006 41.9741 10.1916 30.7842 10.167C29.5863 10.1648 28.6199 9.1925 28.6221 7.99609C28.6243 6.80007 29.5928 5.83398 30.7891 5.83398Z" fill="#BFBFBF" stroke="black"/>
<g opacity="0.4">
<path d="M7.49121 36.2207C8.17717 35.2374 9.5328 34.9894 10.5176 35.6748V35.6758C11.5002 36.3612 11.7424 37.7005 11.0625 38.6768L11.0576 38.6836L11.0498 38.6943L11.042 38.7041C10.6198 39.3081 9.94967 39.6298 9.2627 39.6299C8.83344 39.6299 8.4024 39.5041 8.02246 39.2393C7.04239 38.5524 6.80669 37.201 7.49121 36.2217V36.2207Z" fill="#BFBFBF" stroke="black"/>
<path d="M21.4287 8.10938C22.0434 7.08207 23.3799 6.73734 24.4092 7.35352C25.3745 7.93189 25.7292 9.12819 25.2646 10.1172L25.1602 10.3125L25.1445 10.3389L25.1436 10.3398C24.7391 11.0169 24.0235 11.3925 23.2852 11.3926C22.9063 11.3926 22.5207 11.2932 22.1719 11.083L22.1709 11.082C21.2089 10.5054 20.8572 9.30077 21.3242 8.30566L21.4287 8.10938Z" fill="#BFBFBF" stroke="black"/>
<path d="M6.80469 24.9355C7.41891 23.9111 8.75287 23.5648 9.78516 24.1807V24.1816C10.7481 24.7599 11.1029 25.9541 10.6377 26.9453L10.5342 27.1406L10.5176 27.167C10.1131 27.8418 9.39686 28.2178 8.6582 28.2178C8.27945 28.2177 7.89457 28.1183 7.5459 27.9082H7.54492C6.5843 27.3313 6.23194 26.1263 6.7002 25.1318L6.80469 24.9355Z" fill="#BFBFBF" stroke="black"/>
<path d="M11.8291 14.7324C12.3658 13.6615 13.6803 13.22 14.7422 13.751C15.8157 14.2878 16.2519 15.5777 15.7188 16.6445L15.7051 16.6719C15.3236 17.4319 14.5624 17.8699 13.7637 17.8701C13.4401 17.8701 13.1113 17.7963 12.7979 17.6396C11.728 17.1047 11.2938 15.8058 11.8291 14.7324Z" fill="#BFBFBF" stroke="black"/>
<path d="M13.6162 45.8184C14.2335 44.7909 15.5622 44.4458 16.5967 45.0615V45.0625C17.6265 45.6795 17.961 46.9999 17.3477 48.0215L17.332 48.0469C16.9248 48.7228 16.2082 49.0986 15.4697 49.0986C15.0937 49.0986 14.7074 48.9997 14.3574 48.791H14.3584C13.3321 48.1759 13.0009 46.8431 13.6162 45.8184Z" fill="#BFBFBF" stroke="black"/>
</g>
</svg>
