<svg width="49" height="48" viewBox="0 0 49 48" fill="none" xmlns="http://www.w3.org/2000/svg">
<path d="M24.6667 24H24.6867M36.6667 12H36.6867M12.6667 12H12.6867M36.6667 36H36.6867M12.6667 36H12.6867M14.2667 44H35.0667C38.4271 44 40.1072 44 41.3907 43.346C42.5197 42.7708 43.4375 41.8529 44.0128 40.7239C44.6667 39.4405 44.6667 37.7603 44.6667 34.4V13.6C44.6667 10.2397 44.6667 8.55953 44.0128 7.27606C43.4375 6.14708 42.5197 5.2292 41.3907 4.65396C40.1072 4 38.4271 4 35.0667 4H14.2667C10.9064 4 9.22628 4 7.94281 4.65396C6.81383 5.2292 5.89595 6.14708 5.32071 7.27606C4.66675 8.55953 4.66675 10.2397 4.66675 13.6V34.4C4.66675 37.7603 4.66675 39.4405 5.32071 40.7239C5.89595 41.8529 6.81383 42.7708 7.94281 43.346C9.22628 44 10.9064 44 14.2667 44ZM25.6667 24C25.6667 24.5523 25.219 25 24.6667 25C24.1145 25 23.6667 24.5523 23.6667 24C23.6667 23.4477 24.1145 23 24.6667 23C25.219 23 25.6667 23.4477 25.6667 24ZM34.6667 24C34.6667 29.5228 30.1896 34 24.6667 34C19.1439 34 14.6667 29.5228 14.6667 24C14.6667 18.4772 19.1439 14 24.6667 14C30.1896 14 34.6667 18.4772 34.6667 24Z" stroke="url(#paint0_linear_32146_4015)" stroke-width="1.5" stroke-linecap="round" stroke-linejoin="round"/>
<defs>
<linearGradient id="paint0_linear_32146_4015" x1="24.6667" y1="4" x2="24.6667" y2="44" gradientUnits="userSpaceOnUse">
<stop stop-color="#00FFCD"/>
<stop offset="1" stop-color="#00FF80"/>
</linearGradient>
</defs>
</svg>
