<svg width="504" height="504" viewBox="0 0 504 504" fill="none" xmlns="http://www.w3.org/2000/svg">
<g clip-path="url(#clip0_17829_61235)" filter="url(#filter0_b_17829_61235)">
<g filter="url(#filter1_f_17829_61235)">
<ellipse cx="265" cy="410.5" rx="207.5" ry="509" transform="rotate(-90 265 410.5)" fill="#00FFCD" fill-opacity="0.4"/>
</g>
<g filter="url(#filter2_d_17829_61235)">
<rect x="24" y="233" width="548" height="245" rx="19" fill="#181818" shape-rendering="crispEdges"/>
<rect x="24.5" y="233.5" width="547" height="244" rx="18.5" stroke="#25282D" shape-rendering="crispEdges"/>
<path d="M40.867 272V256.446H51.537V258.58H43.199V263.794H50.393V265.95H43.199V272H40.867ZM53.6399 272V260.406H55.9059V272H53.6399ZM54.7619 258.866C54.3219 258.866 53.9626 258.734 53.6839 258.47C53.4199 258.191 53.2879 257.839 53.2879 257.414C53.2879 256.989 53.4272 256.644 53.7059 256.38C53.9846 256.101 54.3366 255.962 54.7619 255.962C55.1579 255.962 55.5026 256.101 55.7959 256.38C56.1039 256.644 56.2579 256.989 56.2579 257.414C56.2579 257.839 56.1112 258.191 55.8179 258.47C55.5392 258.734 55.1872 258.866 54.7619 258.866ZM58.7102 272V260.406H60.8662L60.9762 262.034C61.2696 261.609 61.6216 261.271 62.0322 261.022C62.4429 260.758 62.8829 260.567 63.3522 260.45C63.8216 260.318 64.2762 260.252 64.7162 260.252C65.8309 260.252 66.7036 260.494 67.3342 260.978C67.9796 261.447 68.4342 262.085 68.6982 262.892C68.9769 263.684 69.1162 264.586 69.1162 265.598V272H66.8282V266.06C66.8282 265.591 66.7989 265.129 66.7402 264.674C66.6816 264.219 66.5569 263.816 66.3662 263.464C66.1902 263.097 65.9336 262.811 65.5962 262.606C65.2589 262.386 64.8042 262.276 64.2322 262.276C63.5282 262.276 62.9342 262.467 62.4502 262.848C61.9662 263.229 61.5996 263.743 61.3502 264.388C61.1009 265.033 60.9762 265.759 60.9762 266.566V272H58.7102ZM75.5117 272.132C74.9837 272.132 74.4704 272.066 73.9717 271.934C73.4877 271.787 73.055 271.575 72.6737 271.296C72.2924 271.003 71.9844 270.643 71.7497 270.218C71.5297 269.778 71.4197 269.265 71.4197 268.678C71.4197 267.974 71.5517 267.395 71.8157 266.94C72.0944 266.471 72.461 266.111 72.9157 265.862C73.3704 265.598 73.891 265.415 74.4777 265.312C75.079 265.195 75.7024 265.136 76.3477 265.136H79.1857C79.1857 264.564 79.0977 264.065 78.9217 263.64C78.7457 263.2 78.467 262.863 78.0857 262.628C77.719 262.379 77.2277 262.254 76.6117 262.254C76.245 262.254 75.893 262.298 75.5557 262.386C75.233 262.459 74.9544 262.584 74.7197 262.76C74.485 262.936 74.3237 263.171 74.2357 263.464H71.8597C71.9477 262.907 72.1457 262.43 72.4537 262.034C72.7617 261.623 73.143 261.286 73.5977 261.022C74.0524 260.758 74.5364 260.567 75.0497 260.45C75.5777 260.318 76.113 260.252 76.6557 260.252C78.3277 260.252 79.5304 260.743 80.2637 261.726C81.0117 262.694 81.3857 264.029 81.3857 265.73V272H79.4277L79.3397 270.526C79.0024 270.981 78.599 271.325 78.1297 271.56C77.675 271.795 77.2204 271.949 76.7657 272.022C76.311 272.095 75.893 272.132 75.5117 272.132ZM75.8637 270.218C76.5237 270.218 77.103 270.108 77.6017 269.888C78.1004 269.653 78.489 269.323 78.7677 268.898C79.0464 268.458 79.1857 267.945 79.1857 267.358V266.874H77.1177C76.6924 266.874 76.2744 266.889 75.8637 266.918C75.4677 266.933 75.101 266.991 74.7637 267.094C74.441 267.182 74.177 267.336 73.9717 267.556C73.781 267.776 73.6857 268.091 73.6857 268.502C73.6857 268.898 73.7884 269.221 73.9937 269.47C74.199 269.719 74.4704 269.91 74.8077 270.042C75.145 270.159 75.497 270.218 75.8637 270.218ZM84.1048 272V260.406H86.2608L86.3708 262.034C86.6641 261.609 87.0161 261.271 87.4268 261.022C87.8374 260.758 88.2774 260.567 88.7468 260.45C89.2161 260.318 89.6708 260.252 90.1108 260.252C91.2254 260.252 92.0981 260.494 92.7288 260.978C93.3741 261.447 93.8288 262.085 94.0928 262.892C94.3714 263.684 94.5108 264.586 94.5108 265.598V272H92.2228V266.06C92.2228 265.591 92.1934 265.129 92.1348 264.674C92.0761 264.219 91.9514 263.816 91.7608 263.464C91.5848 263.097 91.3281 262.811 90.9908 262.606C90.6534 262.386 90.1988 262.276 89.6268 262.276C88.9228 262.276 88.3288 262.467 87.8448 262.848C87.3608 263.229 86.9941 263.743 86.7448 264.388C86.4954 265.033 86.3708 265.759 86.3708 266.566V272H84.1048ZM102.248 272.132C101.031 272.132 100.012 271.883 99.1902 271.384C98.3836 270.885 97.7749 270.196 97.3642 269.316C96.9682 268.421 96.7702 267.395 96.7702 266.236C96.7702 265.092 96.9756 264.073 97.3862 263.178C97.8116 262.269 98.4422 261.557 99.2782 261.044C100.129 260.516 101.178 260.252 102.424 260.252C103.275 260.252 104.03 260.399 104.69 260.692C105.35 260.971 105.886 261.389 106.296 261.946C106.722 262.489 107 263.171 107.132 263.992H104.866C104.676 263.391 104.353 262.958 103.898 262.694C103.458 262.43 102.938 262.298 102.336 262.298C101.53 262.298 100.884 262.489 100.4 262.87C99.9309 263.251 99.5862 263.743 99.3662 264.344C99.1462 264.945 99.0362 265.576 99.0362 266.236C99.0362 266.925 99.1462 267.563 99.3662 268.15C99.6009 268.737 99.9529 269.213 100.422 269.58C100.906 269.932 101.537 270.108 102.314 270.108C102.901 270.108 103.444 269.983 103.942 269.734C104.441 269.47 104.764 269.03 104.91 268.414H107.242C107.11 269.265 106.802 269.969 106.318 270.526C105.834 271.069 105.233 271.472 104.514 271.736C103.81 272 103.055 272.132 102.248 272.132ZM109.435 272V260.406H111.701V272H109.435ZM110.557 258.866C110.117 258.866 109.757 258.734 109.479 258.47C109.215 258.191 109.083 257.839 109.083 257.414C109.083 256.989 109.222 256.644 109.501 256.38C109.779 256.101 110.131 255.962 110.557 255.962C110.953 255.962 111.297 256.101 111.591 256.38C111.899 256.644 112.053 256.989 112.053 257.414C112.053 257.839 111.906 258.191 111.613 258.47C111.334 258.734 110.982 258.866 110.557 258.866ZM118.201 272.132C117.673 272.132 117.16 272.066 116.661 271.934C116.177 271.787 115.744 271.575 115.363 271.296C114.982 271.003 114.674 270.643 114.439 270.218C114.219 269.778 114.109 269.265 114.109 268.678C114.109 267.974 114.241 267.395 114.505 266.94C114.784 266.471 115.15 266.111 115.605 265.862C116.06 265.598 116.58 265.415 117.167 265.312C117.768 265.195 118.392 265.136 119.037 265.136H121.875C121.875 264.564 121.787 264.065 121.611 263.64C121.435 263.2 121.156 262.863 120.775 262.628C120.408 262.379 119.917 262.254 119.301 262.254C118.934 262.254 118.582 262.298 118.245 262.386C117.922 262.459 117.644 262.584 117.409 262.76C117.174 262.936 117.013 263.171 116.925 263.464H114.549C114.637 262.907 114.835 262.43 115.143 262.034C115.451 261.623 115.832 261.286 116.287 261.022C116.742 260.758 117.226 260.567 117.739 260.45C118.267 260.318 118.802 260.252 119.345 260.252C121.017 260.252 122.22 260.743 122.953 261.726C123.701 262.694 124.075 264.029 124.075 265.73V272H122.117L122.029 270.526C121.692 270.981 121.288 271.325 120.819 271.56C120.364 271.795 119.91 271.949 119.455 272.022C119 272.095 118.582 272.132 118.201 272.132ZM118.553 270.218C119.213 270.218 119.792 270.108 120.291 269.888C120.79 269.653 121.178 269.323 121.457 268.898C121.736 268.458 121.875 267.945 121.875 267.358V266.874H119.807C119.382 266.874 118.964 266.889 118.553 266.918C118.157 266.933 117.79 266.991 117.453 267.094C117.13 267.182 116.866 267.336 116.661 267.556C116.47 267.776 116.375 268.091 116.375 268.502C116.375 268.898 116.478 269.221 116.683 269.47C116.888 269.719 117.16 269.91 117.497 270.042C117.834 270.159 118.186 270.218 118.553 270.218ZM126.794 272V256.446H129.06V272H126.794ZM144.04 272.176C143.028 272.176 142.074 272.029 141.18 271.736C140.285 271.443 139.53 270.966 138.914 270.306C138.298 269.646 137.887 268.773 137.682 267.688H140.08C140.27 268.304 140.578 268.788 141.004 269.14C141.429 269.477 141.92 269.712 142.478 269.844C143.05 269.976 143.622 270.042 144.194 270.042C144.736 270.042 145.242 269.969 145.712 269.822C146.196 269.675 146.592 269.433 146.9 269.096C147.208 268.759 147.362 268.319 147.362 267.776C147.362 267.365 147.281 267.028 147.12 266.764C146.958 266.5 146.731 266.287 146.438 266.126C146.159 265.95 145.822 265.811 145.426 265.708C144.971 265.561 144.48 265.437 143.952 265.334C143.438 265.231 142.925 265.114 142.412 264.982C141.913 264.85 141.444 264.681 141.004 264.476C140.637 264.329 140.278 264.153 139.926 263.948C139.588 263.728 139.295 263.471 139.046 263.178C138.796 262.87 138.591 262.511 138.43 262.1C138.283 261.689 138.21 261.22 138.21 260.692C138.21 259.988 138.32 259.387 138.54 258.888C138.774 258.389 139.075 257.971 139.442 257.634C139.823 257.297 140.256 257.033 140.74 256.842C141.238 256.637 141.759 256.49 142.302 256.402C142.844 256.314 143.372 256.27 143.886 256.27C144.824 256.27 145.69 256.417 146.482 256.71C147.274 257.003 147.926 257.473 148.44 258.118C148.968 258.749 149.254 259.585 149.298 260.626H147.032C146.973 260.069 146.782 259.629 146.46 259.306C146.152 258.969 145.763 258.734 145.294 258.602C144.824 258.455 144.326 258.382 143.798 258.382C143.416 258.382 143.035 258.419 142.654 258.492C142.272 258.551 141.92 258.668 141.598 258.844C141.29 259.005 141.04 259.225 140.85 259.504C140.674 259.783 140.586 260.127 140.586 260.538C140.586 260.89 140.659 261.205 140.806 261.484C140.952 261.748 141.158 261.975 141.422 262.166C141.7 262.342 142.008 262.496 142.346 262.628C142.962 262.863 143.636 263.046 144.37 263.178C145.103 263.295 145.792 263.464 146.438 263.684C146.907 263.831 147.347 264.014 147.758 264.234C148.168 264.439 148.52 264.696 148.814 265.004C149.107 265.297 149.334 265.649 149.496 266.06C149.657 266.456 149.738 266.918 149.738 267.446C149.738 268.311 149.584 269.052 149.276 269.668C148.968 270.269 148.55 270.753 148.022 271.12C147.494 271.487 146.885 271.758 146.196 271.934C145.506 272.095 144.788 272.176 144.04 272.176ZM156.806 272.132C155.559 272.132 154.664 271.795 154.122 271.12C153.594 270.431 153.33 269.47 153.33 268.238V262.43H151.482V260.406H153.33V257.04H155.596V260.406H159.138V262.43H155.596V267.864C155.596 268.275 155.632 268.649 155.706 268.986C155.794 269.323 155.955 269.587 156.19 269.778C156.424 269.969 156.762 270.071 157.202 270.086C157.539 270.086 157.832 270.027 158.082 269.91C158.346 269.793 158.558 269.661 158.72 269.514L159.6 271.208C159.321 271.428 159.028 271.611 158.72 271.758C158.426 271.89 158.118 271.985 157.796 272.044C157.473 272.103 157.143 272.132 156.806 272.132ZM164.93 272.132C164.402 272.132 163.888 272.066 163.39 271.934C162.906 271.787 162.473 271.575 162.092 271.296C161.71 271.003 161.402 270.643 161.168 270.218C160.948 269.778 160.838 269.265 160.838 268.678C160.838 267.974 160.97 267.395 161.234 266.94C161.512 266.471 161.879 266.111 162.334 265.862C162.788 265.598 163.309 265.415 163.896 265.312C164.497 265.195 165.12 265.136 165.766 265.136H168.604C168.604 264.564 168.516 264.065 168.34 263.64C168.164 263.2 167.885 262.863 167.504 262.628C167.137 262.379 166.646 262.254 166.03 262.254C165.663 262.254 165.311 262.298 164.974 262.386C164.651 262.459 164.372 262.584 164.138 262.76C163.903 262.936 163.742 263.171 163.654 263.464H161.278C161.366 262.907 161.564 262.43 161.872 262.034C162.18 261.623 162.561 261.286 163.016 261.022C163.47 260.758 163.954 260.567 164.468 260.45C164.996 260.318 165.531 260.252 166.074 260.252C167.746 260.252 168.948 260.743 169.682 261.726C170.43 262.694 170.804 264.029 170.804 265.73V272H168.846L168.758 270.526C168.42 270.981 168.017 271.325 167.548 271.56C167.093 271.795 166.638 271.949 166.184 272.022C165.729 272.095 165.311 272.132 164.93 272.132ZM165.282 270.218C165.942 270.218 166.521 270.108 167.02 269.888C167.518 269.653 167.907 269.323 168.186 268.898C168.464 268.458 168.604 267.945 168.604 267.358V266.874H166.536C166.11 266.874 165.692 266.889 165.282 266.918C164.886 266.933 164.519 266.991 164.182 267.094C163.859 267.182 163.595 267.336 163.39 267.556C163.199 267.776 163.104 268.091 163.104 268.502C163.104 268.898 163.206 269.221 163.412 269.47C163.617 269.719 163.888 269.91 164.226 270.042C164.563 270.159 164.915 270.218 165.282 270.218ZM178.407 272C177.497 272 176.757 271.875 176.185 271.626C175.613 271.362 175.187 270.951 174.909 270.394C174.645 269.837 174.513 269.111 174.513 268.216V262.43H172.687V260.406H174.513V257.062H176.779V260.406H179.705V262.43H176.779V267.93C176.779 268.619 176.903 269.14 177.153 269.492C177.402 269.829 177.923 269.998 178.715 269.998H179.617V272H178.407ZM181.644 272V260.406H183.91V272H181.644ZM182.766 258.866C182.326 258.866 181.966 258.734 181.688 258.47C181.424 258.191 181.292 257.839 181.292 257.414C181.292 256.989 181.431 256.644 181.71 256.38C181.988 256.101 182.34 255.962 182.766 255.962C183.162 255.962 183.506 256.101 183.8 256.38C184.108 256.644 184.262 256.989 184.262 257.414C184.262 257.839 184.115 258.191 183.822 258.47C183.543 258.734 183.191 258.866 182.766 258.866ZM191.048 272.132C190.505 272.132 189.963 272.081 189.42 271.978C188.877 271.875 188.371 271.692 187.902 271.428C187.433 271.164 187.037 270.812 186.714 270.372C186.391 269.917 186.186 269.36 186.098 268.7H188.408C188.525 269.052 188.731 269.338 189.024 269.558C189.332 269.778 189.669 269.939 190.036 270.042C190.417 270.145 190.791 270.196 191.158 270.196C191.378 270.196 191.62 270.181 191.884 270.152C192.163 270.123 192.427 270.057 192.676 269.954C192.925 269.851 193.131 269.705 193.292 269.514C193.453 269.309 193.534 269.037 193.534 268.7C193.534 268.436 193.461 268.216 193.314 268.04C193.182 267.864 192.991 267.725 192.742 267.622C192.507 267.505 192.221 267.417 191.884 267.358C191.224 267.211 190.513 267.072 189.75 266.94C189.002 266.793 188.342 266.544 187.77 266.192C187.565 266.06 187.381 265.913 187.22 265.752C187.059 265.576 186.919 265.378 186.802 265.158C186.685 264.938 186.597 264.703 186.538 264.454C186.479 264.205 186.45 263.933 186.45 263.64C186.45 263.039 186.567 262.525 186.802 262.1C187.051 261.675 187.389 261.33 187.814 261.066C188.239 260.787 188.723 260.582 189.266 260.45C189.809 260.318 190.381 260.252 190.982 260.252C191.759 260.252 192.463 260.377 193.094 260.626C193.725 260.875 194.245 261.242 194.656 261.726C195.067 262.21 195.309 262.819 195.382 263.552H193.248C193.16 263.156 192.903 262.841 192.478 262.606C192.067 262.357 191.547 262.232 190.916 262.232C190.696 262.232 190.454 262.247 190.19 262.276C189.941 262.305 189.699 262.371 189.464 262.474C189.229 262.577 189.039 262.723 188.892 262.914C188.745 263.09 188.672 263.325 188.672 263.618C188.672 263.897 188.738 264.131 188.87 264.322C189.017 264.513 189.222 264.667 189.486 264.784C189.765 264.901 190.08 264.997 190.432 265.07C190.931 265.187 191.466 265.297 192.038 265.4C192.625 265.503 193.101 265.613 193.468 265.73C193.952 265.862 194.363 266.053 194.7 266.302C195.052 266.551 195.316 266.867 195.492 267.248C195.683 267.629 195.778 268.091 195.778 268.634C195.778 269.338 195.639 269.917 195.36 270.372C195.081 270.812 194.707 271.164 194.238 271.428C193.783 271.692 193.27 271.875 192.698 271.978C192.141 272.081 191.591 272.132 191.048 272.132ZM202.598 272C201.689 272 200.948 271.875 200.376 271.626C199.804 271.362 199.379 270.951 199.1 270.394C198.836 269.837 198.704 269.111 198.704 268.216V262.43H196.878V260.406H198.704V257.062H200.97V260.406H203.896V262.43H200.97V267.93C200.97 268.619 201.095 269.14 201.344 269.492C201.593 269.829 202.114 269.998 202.906 269.998H203.808V272H202.598ZM205.835 272V260.406H208.101V272H205.835ZM206.957 258.866C206.517 258.866 206.158 258.734 205.879 258.47C205.615 258.191 205.483 257.839 205.483 257.414C205.483 256.989 205.623 256.644 205.901 256.38C206.18 256.101 206.532 255.962 206.957 255.962C207.353 255.962 207.698 256.101 207.991 256.38C208.299 256.644 208.453 256.989 208.453 257.414C208.453 257.839 208.307 258.191 208.013 258.47C207.735 258.734 207.383 258.866 206.957 258.866ZM215.944 272.132C214.726 272.132 213.707 271.883 212.886 271.384C212.079 270.885 211.47 270.196 211.06 269.316C210.664 268.421 210.466 267.395 210.466 266.236C210.466 265.092 210.671 264.073 211.082 263.178C211.507 262.269 212.138 261.557 212.974 261.044C213.824 260.516 214.873 260.252 216.12 260.252C216.97 260.252 217.726 260.399 218.386 260.692C219.046 260.971 219.581 261.389 219.992 261.946C220.417 262.489 220.696 263.171 220.828 263.992H218.562C218.371 263.391 218.048 262.958 217.594 262.694C217.154 262.43 216.633 262.298 216.032 262.298C215.225 262.298 214.58 262.489 214.096 262.87C213.626 263.251 213.282 263.743 213.062 264.344C212.842 264.945 212.732 265.576 212.732 266.236C212.732 266.925 212.842 267.563 213.062 268.15C213.296 268.737 213.648 269.213 214.118 269.58C214.602 269.932 215.232 270.108 216.01 270.108C216.596 270.108 217.139 269.983 217.638 269.734C218.136 269.47 218.459 269.03 218.606 268.414H220.938C220.806 269.265 220.498 269.969 220.014 270.526C219.53 271.069 218.928 271.472 218.21 271.736C217.506 272 216.75 272.132 215.944 272.132ZM227.464 272.132C226.921 272.132 226.379 272.081 225.836 271.978C225.293 271.875 224.787 271.692 224.318 271.428C223.849 271.164 223.453 270.812 223.13 270.372C222.807 269.917 222.602 269.36 222.514 268.7H224.824C224.941 269.052 225.147 269.338 225.44 269.558C225.748 269.778 226.085 269.939 226.452 270.042C226.833 270.145 227.207 270.196 227.574 270.196C227.794 270.196 228.036 270.181 228.3 270.152C228.579 270.123 228.843 270.057 229.092 269.954C229.341 269.851 229.547 269.705 229.708 269.514C229.869 269.309 229.95 269.037 229.95 268.7C229.95 268.436 229.877 268.216 229.73 268.04C229.598 267.864 229.407 267.725 229.158 267.622C228.923 267.505 228.637 267.417 228.3 267.358C227.64 267.211 226.929 267.072 226.166 266.94C225.418 266.793 224.758 266.544 224.186 266.192C223.981 266.06 223.797 265.913 223.636 265.752C223.475 265.576 223.335 265.378 223.218 265.158C223.101 264.938 223.013 264.703 222.954 264.454C222.895 264.205 222.866 263.933 222.866 263.64C222.866 263.039 222.983 262.525 223.218 262.1C223.467 261.675 223.805 261.33 224.23 261.066C224.655 260.787 225.139 260.582 225.682 260.45C226.225 260.318 226.797 260.252 227.398 260.252C228.175 260.252 228.879 260.377 229.51 260.626C230.141 260.875 230.661 261.242 231.072 261.726C231.483 262.21 231.725 262.819 231.798 263.552H229.664C229.576 263.156 229.319 262.841 228.894 262.606C228.483 262.357 227.963 262.232 227.332 262.232C227.112 262.232 226.87 262.247 226.606 262.276C226.357 262.305 226.115 262.371 225.88 262.474C225.645 262.577 225.455 262.723 225.308 262.914C225.161 263.09 225.088 263.325 225.088 263.618C225.088 263.897 225.154 264.131 225.286 264.322C225.433 264.513 225.638 264.667 225.902 264.784C226.181 264.901 226.496 264.997 226.848 265.07C227.347 265.187 227.882 265.297 228.454 265.4C229.041 265.503 229.517 265.613 229.884 265.73C230.368 265.862 230.779 266.053 231.116 266.302C231.468 266.551 231.732 266.867 231.908 267.248C232.099 267.629 232.194 268.091 232.194 268.634C232.194 269.338 232.055 269.917 231.776 270.372C231.497 270.812 231.123 271.164 230.654 271.428C230.199 271.692 229.686 271.875 229.114 271.978C228.557 272.081 228.007 272.132 227.464 272.132Z" fill="white"/>
<rect x="343" y="248" width="129" height="34" rx="10" fill="#00A47E" fill-opacity="0.14"/>
<path d="M354.419 270V260.102H358.325C358.829 260.102 359.305 260.153 359.753 260.256C360.201 260.349 360.597 260.517 360.943 260.76C361.288 260.993 361.559 261.315 361.755 261.726C361.951 262.137 362.049 262.645 362.049 263.252C362.049 263.756 361.96 264.199 361.783 264.582C361.605 264.965 361.358 265.287 361.041 265.548C360.733 265.809 360.364 266.01 359.935 266.15L362.105 270H360.145L358.199 266.43H356.169V270H354.419ZM356.169 264.876H358.087C358.404 264.876 358.693 264.853 358.955 264.806C359.225 264.75 359.459 264.661 359.655 264.54C359.86 264.419 360.014 264.255 360.117 264.05C360.229 263.835 360.289 263.565 360.299 263.238C360.299 262.846 360.215 262.538 360.047 262.314C359.888 262.09 359.655 261.931 359.347 261.838C359.048 261.745 358.689 261.698 358.269 261.698H356.169V264.876ZM366.808 270.098C366.042 270.098 365.389 269.939 364.848 269.622C364.316 269.305 363.91 268.866 363.63 268.306C363.359 267.737 363.224 267.079 363.224 266.332C363.224 265.585 363.364 264.927 363.644 264.358C363.933 263.779 364.344 263.327 364.876 263C365.417 262.673 366.066 262.51 366.822 262.51C367.382 262.51 367.872 262.613 368.292 262.818C368.712 263.014 369.062 263.285 369.342 263.63C369.631 263.975 369.846 264.367 369.986 264.806C370.126 265.245 370.191 265.707 370.182 266.192C370.172 266.304 370.163 266.416 370.154 266.528C370.144 266.631 370.13 266.743 370.112 266.864H364.932C364.96 267.191 365.044 267.489 365.184 267.76C365.333 268.031 365.538 268.245 365.8 268.404C366.07 268.563 366.406 268.642 366.808 268.642C367.041 268.642 367.265 268.614 367.48 268.558C367.694 268.493 367.881 268.399 368.04 268.278C368.208 268.157 368.32 268.003 368.376 267.816H370.084C369.962 268.348 369.738 268.782 369.412 269.118C369.085 269.454 368.693 269.701 368.236 269.86C367.788 270.019 367.312 270.098 366.808 270.098ZM364.96 265.59H368.516C368.516 265.282 368.446 265.002 368.306 264.75C368.166 264.498 367.965 264.302 367.704 264.162C367.452 264.013 367.144 263.938 366.78 263.938C366.388 263.938 366.061 264.017 365.8 264.176C365.538 264.335 365.338 264.54 365.198 264.792C365.058 265.044 364.978 265.31 364.96 265.59ZM373.419 270L370.745 262.622H372.635L374.581 268.544L376.513 262.622H378.389L375.715 270H373.419ZM382.544 270.098C381.779 270.098 381.125 269.939 380.584 269.622C380.052 269.305 379.646 268.866 379.366 268.306C379.095 267.737 378.96 267.079 378.96 266.332C378.96 265.585 379.1 264.927 379.38 264.358C379.669 263.779 380.08 263.327 380.612 263C381.153 262.673 381.802 262.51 382.558 262.51C383.118 262.51 383.608 262.613 384.028 262.818C384.448 263.014 384.798 263.285 385.078 263.63C385.367 263.975 385.582 264.367 385.722 264.806C385.862 265.245 385.927 265.707 385.918 266.192C385.909 266.304 385.899 266.416 385.89 266.528C385.881 266.631 385.867 266.743 385.848 266.864H380.668C380.696 267.191 380.78 267.489 380.92 267.76C381.069 268.031 381.275 268.245 381.536 268.404C381.807 268.563 382.143 268.642 382.544 268.642C382.777 268.642 383.001 268.614 383.216 268.558C383.431 268.493 383.617 268.399 383.776 268.278C383.944 268.157 384.056 268.003 384.112 267.816H385.82C385.699 268.348 385.475 268.782 385.148 269.118C384.821 269.454 384.429 269.701 383.972 269.86C383.524 270.019 383.048 270.098 382.544 270.098ZM380.696 265.59H384.252C384.252 265.282 384.182 265.002 384.042 264.75C383.902 264.498 383.701 264.302 383.44 264.162C383.188 264.013 382.88 263.938 382.516 263.938C382.124 263.938 381.797 264.017 381.536 264.176C381.275 264.335 381.074 264.54 380.934 264.792C380.794 265.044 380.715 265.31 380.696 265.59ZM387.279 270V262.622H388.875L388.973 263.56C389.169 263.299 389.398 263.093 389.659 262.944C389.92 262.795 390.196 262.687 390.485 262.622C390.774 262.547 391.045 262.51 391.297 262.51C391.997 262.51 392.548 262.664 392.949 262.972C393.36 263.28 393.649 263.691 393.817 264.204C393.985 264.717 394.069 265.291 394.069 265.926V270H392.361V266.206C392.361 265.935 392.342 265.674 392.305 265.422C392.268 265.161 392.193 264.927 392.081 264.722C391.978 264.517 391.829 264.353 391.633 264.232C391.437 264.111 391.176 264.05 390.849 264.05C390.448 264.05 390.107 264.157 389.827 264.372C389.547 264.587 389.337 264.876 389.197 265.24C389.057 265.595 388.987 266.001 388.987 266.458V270H387.279ZM398.936 270.098C397.872 270.098 397.055 269.823 396.486 269.272C395.926 268.721 395.646 267.881 395.646 266.752V262.622H397.354V266.64C397.354 267.032 397.405 267.373 397.508 267.662C397.62 267.951 397.792 268.175 398.026 268.334C398.268 268.483 398.572 268.558 398.936 268.558C399.328 268.558 399.636 268.479 399.86 268.32C400.093 268.152 400.256 267.923 400.35 267.634C400.443 267.345 400.49 267.013 400.49 266.64V262.622H402.198V266.752C402.198 267.909 401.908 268.759 401.33 269.3C400.76 269.832 399.962 270.098 398.936 270.098ZM407.126 270.098C406.361 270.098 405.707 269.939 405.166 269.622C404.634 269.305 404.228 268.866 403.948 268.306C403.677 267.737 403.542 267.079 403.542 266.332C403.542 265.585 403.682 264.927 403.962 264.358C404.251 263.779 404.662 263.327 405.194 263C405.735 262.673 406.384 262.51 407.14 262.51C407.7 262.51 408.19 262.613 408.61 262.818C409.03 263.014 409.38 263.285 409.66 263.63C409.949 263.975 410.164 264.367 410.304 264.806C410.444 265.245 410.509 265.707 410.5 266.192C410.491 266.304 410.481 266.416 410.472 266.528C410.463 266.631 410.449 266.743 410.43 266.864H405.25C405.278 267.191 405.362 267.489 405.502 267.76C405.651 268.031 405.857 268.245 406.118 268.404C406.389 268.563 406.725 268.642 407.126 268.642C407.359 268.642 407.583 268.614 407.798 268.558C408.013 268.493 408.199 268.399 408.358 268.278C408.526 268.157 408.638 268.003 408.694 267.816H410.402C410.281 268.348 410.057 268.782 409.73 269.118C409.403 269.454 409.011 269.701 408.554 269.86C408.106 270.019 407.63 270.098 407.126 270.098ZM405.278 265.59H408.834C408.834 265.282 408.764 265.002 408.624 264.75C408.484 264.498 408.283 264.302 408.022 264.162C407.77 264.013 407.462 263.938 407.098 263.938C406.706 263.938 406.379 264.017 406.118 264.176C405.857 264.335 405.656 264.54 405.516 264.792C405.376 265.044 405.297 265.31 405.278 265.59ZM412.351 272.002L411.861 271.26C412.001 271.185 412.146 271.078 412.295 270.938C412.444 270.807 412.58 270.658 412.701 270.49C412.832 270.331 412.92 270.187 412.967 270.056C412.696 270.028 412.463 269.93 412.267 269.762C412.08 269.585 411.987 269.337 411.987 269.02C411.987 268.693 412.099 268.437 412.323 268.25C412.547 268.063 412.799 267.97 413.079 267.97C413.434 267.97 413.714 268.105 413.919 268.376C414.124 268.637 414.227 268.983 414.227 269.412C414.227 269.795 414.134 270.163 413.947 270.518C413.77 270.873 413.536 271.181 413.247 271.442C412.967 271.703 412.668 271.89 412.351 272.002ZM422.296 271.96V270.014C421.773 269.939 421.288 269.79 420.84 269.566C420.392 269.342 420.018 269.029 419.72 268.628C419.43 268.217 419.239 267.709 419.146 267.102H420.924C421.036 267.466 421.213 267.751 421.456 267.956C421.708 268.161 421.997 268.306 422.324 268.39C422.66 268.474 423.005 268.516 423.36 268.516C423.686 268.516 423.985 268.474 424.256 268.39C424.536 268.306 424.76 268.171 424.928 267.984C425.105 267.797 425.194 267.559 425.194 267.27C425.194 267.027 425.138 266.831 425.026 266.682C424.923 266.533 424.778 266.411 424.592 266.318C424.414 266.225 424.204 266.145 423.962 266.08C423.588 265.968 423.224 265.879 422.87 265.814C422.524 265.739 422.193 265.66 421.876 265.576C421.568 265.492 421.274 265.385 420.994 265.254C420.536 265.03 420.168 264.731 419.888 264.358C419.617 263.985 419.482 263.471 419.482 262.818C419.482 262.23 419.617 261.74 419.888 261.348C420.158 260.947 420.513 260.639 420.952 260.424C421.39 260.2 421.862 260.069 422.366 260.032V258.114H424.004V260.06C424.508 260.116 424.96 260.261 425.362 260.494C425.763 260.727 426.085 261.045 426.328 261.446C426.57 261.838 426.696 262.314 426.706 262.874H424.998C424.97 262.566 424.862 262.314 424.676 262.118C424.498 261.922 424.27 261.782 423.99 261.698C423.71 261.605 423.402 261.558 423.066 261.558C422.776 261.558 422.487 261.595 422.198 261.67C421.918 261.735 421.684 261.857 421.498 262.034C421.32 262.202 421.232 262.445 421.232 262.762C421.232 262.958 421.278 263.135 421.372 263.294C421.465 263.443 421.591 263.569 421.75 263.672C421.908 263.775 422.09 263.859 422.296 263.924C422.641 264.055 423.024 264.162 423.444 264.246C423.864 264.33 424.256 264.428 424.62 264.54C425.096 264.671 425.506 264.834 425.852 265.03C426.206 265.217 426.477 265.473 426.664 265.8C426.86 266.117 426.958 266.533 426.958 267.046C426.958 267.699 426.822 268.236 426.552 268.656C426.281 269.076 425.917 269.403 425.46 269.636C425.002 269.869 424.494 270.009 423.934 270.056V271.96H422.296Z" fill="#00A47E"/>
<path d="M444 262L450 268L456 262" stroke="#00A47E" stroke-width="2" stroke-linecap="round" stroke-linejoin="round"/>
<rect x="476" y="248" width="81" height="34" rx="10" fill="#00A47E" fill-opacity="0.14"/>
<path d="M487.303 270V260.102H490.957C491.993 260.102 492.871 260.303 493.589 260.704C494.308 261.096 494.854 261.665 495.227 262.412C495.61 263.149 495.801 264.036 495.801 265.072C495.801 266.089 495.615 266.967 495.241 267.704C494.877 268.441 494.336 269.011 493.617 269.412C492.899 269.804 492.017 270 490.971 270H487.303ZM489.053 268.404H490.929C491.667 268.404 492.259 268.264 492.707 267.984C493.165 267.695 493.496 267.303 493.701 266.808C493.916 266.304 494.023 265.721 494.023 265.058C494.023 264.414 493.921 263.84 493.715 263.336C493.51 262.832 493.179 262.435 492.721 262.146C492.273 261.847 491.681 261.698 490.943 261.698H489.053V268.404ZM499.547 270.098C499.202 270.098 498.875 270.051 498.567 269.958C498.259 269.865 497.984 269.729 497.741 269.552C497.498 269.365 497.302 269.137 497.153 268.866C497.013 268.586 496.943 268.259 496.943 267.886C496.943 267.41 497.036 267.023 497.223 266.724C497.41 266.416 497.662 266.183 497.979 266.024C498.306 265.865 498.674 265.758 499.085 265.702C499.496 265.637 499.925 265.604 500.373 265.604H501.815C501.815 265.277 501.764 264.997 501.661 264.764C501.558 264.521 501.395 264.33 501.171 264.19C500.956 264.05 500.676 263.98 500.331 263.98C500.107 263.98 499.897 264.008 499.701 264.064C499.514 264.111 499.351 264.19 499.211 264.302C499.08 264.405 498.987 264.54 498.931 264.708H497.181C497.246 264.325 497.377 263.999 497.573 263.728C497.778 263.448 498.026 263.219 498.315 263.042C498.614 262.865 498.94 262.734 499.295 262.65C499.65 262.557 500.009 262.51 500.373 262.51C501.446 262.51 502.226 262.818 502.711 263.434C503.206 264.05 503.453 264.913 503.453 266.024V270H501.941L501.899 269.048C501.684 269.365 501.428 269.599 501.129 269.748C500.83 269.897 500.541 269.991 500.261 270.028C499.981 270.075 499.743 270.098 499.547 270.098ZM499.883 268.712C500.256 268.712 500.588 268.642 500.877 268.502C501.166 268.362 501.395 268.166 501.563 267.914C501.74 267.662 501.829 267.373 501.829 267.046V266.808H500.485C500.261 266.808 500.037 266.817 499.813 266.836C499.598 266.845 499.402 266.883 499.225 266.948C499.048 267.004 498.903 267.093 498.791 267.214C498.688 267.335 498.637 267.508 498.637 267.732C498.637 267.956 498.693 268.138 498.805 268.278C498.926 268.418 499.08 268.525 499.267 268.6C499.463 268.675 499.668 268.712 499.883 268.712ZM508.346 273.374C507.776 273.374 507.221 273.295 506.68 273.136C506.148 272.987 505.653 272.73 505.196 272.366L505.812 270.994C506.129 271.246 506.484 271.442 506.876 271.582C507.268 271.731 507.697 271.806 508.164 271.806C508.901 271.806 509.438 271.619 509.774 271.246C510.119 270.873 510.292 270.364 510.292 269.72V269.174C510.124 269.389 509.918 269.566 509.676 269.706C509.433 269.846 509.172 269.949 508.892 270.014C508.612 270.079 508.327 270.112 508.038 270.112C507.319 270.112 506.745 269.967 506.316 269.678C505.896 269.379 505.592 268.973 505.406 268.46C505.219 267.937 505.126 267.345 505.126 266.682V262.622H506.82V266.304C506.82 266.565 506.838 266.831 506.876 267.102C506.913 267.373 506.988 267.62 507.1 267.844C507.212 268.068 507.375 268.25 507.59 268.39C507.814 268.521 508.108 268.586 508.472 268.586C508.948 268.586 509.316 268.469 509.578 268.236C509.839 268.003 510.016 267.699 510.11 267.326C510.212 266.953 510.264 266.556 510.264 266.136V262.622H511.972V269.3C511.972 269.925 511.906 270.485 511.776 270.98C511.645 271.484 511.435 271.913 511.146 272.268C510.856 272.623 510.483 272.893 510.026 273.08C509.568 273.276 509.008 273.374 508.346 273.374Z" fill="#00A47E"/>
<path d="M64.4863 440.45H535.604" stroke="#25282D" stroke-dasharray="4 2"/>
<path d="M64.4863 405.602H535.604" stroke="#25282D" stroke-dasharray="4 2"/>
<path d="M64.4863 370.757H535.604" stroke="#25282D" stroke-dasharray="4 2"/>
<path d="M64.4863 335.904H535.604" stroke="#25282D" stroke-dasharray="4 2"/>
<path d="M64.4863 301.05H535.604" stroke="#25282D" stroke-dasharray="4 2"/>
<path d="M64.8613 300.848V440.656" stroke="#25282D" stroke-dasharray="4 2"/>
<path d="M143.254 300.848V440.656" stroke="#25282D" stroke-dasharray="4 2"/>
<path d="M221.652 300.848V440.656" stroke="#25282D" stroke-dasharray="4 2"/>
<path d="M300.041 300.848V440.656" stroke="#25282D" stroke-dasharray="4 2"/>
<path d="M378.439 300.848V440.656" stroke="#25282D" stroke-dasharray="4 2"/>
<path d="M456.83 300.848V440.656" stroke="#25282D" stroke-dasharray="4 2"/>
<path d="M62.0985 437.724V439.024C62.0985 439.724 62.036 440.313 61.911 440.794C61.786 441.274 61.6063 441.661 61.3719 441.954C61.1376 442.247 60.8544 442.46 60.5223 442.593C60.1942 442.722 59.8231 442.786 59.409 442.786C59.0809 442.786 58.7782 442.745 58.5008 442.663C58.2235 442.581 57.9735 442.45 57.7508 442.271C57.5321 442.087 57.3446 441.849 57.1883 441.556C57.0321 441.263 56.9129 440.907 56.8309 440.489C56.7489 440.071 56.7079 439.583 56.7079 439.024V437.724C56.7079 437.024 56.7704 436.438 56.8954 435.966C57.0243 435.493 57.2059 435.114 57.4403 434.829C57.6747 434.54 57.9559 434.333 58.284 434.208C58.6161 434.083 58.9872 434.021 59.3973 434.021C59.7294 434.021 60.034 434.062 60.3114 434.144C60.5926 434.222 60.8426 434.349 61.0614 434.524C61.2801 434.696 61.4657 434.927 61.618 435.216C61.7743 435.501 61.8934 435.851 61.9754 436.265C62.0575 436.679 62.0985 437.165 62.0985 437.724ZM61.0087 439.2V437.542C61.0087 437.159 60.9852 436.823 60.9383 436.534C60.8954 436.241 60.8309 435.991 60.745 435.784C60.659 435.577 60.5497 435.409 60.4169 435.28C60.2879 435.151 60.1376 435.058 59.9657 434.999C59.7977 434.937 59.6083 434.905 59.3973 434.905C59.1395 434.905 58.911 434.954 58.7118 435.052C58.5126 435.146 58.3446 435.296 58.2079 435.503C58.0751 435.71 57.9735 435.981 57.9032 436.317C57.8329 436.653 57.7977 437.062 57.7977 437.542V439.2C57.7977 439.583 57.8192 439.921 57.8622 440.214C57.909 440.507 57.9774 440.761 58.0672 440.976C58.1571 441.187 58.2665 441.36 58.3954 441.497C58.5243 441.634 58.6727 441.735 58.8407 441.802C59.0126 441.864 59.202 441.896 59.409 441.896C59.6747 441.896 59.9071 441.845 60.1063 441.743C60.3055 441.642 60.4715 441.483 60.6044 441.269C60.7411 441.05 60.8426 440.771 60.909 440.431C60.9754 440.087 61.0087 439.677 61.0087 439.2Z" fill="white"/>
<path d="M56.1339 408.373V409.264H50.5499V408.484L53.3448 405.373C53.6886 404.99 53.9542 404.666 54.1417 404.4C54.3331 404.131 54.4659 403.891 54.5401 403.68C54.6182 403.465 54.6573 403.246 54.6573 403.023C54.6573 402.742 54.5987 402.488 54.4815 402.262C54.3682 402.031 54.2003 401.848 53.9776 401.711C53.755 401.574 53.4854 401.506 53.169 401.506C52.7901 401.506 52.4737 401.58 52.2198 401.729C51.9698 401.873 51.7823 402.076 51.6573 402.338C51.5323 402.6 51.4698 402.9 51.4698 403.24H50.3858C50.3858 402.76 50.4913 402.32 50.7022 401.922C50.9132 401.523 51.2257 401.207 51.6397 400.973C52.0538 400.734 52.5636 400.615 53.169 400.615C53.7081 400.615 54.169 400.711 54.5518 400.902C54.9346 401.09 55.2276 401.355 55.4307 401.699C55.6378 402.039 55.7413 402.438 55.7413 402.895C55.7413 403.145 55.6983 403.398 55.6124 403.656C55.5304 403.91 55.4151 404.164 55.2667 404.418C55.1221 404.672 54.9522 404.922 54.7569 405.168C54.5655 405.414 54.3604 405.656 54.1417 405.895L51.8565 408.373H56.1339ZM58.6651 405.203L57.7979 404.98L58.2257 400.732H62.6026V401.734H59.1456L58.8878 404.055C59.044 403.965 59.2413 403.881 59.4796 403.803C59.7218 403.725 59.9991 403.686 60.3116 403.686C60.7061 403.686 61.0596 403.754 61.3721 403.891C61.6846 404.023 61.9503 404.215 62.169 404.465C62.3917 404.715 62.5616 405.016 62.6788 405.367C62.796 405.719 62.8546 406.111 62.8546 406.545C62.8546 406.955 62.7979 407.332 62.6846 407.676C62.5753 408.02 62.4093 408.32 62.1866 408.578C61.9639 408.832 61.6827 409.029 61.3429 409.17C61.0069 409.311 60.6104 409.381 60.1534 409.381C59.8096 409.381 59.4835 409.334 59.1749 409.24C58.8702 409.143 58.5968 408.996 58.3546 408.801C58.1163 408.602 57.921 408.355 57.7686 408.062C57.6202 407.766 57.5264 407.418 57.4874 407.02H58.5186C58.5655 407.34 58.6593 407.609 58.7999 407.828C58.9405 408.047 59.1241 408.213 59.3507 408.326C59.5811 408.436 59.8487 408.49 60.1534 408.49C60.4112 408.49 60.6397 408.445 60.8389 408.355C61.0382 408.266 61.2061 408.137 61.3429 407.969C61.4796 407.801 61.5831 407.598 61.6534 407.359C61.7276 407.121 61.7647 406.854 61.7647 406.557C61.7647 406.287 61.7276 406.037 61.6534 405.807C61.5792 405.576 61.4679 405.375 61.3194 405.203C61.1749 405.031 60.9971 404.898 60.7862 404.805C60.5753 404.707 60.3331 404.658 60.0596 404.658C59.6964 404.658 59.421 404.707 59.2335 404.805C59.0499 404.902 58.8604 405.035 58.6651 405.203Z" fill="white"/>
<path d="M51.9158 370.786L51.0486 370.563L51.4763 366.315H55.8533V367.317H52.3962L52.1384 369.638C52.2947 369.548 52.4919 369.464 52.7302 369.386C52.9724 369.308 53.2497 369.269 53.5622 369.269C53.9568 369.269 54.3103 369.337 54.6228 369.474C54.9353 369.606 55.2009 369.798 55.4197 370.048C55.6423 370.298 55.8122 370.599 55.9294 370.95C56.0466 371.302 56.1052 371.694 56.1052 372.128C56.1052 372.538 56.0486 372.915 55.9353 373.259C55.8259 373.603 55.6599 373.903 55.4372 374.161C55.2146 374.415 54.9333 374.612 54.5935 374.753C54.2575 374.894 53.8611 374.964 53.404 374.964C53.0603 374.964 52.7341 374.917 52.4255 374.823C52.1208 374.726 51.8474 374.579 51.6052 374.384C51.3669 374.185 51.1716 373.938 51.0193 373.646C50.8708 373.349 50.7771 373.001 50.738 372.603H51.7693C51.8161 372.923 51.9099 373.192 52.0505 373.411C52.1911 373.63 52.3747 373.796 52.6013 373.909C52.8318 374.019 53.0993 374.073 53.404 374.073C53.6618 374.073 53.8904 374.028 54.0896 373.938C54.2888 373.849 54.4568 373.72 54.5935 373.552C54.7302 373.384 54.8337 373.181 54.904 372.942C54.9783 372.704 55.0154 372.437 55.0154 372.14C55.0154 371.87 54.9783 371.62 54.904 371.39C54.8298 371.159 54.7185 370.958 54.57 370.786C54.4255 370.614 54.2478 370.481 54.0368 370.388C53.8259 370.29 53.5837 370.241 53.3103 370.241C52.947 370.241 52.6716 370.29 52.4841 370.388C52.3005 370.485 52.1111 370.618 51.9158 370.786ZM62.6501 369.901V371.202C62.6501 371.901 62.5876 372.491 62.4626 372.972C62.3376 373.452 62.1579 373.839 61.9236 374.132C61.6892 374.425 61.406 374.638 61.074 374.771C60.7458 374.899 60.3747 374.964 59.9607 374.964C59.6325 374.964 59.3298 374.923 59.0525 374.841C58.7751 374.759 58.5251 374.628 58.3025 374.448C58.0837 374.265 57.8962 374.026 57.74 373.733C57.5837 373.44 57.4646 373.085 57.3825 372.667C57.3005 372.249 57.2595 371.761 57.2595 371.202V369.901C57.2595 369.202 57.322 368.616 57.447 368.144C57.5759 367.671 57.7575 367.292 57.9919 367.007C58.2263 366.718 58.5075 366.511 58.8357 366.386C59.1677 366.261 59.5388 366.198 59.949 366.198C60.281 366.198 60.5857 366.239 60.863 366.321C61.1443 366.399 61.3943 366.526 61.613 366.702C61.8318 366.874 62.0173 367.104 62.1697 367.394C62.3259 367.679 62.445 368.028 62.5271 368.442C62.6091 368.856 62.6501 369.343 62.6501 369.901ZM61.5603 371.378V369.72C61.5603 369.337 61.5368 369.001 61.49 368.712C61.447 368.419 61.3825 368.169 61.2966 367.962C61.2107 367.755 61.1013 367.587 60.9685 367.458C60.8396 367.329 60.6892 367.235 60.5173 367.177C60.3493 367.114 60.1599 367.083 59.949 367.083C59.6911 367.083 59.4626 367.132 59.2634 367.229C59.0642 367.323 58.8962 367.474 58.7595 367.681C58.6267 367.888 58.5251 368.159 58.4548 368.495C58.3845 368.831 58.3493 369.239 58.3493 369.72V371.378C58.3493 371.761 58.3708 372.099 58.4138 372.392C58.4607 372.685 58.529 372.938 58.6189 373.153C58.7087 373.364 58.8181 373.538 58.947 373.675C59.0759 373.812 59.2243 373.913 59.3923 373.979C59.5642 374.042 59.7536 374.073 59.9607 374.073C60.2263 374.073 60.4587 374.022 60.6579 373.921C60.8572 373.819 61.0232 373.661 61.156 373.446C61.2927 373.228 61.3943 372.948 61.4607 372.608C61.5271 372.265 61.5603 371.854 61.5603 371.378Z" fill="white"/>
<path d="M56.059 330.886V331.495L52.5258 339.417H51.3832L54.9105 331.776H50.2933V330.886H56.059ZM58.6664 335.356L57.7992 335.134L58.2269 330.886H62.6039V331.888H59.1469L58.889 334.208C59.0453 334.118 59.2426 334.034 59.4808 333.956C59.723 333.878 60.0004 333.839 60.3129 333.839C60.7074 333.839 61.0609 333.907 61.3734 334.044C61.6859 334.177 61.9515 334.368 62.1703 334.618C62.3929 334.868 62.5629 335.169 62.6801 335.521C62.7972 335.872 62.8558 336.265 62.8558 336.698C62.8558 337.108 62.7992 337.485 62.6859 337.829C62.5765 338.173 62.4105 338.474 62.1879 338.731C61.9652 338.985 61.684 339.183 61.3441 339.323C61.0082 339.464 60.6117 339.534 60.1547 339.534C59.8109 339.534 59.4847 339.487 59.1761 339.394C58.8715 339.296 58.598 339.149 58.3558 338.954C58.1176 338.755 57.9222 338.509 57.7699 338.216C57.6215 337.919 57.5277 337.571 57.4886 337.173H58.5199C58.5668 337.493 58.6605 337.763 58.8011 337.981C58.9418 338.2 59.1254 338.366 59.3519 338.479C59.5824 338.589 59.85 338.644 60.1547 338.644C60.4125 338.644 60.641 338.599 60.8402 338.509C61.0394 338.419 61.2074 338.29 61.3441 338.122C61.4808 337.954 61.5844 337.751 61.6547 337.513C61.7289 337.274 61.766 337.007 61.766 336.71C61.766 336.44 61.7289 336.19 61.6547 335.96C61.5804 335.729 61.4691 335.528 61.3207 335.356C61.1761 335.185 60.9984 335.052 60.7875 334.958C60.5765 334.86 60.3344 334.812 60.0609 334.812C59.6976 334.812 59.4222 334.86 59.2347 334.958C59.0511 335.056 58.8617 335.188 58.6664 335.356Z" fill="white"/>
<path d="M47.357 296.422V305H46.2731V297.775L44.0875 298.572V297.594L47.1871 296.422H47.357ZM55.9 300.055V301.355C55.9 302.055 55.8375 302.645 55.7125 303.125C55.5875 303.605 55.4078 303.992 55.1735 304.285C54.9391 304.578 54.6559 304.791 54.3238 304.924C53.9957 305.053 53.6246 305.117 53.2106 305.117C52.8824 305.117 52.5797 305.076 52.3024 304.994C52.025 304.912 51.775 304.781 51.5524 304.602C51.3336 304.418 51.1461 304.18 50.9899 303.887C50.8336 303.594 50.7145 303.238 50.6324 302.82C50.5504 302.402 50.5094 301.914 50.5094 301.355V300.055C50.5094 299.355 50.5719 298.77 50.6969 298.297C50.8258 297.824 51.0074 297.445 51.2418 297.16C51.4762 296.871 51.7574 296.664 52.0856 296.539C52.4176 296.414 52.7887 296.352 53.1988 296.352C53.5309 296.352 53.8356 296.393 54.1129 296.475C54.3942 296.553 54.6442 296.68 54.8629 296.855C55.0817 297.027 55.2672 297.258 55.4195 297.547C55.5758 297.832 55.6949 298.182 55.777 298.596C55.859 299.01 55.9 299.496 55.9 300.055ZM54.8102 301.531V299.873C54.8102 299.49 54.7867 299.154 54.7399 298.865C54.6969 298.572 54.6324 298.322 54.5465 298.115C54.4606 297.908 54.3512 297.74 54.2184 297.611C54.0895 297.482 53.9391 297.389 53.7672 297.33C53.5992 297.268 53.4098 297.236 53.1988 297.236C52.941 297.236 52.7125 297.285 52.5133 297.383C52.3141 297.477 52.1461 297.627 52.0094 297.834C51.8766 298.041 51.775 298.312 51.7047 298.648C51.6344 298.984 51.5992 299.393 51.5992 299.873V301.531C51.5992 301.914 51.6207 302.252 51.6637 302.545C51.7106 302.838 51.7789 303.092 51.8688 303.307C51.9586 303.518 52.068 303.691 52.1969 303.828C52.3258 303.965 52.4742 304.066 52.6422 304.133C52.8141 304.195 53.0035 304.227 53.2106 304.227C53.4762 304.227 53.7086 304.176 53.9078 304.074C54.107 303.973 54.2731 303.814 54.4059 303.6C54.5426 303.381 54.6442 303.102 54.7106 302.762C54.777 302.418 54.8102 302.008 54.8102 301.531ZM62.65 300.055V301.355C62.65 302.055 62.5875 302.645 62.4625 303.125C62.3375 303.605 62.1578 303.992 61.9235 304.285C61.6891 304.578 61.4059 304.791 61.0738 304.924C60.7457 305.053 60.3746 305.117 59.9606 305.117C59.6324 305.117 59.3297 305.076 59.0524 304.994C58.775 304.912 58.525 304.781 58.3024 304.602C58.0836 304.418 57.8961 304.18 57.7399 303.887C57.5836 303.594 57.4645 303.238 57.3824 302.82C57.3004 302.402 57.2594 301.914 57.2594 301.355V300.055C57.2594 299.355 57.3219 298.77 57.4469 298.297C57.5758 297.824 57.7574 297.445 57.9918 297.16C58.2262 296.871 58.5074 296.664 58.8356 296.539C59.1676 296.414 59.5387 296.352 59.9488 296.352C60.2809 296.352 60.5856 296.393 60.8629 296.475C61.1442 296.553 61.3942 296.68 61.6129 296.855C61.8317 297.027 62.0172 297.258 62.1695 297.547C62.3258 297.832 62.4449 298.182 62.527 298.596C62.609 299.01 62.65 299.496 62.65 300.055ZM61.5602 301.531V299.873C61.5602 299.49 61.5367 299.154 61.4899 298.865C61.4469 298.572 61.3824 298.322 61.2965 298.115C61.2106 297.908 61.1012 297.74 60.9684 297.611C60.8395 297.482 60.6891 297.389 60.5172 297.33C60.3492 297.268 60.1598 297.236 59.9488 297.236C59.691 297.236 59.4625 297.285 59.2633 297.383C59.0641 297.477 58.8961 297.627 58.7594 297.834C58.6266 298.041 58.525 298.312 58.4547 298.648C58.3844 298.984 58.3492 299.393 58.3492 299.873V301.531C58.3492 301.914 58.3707 302.252 58.4137 302.545C58.4606 302.838 58.5289 303.092 58.6188 303.307C58.7086 303.518 58.818 303.691 58.9469 303.828C59.0758 303.965 59.2242 304.066 59.3922 304.133C59.5641 304.195 59.7535 304.227 59.9606 304.227C60.2262 304.227 60.4586 304.176 60.6578 304.074C60.857 303.973 61.0231 303.814 61.1559 303.6C61.2926 303.381 61.3942 303.102 61.4606 302.762C61.527 302.418 61.5602 302.008 61.5602 301.531Z" fill="white"/>
<path d="M56.1699 454.244V455.545C56.1699 456.244 56.1074 456.834 55.9824 457.314C55.8574 457.795 55.6777 458.182 55.4433 458.475C55.209 458.768 54.9257 458.98 54.5937 459.113C54.2656 459.242 53.8945 459.307 53.4804 459.307C53.1523 459.307 52.8496 459.266 52.5722 459.184C52.2949 459.102 52.0449 458.971 51.8222 458.791C51.6035 458.607 51.416 458.369 51.2597 458.076C51.1035 457.783 50.9843 457.428 50.9023 457.01C50.8203 456.592 50.7793 456.104 50.7793 455.545V454.244C50.7793 453.545 50.8418 452.959 50.9668 452.486C51.0957 452.014 51.2773 451.635 51.5117 451.35C51.7461 451.061 52.0273 450.854 52.3554 450.729C52.6875 450.604 53.0586 450.541 53.4687 450.541C53.8007 450.541 54.1054 450.582 54.3828 450.664C54.664 450.742 54.914 450.869 55.1328 451.045C55.3515 451.217 55.5371 451.447 55.6894 451.736C55.8457 452.021 55.9648 452.371 56.0468 452.785C56.1289 453.199 56.1699 453.686 56.1699 454.244ZM55.08 455.721V454.062C55.08 453.68 55.0566 453.344 55.0097 453.055C54.9668 452.762 54.9023 452.512 54.8164 452.305C54.7304 452.098 54.6211 451.93 54.4882 451.801C54.3593 451.672 54.209 451.578 54.0371 451.52C53.8691 451.457 53.6797 451.426 53.4687 451.426C53.2109 451.426 52.9824 451.475 52.7832 451.572C52.584 451.666 52.416 451.816 52.2793 452.023C52.1465 452.23 52.0449 452.502 51.9746 452.838C51.9043 453.174 51.8691 453.582 51.8691 454.062V455.721C51.8691 456.104 51.8906 456.441 51.9336 456.734C51.9804 457.027 52.0488 457.281 52.1386 457.496C52.2285 457.707 52.3379 457.881 52.4668 458.018C52.5957 458.154 52.7441 458.256 52.9121 458.322C53.084 458.385 53.2734 458.416 53.4804 458.416C53.7461 458.416 53.9785 458.365 54.1777 458.264C54.3769 458.162 54.5429 458.004 54.6757 457.789C54.8125 457.57 54.914 457.291 54.9804 456.951C55.0468 456.607 55.08 456.197 55.08 455.721ZM61.1269 450.611V459.189H60.0429V451.965L57.8574 452.762V451.783L60.957 450.611H61.1269ZM64.4492 458.615C64.4492 458.432 64.5058 458.277 64.6191 458.152C64.7363 458.023 64.9043 457.959 65.123 457.959C65.3418 457.959 65.5078 458.023 65.6211 458.152C65.7382 458.277 65.7968 458.432 65.7968 458.615C65.7968 458.795 65.7382 458.947 65.6211 459.072C65.5078 459.197 65.3418 459.26 65.123 459.26C64.9043 459.26 64.7363 459.197 64.6191 459.072C64.5058 458.947 64.4492 458.795 64.4492 458.615ZM72.834 454.244V455.545C72.834 456.244 72.7715 456.834 72.6465 457.314C72.5215 457.795 72.3418 458.182 72.1074 458.475C71.873 458.768 71.5898 458.98 71.2578 459.113C70.9297 459.242 70.5586 459.307 70.1445 459.307C69.8164 459.307 69.5136 459.266 69.2363 459.184C68.959 459.102 68.709 458.971 68.4863 458.791C68.2675 458.607 68.08 458.369 67.9238 458.076C67.7675 457.783 67.6484 457.428 67.5664 457.01C67.4843 456.592 67.4433 456.104 67.4433 455.545V454.244C67.4433 453.545 67.5058 452.959 67.6308 452.486C67.7597 452.014 67.9414 451.635 68.1757 451.35C68.4101 451.061 68.6914 450.854 69.0195 450.729C69.3515 450.604 69.7226 450.541 70.1328 450.541C70.4648 450.541 70.7695 450.582 71.0468 450.664C71.3281 450.742 71.5781 450.869 71.7968 451.045C72.0156 451.217 72.2011 451.447 72.3535 451.736C72.5097 452.021 72.6289 452.371 72.7109 452.785C72.7929 453.199 72.834 453.686 72.834 454.244ZM71.7441 455.721V454.062C71.7441 453.68 71.7207 453.344 71.6738 453.055C71.6308 452.762 71.5664 452.512 71.4804 452.305C71.3945 452.098 71.2851 451.93 71.1523 451.801C71.0234 451.672 70.873 451.578 70.7011 451.52C70.5332 451.457 70.3437 451.426 70.1328 451.426C69.875 451.426 69.6465 451.475 69.4472 451.572C69.248 451.666 69.08 451.816 68.9433 452.023C68.8105 452.23 68.709 452.502 68.6386 452.838C68.5683 453.174 68.5332 453.582 68.5332 454.062V455.721C68.5332 456.104 68.5547 456.441 68.5976 456.734C68.6445 457.027 68.7129 457.281 68.8027 457.496C68.8925 457.707 69.0019 457.881 69.1308 458.018C69.2597 458.154 69.4082 458.256 69.5761 458.322C69.748 458.385 69.9375 458.416 70.1445 458.416C70.4101 458.416 70.6425 458.365 70.8418 458.264C71.041 458.162 71.207 458.004 71.3398 457.789C71.4765 457.57 71.5781 457.291 71.6445 456.951C71.7109 456.607 71.7441 456.197 71.7441 455.721ZM79.8183 458.299V459.189H74.2343V458.41L77.0293 455.299C77.373 454.916 77.6386 454.592 77.8261 454.326C78.0175 454.057 78.1504 453.816 78.2246 453.605C78.3027 453.391 78.3418 453.172 78.3418 452.949C78.3418 452.668 78.2832 452.414 78.166 452.188C78.0527 451.957 77.8847 451.773 77.6621 451.637C77.4394 451.5 77.1699 451.432 76.8535 451.432C76.4746 451.432 76.1582 451.506 75.9043 451.654C75.6543 451.799 75.4668 452.002 75.3418 452.264C75.2168 452.525 75.1543 452.826 75.1543 453.166H74.0703C74.0703 452.686 74.1758 452.246 74.3867 451.848C74.5976 451.449 74.9101 451.133 75.3242 450.898C75.7383 450.66 76.248 450.541 76.8535 450.541C77.3925 450.541 77.8535 450.637 78.2363 450.828C78.6191 451.016 78.9121 451.281 79.1152 451.625C79.3222 451.965 79.4258 452.363 79.4258 452.82C79.4258 453.07 79.3828 453.324 79.2968 453.582C79.2148 453.836 79.0996 454.09 78.9511 454.344C78.8066 454.598 78.6367 454.848 78.4414 455.094C78.25 455.34 78.0449 455.582 77.8261 455.82L75.541 458.299H79.8183Z" fill="white"/>
<path d="M134.23 454.198V455.499C134.23 456.198 134.168 456.788 134.043 457.269C133.918 457.749 133.738 458.136 133.504 458.429C133.269 458.722 132.986 458.935 132.654 459.067C132.326 459.196 131.955 459.261 131.541 459.261C131.213 459.261 130.91 459.22 130.633 459.138C130.355 459.056 130.105 458.925 129.883 458.745C129.664 458.562 129.477 458.323 129.32 458.03C129.164 457.737 129.045 457.382 128.963 456.964C128.881 456.546 128.84 456.058 128.84 455.499V454.198C128.84 453.499 128.902 452.913 129.027 452.44C129.156 451.968 129.338 451.589 129.572 451.304C129.807 451.015 130.088 450.808 130.416 450.683C130.748 450.558 131.119 450.495 131.529 450.495C131.861 450.495 132.166 450.536 132.443 450.618C132.725 450.696 132.975 450.823 133.193 450.999C133.412 451.171 133.598 451.401 133.75 451.69C133.906 451.976 134.025 452.325 134.107 452.739C134.189 453.153 134.23 453.64 134.23 454.198ZM133.141 455.675V454.017C133.141 453.634 133.117 453.298 133.07 453.009C133.027 452.716 132.963 452.466 132.877 452.259C132.791 452.052 132.682 451.884 132.549 451.755C132.42 451.626 132.269 451.532 132.098 451.474C131.93 451.411 131.74 451.38 131.529 451.38C131.271 451.38 131.043 451.429 130.844 451.526C130.644 451.62 130.477 451.771 130.34 451.978C130.207 452.185 130.105 452.456 130.035 452.792C129.965 453.128 129.93 453.536 129.93 454.017V455.675C129.93 456.058 129.951 456.396 129.994 456.688C130.041 456.981 130.109 457.235 130.199 457.45C130.289 457.661 130.398 457.835 130.527 457.972C130.656 458.108 130.805 458.21 130.973 458.276C131.144 458.339 131.334 458.37 131.541 458.37C131.807 458.37 132.039 458.319 132.238 458.218C132.437 458.116 132.603 457.958 132.736 457.743C132.873 457.524 132.975 457.245 133.041 456.905C133.107 456.562 133.141 456.151 133.141 455.675ZM139.187 450.565V459.144H138.103V451.919L135.918 452.716V451.737L139.018 450.565H139.187ZM142.51 458.569C142.51 458.386 142.566 458.231 142.68 458.106C142.797 457.978 142.965 457.913 143.184 457.913C143.402 457.913 143.568 457.978 143.682 458.106C143.799 458.231 143.857 458.386 143.857 458.569C143.857 458.749 143.799 458.901 143.682 459.026C143.568 459.151 143.402 459.214 143.184 459.214C142.965 459.214 142.797 459.151 142.68 459.026C142.566 458.901 142.51 458.749 142.51 458.569ZM150.894 454.198V455.499C150.894 456.198 150.832 456.788 150.707 457.269C150.582 457.749 150.402 458.136 150.168 458.429C149.934 458.722 149.65 458.935 149.318 459.067C148.99 459.196 148.619 459.261 148.205 459.261C147.877 459.261 147.574 459.22 147.297 459.138C147.019 459.056 146.769 458.925 146.547 458.745C146.328 458.562 146.141 458.323 145.984 458.03C145.828 457.737 145.709 457.382 145.627 456.964C145.545 456.546 145.504 456.058 145.504 455.499V454.198C145.504 453.499 145.566 452.913 145.691 452.44C145.82 451.968 146.002 451.589 146.236 451.304C146.471 451.015 146.752 450.808 147.08 450.683C147.412 450.558 147.783 450.495 148.193 450.495C148.525 450.495 148.83 450.536 149.107 450.618C149.389 450.696 149.639 450.823 149.857 450.999C150.076 451.171 150.262 451.401 150.414 451.69C150.57 451.976 150.689 452.325 150.771 452.739C150.853 453.153 150.894 453.64 150.894 454.198ZM149.805 455.675V454.017C149.805 453.634 149.781 453.298 149.734 453.009C149.691 452.716 149.627 452.466 149.541 452.259C149.455 452.052 149.346 451.884 149.213 451.755C149.084 451.626 148.934 451.532 148.762 451.474C148.594 451.411 148.404 451.38 148.193 451.38C147.936 451.38 147.707 451.429 147.508 451.526C147.309 451.62 147.141 451.771 147.004 451.978C146.871 452.185 146.769 452.456 146.699 452.792C146.629 453.128 146.594 453.536 146.594 454.017V455.675C146.594 456.058 146.615 456.396 146.658 456.688C146.705 456.981 146.773 457.235 146.863 457.45C146.953 457.661 147.062 457.835 147.191 457.972C147.32 458.108 147.469 458.21 147.637 458.276C147.809 458.339 147.998 458.37 148.205 458.37C148.471 458.37 148.703 458.319 148.902 458.218C149.102 458.116 149.268 457.958 149.4 457.743C149.537 457.524 149.639 457.245 149.705 456.905C149.771 456.562 149.805 456.151 149.805 455.675ZM153.871 454.345H154.645C155.023 454.345 155.336 454.282 155.582 454.157C155.832 454.028 156.018 453.854 156.139 453.636C156.264 453.413 156.326 453.163 156.326 452.886C156.326 452.558 156.271 452.282 156.162 452.06C156.053 451.837 155.889 451.669 155.67 451.556C155.451 451.442 155.174 451.386 154.838 451.386C154.533 451.386 154.264 451.446 154.029 451.567C153.799 451.685 153.617 451.853 153.484 452.071C153.355 452.29 153.291 452.548 153.291 452.845H152.207C152.207 452.411 152.316 452.017 152.535 451.661C152.754 451.306 153.061 451.022 153.455 450.812C153.853 450.601 154.314 450.495 154.838 450.495C155.353 450.495 155.805 450.587 156.191 450.771C156.578 450.95 156.879 451.22 157.094 451.579C157.309 451.935 157.416 452.378 157.416 452.909C157.416 453.124 157.365 453.354 157.264 453.601C157.166 453.843 157.012 454.069 156.801 454.28C156.594 454.491 156.324 454.665 155.992 454.802C155.66 454.935 155.262 455.001 154.797 455.001H153.871V454.345ZM153.871 455.235V454.585H154.797C155.34 454.585 155.789 454.649 156.145 454.778C156.5 454.907 156.779 455.079 156.982 455.294C157.189 455.509 157.334 455.745 157.416 456.003C157.502 456.257 157.545 456.511 157.545 456.765C157.545 457.163 157.477 457.517 157.34 457.825C157.207 458.134 157.018 458.396 156.771 458.61C156.529 458.825 156.244 458.987 155.916 459.097C155.588 459.206 155.23 459.261 154.844 459.261C154.473 459.261 154.123 459.208 153.795 459.103C153.471 458.997 153.184 458.845 152.934 458.646C152.684 458.442 152.488 458.194 152.348 457.901C152.207 457.604 152.137 457.267 152.137 456.888H153.221C153.221 457.185 153.285 457.444 153.414 457.667C153.547 457.89 153.734 458.063 153.977 458.188C154.223 458.31 154.512 458.37 154.844 458.37C155.176 458.37 155.461 458.313 155.699 458.2C155.941 458.083 156.127 457.907 156.256 457.673C156.389 457.438 156.455 457.144 156.455 456.788C156.455 456.433 156.381 456.142 156.232 455.915C156.084 455.685 155.873 455.515 155.6 455.405C155.33 455.292 155.012 455.235 154.645 455.235H153.871Z" fill="white"/>
<path d="M213.404 454.198V455.499C213.404 456.198 213.342 456.788 213.217 457.269C213.092 457.749 212.912 458.136 212.678 458.429C212.443 458.722 212.16 458.935 211.828 459.067C211.5 459.196 211.129 459.261 210.715 459.261C210.387 459.261 210.084 459.22 209.807 459.138C209.529 459.056 209.279 458.925 209.057 458.745C208.838 458.562 208.65 458.323 208.494 458.03C208.338 457.737 208.219 457.382 208.137 456.964C208.055 456.546 208.014 456.058 208.014 455.499V454.198C208.014 453.499 208.076 452.913 208.201 452.44C208.33 451.968 208.512 451.589 208.746 451.304C208.98 451.015 209.262 450.808 209.59 450.683C209.922 450.558 210.293 450.495 210.703 450.495C211.035 450.495 211.34 450.536 211.617 450.618C211.898 450.696 212.148 450.823 212.367 450.999C212.586 451.171 212.771 451.401 212.924 451.69C213.08 451.976 213.199 452.325 213.281 452.739C213.363 453.153 213.404 453.64 213.404 454.198ZM212.314 455.675V454.017C212.314 453.634 212.291 453.298 212.244 453.009C212.201 452.716 212.137 452.466 212.051 452.259C211.965 452.052 211.855 451.884 211.723 451.755C211.594 451.626 211.443 451.532 211.271 451.474C211.103 451.411 210.914 451.38 210.703 451.38C210.445 451.38 210.217 451.429 210.018 451.526C209.818 451.62 209.65 451.771 209.514 451.978C209.381 452.185 209.279 452.456 209.209 452.792C209.139 453.128 209.103 453.536 209.103 454.017V455.675C209.103 456.058 209.125 456.396 209.168 456.688C209.215 456.981 209.283 457.235 209.373 457.45C209.463 457.661 209.572 457.835 209.701 457.972C209.83 458.108 209.978 458.21 210.146 458.276C210.318 458.339 210.508 458.37 210.715 458.37C210.98 458.37 211.213 458.319 211.412 458.218C211.611 458.116 211.777 457.958 211.91 457.743C212.047 457.524 212.148 457.245 212.215 456.905C212.281 456.562 212.314 456.151 212.314 455.675ZM218.361 450.565V459.144H217.277V451.919L215.092 452.716V451.737L218.191 450.565H218.361ZM221.684 458.569C221.684 458.386 221.74 458.231 221.853 458.106C221.971 457.978 222.139 457.913 222.357 457.913C222.576 457.913 222.742 457.978 222.855 458.106C222.973 458.231 223.031 458.386 223.031 458.569C223.031 458.749 222.973 458.901 222.855 459.026C222.742 459.151 222.576 459.214 222.357 459.214C222.139 459.214 221.971 459.151 221.853 459.026C221.74 458.901 221.684 458.749 221.684 458.569ZM230.068 454.198V455.499C230.068 456.198 230.006 456.788 229.881 457.269C229.756 457.749 229.576 458.136 229.342 458.429C229.107 458.722 228.824 458.935 228.492 459.067C228.164 459.196 227.793 459.261 227.379 459.261C227.051 459.261 226.748 459.22 226.471 459.138C226.193 459.056 225.943 458.925 225.721 458.745C225.502 458.562 225.314 458.323 225.158 458.03C225.002 457.737 224.883 457.382 224.801 456.964C224.719 456.546 224.678 456.058 224.678 455.499V454.198C224.678 453.499 224.74 452.913 224.865 452.44C224.994 451.968 225.176 451.589 225.41 451.304C225.644 451.015 225.926 450.808 226.254 450.683C226.586 450.558 226.957 450.495 227.367 450.495C227.699 450.495 228.004 450.536 228.281 450.618C228.562 450.696 228.812 450.823 229.031 450.999C229.25 451.171 229.436 451.401 229.588 451.69C229.744 451.976 229.863 452.325 229.945 452.739C230.027 453.153 230.068 453.64 230.068 454.198ZM228.978 455.675V454.017C228.978 453.634 228.955 453.298 228.908 453.009C228.865 452.716 228.801 452.466 228.715 452.259C228.629 452.052 228.519 451.884 228.387 451.755C228.258 451.626 228.107 451.532 227.936 451.474C227.768 451.411 227.578 451.38 227.367 451.38C227.109 451.38 226.881 451.429 226.682 451.526C226.482 451.62 226.314 451.771 226.178 451.978C226.045 452.185 225.943 452.456 225.873 452.792C225.803 453.128 225.768 453.536 225.768 454.017V455.675C225.768 456.058 225.789 456.396 225.832 456.688C225.879 456.981 225.947 457.235 226.037 457.45C226.127 457.661 226.236 457.835 226.365 457.972C226.494 458.108 226.643 458.21 226.811 458.276C226.982 458.339 227.172 458.37 227.379 458.37C227.644 458.37 227.877 458.319 228.076 458.218C228.275 458.116 228.441 457.958 228.574 457.743C228.711 457.524 228.812 457.245 228.879 456.905C228.945 456.562 228.978 456.151 228.978 455.675ZM237.228 456.272V457.163H231.064V456.524L234.885 450.612H235.77L234.82 452.323L232.295 456.272H237.228ZM236.039 450.612V459.144H234.955V450.612H236.039Z" fill="white"/>
<path d="M292.58 454.198V455.499C292.58 456.198 292.518 456.788 292.393 457.269C292.268 457.749 292.088 458.136 291.853 458.429C291.619 458.722 291.336 458.935 291.004 459.067C290.676 459.196 290.305 459.261 289.891 459.261C289.562 459.261 289.26 459.22 288.982 459.138C288.705 459.056 288.455 458.925 288.232 458.745C288.014 458.562 287.826 458.323 287.67 458.03C287.514 457.737 287.394 457.382 287.312 456.964C287.23 456.546 287.189 456.058 287.189 455.499V454.198C287.189 453.499 287.252 452.913 287.377 452.44C287.506 451.968 287.687 451.589 287.922 451.304C288.156 451.015 288.437 450.808 288.766 450.683C289.098 450.558 289.469 450.495 289.879 450.495C290.211 450.495 290.516 450.536 290.793 450.618C291.074 450.696 291.324 450.823 291.543 450.999C291.762 451.171 291.947 451.401 292.1 451.69C292.256 451.976 292.375 452.325 292.457 452.739C292.539 453.153 292.58 453.64 292.58 454.198ZM291.49 455.675V454.017C291.49 453.634 291.467 453.298 291.42 453.009C291.377 452.716 291.312 452.466 291.227 452.259C291.141 452.052 291.031 451.884 290.898 451.755C290.769 451.626 290.619 451.532 290.447 451.474C290.279 451.411 290.09 451.38 289.879 451.38C289.621 451.38 289.393 451.429 289.193 451.526C288.994 451.62 288.826 451.771 288.689 451.978C288.557 452.185 288.455 452.456 288.385 452.792C288.314 453.128 288.279 453.536 288.279 454.017V455.675C288.279 456.058 288.301 456.396 288.344 456.688C288.391 456.981 288.459 457.235 288.549 457.45C288.639 457.661 288.748 457.835 288.877 457.972C289.006 458.108 289.154 458.21 289.322 458.276C289.494 458.339 289.684 458.37 289.891 458.37C290.156 458.37 290.389 458.319 290.588 458.218C290.787 458.116 290.953 457.958 291.086 457.743C291.223 457.524 291.324 457.245 291.391 456.905C291.457 456.562 291.49 456.151 291.49 455.675ZM297.537 450.565V459.144H296.453V451.919L294.268 452.716V451.737L297.367 450.565H297.537ZM300.859 458.569C300.859 458.386 300.916 458.231 301.029 458.106C301.146 457.978 301.314 457.913 301.533 457.913C301.752 457.913 301.918 457.978 302.031 458.106C302.148 458.231 302.207 458.386 302.207 458.569C302.207 458.749 302.148 458.901 302.031 459.026C301.918 459.151 301.752 459.214 301.533 459.214C301.314 459.214 301.146 459.151 301.029 459.026C300.916 458.901 300.859 458.749 300.859 458.569ZM309.244 454.198V455.499C309.244 456.198 309.182 456.788 309.057 457.269C308.932 457.749 308.752 458.136 308.518 458.429C308.283 458.722 308 458.935 307.668 459.067C307.34 459.196 306.969 459.261 306.555 459.261C306.227 459.261 305.924 459.22 305.646 459.138C305.369 459.056 305.119 458.925 304.896 458.745C304.678 458.562 304.49 458.323 304.334 458.03C304.178 457.737 304.059 457.382 303.977 456.964C303.894 456.546 303.853 456.058 303.853 455.499V454.198C303.853 453.499 303.916 452.913 304.041 452.44C304.17 451.968 304.352 451.589 304.586 451.304C304.82 451.015 305.102 450.808 305.43 450.683C305.762 450.558 306.133 450.495 306.543 450.495C306.875 450.495 307.18 450.536 307.457 450.618C307.738 450.696 307.988 450.823 308.207 450.999C308.426 451.171 308.611 451.401 308.764 451.69C308.92 451.976 309.039 452.325 309.121 452.739C309.203 453.153 309.244 453.64 309.244 454.198ZM308.154 455.675V454.017C308.154 453.634 308.131 453.298 308.084 453.009C308.041 452.716 307.977 452.466 307.891 452.259C307.805 452.052 307.695 451.884 307.562 451.755C307.434 451.626 307.283 451.532 307.111 451.474C306.943 451.411 306.754 451.38 306.543 451.38C306.285 451.38 306.057 451.429 305.857 451.526C305.658 451.62 305.49 451.771 305.353 451.978C305.221 452.185 305.119 452.456 305.049 452.792C304.978 453.128 304.943 453.536 304.943 454.017V455.675C304.943 456.058 304.965 456.396 305.008 456.688C305.055 456.981 305.123 457.235 305.213 457.45C305.303 457.661 305.412 457.835 305.541 457.972C305.67 458.108 305.818 458.21 305.986 458.276C306.158 458.339 306.348 458.37 306.555 458.37C306.82 458.37 307.053 458.319 307.252 458.218C307.451 458.116 307.617 457.958 307.75 457.743C307.887 457.524 307.988 457.245 308.055 456.905C308.121 456.562 308.154 456.151 308.154 455.675ZM312.01 455.083L311.143 454.86L311.57 450.612H315.947V451.614H312.49L312.232 453.935C312.389 453.845 312.586 453.761 312.824 453.683C313.066 453.604 313.344 453.565 313.656 453.565C314.051 453.565 314.404 453.634 314.717 453.771C315.029 453.903 315.295 454.095 315.514 454.345C315.736 454.595 315.906 454.896 316.023 455.247C316.141 455.599 316.199 455.991 316.199 456.425C316.199 456.835 316.143 457.212 316.029 457.556C315.92 457.899 315.754 458.2 315.531 458.458C315.309 458.712 315.027 458.909 314.687 459.05C314.352 459.19 313.955 459.261 313.498 459.261C313.154 459.261 312.828 459.214 312.52 459.12C312.215 459.022 311.941 458.876 311.699 458.681C311.461 458.481 311.266 458.235 311.113 457.942C310.965 457.646 310.871 457.298 310.832 456.899H311.863C311.91 457.22 312.004 457.489 312.145 457.708C312.285 457.927 312.469 458.093 312.695 458.206C312.926 458.315 313.193 458.37 313.498 458.37C313.756 458.37 313.984 458.325 314.184 458.235C314.383 458.146 314.551 458.017 314.687 457.849C314.824 457.681 314.928 457.478 314.998 457.239C315.072 457.001 315.109 456.733 315.109 456.437C315.109 456.167 315.072 455.917 314.998 455.687C314.924 455.456 314.812 455.255 314.664 455.083C314.52 454.911 314.342 454.778 314.131 454.685C313.92 454.587 313.678 454.538 313.404 454.538C313.041 454.538 312.766 454.587 312.578 454.685C312.395 454.782 312.205 454.915 312.01 455.083Z" fill="white"/>
<path d="M371.76 454.198V455.499C371.76 456.198 371.697 456.788 371.572 457.269C371.447 457.749 371.268 458.136 371.033 458.429C370.799 458.722 370.516 458.935 370.184 459.067C369.855 459.196 369.484 459.261 369.07 459.261C368.742 459.261 368.439 459.22 368.162 459.138C367.885 459.056 367.635 458.925 367.412 458.745C367.193 458.562 367.006 458.323 366.85 458.03C366.693 457.737 366.574 457.382 366.492 456.964C366.41 456.546 366.369 456.058 366.369 455.499V454.198C366.369 453.499 366.432 452.913 366.557 452.44C366.686 451.968 366.867 451.589 367.102 451.304C367.336 451.015 367.617 450.808 367.945 450.683C368.277 450.558 368.648 450.495 369.059 450.495C369.391 450.495 369.695 450.536 369.973 450.618C370.254 450.696 370.504 450.823 370.723 450.999C370.941 451.171 371.127 451.401 371.279 451.69C371.436 451.976 371.555 452.325 371.637 452.739C371.719 453.153 371.76 453.64 371.76 454.198ZM370.67 455.675V454.017C370.67 453.634 370.646 453.298 370.6 453.009C370.557 452.716 370.492 452.466 370.406 452.259C370.32 452.052 370.211 451.884 370.078 451.755C369.949 451.626 369.799 451.532 369.627 451.474C369.459 451.411 369.269 451.38 369.059 451.38C368.801 451.38 368.572 451.429 368.373 451.526C368.174 451.62 368.006 451.771 367.869 451.978C367.736 452.185 367.635 452.456 367.564 452.792C367.494 453.128 367.459 453.536 367.459 454.017V455.675C367.459 456.058 367.48 456.396 367.523 456.688C367.57 456.981 367.639 457.235 367.728 457.45C367.818 457.661 367.928 457.835 368.057 457.972C368.186 458.108 368.334 458.21 368.502 458.276C368.674 458.339 368.863 458.37 369.07 458.37C369.336 458.37 369.568 458.319 369.768 458.218C369.967 458.116 370.133 457.958 370.266 457.743C370.402 457.524 370.504 457.245 370.57 456.905C370.637 456.562 370.67 456.151 370.67 455.675ZM376.717 450.565V459.144H375.633V451.919L373.447 452.716V451.737L376.547 450.565H376.717ZM380.039 458.569C380.039 458.386 380.096 458.231 380.209 458.106C380.326 457.978 380.494 457.913 380.713 457.913C380.932 457.913 381.098 457.978 381.211 458.106C381.328 458.231 381.387 458.386 381.387 458.569C381.387 458.749 381.328 458.901 381.211 459.026C381.098 459.151 380.932 459.214 380.713 459.214C380.494 459.214 380.326 459.151 380.209 459.026C380.096 458.901 380.039 458.749 380.039 458.569ZM388.424 454.198V455.499C388.424 456.198 388.361 456.788 388.236 457.269C388.111 457.749 387.932 458.136 387.697 458.429C387.463 458.722 387.18 458.935 386.848 459.067C386.519 459.196 386.148 459.261 385.734 459.261C385.406 459.261 385.103 459.22 384.826 459.138C384.549 459.056 384.299 458.925 384.076 458.745C383.857 458.562 383.67 458.323 383.514 458.03C383.357 457.737 383.238 457.382 383.156 456.964C383.074 456.546 383.033 456.058 383.033 455.499V454.198C383.033 453.499 383.096 452.913 383.221 452.44C383.35 451.968 383.531 451.589 383.766 451.304C384 451.015 384.281 450.808 384.609 450.683C384.941 450.558 385.312 450.495 385.723 450.495C386.055 450.495 386.359 450.536 386.637 450.618C386.918 450.696 387.168 450.823 387.387 450.999C387.605 451.171 387.791 451.401 387.943 451.69C388.1 451.976 388.219 452.325 388.301 452.739C388.383 453.153 388.424 453.64 388.424 454.198ZM387.334 455.675V454.017C387.334 453.634 387.311 453.298 387.264 453.009C387.221 452.716 387.156 452.466 387.07 452.259C386.984 452.052 386.875 451.884 386.742 451.755C386.613 451.626 386.463 451.532 386.291 451.474C386.123 451.411 385.934 451.38 385.723 451.38C385.465 451.38 385.236 451.429 385.037 451.526C384.838 451.62 384.67 451.771 384.533 451.978C384.4 452.185 384.299 452.456 384.228 452.792C384.158 453.128 384.123 453.536 384.123 454.017V455.675C384.123 456.058 384.144 456.396 384.187 456.688C384.234 456.981 384.303 457.235 384.393 457.45C384.482 457.661 384.592 457.835 384.721 457.972C384.85 458.108 384.998 458.21 385.166 458.276C385.338 458.339 385.527 458.37 385.734 458.37C386 458.37 386.232 458.319 386.432 458.218C386.631 458.116 386.797 457.958 386.93 457.743C387.066 457.524 387.168 457.245 387.234 456.905C387.301 456.562 387.334 456.151 387.334 455.675ZM393.978 450.601H394.072V451.521H393.978C393.404 451.521 392.924 451.614 392.537 451.802C392.15 451.985 391.844 452.233 391.617 452.546C391.391 452.854 391.227 453.202 391.125 453.589C391.027 453.976 390.978 454.368 390.978 454.767V456.021C390.978 456.399 391.023 456.735 391.113 457.028C391.203 457.317 391.326 457.562 391.482 457.761C391.639 457.96 391.814 458.11 392.01 458.212C392.209 458.313 392.416 458.364 392.631 458.364C392.881 458.364 393.103 458.317 393.299 458.224C393.494 458.126 393.658 457.991 393.791 457.819C393.928 457.644 394.031 457.437 394.102 457.198C394.172 456.96 394.207 456.698 394.207 456.413C394.207 456.159 394.176 455.915 394.113 455.681C394.051 455.442 393.955 455.231 393.826 455.048C393.697 454.86 393.535 454.714 393.34 454.608C393.148 454.499 392.92 454.444 392.654 454.444C392.353 454.444 392.072 454.519 391.811 454.667C391.553 454.812 391.34 455.003 391.172 455.241C391.008 455.476 390.914 455.731 390.891 456.009L390.316 456.003C390.371 455.565 390.473 455.192 390.621 454.884C390.773 454.571 390.961 454.317 391.184 454.122C391.41 453.923 391.662 453.778 391.939 453.688C392.221 453.595 392.518 453.548 392.83 453.548C393.256 453.548 393.623 453.628 393.932 453.788C394.24 453.948 394.494 454.163 394.693 454.433C394.893 454.698 395.039 454.999 395.133 455.335C395.23 455.667 395.279 456.009 395.279 456.36C395.279 456.763 395.223 457.14 395.109 457.491C394.996 457.843 394.826 458.151 394.6 458.417C394.377 458.683 394.102 458.89 393.773 459.038C393.445 459.187 393.064 459.261 392.631 459.261C392.17 459.261 391.768 459.167 391.424 458.979C391.08 458.788 390.795 458.534 390.568 458.218C390.342 457.901 390.172 457.55 390.059 457.163C389.945 456.776 389.889 456.384 389.889 455.985V455.476C389.889 454.874 389.949 454.284 390.07 453.706C390.191 453.128 390.4 452.604 390.697 452.136C390.998 451.667 391.414 451.294 391.945 451.017C392.477 450.739 393.154 450.601 393.978 450.601Z" fill="white"/>
<path d="M450.936 454.198V455.499C450.936 456.198 450.873 456.788 450.748 457.269C450.623 457.749 450.443 458.136 450.209 458.429C449.975 458.722 449.691 458.935 449.359 459.067C449.031 459.196 448.66 459.261 448.246 459.261C447.918 459.261 447.615 459.22 447.338 459.138C447.061 459.056 446.811 458.925 446.588 458.745C446.369 458.562 446.182 458.323 446.025 458.03C445.869 457.737 445.75 457.382 445.668 456.964C445.586 456.546 445.545 456.058 445.545 455.499V454.198C445.545 453.499 445.607 452.913 445.732 452.44C445.861 451.968 446.043 451.589 446.277 451.304C446.512 451.015 446.793 450.808 447.121 450.683C447.453 450.558 447.824 450.495 448.234 450.495C448.566 450.495 448.871 450.536 449.148 450.618C449.43 450.696 449.68 450.823 449.898 450.999C450.117 451.171 450.303 451.401 450.455 451.69C450.611 451.976 450.73 452.325 450.812 452.739C450.894 453.153 450.936 453.64 450.936 454.198ZM449.846 455.675V454.017C449.846 453.634 449.822 453.298 449.775 453.009C449.732 452.716 449.668 452.466 449.582 452.259C449.496 452.052 449.387 451.884 449.254 451.755C449.125 451.626 448.975 451.532 448.803 451.474C448.635 451.411 448.445 451.38 448.234 451.38C447.977 451.38 447.748 451.429 447.549 451.526C447.35 451.62 447.182 451.771 447.045 451.978C446.912 452.185 446.811 452.456 446.74 452.792C446.67 453.128 446.635 453.536 446.635 454.017V455.675C446.635 456.058 446.656 456.396 446.699 456.688C446.746 456.981 446.814 457.235 446.904 457.45C446.994 457.661 447.103 457.835 447.232 457.972C447.361 458.108 447.51 458.21 447.678 458.276C447.85 458.339 448.039 458.37 448.246 458.37C448.512 458.37 448.744 458.319 448.943 458.218C449.143 458.116 449.309 457.958 449.441 457.743C449.578 457.524 449.68 457.245 449.746 456.905C449.812 456.562 449.846 456.151 449.846 455.675ZM455.893 450.565V459.144H454.809V451.919L452.623 452.716V451.737L455.723 450.565H455.893ZM459.215 458.569C459.215 458.386 459.271 458.231 459.385 458.106C459.502 457.978 459.67 457.913 459.889 457.913C460.107 457.913 460.273 457.978 460.387 458.106C460.504 458.231 460.562 458.386 460.562 458.569C460.562 458.749 460.504 458.901 460.387 459.026C460.273 459.151 460.107 459.214 459.889 459.214C459.67 459.214 459.502 459.151 459.385 459.026C459.271 458.901 459.215 458.749 459.215 458.569ZM467.6 454.198V455.499C467.6 456.198 467.537 456.788 467.412 457.269C467.287 457.749 467.107 458.136 466.873 458.429C466.639 458.722 466.355 458.935 466.023 459.067C465.695 459.196 465.324 459.261 464.91 459.261C464.582 459.261 464.279 459.22 464.002 459.138C463.725 459.056 463.475 458.925 463.252 458.745C463.033 458.562 462.846 458.323 462.689 458.03C462.533 457.737 462.414 457.382 462.332 456.964C462.25 456.546 462.209 456.058 462.209 455.499V454.198C462.209 453.499 462.271 452.913 462.396 452.44C462.525 451.968 462.707 451.589 462.941 451.304C463.176 451.015 463.457 450.808 463.785 450.683C464.117 450.558 464.488 450.495 464.898 450.495C465.23 450.495 465.535 450.536 465.812 450.618C466.094 450.696 466.344 450.823 466.562 450.999C466.781 451.171 466.967 451.401 467.119 451.69C467.275 451.976 467.394 452.325 467.477 452.739C467.559 453.153 467.6 453.64 467.6 454.198ZM466.51 455.675V454.017C466.51 453.634 466.486 453.298 466.439 453.009C466.396 452.716 466.332 452.466 466.246 452.259C466.16 452.052 466.051 451.884 465.918 451.755C465.789 451.626 465.639 451.532 465.467 451.474C465.299 451.411 465.109 451.38 464.898 451.38C464.641 451.38 464.412 451.429 464.213 451.526C464.014 451.62 463.846 451.771 463.709 451.978C463.576 452.185 463.475 452.456 463.404 452.792C463.334 453.128 463.299 453.536 463.299 454.017V455.675C463.299 456.058 463.32 456.396 463.363 456.688C463.41 456.981 463.478 457.235 463.568 457.45C463.658 457.661 463.768 457.835 463.896 457.972C464.025 458.108 464.174 458.21 464.342 458.276C464.514 458.339 464.703 458.37 464.91 458.37C465.176 458.37 465.408 458.319 465.607 458.218C465.807 458.116 465.973 457.958 466.105 457.743C466.242 457.524 466.344 457.245 466.41 456.905C466.477 456.562 466.51 456.151 466.51 455.675ZM474.508 450.612V451.222L470.975 459.144H469.832L473.359 451.503H468.742V450.612H474.508Z" fill="white"/>
<path opacity="0.2" fill-rule="evenodd" clip-rule="evenodd" d="M64.4863 426.663L143.006 398.702L221.526 370.74L300.045 342.778L378.565 412.683L457.084 384.721L535.604 356.759V440.644H64.4863V426.663Z" fill="url(#paint0_linear_17829_61235)"/>
<path d="M64.4863 426.663L143.006 398.701L221.526 370.74L300.045 342.778L378.565 412.682L457.084 384.72L535.604 356.759" stroke="#00A47E" stroke-width="2" stroke-linejoin="round"/>
<path d="M64.4954 429.583C66.1964 429.583 67.8131 428.352 67.8131 426.559C67.8131 424.766 66.1964 423.534 64.4954 423.534C62.7944 423.534 61.1777 424.766 61.1777 426.559C61.1777 428.352 62.7944 429.583 64.4954 429.583Z" fill="#25282D" stroke="#00A47E" stroke-width="2"/>
<path d="M143.296 401.24C144.997 401.24 146.614 400.008 146.614 398.215C146.614 396.422 144.997 395.19 143.296 395.19C141.595 395.19 139.979 396.422 139.979 398.215C139.979 400.008 141.595 401.24 143.296 401.24Z" fill="#25282D" stroke="#00A47E" stroke-width="2"/>
<path d="M222.097 373.908C223.798 373.908 225.415 372.677 225.415 370.884C225.415 369.091 223.798 367.859 222.097 367.859C220.396 367.859 218.779 369.091 218.779 370.884C218.779 372.677 220.396 373.908 222.097 373.908Z" fill="#25282D" stroke="#00A47E" stroke-width="2"/>
<path d="M299.74 345.565C301.441 345.565 303.057 344.333 303.057 342.54C303.057 340.747 301.441 339.516 299.74 339.516C298.039 339.516 296.422 340.747 296.422 342.54C296.422 344.333 298.039 345.565 299.74 345.565Z" fill="#25282D" stroke="#00A47E" stroke-width="2"/>
<path d="M378.54 415.411C380.241 415.411 381.858 414.18 381.858 412.387C381.858 410.594 380.241 409.362 378.54 409.362C376.839 409.362 375.223 410.594 375.223 412.387C375.223 414.18 376.839 415.411 378.54 415.411Z" fill="#25282D" stroke="#00A47E" stroke-width="2"/>
<path d="M457.341 388.08C459.042 388.08 460.659 386.849 460.659 385.056C460.659 383.263 459.042 382.031 457.341 382.031C455.64 382.031 454.023 383.263 454.023 385.056C454.023 386.849 455.64 388.08 457.341 388.08Z" fill="#25282D" stroke="#00A47E" stroke-width="2"/>
</g>
</g>
<defs>
<filter id="filter0_b_17829_61235" x="-4" y="-4" width="512" height="512" filterUnits="userSpaceOnUse" color-interpolation-filters="sRGB">
<feFlood flood-opacity="0" result="BackgroundImageFix"/>
<feGaussianBlur in="BackgroundImageFix" stdDeviation="2"/>
<feComposite in2="SourceAlpha" operator="in" result="effect1_backgroundBlur_17829_61235"/>
<feBlend mode="normal" in="SourceGraphic" in2="effect1_backgroundBlur_17829_61235" result="shape"/>
</filter>
<filter id="filter1_f_17829_61235" x="-524" y="-77" width="1578" height="975" filterUnits="userSpaceOnUse" color-interpolation-filters="sRGB">
<feFlood flood-opacity="0" result="BackgroundImageFix"/>
<feBlend mode="normal" in="SourceGraphic" in2="BackgroundImageFix" result="shape"/>
<feGaussianBlur stdDeviation="140" result="effect1_foregroundBlur_17829_61235"/>
</filter>
<filter id="filter2_d_17829_61235" x="-11" y="198" width="618" height="315" filterUnits="userSpaceOnUse" color-interpolation-filters="sRGB">
<feFlood flood-opacity="0" result="BackgroundImageFix"/>
<feColorMatrix in="SourceAlpha" type="matrix" values="0 0 0 0 0 0 0 0 0 0 0 0 0 0 0 0 0 0 127 0" result="hardAlpha"/>
<feOffset/>
<feGaussianBlur stdDeviation="17.5"/>
<feComposite in2="hardAlpha" operator="out"/>
<feColorMatrix type="matrix" values="0 0 0 0 0 0 0 0 0 0 0 0 0 0 0 0 0 0 0.14 0"/>
<feBlend mode="normal" in2="BackgroundImageFix" result="effect1_dropShadow_17829_61235"/>
<feBlend mode="normal" in="SourceGraphic" in2="effect1_dropShadow_17829_61235" result="shape"/>
</filter>
<linearGradient id="paint0_linear_17829_61235" x1="299.737" y1="342.54" x2="299.737" y2="440.73" gradientUnits="userSpaceOnUse">
<stop stop-color="#00A47E"/>
<stop offset="1" stop-color="#00A47E" stop-opacity="0"/>
</linearGradient>
<clipPath id="clip0_17829_61235">
<rect width="504" height="504" fill="white"/>
</clipPath>
</defs>
</svg>
