<svg width="504" height="450" viewBox="0 0 504 450" fill="none" xmlns="http://www.w3.org/2000/svg">
<g clip-path="url(#clip0_17829_60230)" filter="url(#filter0_b_17829_60230)">
<rect width="504" height="450" fill="url(#paint0_linear_17829_60230)"/>
<g filter="url(#filter1_d_17829_60230)">
<rect x="24" y="200" width="1462" height="109" rx="19" fill="#121212" shape-rendering="crispEdges"/>
<rect x="24.5" y="200.5" width="1461" height="108" rx="18.5" stroke="#25282D" shape-rendering="crispEdges"/>
<rect x="39" y="215" width="350.5" height="79" rx="10" fill="#00A47E" fill-opacity="0.07"/>
<path d="M52.5397 239V230.698H49.4457V229.102H57.3697V230.698H54.2757V239H52.5397ZM61.0115 239.098C60.2555 239.098 59.6022 238.944 59.0515 238.636C58.5102 238.328 58.0902 237.889 57.7915 237.32C57.5022 236.751 57.3575 236.083 57.3575 235.318C57.3575 234.543 57.5069 233.876 57.8055 233.316C58.1042 232.747 58.5242 232.303 59.0655 231.986C59.6069 231.669 60.2555 231.51 61.0115 231.51C61.7582 231.51 62.4022 231.669 62.9435 231.986C63.4849 232.303 63.9002 232.751 64.1895 233.33C64.4789 233.899 64.6235 234.571 64.6235 235.346C64.6235 236.102 64.4789 236.765 64.1895 237.334C63.9095 237.894 63.4989 238.328 62.9575 238.636C62.4162 238.944 61.7675 239.098 61.0115 239.098ZM60.9975 237.544C61.4642 237.544 61.8375 237.441 62.1175 237.236C62.4069 237.031 62.6169 236.76 62.7475 236.424C62.8782 236.088 62.9435 235.724 62.9435 235.332C62.9435 234.94 62.8782 234.571 62.7475 234.226C62.6169 233.881 62.4069 233.605 62.1175 233.4C61.8375 233.185 61.4642 233.078 60.9975 233.078C60.5309 233.078 60.1529 233.185 59.8635 233.4C59.5742 233.605 59.3642 233.881 59.2335 234.226C59.1029 234.562 59.0375 234.931 59.0375 235.332C59.0375 235.724 59.1029 236.093 59.2335 236.438C59.3735 236.774 59.5835 237.045 59.8635 237.25C60.1529 237.446 60.5309 237.544 60.9975 237.544ZM68.931 239.084C68.119 239.084 67.5264 238.86 67.153 238.412C66.7797 237.964 66.593 237.343 66.593 236.55V233.134H65.459V231.622H66.593V229.55H68.301V231.622H70.541V233.134H68.301V236.228C68.301 236.471 68.329 236.69 68.385 236.886C68.441 237.082 68.5437 237.236 68.693 237.348C68.8424 237.46 69.0477 237.521 69.309 237.53C69.533 237.53 69.7244 237.493 69.883 237.418C70.0417 237.343 70.1724 237.259 70.275 237.166L70.849 238.468C70.6717 238.617 70.471 238.739 70.247 238.832C70.0324 238.925 69.813 238.991 69.589 239.028C69.365 239.065 69.1457 239.084 68.931 239.084ZM74.1262 239.098C73.7809 239.098 73.4542 239.051 73.1462 238.958C72.8382 238.865 72.5629 238.729 72.3202 238.552C72.0776 238.365 71.8816 238.137 71.7322 237.866C71.5922 237.586 71.5222 237.259 71.5222 236.886C71.5222 236.41 71.6156 236.023 71.8022 235.724C71.9889 235.416 72.2409 235.183 72.5582 235.024C72.8849 234.865 73.2536 234.758 73.6642 234.702C74.0749 234.637 74.5042 234.604 74.9522 234.604H76.3942C76.3942 234.277 76.3429 233.997 76.2402 233.764C76.1376 233.521 75.9742 233.33 75.7502 233.19C75.5356 233.05 75.2556 232.98 74.9102 232.98C74.6862 232.98 74.4762 233.008 74.2802 233.064C74.0936 233.111 73.9302 233.19 73.7902 233.302C73.6596 233.405 73.5662 233.54 73.5102 233.708H71.7602C71.8256 233.325 71.9562 232.999 72.1522 232.728C72.3576 232.448 72.6049 232.219 72.8942 232.042C73.1929 231.865 73.5196 231.734 73.8742 231.65C74.2289 231.557 74.5882 231.51 74.9522 231.51C76.0256 231.51 76.8049 231.818 77.2902 232.434C77.7849 233.05 78.0322 233.913 78.0322 235.024V239H76.5202L76.4782 238.048C76.2636 238.365 76.0069 238.599 75.7082 238.748C75.4096 238.897 75.1202 238.991 74.8402 239.028C74.5602 239.075 74.3222 239.098 74.1262 239.098ZM74.4622 237.712C74.8356 237.712 75.1669 237.642 75.4562 237.502C75.7456 237.362 75.9742 237.166 76.1422 236.914C76.3196 236.662 76.4082 236.373 76.4082 236.046V235.808H75.0642C74.8402 235.808 74.6162 235.817 74.3922 235.836C74.1776 235.845 73.9816 235.883 73.8042 235.948C73.6269 236.004 73.4822 236.093 73.3702 236.214C73.2676 236.335 73.2162 236.508 73.2162 236.732C73.2162 236.956 73.2722 237.138 73.3842 237.278C73.5056 237.418 73.6596 237.525 73.8462 237.6C74.0422 237.675 74.2476 237.712 74.4622 237.712ZM79.6629 239V229.102H81.3709V239H79.6629ZM87.2027 239V229.102H89.5967L92.3407 234.1L95.0567 229.102H97.3807V239H95.6307V231.314L92.6767 236.662H91.9347L88.9527 231.314V239H87.2027ZM99.3094 239V231.622H101.017V239H99.3094ZM100.163 230.768C99.8367 230.768 99.5754 230.67 99.3794 230.474C99.1834 230.278 99.0854 230.021 99.0854 229.704C99.0854 229.396 99.1881 229.144 99.3934 228.948C99.5987 228.743 99.8554 228.64 100.163 228.64C100.462 228.64 100.719 228.738 100.933 228.934C101.148 229.13 101.255 229.387 101.255 229.704C101.255 230.021 101.153 230.278 100.947 230.474C100.742 230.67 100.481 230.768 100.163 230.768ZM102.673 239V231.622H104.269L104.367 232.56C104.563 232.299 104.791 232.093 105.053 231.944C105.314 231.795 105.589 231.687 105.879 231.622C106.168 231.547 106.439 231.51 106.691 231.51C107.391 231.51 107.941 231.664 108.343 231.972C108.753 232.28 109.043 232.691 109.211 233.204C109.379 233.717 109.463 234.291 109.463 234.926V239H107.755V235.206C107.755 234.935 107.736 234.674 107.699 234.422C107.661 234.161 107.587 233.927 107.475 233.722C107.372 233.517 107.223 233.353 107.027 233.232C106.831 233.111 106.569 233.05 106.243 233.05C105.841 233.05 105.501 233.157 105.221 233.372C104.941 233.587 104.731 233.876 104.591 234.24C104.451 234.595 104.381 235.001 104.381 235.458V239H102.673ZM114.371 239.098C113.606 239.098 112.953 238.939 112.411 238.622C111.879 238.305 111.473 237.866 111.193 237.306C110.923 236.737 110.787 236.079 110.787 235.332C110.787 234.585 110.927 233.927 111.207 233.358C111.497 232.779 111.907 232.327 112.439 232C112.981 231.673 113.629 231.51 114.385 231.51C114.945 231.51 115.435 231.613 115.855 231.818C116.275 232.014 116.625 232.285 116.905 232.63C117.195 232.975 117.409 233.367 117.549 233.806C117.689 234.245 117.755 234.707 117.745 235.192C117.736 235.304 117.727 235.416 117.717 235.528C117.708 235.631 117.694 235.743 117.675 235.864H112.495C112.523 236.191 112.607 236.489 112.747 236.76C112.897 237.031 113.102 237.245 113.363 237.404C113.634 237.563 113.97 237.642 114.371 237.642C114.605 237.642 114.829 237.614 115.043 237.558C115.258 237.493 115.445 237.399 115.603 237.278C115.771 237.157 115.883 237.003 115.939 236.816H117.647C117.526 237.348 117.302 237.782 116.975 238.118C116.649 238.454 116.257 238.701 115.799 238.86C115.351 239.019 114.875 239.098 114.371 239.098ZM112.523 234.59H116.079C116.079 234.282 116.009 234.002 115.869 233.75C115.729 233.498 115.529 233.302 115.267 233.162C115.015 233.013 114.707 232.938 114.343 232.938C113.951 232.938 113.625 233.017 113.363 233.176C113.102 233.335 112.901 233.54 112.761 233.792C112.621 234.044 112.542 234.31 112.523 234.59ZM119.106 239V231.622H120.66L120.758 232.588C120.945 232.308 121.155 232.093 121.388 231.944C121.631 231.785 121.888 231.673 122.158 231.608C122.438 231.543 122.718 231.51 122.998 231.51C123.101 231.51 123.194 231.51 123.278 231.51C123.372 231.51 123.446 231.515 123.502 231.524V233.148H123.054C122.569 233.148 122.158 233.241 121.822 233.428C121.486 233.615 121.234 233.881 121.066 234.226C120.898 234.571 120.814 234.996 120.814 235.5V239H119.106ZM127.198 239.098C126.843 239.098 126.489 239.061 126.134 238.986C125.789 238.911 125.462 238.79 125.154 238.622C124.846 238.445 124.589 238.207 124.384 237.908C124.179 237.609 124.043 237.236 123.978 236.788H125.7C125.775 236.993 125.891 237.161 126.05 237.292C126.218 237.413 126.409 237.507 126.624 237.572C126.848 237.628 127.067 237.656 127.282 237.656C127.413 237.656 127.553 237.647 127.702 237.628C127.861 237.609 128.005 237.572 128.136 237.516C128.276 237.46 128.388 237.381 128.472 237.278C128.556 237.166 128.598 237.021 128.598 236.844C128.598 236.676 128.551 236.545 128.458 236.452C128.365 236.349 128.239 236.27 128.08 236.214C127.921 236.149 127.73 236.097 127.506 236.06C127.105 235.976 126.675 235.887 126.218 235.794C125.761 235.691 125.364 235.533 125.028 235.318C124.888 235.234 124.767 235.136 124.664 235.024C124.561 234.912 124.473 234.791 124.398 234.66C124.333 234.52 124.281 234.371 124.244 234.212C124.216 234.053 124.202 233.881 124.202 233.694C124.202 233.302 124.281 232.971 124.44 232.7C124.608 232.42 124.827 232.196 125.098 232.028C125.378 231.851 125.695 231.72 126.05 231.636C126.405 231.552 126.769 231.51 127.142 231.51C127.646 231.51 128.103 231.589 128.514 231.748C128.925 231.907 129.265 232.149 129.536 232.476C129.816 232.803 129.984 233.218 130.04 233.722H128.416C128.369 233.489 128.225 233.302 127.982 233.162C127.749 233.022 127.45 232.952 127.086 232.952C126.955 232.952 126.82 232.966 126.68 232.994C126.54 233.013 126.405 233.05 126.274 233.106C126.153 233.153 126.05 233.227 125.966 233.33C125.891 233.433 125.854 233.559 125.854 233.708C125.854 233.848 125.887 233.969 125.952 234.072C126.027 234.175 126.134 234.263 126.274 234.338C126.423 234.403 126.596 234.459 126.792 234.506C127.109 234.571 127.441 234.637 127.786 234.702C128.131 234.767 128.43 234.833 128.682 234.898C128.981 234.982 129.251 235.103 129.494 235.262C129.737 235.411 129.923 235.612 130.054 235.864C130.194 236.107 130.264 236.419 130.264 236.802C130.264 237.25 130.171 237.623 129.984 237.922C129.807 238.221 129.569 238.454 129.27 238.622C128.971 238.79 128.64 238.911 128.276 238.986C127.912 239.061 127.553 239.098 127.198 239.098Z" fill="#00A47E"/>
<path d="M53.5587 275V260.468H49.6667V257.444C50.4321 257.425 51.1227 257.36 51.7387 257.248C52.3547 257.117 52.9054 256.893 53.3907 256.576C53.8761 256.24 54.2961 255.773 54.6507 255.176H57.5627V275H53.5587ZM69.4249 275.224C67.9689 275.224 66.7369 274.963 65.7289 274.44C64.7209 273.917 63.8996 273.199 63.2649 272.284C62.6302 271.351 62.1729 270.277 61.8929 269.064C61.6129 267.832 61.4729 266.525 61.4729 265.144C61.4729 263.725 61.6129 262.4 61.8929 261.168C62.1916 259.936 62.6582 258.853 63.2929 257.92C63.9462 256.987 64.7769 256.259 65.7849 255.736C66.8116 255.213 68.0436 254.952 69.4809 254.952C70.9742 254.952 72.2249 255.223 73.2329 255.764C74.2596 256.305 75.0809 257.061 75.6969 258.032C76.3316 258.984 76.7796 260.067 77.0409 261.28C77.3209 262.493 77.4609 263.763 77.4609 265.088C77.4609 266.451 77.3209 267.739 77.0409 268.952C76.7609 270.165 76.3129 271.248 75.6969 272.2C75.0809 273.133 74.2596 273.871 73.2329 274.412C72.2062 274.953 70.9369 275.224 69.4249 275.224ZM69.4249 271.528C70.3396 271.528 71.0582 271.323 71.5809 270.912C72.1222 270.483 72.5236 269.932 72.7849 269.26C73.0649 268.588 73.2422 267.888 73.3169 267.16C73.4102 266.413 73.4569 265.723 73.4569 265.088C73.4569 264.491 73.4102 263.828 73.3169 263.1C73.2422 262.353 73.0742 261.653 72.8129 261C72.5516 260.328 72.1596 259.777 71.6369 259.348C71.1142 258.919 70.4049 258.704 69.5089 258.704C68.6129 258.704 67.8942 258.919 67.3529 259.348C66.8116 259.759 66.4009 260.3 66.1209 260.972C65.8596 261.644 65.6822 262.344 65.5889 263.072C65.4956 263.8 65.4489 264.472 65.4489 265.088C65.4489 265.704 65.4862 266.385 65.5609 267.132C65.6542 267.879 65.8316 268.588 66.0929 269.26C66.3542 269.932 66.7462 270.483 67.2689 270.912C67.8102 271.323 68.5289 271.528 69.4249 271.528Z" fill="#00A47E"/>
<rect x="399.5" y="215" width="350.5" height="79" rx="10" fill="#6BBC2E" fill-opacity="0.07"/>
<path d="M412.248 239L409.728 229.102H411.688L413.592 237.18L415.468 229.102H417.848L419.724 237.18L421.6 229.102H423.462L420.956 239H418.492L416.63 231.076L414.754 239H412.248ZM427.775 239.098C427.019 239.098 426.366 238.944 425.815 238.636C425.274 238.328 424.854 237.889 424.555 237.32C424.266 236.751 424.121 236.083 424.121 235.318C424.121 234.543 424.271 233.876 424.569 233.316C424.868 232.747 425.288 232.303 425.829 231.986C426.371 231.669 427.019 231.51 427.775 231.51C428.522 231.51 429.166 231.669 429.707 231.986C430.249 232.303 430.664 232.751 430.953 233.33C431.243 233.899 431.387 234.571 431.387 235.346C431.387 236.102 431.243 236.765 430.953 237.334C430.673 237.894 430.263 238.328 429.721 238.636C429.18 238.944 428.531 239.098 427.775 239.098ZM427.761 237.544C428.228 237.544 428.601 237.441 428.881 237.236C429.171 237.031 429.381 236.76 429.511 236.424C429.642 236.088 429.707 235.724 429.707 235.332C429.707 234.94 429.642 234.571 429.511 234.226C429.381 233.881 429.171 233.605 428.881 233.4C428.601 233.185 428.228 233.078 427.761 233.078C427.295 233.078 426.917 233.185 426.627 233.4C426.338 233.605 426.128 233.881 425.997 234.226C425.867 234.562 425.801 234.931 425.801 235.332C425.801 235.724 425.867 236.093 425.997 236.438C426.137 236.774 426.347 237.045 426.627 237.25C426.917 237.446 427.295 237.544 427.761 237.544ZM432.755 239V231.622H434.309L434.407 232.588C434.593 232.308 434.803 232.093 435.037 231.944C435.279 231.785 435.536 231.673 435.807 231.608C436.087 231.543 436.367 231.51 436.647 231.51C436.749 231.51 436.843 231.51 436.927 231.51C437.02 231.51 437.095 231.515 437.151 231.524V233.148H436.703C436.217 233.148 435.807 233.241 435.471 233.428C435.135 233.615 434.883 233.881 434.715 234.226C434.547 234.571 434.463 234.996 434.463 235.5V239H432.755ZM438.155 239V229.102H439.863V234.576H440.927L442.873 231.622H444.791L442.397 235.136L444.987 239H442.999L441.025 236.074H439.863V239H438.155ZM445.798 239V231.622H447.506V239H445.798ZM446.652 230.768C446.325 230.768 446.064 230.67 445.868 230.474C445.672 230.278 445.574 230.021 445.574 229.704C445.574 229.396 445.676 229.144 445.882 228.948C446.087 228.743 446.344 228.64 446.652 228.64C446.95 228.64 447.207 228.738 447.422 228.934C447.636 229.13 447.744 229.387 447.744 229.704C447.744 230.021 447.641 230.278 447.436 230.474C447.23 230.67 446.969 230.768 446.652 230.768ZM449.161 239V231.622H450.757L450.855 232.56C451.051 232.299 451.28 232.093 451.541 231.944C451.802 231.795 452.078 231.687 452.367 231.622C452.656 231.547 452.927 231.51 453.179 231.51C453.879 231.51 454.43 231.664 454.831 231.972C455.242 232.28 455.531 232.691 455.699 233.204C455.867 233.717 455.951 234.291 455.951 234.926V239H454.243V235.206C454.243 234.935 454.224 234.674 454.187 234.422C454.15 234.161 454.075 233.927 453.963 233.722C453.86 233.517 453.711 233.353 453.515 233.232C453.319 233.111 453.058 233.05 452.731 233.05C452.33 233.05 451.989 233.157 451.709 233.372C451.429 233.587 451.219 233.876 451.079 234.24C450.939 234.595 450.869 235.001 450.869 235.458V239H449.161ZM460.985 242.374C460.444 242.374 459.935 242.285 459.459 242.108C458.993 241.94 458.596 241.669 458.269 241.296C457.952 240.932 457.737 240.461 457.625 239.882H459.375C459.431 240.106 459.543 240.288 459.711 240.428C459.879 240.568 460.075 240.666 460.299 240.722C460.533 240.787 460.771 240.82 461.013 240.82C461.471 240.82 461.83 240.727 462.091 240.54C462.362 240.353 462.553 240.097 462.665 239.77C462.777 239.453 462.833 239.103 462.833 238.72V238.02C462.665 238.291 462.451 238.505 462.189 238.664C461.937 238.823 461.667 238.935 461.377 239C461.097 239.056 460.817 239.084 460.537 239.084C459.772 239.084 459.147 238.916 458.661 238.58C458.185 238.244 457.835 237.796 457.611 237.236C457.387 236.667 457.275 236.041 457.275 235.36C457.275 234.651 457.397 234.007 457.639 233.428C457.891 232.84 458.265 232.373 458.759 232.028C459.263 231.683 459.893 231.51 460.649 231.51C461.088 231.51 461.499 231.589 461.881 231.748C462.273 231.897 462.6 232.126 462.861 232.434L462.973 231.622H464.555V238.356C464.555 239.187 464.434 239.901 464.191 240.498C463.958 241.105 463.58 241.567 463.057 241.884C462.535 242.211 461.844 242.374 460.985 242.374ZM460.887 237.572C461.326 237.572 461.69 237.469 461.979 237.264C462.269 237.049 462.488 236.769 462.637 236.424C462.787 236.069 462.861 235.687 462.861 235.276C462.861 234.856 462.787 234.478 462.637 234.142C462.497 233.806 462.283 233.54 461.993 233.344C461.713 233.148 461.349 233.05 460.901 233.05C460.425 233.05 460.047 233.157 459.767 233.372C459.487 233.587 459.282 233.871 459.151 234.226C459.03 234.571 458.969 234.94 458.969 235.332C458.969 235.743 459.035 236.121 459.165 236.466C459.296 236.802 459.501 237.073 459.781 237.278C460.061 237.474 460.43 237.572 460.887 237.572Z" fill="#6BBC2E"/>
<path d="M414.059 275V260.468H410.167V257.444C410.932 257.425 411.623 257.36 412.239 257.248C412.855 257.117 413.405 256.893 413.891 256.576C414.376 256.24 414.796 255.773 415.151 255.176H418.063V275H414.059ZM429.925 275.224C428.469 275.224 427.237 274.963 426.229 274.44C425.221 273.917 424.4 273.199 423.765 272.284C423.13 271.351 422.673 270.277 422.393 269.064C422.113 267.832 421.973 266.525 421.973 265.144C421.973 263.725 422.113 262.4 422.393 261.168C422.692 259.936 423.158 258.853 423.793 257.92C424.446 256.987 425.277 256.259 426.285 255.736C427.312 255.213 428.544 254.952 429.981 254.952C431.474 254.952 432.725 255.223 433.733 255.764C434.76 256.305 435.581 257.061 436.197 258.032C436.832 258.984 437.28 260.067 437.541 261.28C437.821 262.493 437.961 263.763 437.961 265.088C437.961 266.451 437.821 267.739 437.541 268.952C437.261 270.165 436.813 271.248 436.197 272.2C435.581 273.133 434.76 273.871 433.733 274.412C432.706 274.953 431.437 275.224 429.925 275.224ZM429.925 271.528C430.84 271.528 431.558 271.323 432.081 270.912C432.622 270.483 433.024 269.932 433.285 269.26C433.565 268.588 433.742 267.888 433.817 267.16C433.91 266.413 433.957 265.723 433.957 265.088C433.957 264.491 433.91 263.828 433.817 263.1C433.742 262.353 433.574 261.653 433.313 261C433.052 260.328 432.66 259.777 432.137 259.348C431.614 258.919 430.905 258.704 430.009 258.704C429.113 258.704 428.394 258.919 427.853 259.348C427.312 259.759 426.901 260.3 426.621 260.972C426.36 261.644 426.182 262.344 426.089 263.072C425.996 263.8 425.949 264.472 425.949 265.088C425.949 265.704 425.986 266.385 426.061 267.132C426.154 267.879 426.332 268.588 426.593 269.26C426.854 269.932 427.246 270.483 427.769 270.912C428.31 271.323 429.029 271.528 429.925 271.528Z" fill="#6BBC2E"/>
</g>
<g filter="url(#filter2_d_17829_60230)">
<g clip-path="url(#clip1_17829_60230)">
<rect x="24" y="321" width="1462" height="166" rx="19" fill="#181818"/>
<mask id="path-11-inside-1_17829_60230" fill="white">
<path d="M44 341H1466V377H44V341Z"/>
</mask>
<path d="M1466 376H44V378H1466V376Z" fill="#25282D" mask="url(#path-11-inside-1_17829_60230)"/>
<rect x="52.5" y="349.5" width="19" height="19" rx="3.5" stroke="#25282D"/>
<path d="M89.106 364V354.102H91.5L94.244 359.1L96.96 354.102H99.284V364H97.534V356.314L94.58 361.662H93.838L90.856 356.314V364H89.106ZM100.443 364L104.237 354.102H106.323L110.103 364H108.213L107.555 362.166H102.991L102.319 364H100.443ZM103.551 360.584H106.981L105.273 355.866L103.551 360.584ZM115.139 364.112C114.112 364.112 113.249 363.902 112.549 363.482C111.849 363.053 111.322 362.46 110.967 361.704C110.612 360.948 110.435 360.071 110.435 359.072C110.435 358.073 110.617 357.191 110.981 356.426C111.345 355.661 111.877 355.063 112.577 354.634C113.277 354.195 114.131 353.976 115.139 353.976C115.886 353.976 116.544 354.102 117.113 354.354C117.682 354.606 118.144 354.965 118.499 355.432C118.863 355.889 119.096 356.454 119.199 357.126H117.505C117.374 356.65 117.108 356.277 116.707 356.006C116.306 355.735 115.783 355.6 115.139 355.6C114.439 355.6 113.874 355.763 113.445 356.09C113.016 356.417 112.703 356.837 112.507 357.35C112.32 357.863 112.227 358.414 112.227 359.002C112.227 359.609 112.325 360.178 112.521 360.71C112.726 361.242 113.048 361.671 113.487 361.998C113.926 362.325 114.49 362.488 115.181 362.488C115.61 362.488 115.984 362.427 116.301 362.306C116.628 362.185 116.898 362.012 117.113 361.788C117.337 361.555 117.491 361.284 117.575 360.976H119.353C119.241 361.639 118.989 362.203 118.597 362.67C118.214 363.137 117.724 363.496 117.127 363.748C116.539 363.991 115.876 364.112 115.139 364.112Z" fill="white"/>
<path d="M247.138 364.112C246.195 364.112 245.421 363.93 244.814 363.566C244.207 363.193 243.759 362.67 243.47 361.998C243.181 361.326 243.036 360.533 243.036 359.618V354.102H244.786V359.66C244.786 360.164 244.856 360.635 244.996 361.074C245.145 361.503 245.393 361.849 245.738 362.11C246.093 362.371 246.569 362.502 247.166 362.502C247.773 362.502 248.239 362.371 248.566 362.11C248.902 361.839 249.135 361.489 249.266 361.06C249.406 360.631 249.476 360.164 249.476 359.66V354.102H251.24V359.618C251.24 360.523 251.095 361.312 250.806 361.984C250.517 362.656 250.073 363.179 249.476 363.552C248.879 363.925 248.099 364.112 247.138 364.112ZM253.107 364V356.622H254.703L254.801 357.56C254.997 357.299 255.226 357.093 255.487 356.944C255.749 356.795 256.024 356.687 256.313 356.622C256.603 356.547 256.873 356.51 257.125 356.51C257.825 356.51 258.376 356.664 258.777 356.972C259.188 357.28 259.477 357.691 259.645 358.204C259.813 358.717 259.897 359.291 259.897 359.926V364H258.189V360.206C258.189 359.935 258.171 359.674 258.133 359.422C258.096 359.161 258.021 358.927 257.909 358.722C257.807 358.517 257.657 358.353 257.461 358.232C257.265 358.111 257.004 358.05 256.677 358.05C256.276 358.05 255.935 358.157 255.655 358.372C255.375 358.587 255.165 358.876 255.025 359.24C254.885 359.595 254.815 360.001 254.815 360.458V364H253.107ZM261.502 364V356.622H263.21V364H261.502ZM262.356 355.768C262.029 355.768 261.768 355.67 261.572 355.474C261.376 355.278 261.278 355.021 261.278 354.704C261.278 354.396 261.38 354.144 261.586 353.948C261.791 353.743 262.048 353.64 262.356 353.64C262.654 353.64 262.911 353.738 263.126 353.934C263.34 354.13 263.448 354.387 263.448 354.704C263.448 355.021 263.345 355.278 263.14 355.474C262.934 355.67 262.673 355.768 262.356 355.768ZM267.805 364.084C266.993 364.084 266.4 363.86 266.027 363.412C265.654 362.964 265.467 362.343 265.467 361.55V358.134H264.333V356.622H265.467V354.55H267.175V356.622H269.415V358.134H267.175V361.228C267.175 361.471 267.203 361.69 267.259 361.886C267.315 362.082 267.418 362.236 267.567 362.348C267.716 362.46 267.922 362.521 268.183 362.53C268.407 362.53 268.598 362.493 268.757 362.418C268.916 362.343 269.046 362.259 269.149 362.166L269.723 363.468C269.546 363.617 269.345 363.739 269.121 363.832C268.906 363.925 268.687 363.991 268.463 364.028C268.239 364.065 268.02 364.084 267.805 364.084ZM278.507 364.112C277.844 364.112 277.219 364.014 276.631 363.818C276.052 363.613 275.567 363.291 275.175 362.852C274.783 362.404 274.526 361.821 274.405 361.102H276.183C276.295 361.466 276.472 361.751 276.715 361.956C276.967 362.161 277.261 362.306 277.597 362.39C277.933 362.465 278.273 362.502 278.619 362.502C278.927 362.502 279.216 362.465 279.487 362.39C279.767 362.306 279.995 362.171 280.173 361.984C280.359 361.797 280.453 361.55 280.453 361.242C280.453 361.009 280.401 360.822 280.299 360.682C280.205 360.533 280.07 360.411 279.893 360.318C279.725 360.215 279.519 360.136 279.277 360.08C279.043 360.005 278.791 359.94 278.521 359.884C278.25 359.828 277.984 359.767 277.723 359.702C277.461 359.637 277.214 359.553 276.981 359.45C276.682 359.347 276.393 359.231 276.113 359.1C275.842 358.96 275.604 358.792 275.399 358.596C275.203 358.4 275.044 358.157 274.923 357.868C274.801 357.579 274.741 357.233 274.741 356.832C274.741 356.375 274.815 355.983 274.965 355.656C275.123 355.32 275.329 355.045 275.581 354.83C275.842 354.615 276.131 354.447 276.449 354.326C276.775 354.205 277.111 354.116 277.457 354.06C277.811 354.004 278.147 353.976 278.465 353.976C279.081 353.976 279.641 354.079 280.145 354.284C280.658 354.489 281.078 354.807 281.405 355.236C281.731 355.665 281.918 356.216 281.965 356.888H280.271C280.233 356.571 280.121 356.319 279.935 356.132C279.748 355.936 279.515 355.796 279.235 355.712C278.955 355.619 278.651 355.572 278.325 355.572C278.101 355.572 277.877 355.591 277.653 355.628C277.438 355.665 277.242 355.731 277.065 355.824C276.897 355.917 276.757 356.043 276.645 356.202C276.542 356.351 276.491 356.543 276.491 356.776C276.491 356.981 276.542 357.163 276.645 357.322C276.747 357.471 276.887 357.597 277.065 357.7C277.251 357.803 277.471 357.896 277.723 357.98C278.049 358.111 278.404 358.209 278.787 358.274C279.179 358.339 279.547 358.428 279.893 358.54C280.229 358.633 280.537 358.75 280.817 358.89C281.106 359.021 281.353 359.184 281.559 359.38C281.764 359.567 281.923 359.8 282.035 360.08C282.156 360.351 282.217 360.677 282.217 361.06C282.217 361.62 282.114 362.096 281.909 362.488C281.713 362.871 281.437 363.183 281.083 363.426C280.737 363.669 280.341 363.846 279.893 363.958C279.454 364.061 278.992 364.112 278.507 364.112ZM283.354 366.31L287.764 352.912H289.5L285.076 366.31H283.354ZM291.04 364V354.102H292.916L297.69 361.312V354.102H299.44V364H297.606L292.79 356.832V364H291.04Z" fill="white"/>
<path d="M397.106 364V354.102H400.83C401.577 354.102 402.221 354.219 402.762 354.452C403.313 354.676 403.737 355.035 404.036 355.53C404.344 356.025 404.498 356.673 404.498 357.476C404.498 358.241 404.33 358.881 403.994 359.394C403.658 359.907 403.201 360.295 402.622 360.556C402.043 360.808 401.381 360.934 400.634 360.934H398.856V364H397.106ZM398.856 359.366H400.606C401.25 359.366 401.768 359.212 402.16 358.904C402.552 358.596 402.748 358.111 402.748 357.448C402.748 356.869 402.585 356.435 402.258 356.146C401.931 355.847 401.427 355.698 400.746 355.698H398.856V359.366ZM409.976 364.112C409.313 364.112 408.688 364.014 408.1 363.818C407.521 363.613 407.036 363.291 406.644 362.852C406.252 362.404 405.995 361.821 405.874 361.102H407.652C407.764 361.466 407.941 361.751 408.184 361.956C408.436 362.161 408.73 362.306 409.066 362.39C409.402 362.465 409.742 362.502 410.088 362.502C410.396 362.502 410.685 362.465 410.956 362.39C411.236 362.306 411.464 362.171 411.642 361.984C411.828 361.797 411.922 361.55 411.922 361.242C411.922 361.009 411.87 360.822 411.768 360.682C411.674 360.533 411.539 360.411 411.362 360.318C411.194 360.215 410.988 360.136 410.746 360.08C410.512 360.005 410.26 359.94 409.99 359.884C409.719 359.828 409.453 359.767 409.192 359.702C408.93 359.637 408.683 359.553 408.45 359.45C408.151 359.347 407.862 359.231 407.582 359.1C407.311 358.96 407.073 358.792 406.868 358.596C406.672 358.4 406.513 358.157 406.392 357.868C406.27 357.579 406.21 357.233 406.21 356.832C406.21 356.375 406.284 355.983 406.434 355.656C406.592 355.32 406.798 355.045 407.05 354.83C407.311 354.615 407.6 354.447 407.918 354.326C408.244 354.205 408.58 354.116 408.926 354.06C409.28 354.004 409.616 353.976 409.934 353.976C410.55 353.976 411.11 354.079 411.614 354.284C412.127 354.489 412.547 354.807 412.874 355.236C413.2 355.665 413.387 356.216 413.434 356.888H411.74C411.702 356.571 411.59 356.319 411.404 356.132C411.217 355.936 410.984 355.796 410.704 355.712C410.424 355.619 410.12 355.572 409.794 355.572C409.57 355.572 409.346 355.591 409.122 355.628C408.907 355.665 408.711 355.731 408.534 355.824C408.366 355.917 408.226 356.043 408.114 356.202C408.011 356.351 407.96 356.543 407.96 356.776C407.96 356.981 408.011 357.163 408.114 357.322C408.216 357.471 408.356 357.597 408.534 357.7C408.72 357.803 408.94 357.896 409.192 357.98C409.518 358.111 409.873 358.209 410.256 358.274C410.648 358.339 411.016 358.428 411.362 358.54C411.698 358.633 412.006 358.75 412.286 358.89C412.575 359.021 412.822 359.184 413.028 359.38C413.233 359.567 413.392 359.8 413.504 360.08C413.625 360.351 413.686 360.677 413.686 361.06C413.686 361.62 413.583 362.096 413.378 362.488C413.182 362.871 412.906 363.183 412.552 363.426C412.206 363.669 411.81 363.846 411.362 363.958C410.923 364.061 410.461 364.112 409.976 364.112ZM419.527 364.112C418.584 364.112 417.809 363.93 417.203 363.566C416.596 363.193 416.148 362.67 415.859 361.998C415.569 361.326 415.425 360.533 415.425 359.618V354.102H417.175V359.66C417.175 360.164 417.245 360.635 417.385 361.074C417.534 361.503 417.781 361.849 418.127 362.11C418.481 362.371 418.957 362.502 419.555 362.502C420.161 362.502 420.628 362.371 420.955 362.11C421.291 361.839 421.524 361.489 421.655 361.06C421.795 360.631 421.865 360.164 421.865 359.66V354.102H423.629V359.618C423.629 360.523 423.484 361.312 423.195 361.984C422.905 362.656 422.462 363.179 421.865 363.552C421.267 363.925 420.488 364.112 419.527 364.112ZM433.354 364.112C432.692 364.112 432.066 364.014 431.478 363.818C430.9 363.613 430.414 363.291 430.022 362.852C429.63 362.404 429.374 361.821 429.252 361.102H431.03C431.142 361.466 431.32 361.751 431.562 361.956C431.814 362.161 432.108 362.306 432.444 362.39C432.78 362.465 433.121 362.502 433.466 362.502C433.774 362.502 434.064 362.465 434.334 362.39C434.614 362.306 434.843 362.171 435.02 361.984C435.207 361.797 435.3 361.55 435.3 361.242C435.3 361.009 435.249 360.822 435.146 360.682C435.053 360.533 434.918 360.411 434.74 360.318C434.572 360.215 434.367 360.136 434.124 360.08C433.891 360.005 433.639 359.94 433.368 359.884C433.098 359.828 432.832 359.767 432.57 359.702C432.309 359.637 432.062 359.553 431.828 359.45C431.53 359.347 431.24 359.231 430.96 359.1C430.69 358.96 430.452 358.792 430.246 358.596C430.05 358.4 429.892 358.157 429.77 357.868C429.649 357.579 429.588 357.233 429.588 356.832C429.588 356.375 429.663 355.983 429.812 355.656C429.971 355.32 430.176 355.045 430.428 354.83C430.69 354.615 430.979 354.447 431.296 354.326C431.623 354.205 431.959 354.116 432.304 354.06C432.659 354.004 432.995 353.976 433.312 353.976C433.928 353.976 434.488 354.079 434.992 354.284C435.506 354.489 435.926 354.807 436.252 355.236C436.579 355.665 436.766 356.216 436.812 356.888H435.118C435.081 356.571 434.969 356.319 434.782 356.132C434.596 355.936 434.362 355.796 434.082 355.712C433.802 355.619 433.499 355.572 433.172 355.572C432.948 355.572 432.724 355.591 432.5 355.628C432.286 355.665 432.09 355.731 431.912 355.824C431.744 355.917 431.604 356.043 431.492 356.202C431.39 356.351 431.338 356.543 431.338 356.776C431.338 356.981 431.39 357.163 431.492 357.322C431.595 357.471 431.735 357.597 431.912 357.7C432.099 357.803 432.318 357.896 432.57 357.98C432.897 358.111 433.252 358.209 433.634 358.274C434.026 358.339 434.395 358.428 434.74 358.54C435.076 358.633 435.384 358.75 435.664 358.89C435.954 359.021 436.201 359.184 436.406 359.38C436.612 359.567 436.77 359.8 436.882 360.08C437.004 360.351 437.064 360.677 437.064 361.06C437.064 361.62 436.962 362.096 436.756 362.488C436.56 362.871 436.285 363.183 435.93 363.426C435.585 363.669 435.188 363.846 434.74 363.958C434.302 364.061 433.84 364.112 433.354 364.112ZM438.202 366.31L442.612 352.912H444.348L439.924 366.31H438.202ZM445.887 364V354.102H447.763L452.537 361.312V354.102H454.287V364H452.453L447.637 356.832V364H445.887Z" fill="white"/>
<mask id="path-17-inside-2_17829_60230" fill="white">
<path d="M44 377H1466V417H44V377Z"/>
</mask>
<path d="M1466 416H44V418H1466V416Z" fill="#25282D" mask="url(#path-17-inside-2_17829_60230)"/>
<rect x="52" y="387" width="20" height="20" rx="4" fill="#00A47E"/>
<path d="M67.3327 393L59.9993 400.333L56.666 397" stroke="#181818" stroke-width="1.5" stroke-linecap="round" stroke-linejoin="round"/>
<path d="M98.188 403L97.18 400.264H90.88L89.872 403H88.18L92.914 390.274H95.164L99.88 403H98.188ZM94.03 391.642L91.402 398.842H96.658L94.03 391.642ZM104.667 403H103.101V392.794H100.509V391.732C100.869 391.708 101.199 391.678 101.499 391.642C101.799 391.594 102.075 391.516 102.327 391.408C102.579 391.3 102.807 391.156 103.011 390.976C103.215 390.796 103.401 390.562 103.569 390.274H104.667V403ZM108.866 392.542C109.166 392.542 109.418 392.644 109.622 392.848C109.838 393.052 109.946 393.31 109.946 393.622C109.946 393.946 109.838 394.21 109.622 394.414C109.418 394.606 109.166 394.702 108.866 394.702C108.554 394.702 108.296 394.6 108.092 394.396C107.9 394.192 107.804 393.934 107.804 393.622C107.804 393.31 107.9 393.052 108.092 392.848C108.296 392.644 108.554 392.542 108.866 392.542ZM108.866 398.95C109.166 398.95 109.418 399.052 109.622 399.256C109.838 399.46 109.946 399.718 109.946 400.03C109.946 400.342 109.838 400.6 109.622 400.804C109.418 401.008 109.166 401.11 108.866 401.11C108.554 401.11 108.296 401.008 108.092 400.804C107.9 400.6 107.804 400.342 107.804 400.03C107.804 399.718 107.9 399.46 108.092 399.256C108.296 399.052 108.554 398.95 108.866 398.95ZM121.338 403L120.33 400.264H114.03L113.022 403H111.33L116.064 390.274H118.314L123.03 403H121.338ZM117.18 391.642L114.552 398.842H119.808L117.18 391.642ZM127.349 398.554C127.673 398.278 128.027 397.978 128.411 397.654C128.807 397.318 129.173 396.958 129.509 396.574C129.857 396.19 130.151 395.788 130.391 395.368C130.631 394.936 130.757 394.468 130.769 393.964C130.793 393.196 130.571 392.608 130.103 392.2C129.635 391.78 129.017 391.57 128.249 391.57C127.637 391.57 127.103 391.696 126.647 391.948C126.191 392.2 125.891 392.566 125.747 393.046H124.073C124.157 392.554 124.331 392.128 124.595 391.768C124.871 391.396 125.201 391.09 125.585 390.85C125.981 390.61 126.413 390.43 126.881 390.31C127.349 390.19 127.829 390.13 128.321 390.13C128.909 390.13 129.449 390.214 129.941 390.382C130.433 390.538 130.859 390.772 131.219 391.084C131.579 391.396 131.855 391.786 132.047 392.254C132.251 392.71 132.353 393.232 132.353 393.82C132.353 394.408 132.263 394.936 132.083 395.404C131.915 395.872 131.681 396.304 131.381 396.7C131.093 397.096 130.763 397.468 130.391 397.816C130.019 398.164 129.635 398.512 129.239 398.86L126.017 401.578H132.497V403H123.749V401.704L127.349 398.554ZM135.672 392.542C135.972 392.542 136.224 392.644 136.428 392.848C136.644 393.052 136.752 393.31 136.752 393.622C136.752 393.946 136.644 394.21 136.428 394.414C136.224 394.606 135.972 394.702 135.672 394.702C135.36 394.702 135.102 394.6 134.898 394.396C134.706 394.192 134.61 393.934 134.61 393.622C134.61 393.31 134.706 393.052 134.898 392.848C135.102 392.644 135.36 392.542 135.672 392.542ZM135.672 398.95C135.972 398.95 136.224 399.052 136.428 399.256C136.644 399.46 136.752 399.718 136.752 400.03C136.752 400.342 136.644 400.6 136.428 400.804C136.224 401.008 135.972 401.11 135.672 401.11C135.36 401.11 135.102 401.008 134.898 400.804C134.706 400.6 134.61 400.342 134.61 400.03C134.61 399.718 134.706 399.46 134.898 399.256C135.102 399.052 135.36 398.95 135.672 398.95ZM148.145 403L147.137 400.264H140.837L139.829 403H138.137L142.871 390.274H145.121L149.837 403H148.145ZM143.987 391.642L141.359 398.842H146.615L143.987 391.642ZM155.254 403.144C154.75 403.144 154.24 403.096 153.724 403C153.22 402.904 152.746 402.742 152.302 402.514C151.87 402.274 151.498 401.962 151.186 401.578C150.886 401.194 150.694 400.72 150.61 400.156H152.23C152.338 400.468 152.5 400.726 152.716 400.93C152.944 401.122 153.196 401.278 153.472 401.398C153.76 401.518 154.06 401.602 154.372 401.65C154.684 401.698 154.984 401.722 155.272 401.722C155.536 401.722 155.836 401.698 156.172 401.65C156.508 401.602 156.82 401.5 157.108 401.344C157.408 401.188 157.654 400.96 157.846 400.66C158.05 400.348 158.152 399.94 158.152 399.436C158.152 398.956 158.056 398.572 157.864 398.284C157.684 397.996 157.444 397.774 157.144 397.618C156.856 397.462 156.526 397.36 156.154 397.312C155.794 397.264 155.428 397.24 155.056 397.24H153.832V395.836H154.57C154.894 395.836 155.194 395.83 155.47 395.818C155.746 395.794 156.052 395.71 156.388 395.566C156.772 395.386 157.078 395.134 157.306 394.81C157.534 394.474 157.654 394.09 157.666 393.658C157.666 393.226 157.594 392.872 157.45 392.596C157.306 392.32 157.114 392.104 156.874 391.948C156.634 391.792 156.364 391.69 156.064 391.642C155.764 391.582 155.458 391.552 155.146 391.552C154.894 391.552 154.63 391.582 154.354 391.642C154.09 391.69 153.838 391.774 153.598 391.894C153.37 392.014 153.166 392.176 152.986 392.38C152.806 392.572 152.68 392.806 152.608 393.082H151.042C151.114 392.554 151.282 392.104 151.546 391.732C151.81 391.36 152.134 391.054 152.518 390.814C152.914 390.574 153.346 390.4 153.814 390.292C154.294 390.184 154.78 390.13 155.272 390.13C155.812 390.13 156.316 390.19 156.784 390.31C157.264 390.418 157.684 390.604 158.044 390.868C158.404 391.12 158.686 391.456 158.89 391.876C159.106 392.296 159.214 392.806 159.214 393.406C159.214 393.634 159.19 393.88 159.142 394.144C159.094 394.396 159.004 394.648 158.872 394.9C158.74 395.152 158.548 395.404 158.296 395.656C158.044 395.908 157.714 396.118 157.306 396.286C158.11 396.442 158.722 396.796 159.142 397.348C159.562 397.888 159.772 398.542 159.772 399.31V399.382C159.772 400.042 159.652 400.612 159.412 401.092C159.184 401.56 158.866 401.95 158.458 402.262C158.05 402.562 157.57 402.784 157.018 402.928C156.466 403.072 155.878 403.144 155.254 403.144ZM163.059 392.542C163.359 392.542 163.611 392.644 163.815 392.848C164.031 393.052 164.139 393.31 164.139 393.622C164.139 393.946 164.031 394.21 163.815 394.414C163.611 394.606 163.359 394.702 163.059 394.702C162.747 394.702 162.489 394.6 162.285 394.396C162.093 394.192 161.997 393.934 161.997 393.622C161.997 393.31 162.093 393.052 162.285 392.848C162.489 392.644 162.747 392.542 163.059 392.542ZM163.059 398.95C163.359 398.95 163.611 399.052 163.815 399.256C164.031 399.46 164.139 399.718 164.139 400.03C164.139 400.342 164.031 400.6 163.815 400.804C163.611 401.008 163.359 401.11 163.059 401.11C162.747 401.11 162.489 401.008 162.285 400.804C162.093 400.6 161.997 400.342 161.997 400.03C161.997 399.718 162.093 399.46 162.285 399.256C162.489 399.052 162.747 398.95 163.059 398.95ZM175.532 403L174.524 400.264H168.224L167.216 403H165.524L170.258 390.274H172.508L177.224 403H175.532ZM171.374 391.642L168.746 398.842H174.002L171.374 391.642ZM186.636 390.274V399.04H188.13V400.462H186.636V403H185.07V400.462H178.158V399.292L184.386 390.274H186.636ZM180.048 399.04H185.07V391.696L180.048 399.04ZM191.061 392.542C191.361 392.542 191.613 392.644 191.817 392.848C192.033 393.052 192.141 393.31 192.141 393.622C192.141 393.946 192.033 394.21 191.817 394.414C191.613 394.606 191.361 394.702 191.061 394.702C190.749 394.702 190.491 394.6 190.287 394.396C190.095 394.192 189.999 393.934 189.999 393.622C189.999 393.31 190.095 393.052 190.287 392.848C190.491 392.644 190.749 392.542 191.061 392.542ZM191.061 398.95C191.361 398.95 191.613 399.052 191.817 399.256C192.033 399.46 192.141 399.718 192.141 400.03C192.141 400.342 192.033 400.6 191.817 400.804C191.613 401.008 191.361 401.11 191.061 401.11C190.749 401.11 190.491 401.008 190.287 400.804C190.095 400.6 189.999 400.342 189.999 400.03C189.999 399.718 190.095 399.46 190.287 399.256C190.491 399.052 190.749 398.95 191.061 398.95ZM203.534 403L202.526 400.264H196.226L195.218 403H193.526L198.26 390.274H200.51L205.226 403H203.534ZM199.376 391.642L196.748 398.842H202.004L199.376 391.642ZM206.88 397.276L207.456 390.274H215.07V391.714H208.86L208.5 395.71C208.824 395.446 209.22 395.236 209.688 395.08C210.156 394.912 210.732 394.828 211.416 394.828C212.028 394.828 212.586 394.924 213.09 395.116C213.594 395.308 214.026 395.584 214.386 395.944C214.746 396.292 215.022 396.718 215.214 397.222C215.418 397.726 215.52 398.284 215.52 398.896C215.52 399.568 215.4 400.168 215.16 400.696C214.932 401.212 214.614 401.656 214.206 402.028C213.798 402.4 213.312 402.682 212.748 402.874C212.196 403.066 211.596 403.162 210.948 403.162C210.42 403.162 209.91 403.102 209.418 402.982C208.938 402.862 208.5 402.682 208.104 402.442C207.708 402.19 207.372 401.872 207.096 401.488C206.82 401.104 206.628 400.648 206.52 400.12H208.104C208.2 400.372 208.344 400.6 208.536 400.804C208.728 400.996 208.944 401.164 209.184 401.308C209.436 401.44 209.7 401.542 209.976 401.614C210.252 401.686 210.528 401.722 210.804 401.722C211.236 401.722 211.638 401.668 212.01 401.56C212.394 401.452 212.724 401.29 213 401.074C213.288 400.846 213.51 400.564 213.666 400.228C213.822 399.88 213.9 399.466 213.9 398.986C213.9 398.11 213.636 397.438 213.108 396.97C212.58 396.502 211.896 396.268 211.056 396.268C210.552 396.268 210.084 396.358 209.652 396.538C209.232 396.718 208.848 396.964 208.5 397.276H206.88Z" fill="white"/>
<path d="M243.566 390.274H248.084C249.068 390.274 249.932 390.43 250.676 390.742C251.432 391.042 252.062 391.474 252.566 392.038C253.07 392.59 253.448 393.262 253.7 394.054C253.952 394.834 254.078 395.698 254.078 396.646C254.066 397.594 253.934 398.458 253.682 399.238C253.43 400.018 253.052 400.69 252.548 401.254C252.056 401.806 251.438 402.238 250.694 402.55C249.95 402.85 249.08 403 248.084 403H243.566V390.274ZM245.132 391.696V401.578H247.976C248.624 401.578 249.242 401.482 249.83 401.29C250.43 401.086 250.94 400.732 251.36 400.228C251.744 399.784 252.026 399.262 252.206 398.662C252.386 398.05 252.476 397.378 252.476 396.646C252.476 395.89 252.386 395.218 252.206 394.63C252.026 394.042 251.756 393.532 251.396 393.1C251.036 392.668 250.58 392.326 250.028 392.074C249.476 391.822 248.822 391.696 248.066 391.696H245.132ZM261.195 391.552C260.859 391.552 260.517 391.582 260.169 391.642C259.833 391.702 259.527 391.81 259.251 391.966C258.975 392.11 258.747 392.314 258.567 392.578C258.399 392.83 258.315 393.154 258.315 393.55C258.315 394.03 258.441 394.42 258.693 394.72C258.945 395.008 259.251 395.23 259.611 395.386C259.899 395.506 260.205 395.608 260.529 395.692C260.853 395.776 261.183 395.854 261.519 395.926C261.867 395.998 262.203 396.07 262.527 396.142C262.863 396.214 263.187 396.304 263.499 396.412C264.231 396.664 264.813 397.024 265.245 397.492C265.689 397.96 265.911 398.578 265.911 399.346C265.911 400.066 265.785 400.66 265.533 401.128C265.293 401.596 264.963 401.98 264.543 402.28C264.135 402.58 263.655 402.802 263.103 402.946C262.563 403.078 261.987 403.144 261.375 403.144C260.763 403.144 260.175 403.084 259.611 402.964C259.059 402.844 258.555 402.646 258.099 402.37C257.643 402.094 257.253 401.734 256.929 401.29C256.605 400.846 256.377 400.306 256.245 399.67H257.883C258.003 400.078 258.189 400.414 258.441 400.678C258.693 400.942 258.981 401.152 259.305 401.308C259.629 401.464 259.977 401.572 260.349 401.632C260.733 401.692 261.111 401.722 261.483 401.722C261.843 401.722 262.191 401.686 262.527 401.614C262.875 401.53 263.181 401.404 263.445 401.236C263.709 401.068 263.919 400.852 264.075 400.588C264.231 400.324 264.309 400.006 264.309 399.634C264.309 399.07 264.159 398.65 263.859 398.374C263.559 398.098 263.157 397.888 262.653 397.744C262.317 397.636 261.963 397.546 261.591 397.474C261.219 397.402 260.847 397.324 260.475 397.24C260.103 397.156 259.737 397.06 259.377 396.952C259.017 396.832 258.687 396.694 258.387 396.538C257.907 396.31 257.505 395.962 257.181 395.494C256.857 395.014 256.695 394.414 256.695 393.694C256.695 393.022 256.827 392.458 257.091 392.002C257.355 391.546 257.697 391.18 258.117 390.904C258.537 390.628 259.005 390.43 259.521 390.31C260.049 390.19 260.607 390.13 261.195 390.13C261.675 390.142 262.107 390.184 262.491 390.256C262.887 390.316 263.259 390.43 263.607 390.598C264.147 390.838 264.597 391.198 264.957 391.678C265.317 392.158 265.515 392.776 265.551 393.532H264.021C263.973 393.16 263.859 392.848 263.679 392.596C263.511 392.344 263.301 392.14 263.049 391.984C262.797 391.828 262.509 391.72 262.185 391.66C261.873 391.588 261.543 391.552 261.195 391.552ZM268.527 403V390.274H277.077V391.696H270.093V396.466H276.195V397.906H270.093V403H268.527ZM286.394 396.43C286.226 396.778 286.01 397.078 285.746 397.33C285.482 397.57 285.188 397.768 284.864 397.924C284.54 398.08 284.198 398.194 283.838 398.266C283.49 398.326 283.136 398.356 282.776 398.356C282.212 398.356 281.684 398.272 281.192 398.104C280.7 397.924 280.268 397.666 279.896 397.33C279.536 396.994 279.248 396.58 279.032 396.088C278.816 395.596 278.708 395.026 278.708 394.378C278.708 393.742 278.816 393.166 279.032 392.65C279.248 392.122 279.548 391.672 279.932 391.3C280.328 390.928 280.79 390.64 281.318 390.436C281.846 390.232 282.452 390.13 283.136 390.13C284.072 390.13 284.846 390.34 285.458 390.76C286.07 391.168 286.556 391.696 286.916 392.344C287.276 392.992 287.528 393.718 287.672 394.522C287.816 395.326 287.888 396.118 287.888 396.898C287.888 397.762 287.786 398.608 287.582 399.436C287.39 400.252 287.072 400.948 286.628 401.524C286.244 402.028 285.74 402.424 285.116 402.712C284.504 403 283.766 403.144 282.902 403.144C282.446 403.144 281.996 403.09 281.552 402.982C281.12 402.862 280.724 402.688 280.364 402.46C280.004 402.22 279.692 401.932 279.428 401.596C279.164 401.248 278.972 400.84 278.852 400.372H280.58C280.784 400.828 281.126 401.17 281.606 401.398C282.098 401.614 282.59 401.722 283.082 401.722C283.67 401.71 284.168 401.59 284.576 401.362C284.984 401.134 285.314 400.828 285.566 400.444C285.746 400.168 285.89 399.862 285.998 399.526C286.106 399.178 286.19 398.842 286.25 398.518C286.31 398.182 286.346 397.864 286.358 397.564C286.382 397.264 286.394 397.018 286.394 396.826V396.43ZM280.31 394.234C280.31 395.074 280.55 395.728 281.03 396.196C281.522 396.664 282.182 396.904 283.01 396.916C283.394 396.916 283.754 396.856 284.09 396.736C284.438 396.616 284.738 396.442 284.99 396.214C285.254 395.986 285.458 395.716 285.602 395.404C285.758 395.08 285.836 394.726 285.836 394.342C285.836 393.934 285.764 393.562 285.62 393.226C285.488 392.878 285.296 392.584 285.044 392.344C284.804 392.092 284.516 391.9 284.18 391.768C283.844 391.624 283.478 391.552 283.082 391.552C282.686 391.552 282.314 391.624 281.966 391.768C281.63 391.912 281.336 392.104 281.084 392.344C280.844 392.584 280.652 392.866 280.508 393.19C280.376 393.514 280.31 393.862 280.31 394.234ZM290.347 403L295.495 391.714H288.763V390.274H297.223V391.57L292.075 403H290.347ZM303.611 391.552C303.275 391.552 302.933 391.582 302.585 391.642C302.249 391.702 301.943 391.81 301.667 391.966C301.391 392.11 301.163 392.314 300.983 392.578C300.815 392.83 300.731 393.154 300.731 393.55C300.731 394.03 300.857 394.42 301.109 394.72C301.361 395.008 301.667 395.23 302.027 395.386C302.315 395.506 302.621 395.608 302.945 395.692C303.269 395.776 303.599 395.854 303.935 395.926C304.283 395.998 304.619 396.07 304.943 396.142C305.279 396.214 305.603 396.304 305.915 396.412C306.647 396.664 307.229 397.024 307.661 397.492C308.105 397.96 308.327 398.578 308.327 399.346C308.327 400.066 308.201 400.66 307.949 401.128C307.709 401.596 307.379 401.98 306.959 402.28C306.551 402.58 306.071 402.802 305.519 402.946C304.979 403.078 304.403 403.144 303.791 403.144C303.179 403.144 302.591 403.084 302.027 402.964C301.475 402.844 300.971 402.646 300.515 402.37C300.059 402.094 299.669 401.734 299.345 401.29C299.021 400.846 298.793 400.306 298.661 399.67H300.299C300.419 400.078 300.605 400.414 300.857 400.678C301.109 400.942 301.397 401.152 301.721 401.308C302.045 401.464 302.393 401.572 302.765 401.632C303.149 401.692 303.527 401.722 303.899 401.722C304.259 401.722 304.607 401.686 304.943 401.614C305.291 401.53 305.597 401.404 305.861 401.236C306.125 401.068 306.335 400.852 306.491 400.588C306.647 400.324 306.725 400.006 306.725 399.634C306.725 399.07 306.575 398.65 306.275 398.374C305.975 398.098 305.573 397.888 305.069 397.744C304.733 397.636 304.379 397.546 304.007 397.474C303.635 397.402 303.263 397.324 302.891 397.24C302.519 397.156 302.153 397.06 301.793 396.952C301.433 396.832 301.103 396.694 300.803 396.538C300.323 396.31 299.921 395.962 299.597 395.494C299.273 395.014 299.111 394.414 299.111 393.694C299.111 393.022 299.243 392.458 299.507 392.002C299.771 391.546 300.113 391.18 300.533 390.904C300.953 390.628 301.421 390.43 301.937 390.31C302.465 390.19 303.023 390.13 303.611 390.13C304.091 390.142 304.523 390.184 304.907 390.256C305.303 390.316 305.675 390.43 306.023 390.598C306.563 390.838 307.013 391.198 307.373 391.678C307.733 392.158 307.931 392.776 307.967 393.532H306.437C306.389 393.16 306.275 392.848 306.095 392.596C305.927 392.344 305.717 392.14 305.465 391.984C305.213 391.828 304.925 391.72 304.601 391.66C304.289 391.588 303.959 391.552 303.611 391.552ZM310.943 390.274H315.461C316.445 390.274 317.309 390.43 318.053 390.742C318.809 391.042 319.439 391.474 319.943 392.038C320.447 392.59 320.825 393.262 321.077 394.054C321.329 394.834 321.455 395.698 321.455 396.646C321.443 397.594 321.311 398.458 321.059 399.238C320.807 400.018 320.429 400.69 319.925 401.254C319.433 401.806 318.815 402.238 318.071 402.55C317.327 402.85 316.457 403 315.461 403H310.943V390.274ZM312.509 391.696V401.578H315.353C316.001 401.578 316.619 401.482 317.207 401.29C317.807 401.086 318.317 400.732 318.737 400.228C319.121 399.784 319.403 399.262 319.583 398.662C319.763 398.05 319.853 397.378 319.853 396.646C319.853 395.89 319.763 395.218 319.583 394.63C319.403 394.042 319.133 393.532 318.773 393.1C318.413 392.668 317.957 392.326 317.405 392.074C316.853 391.822 316.199 391.696 315.443 391.696H312.509ZM323.898 403V390.274H332.448V391.696H325.464V396.466H331.566V397.906H325.464V403H323.898Z" fill="white"/>
<path d="M402.714 403.144C401.406 403.144 400.314 402.868 399.438 402.316C398.574 401.752 397.926 400.984 397.494 400.012C397.074 399.028 396.864 397.906 396.864 396.646C396.864 395.398 397.08 394.288 397.512 393.316C397.944 392.332 398.592 391.558 399.456 390.994C400.332 390.418 401.43 390.13 402.75 390.13C403.686 390.13 404.49 390.28 405.162 390.58C405.846 390.868 406.398 391.27 406.818 391.786C407.238 392.302 407.526 392.908 407.682 393.604H406.098C405.918 392.98 405.528 392.482 404.928 392.11C404.34 391.738 403.596 391.552 402.696 391.552C401.688 391.552 400.872 391.792 400.248 392.272C399.636 392.74 399.186 393.358 398.898 394.126C398.61 394.882 398.466 395.704 398.466 396.592C398.466 397.528 398.616 398.386 398.916 399.166C399.216 399.946 399.684 400.57 400.32 401.038C400.956 401.494 401.766 401.722 402.75 401.722C403.35 401.722 403.884 401.638 404.352 401.47C404.832 401.302 405.228 401.062 405.54 400.75C405.864 400.438 406.086 400.078 406.206 399.67H407.916C407.736 400.366 407.412 400.978 406.944 401.506C406.488 402.022 405.906 402.424 405.198 402.712C404.49 403 403.662 403.144 402.714 403.144ZM408.574 403L412.66 396.646L408.7 390.274H410.608L413.668 395.35L416.71 390.274H418.6L414.64 396.592L418.744 403H416.854L413.65 397.906L410.41 403H408.574ZM424.014 403L419.244 390.274H420.954L425.148 401.65L429.342 390.274H431.034L426.282 403H424.014ZM433.079 403L438.227 391.714H431.495V390.274H439.955V391.57L434.807 403H433.079ZM445.965 403.144C445.389 403.144 444.825 403.084 444.273 402.964C443.733 402.832 443.247 402.622 442.815 402.334C442.383 402.046 442.035 401.668 441.771 401.2C441.519 400.72 441.393 400.138 441.393 399.454C441.393 398.974 441.477 398.536 441.645 398.14C441.813 397.744 442.053 397.402 442.365 397.114C442.689 396.826 443.067 396.598 443.499 396.43C443.019 396.202 442.653 395.92 442.401 395.584C442.149 395.236 441.981 394.876 441.897 394.504C441.813 394.132 441.771 393.796 441.771 393.496C441.771 392.896 441.885 392.386 442.113 391.966C442.353 391.546 442.671 391.198 443.067 390.922C443.475 390.646 443.925 390.448 444.417 390.328C444.921 390.196 445.437 390.13 445.965 390.13C446.493 390.13 447.003 390.196 447.495 390.328C447.999 390.448 448.449 390.646 448.845 390.922C449.253 391.198 449.571 391.546 449.799 391.966C450.039 392.386 450.159 392.896 450.159 393.496C450.159 393.808 450.111 394.144 450.015 394.504C449.931 394.864 449.763 395.212 449.511 395.548C449.259 395.872 448.893 396.148 448.413 396.376C448.869 396.544 449.253 396.778 449.565 397.078C449.889 397.378 450.129 397.732 450.285 398.14C450.453 398.536 450.537 398.974 450.537 399.454C450.537 400.138 450.405 400.72 450.141 401.2C449.889 401.668 449.541 402.046 449.097 402.334C448.665 402.622 448.179 402.832 447.639 402.964C447.099 403.084 446.541 403.144 445.965 403.144ZM445.965 401.722C446.253 401.722 446.565 401.692 446.901 401.632C447.237 401.572 447.555 401.464 447.855 401.308C448.167 401.14 448.419 400.912 448.611 400.624C448.815 400.324 448.917 399.94 448.917 399.472C448.917 398.92 448.773 398.482 448.485 398.158C448.209 397.834 447.843 397.6 447.387 397.456C446.943 397.312 446.469 397.24 445.965 397.24C445.473 397.24 444.999 397.312 444.543 397.456C444.087 397.6 443.715 397.834 443.427 398.158C443.139 398.482 442.995 398.92 442.995 399.472C442.995 399.94 443.091 400.324 443.283 400.624C443.487 400.912 443.745 401.14 444.057 401.308C444.369 401.464 444.693 401.572 445.029 401.632C445.365 401.692 445.677 401.722 445.965 401.722ZM445.965 395.854C446.421 395.854 446.841 395.782 447.225 395.638C447.609 395.482 447.921 395.254 448.161 394.954C448.413 394.642 448.539 394.252 448.539 393.784C448.551 393.232 448.437 392.794 448.197 392.47C447.957 392.146 447.639 391.912 447.243 391.768C446.859 391.624 446.433 391.552 445.965 391.552C445.485 391.552 445.047 391.63 444.651 391.786C444.267 391.93 443.961 392.164 443.733 392.488C443.505 392.8 443.391 393.208 443.391 393.712C443.391 394.216 443.511 394.63 443.751 394.954C444.003 395.266 444.321 395.494 444.705 395.638C445.101 395.782 445.521 395.854 445.965 395.854ZM451.816 403L455.902 396.646L451.942 390.274H453.85L456.91 395.35L459.952 390.274H461.842L457.882 396.592L461.986 403H460.096L456.892 397.906L453.652 403H451.816ZM467.256 403L462.486 390.274H464.196L468.39 401.65L472.584 390.274H474.276L469.524 403H467.256ZM479.687 403.144C479.075 403.144 478.487 403.042 477.923 402.838C477.371 402.634 476.891 402.328 476.483 401.92C476.075 401.5 475.793 400.984 475.637 400.372H477.365C477.581 400.828 477.929 401.17 478.409 401.398C478.901 401.614 479.387 401.722 479.867 401.722C480.515 401.722 481.049 401.59 481.469 401.326C481.901 401.05 482.237 400.678 482.477 400.21C482.729 399.742 482.909 399.22 483.017 398.644C483.125 398.056 483.179 397.45 483.179 396.826C483.179 396.766 483.179 396.7 483.179 396.628C483.179 396.556 483.179 396.49 483.179 396.43C482.951 396.898 482.645 397.276 482.261 397.564C481.877 397.84 481.451 398.044 480.983 398.176C480.515 398.296 480.041 398.356 479.561 398.356C478.817 398.356 478.133 398.206 477.509 397.906C476.897 397.594 476.405 397.144 476.033 396.556C475.673 395.956 475.493 395.23 475.493 394.378C475.493 393.526 475.679 392.782 476.051 392.146C476.423 391.51 476.939 391.018 477.599 390.67C478.271 390.31 479.045 390.13 479.921 390.13C480.857 390.13 481.631 390.328 482.243 390.724C482.867 391.12 483.353 391.648 483.701 392.308C484.061 392.968 484.313 393.694 484.457 394.486C484.601 395.266 484.673 396.046 484.673 396.826C484.673 397.726 484.583 398.56 484.403 399.328C484.223 400.084 483.935 400.75 483.539 401.326C483.143 401.902 482.627 402.352 481.991 402.676C481.355 402.988 480.587 403.144 479.687 403.144ZM479.795 396.916C480.311 396.916 480.779 396.808 481.199 396.592C481.631 396.376 481.973 396.076 482.225 395.692C482.489 395.308 482.621 394.858 482.621 394.342C482.621 393.79 482.501 393.31 482.261 392.902C482.021 392.482 481.691 392.152 481.271 391.912C480.863 391.672 480.395 391.552 479.867 391.552C479.327 391.552 478.847 391.672 478.427 391.912C478.019 392.152 477.695 392.476 477.455 392.884C477.215 393.292 477.095 393.742 477.095 394.234C477.095 395.074 477.335 395.734 477.815 396.214C478.307 396.682 478.967 396.916 479.795 396.916ZM491.282 403.144C490.706 403.144 490.142 403.084 489.59 402.964C489.05 402.832 488.564 402.622 488.132 402.334C487.7 402.046 487.352 401.668 487.088 401.2C486.836 400.72 486.71 400.138 486.71 399.454C486.71 398.974 486.794 398.536 486.962 398.14C487.13 397.744 487.37 397.402 487.682 397.114C488.006 396.826 488.384 396.598 488.816 396.43C488.336 396.202 487.97 395.92 487.718 395.584C487.466 395.236 487.298 394.876 487.214 394.504C487.13 394.132 487.088 393.796 487.088 393.496C487.088 392.896 487.202 392.386 487.43 391.966C487.67 391.546 487.988 391.198 488.384 390.922C488.792 390.646 489.242 390.448 489.734 390.328C490.238 390.196 490.754 390.13 491.282 390.13C491.81 390.13 492.32 390.196 492.812 390.328C493.316 390.448 493.766 390.646 494.162 390.922C494.57 391.198 494.888 391.546 495.116 391.966C495.356 392.386 495.476 392.896 495.476 393.496C495.476 393.808 495.428 394.144 495.332 394.504C495.248 394.864 495.08 395.212 494.828 395.548C494.576 395.872 494.21 396.148 493.73 396.376C494.186 396.544 494.57 396.778 494.882 397.078C495.206 397.378 495.446 397.732 495.602 398.14C495.77 398.536 495.854 398.974 495.854 399.454C495.854 400.138 495.722 400.72 495.458 401.2C495.206 401.668 494.858 402.046 494.414 402.334C493.982 402.622 493.496 402.832 492.956 402.964C492.416 403.084 491.858 403.144 491.282 403.144ZM491.282 401.722C491.57 401.722 491.882 401.692 492.218 401.632C492.554 401.572 492.872 401.464 493.172 401.308C493.484 401.14 493.736 400.912 493.928 400.624C494.132 400.324 494.234 399.94 494.234 399.472C494.234 398.92 494.09 398.482 493.802 398.158C493.526 397.834 493.16 397.6 492.704 397.456C492.26 397.312 491.786 397.24 491.282 397.24C490.79 397.24 490.316 397.312 489.86 397.456C489.404 397.6 489.032 397.834 488.744 398.158C488.456 398.482 488.312 398.92 488.312 399.472C488.312 399.94 488.408 400.324 488.6 400.624C488.804 400.912 489.062 401.14 489.374 401.308C489.686 401.464 490.01 401.572 490.346 401.632C490.682 401.692 490.994 401.722 491.282 401.722ZM491.282 395.854C491.738 395.854 492.158 395.782 492.542 395.638C492.926 395.482 493.238 395.254 493.478 394.954C493.73 394.642 493.856 394.252 493.856 393.784C493.868 393.232 493.754 392.794 493.514 392.47C493.274 392.146 492.956 391.912 492.56 391.768C492.176 391.624 491.75 391.552 491.282 391.552C490.802 391.552 490.364 391.63 489.968 391.786C489.584 391.93 489.278 392.164 489.05 392.488C488.822 392.8 488.708 393.208 488.708 393.712C488.708 394.216 488.828 394.63 489.068 394.954C489.32 395.266 489.638 395.494 490.022 395.638C490.418 395.782 490.838 395.854 491.282 395.854ZM498.681 403L503.829 391.714H497.097V390.274H505.557V391.57L500.409 403H498.681Z" fill="white"/>
<mask id="path-24-inside-3_17829_60230" fill="white">
<path d="M44 417H1466V457H44V417Z"/>
</mask>
<path d="M1466 456H44V458H1466V456Z" fill="#25282D" mask="url(#path-24-inside-3_17829_60230)"/>
<rect x="52.5" y="427.5" width="19" height="19" rx="3.5" stroke="#25282D"/>
<path d="M98.188 443L97.18 440.264H90.88L89.872 443H88.18L92.914 430.274H95.164L99.88 443H98.188ZM94.03 431.642L91.402 438.842H96.658L94.03 431.642ZM104.667 443H103.101V432.794H100.509V431.732C100.869 431.708 101.199 431.678 101.499 431.642C101.799 431.594 102.075 431.516 102.327 431.408C102.579 431.3 102.807 431.156 103.011 430.976C103.215 430.796 103.401 430.562 103.569 430.274H104.667V443ZM108.866 432.542C109.166 432.542 109.418 432.644 109.622 432.848C109.838 433.052 109.946 433.31 109.946 433.622C109.946 433.946 109.838 434.21 109.622 434.414C109.418 434.606 109.166 434.702 108.866 434.702C108.554 434.702 108.296 434.6 108.092 434.396C107.9 434.192 107.804 433.934 107.804 433.622C107.804 433.31 107.9 433.052 108.092 432.848C108.296 432.644 108.554 432.542 108.866 432.542ZM108.866 438.95C109.166 438.95 109.418 439.052 109.622 439.256C109.838 439.46 109.946 439.718 109.946 440.03C109.946 440.342 109.838 440.6 109.622 440.804C109.418 441.008 109.166 441.11 108.866 441.11C108.554 441.11 108.296 441.008 108.092 440.804C107.9 440.6 107.804 440.342 107.804 440.03C107.804 439.718 107.9 439.46 108.092 439.256C108.296 439.052 108.554 438.95 108.866 438.95ZM121.338 443L120.33 440.264H114.03L113.022 443H111.33L116.064 430.274H118.314L123.03 443H121.338ZM117.18 431.642L114.552 438.842H119.808L117.18 431.642ZM127.349 438.554C127.673 438.278 128.027 437.978 128.411 437.654C128.807 437.318 129.173 436.958 129.509 436.574C129.857 436.19 130.151 435.788 130.391 435.368C130.631 434.936 130.757 434.468 130.769 433.964C130.793 433.196 130.571 432.608 130.103 432.2C129.635 431.78 129.017 431.57 128.249 431.57C127.637 431.57 127.103 431.696 126.647 431.948C126.191 432.2 125.891 432.566 125.747 433.046H124.073C124.157 432.554 124.331 432.128 124.595 431.768C124.871 431.396 125.201 431.09 125.585 430.85C125.981 430.61 126.413 430.43 126.881 430.31C127.349 430.19 127.829 430.13 128.321 430.13C128.909 430.13 129.449 430.214 129.941 430.382C130.433 430.538 130.859 430.772 131.219 431.084C131.579 431.396 131.855 431.786 132.047 432.254C132.251 432.71 132.353 433.232 132.353 433.82C132.353 434.408 132.263 434.936 132.083 435.404C131.915 435.872 131.681 436.304 131.381 436.7C131.093 437.096 130.763 437.468 130.391 437.816C130.019 438.164 129.635 438.512 129.239 438.86L126.017 441.578H132.497V443H123.749V441.704L127.349 438.554ZM135.672 432.542C135.972 432.542 136.224 432.644 136.428 432.848C136.644 433.052 136.752 433.31 136.752 433.622C136.752 433.946 136.644 434.21 136.428 434.414C136.224 434.606 135.972 434.702 135.672 434.702C135.36 434.702 135.102 434.6 134.898 434.396C134.706 434.192 134.61 433.934 134.61 433.622C134.61 433.31 134.706 433.052 134.898 432.848C135.102 432.644 135.36 432.542 135.672 432.542ZM135.672 438.95C135.972 438.95 136.224 439.052 136.428 439.256C136.644 439.46 136.752 439.718 136.752 440.03C136.752 440.342 136.644 440.6 136.428 440.804C136.224 441.008 135.972 441.11 135.672 441.11C135.36 441.11 135.102 441.008 134.898 440.804C134.706 440.6 134.61 440.342 134.61 440.03C134.61 439.718 134.706 439.46 134.898 439.256C135.102 439.052 135.36 438.95 135.672 438.95ZM148.145 443L147.137 440.264H140.837L139.829 443H138.137L142.871 430.274H145.121L149.837 443H148.145ZM143.987 431.642L141.359 438.842H146.615L143.987 431.642ZM155.254 443.144C154.75 443.144 154.24 443.096 153.724 443C153.22 442.904 152.746 442.742 152.302 442.514C151.87 442.274 151.498 441.962 151.186 441.578C150.886 441.194 150.694 440.72 150.61 440.156H152.23C152.338 440.468 152.5 440.726 152.716 440.93C152.944 441.122 153.196 441.278 153.472 441.398C153.76 441.518 154.06 441.602 154.372 441.65C154.684 441.698 154.984 441.722 155.272 441.722C155.536 441.722 155.836 441.698 156.172 441.65C156.508 441.602 156.82 441.5 157.108 441.344C157.408 441.188 157.654 440.96 157.846 440.66C158.05 440.348 158.152 439.94 158.152 439.436C158.152 438.956 158.056 438.572 157.864 438.284C157.684 437.996 157.444 437.774 157.144 437.618C156.856 437.462 156.526 437.36 156.154 437.312C155.794 437.264 155.428 437.24 155.056 437.24H153.832V435.836H154.57C154.894 435.836 155.194 435.83 155.47 435.818C155.746 435.794 156.052 435.71 156.388 435.566C156.772 435.386 157.078 435.134 157.306 434.81C157.534 434.474 157.654 434.09 157.666 433.658C157.666 433.226 157.594 432.872 157.45 432.596C157.306 432.32 157.114 432.104 156.874 431.948C156.634 431.792 156.364 431.69 156.064 431.642C155.764 431.582 155.458 431.552 155.146 431.552C154.894 431.552 154.63 431.582 154.354 431.642C154.09 431.69 153.838 431.774 153.598 431.894C153.37 432.014 153.166 432.176 152.986 432.38C152.806 432.572 152.68 432.806 152.608 433.082H151.042C151.114 432.554 151.282 432.104 151.546 431.732C151.81 431.36 152.134 431.054 152.518 430.814C152.914 430.574 153.346 430.4 153.814 430.292C154.294 430.184 154.78 430.13 155.272 430.13C155.812 430.13 156.316 430.19 156.784 430.31C157.264 430.418 157.684 430.604 158.044 430.868C158.404 431.12 158.686 431.456 158.89 431.876C159.106 432.296 159.214 432.806 159.214 433.406C159.214 433.634 159.19 433.88 159.142 434.144C159.094 434.396 159.004 434.648 158.872 434.9C158.74 435.152 158.548 435.404 158.296 435.656C158.044 435.908 157.714 436.118 157.306 436.286C158.11 436.442 158.722 436.796 159.142 437.348C159.562 437.888 159.772 438.542 159.772 439.31V439.382C159.772 440.042 159.652 440.612 159.412 441.092C159.184 441.56 158.866 441.95 158.458 442.262C158.05 442.562 157.57 442.784 157.018 442.928C156.466 443.072 155.878 443.144 155.254 443.144ZM163.059 432.542C163.359 432.542 163.611 432.644 163.815 432.848C164.031 433.052 164.139 433.31 164.139 433.622C164.139 433.946 164.031 434.21 163.815 434.414C163.611 434.606 163.359 434.702 163.059 434.702C162.747 434.702 162.489 434.6 162.285 434.396C162.093 434.192 161.997 433.934 161.997 433.622C161.997 433.31 162.093 433.052 162.285 432.848C162.489 432.644 162.747 432.542 163.059 432.542ZM163.059 438.95C163.359 438.95 163.611 439.052 163.815 439.256C164.031 439.46 164.139 439.718 164.139 440.03C164.139 440.342 164.031 440.6 163.815 440.804C163.611 441.008 163.359 441.11 163.059 441.11C162.747 441.11 162.489 441.008 162.285 440.804C162.093 440.6 161.997 440.342 161.997 440.03C161.997 439.718 162.093 439.46 162.285 439.256C162.489 439.052 162.747 438.95 163.059 438.95ZM175.532 443L174.524 440.264H168.224L167.216 443H165.524L170.258 430.274H172.508L177.224 443H175.532ZM171.374 431.642L168.746 438.842H174.002L171.374 431.642ZM186.636 430.274V439.04H188.13V440.462H186.636V443H185.07V440.462H178.158V439.292L184.386 430.274H186.636ZM180.048 439.04H185.07V431.696L180.048 439.04ZM191.061 432.542C191.361 432.542 191.613 432.644 191.817 432.848C192.033 433.052 192.141 433.31 192.141 433.622C192.141 433.946 192.033 434.21 191.817 434.414C191.613 434.606 191.361 434.702 191.061 434.702C190.749 434.702 190.491 434.6 190.287 434.396C190.095 434.192 189.999 433.934 189.999 433.622C189.999 433.31 190.095 433.052 190.287 432.848C190.491 432.644 190.749 432.542 191.061 432.542ZM191.061 438.95C191.361 438.95 191.613 439.052 191.817 439.256C192.033 439.46 192.141 439.718 192.141 440.03C192.141 440.342 192.033 440.6 191.817 440.804C191.613 441.008 191.361 441.11 191.061 441.11C190.749 441.11 190.491 441.008 190.287 440.804C190.095 440.6 189.999 440.342 189.999 440.03C189.999 439.718 190.095 439.46 190.287 439.256C190.491 439.052 190.749 438.95 191.061 438.95ZM203.534 443L202.526 440.264H196.226L195.218 443H193.526L198.26 430.274H200.51L205.226 443H203.534ZM199.376 431.642L196.748 438.842H202.004L199.376 431.642ZM206.88 437.276L207.456 430.274H215.07V431.714H208.86L208.5 435.71C208.824 435.446 209.22 435.236 209.688 435.08C210.156 434.912 210.732 434.828 211.416 434.828C212.028 434.828 212.586 434.924 213.09 435.116C213.594 435.308 214.026 435.584 214.386 435.944C214.746 436.292 215.022 436.718 215.214 437.222C215.418 437.726 215.52 438.284 215.52 438.896C215.52 439.568 215.4 440.168 215.16 440.696C214.932 441.212 214.614 441.656 214.206 442.028C213.798 442.4 213.312 442.682 212.748 442.874C212.196 443.066 211.596 443.162 210.948 443.162C210.42 443.162 209.91 443.102 209.418 442.982C208.938 442.862 208.5 442.682 208.104 442.442C207.708 442.19 207.372 441.872 207.096 441.488C206.82 441.104 206.628 440.648 206.52 440.12H208.104C208.2 440.372 208.344 440.6 208.536 440.804C208.728 440.996 208.944 441.164 209.184 441.308C209.436 441.44 209.7 441.542 209.976 441.614C210.252 441.686 210.528 441.722 210.804 441.722C211.236 441.722 211.638 441.668 212.01 441.56C212.394 441.452 212.724 441.29 213 441.074C213.288 440.846 213.51 440.564 213.666 440.228C213.822 439.88 213.9 439.466 213.9 438.986C213.9 438.11 213.636 437.438 213.108 436.97C212.58 436.502 211.896 436.268 211.056 436.268C210.552 436.268 210.084 436.358 209.652 436.538C209.232 436.718 208.848 436.964 208.5 437.276H206.88Z" fill="white"/>
<path d="M243.566 430.274H248.084C249.068 430.274 249.932 430.43 250.676 430.742C251.432 431.042 252.062 431.474 252.566 432.038C253.07 432.59 253.448 433.262 253.7 434.054C253.952 434.834 254.078 435.698 254.078 436.646C254.066 437.594 253.934 438.458 253.682 439.238C253.43 440.018 253.052 440.69 252.548 441.254C252.056 441.806 251.438 442.238 250.694 442.55C249.95 442.85 249.08 443 248.084 443H243.566V430.274ZM245.132 431.696V441.578H247.976C248.624 441.578 249.242 441.482 249.83 441.29C250.43 441.086 250.94 440.732 251.36 440.228C251.744 439.784 252.026 439.262 252.206 438.662C252.386 438.05 252.476 437.378 252.476 436.646C252.476 435.89 252.386 435.218 252.206 434.63C252.026 434.042 251.756 433.532 251.396 433.1C251.036 432.668 250.58 432.326 250.028 432.074C249.476 431.822 248.822 431.696 248.066 431.696H245.132ZM261.195 431.552C260.859 431.552 260.517 431.582 260.169 431.642C259.833 431.702 259.527 431.81 259.251 431.966C258.975 432.11 258.747 432.314 258.567 432.578C258.399 432.83 258.315 433.154 258.315 433.55C258.315 434.03 258.441 434.42 258.693 434.72C258.945 435.008 259.251 435.23 259.611 435.386C259.899 435.506 260.205 435.608 260.529 435.692C260.853 435.776 261.183 435.854 261.519 435.926C261.867 435.998 262.203 436.07 262.527 436.142C262.863 436.214 263.187 436.304 263.499 436.412C264.231 436.664 264.813 437.024 265.245 437.492C265.689 437.96 265.911 438.578 265.911 439.346C265.911 440.066 265.785 440.66 265.533 441.128C265.293 441.596 264.963 441.98 264.543 442.28C264.135 442.58 263.655 442.802 263.103 442.946C262.563 443.078 261.987 443.144 261.375 443.144C260.763 443.144 260.175 443.084 259.611 442.964C259.059 442.844 258.555 442.646 258.099 442.37C257.643 442.094 257.253 441.734 256.929 441.29C256.605 440.846 256.377 440.306 256.245 439.67H257.883C258.003 440.078 258.189 440.414 258.441 440.678C258.693 440.942 258.981 441.152 259.305 441.308C259.629 441.464 259.977 441.572 260.349 441.632C260.733 441.692 261.111 441.722 261.483 441.722C261.843 441.722 262.191 441.686 262.527 441.614C262.875 441.53 263.181 441.404 263.445 441.236C263.709 441.068 263.919 440.852 264.075 440.588C264.231 440.324 264.309 440.006 264.309 439.634C264.309 439.07 264.159 438.65 263.859 438.374C263.559 438.098 263.157 437.888 262.653 437.744C262.317 437.636 261.963 437.546 261.591 437.474C261.219 437.402 260.847 437.324 260.475 437.24C260.103 437.156 259.737 437.06 259.377 436.952C259.017 436.832 258.687 436.694 258.387 436.538C257.907 436.31 257.505 435.962 257.181 435.494C256.857 435.014 256.695 434.414 256.695 433.694C256.695 433.022 256.827 432.458 257.091 432.002C257.355 431.546 257.697 431.18 258.117 430.904C258.537 430.628 259.005 430.43 259.521 430.31C260.049 430.19 260.607 430.13 261.195 430.13C261.675 430.142 262.107 430.184 262.491 430.256C262.887 430.316 263.259 430.43 263.607 430.598C264.147 430.838 264.597 431.198 264.957 431.678C265.317 432.158 265.515 432.776 265.551 433.532H264.021C263.973 433.16 263.859 432.848 263.679 432.596C263.511 432.344 263.301 432.14 263.049 431.984C262.797 431.828 262.509 431.72 262.185 431.66C261.873 431.588 261.543 431.552 261.195 431.552ZM268.527 443V430.274H277.077V431.696H270.093V436.466H276.195V437.906H270.093V443H268.527ZM286.394 436.43C286.226 436.778 286.01 437.078 285.746 437.33C285.482 437.57 285.188 437.768 284.864 437.924C284.54 438.08 284.198 438.194 283.838 438.266C283.49 438.326 283.136 438.356 282.776 438.356C282.212 438.356 281.684 438.272 281.192 438.104C280.7 437.924 280.268 437.666 279.896 437.33C279.536 436.994 279.248 436.58 279.032 436.088C278.816 435.596 278.708 435.026 278.708 434.378C278.708 433.742 278.816 433.166 279.032 432.65C279.248 432.122 279.548 431.672 279.932 431.3C280.328 430.928 280.79 430.64 281.318 430.436C281.846 430.232 282.452 430.13 283.136 430.13C284.072 430.13 284.846 430.34 285.458 430.76C286.07 431.168 286.556 431.696 286.916 432.344C287.276 432.992 287.528 433.718 287.672 434.522C287.816 435.326 287.888 436.118 287.888 436.898C287.888 437.762 287.786 438.608 287.582 439.436C287.39 440.252 287.072 440.948 286.628 441.524C286.244 442.028 285.74 442.424 285.116 442.712C284.504 443 283.766 443.144 282.902 443.144C282.446 443.144 281.996 443.09 281.552 442.982C281.12 442.862 280.724 442.688 280.364 442.46C280.004 442.22 279.692 441.932 279.428 441.596C279.164 441.248 278.972 440.84 278.852 440.372H280.58C280.784 440.828 281.126 441.17 281.606 441.398C282.098 441.614 282.59 441.722 283.082 441.722C283.67 441.71 284.168 441.59 284.576 441.362C284.984 441.134 285.314 440.828 285.566 440.444C285.746 440.168 285.89 439.862 285.998 439.526C286.106 439.178 286.19 438.842 286.25 438.518C286.31 438.182 286.346 437.864 286.358 437.564C286.382 437.264 286.394 437.018 286.394 436.826V436.43ZM280.31 434.234C280.31 435.074 280.55 435.728 281.03 436.196C281.522 436.664 282.182 436.904 283.01 436.916C283.394 436.916 283.754 436.856 284.09 436.736C284.438 436.616 284.738 436.442 284.99 436.214C285.254 435.986 285.458 435.716 285.602 435.404C285.758 435.08 285.836 434.726 285.836 434.342C285.836 433.934 285.764 433.562 285.62 433.226C285.488 432.878 285.296 432.584 285.044 432.344C284.804 432.092 284.516 431.9 284.18 431.768C283.844 431.624 283.478 431.552 283.082 431.552C282.686 431.552 282.314 431.624 281.966 431.768C281.63 431.912 281.336 432.104 281.084 432.344C280.844 432.584 280.652 432.866 280.508 433.19C280.376 433.514 280.31 433.862 280.31 434.234ZM290.347 443L295.495 431.714H288.763V430.274H297.223V431.57L292.075 443H290.347ZM303.611 431.552C303.275 431.552 302.933 431.582 302.585 431.642C302.249 431.702 301.943 431.81 301.667 431.966C301.391 432.11 301.163 432.314 300.983 432.578C300.815 432.83 300.731 433.154 300.731 433.55C300.731 434.03 300.857 434.42 301.109 434.72C301.361 435.008 301.667 435.23 302.027 435.386C302.315 435.506 302.621 435.608 302.945 435.692C303.269 435.776 303.599 435.854 303.935 435.926C304.283 435.998 304.619 436.07 304.943 436.142C305.279 436.214 305.603 436.304 305.915 436.412C306.647 436.664 307.229 437.024 307.661 437.492C308.105 437.96 308.327 438.578 308.327 439.346C308.327 440.066 308.201 440.66 307.949 441.128C307.709 441.596 307.379 441.98 306.959 442.28C306.551 442.58 306.071 442.802 305.519 442.946C304.979 443.078 304.403 443.144 303.791 443.144C303.179 443.144 302.591 443.084 302.027 442.964C301.475 442.844 300.971 442.646 300.515 442.37C300.059 442.094 299.669 441.734 299.345 441.29C299.021 440.846 298.793 440.306 298.661 439.67H300.299C300.419 440.078 300.605 440.414 300.857 440.678C301.109 440.942 301.397 441.152 301.721 441.308C302.045 441.464 302.393 441.572 302.765 441.632C303.149 441.692 303.527 441.722 303.899 441.722C304.259 441.722 304.607 441.686 304.943 441.614C305.291 441.53 305.597 441.404 305.861 441.236C306.125 441.068 306.335 440.852 306.491 440.588C306.647 440.324 306.725 440.006 306.725 439.634C306.725 439.07 306.575 438.65 306.275 438.374C305.975 438.098 305.573 437.888 305.069 437.744C304.733 437.636 304.379 437.546 304.007 437.474C303.635 437.402 303.263 437.324 302.891 437.24C302.519 437.156 302.153 437.06 301.793 436.952C301.433 436.832 301.103 436.694 300.803 436.538C300.323 436.31 299.921 435.962 299.597 435.494C299.273 435.014 299.111 434.414 299.111 433.694C299.111 433.022 299.243 432.458 299.507 432.002C299.771 431.546 300.113 431.18 300.533 430.904C300.953 430.628 301.421 430.43 301.937 430.31C302.465 430.19 303.023 430.13 303.611 430.13C304.091 430.142 304.523 430.184 304.907 430.256C305.303 430.316 305.675 430.43 306.023 430.598C306.563 430.838 307.013 431.198 307.373 431.678C307.733 432.158 307.931 432.776 307.967 433.532H306.437C306.389 433.16 306.275 432.848 306.095 432.596C305.927 432.344 305.717 432.14 305.465 431.984C305.213 431.828 304.925 431.72 304.601 431.66C304.289 431.588 303.959 431.552 303.611 431.552ZM310.943 430.274H315.461C316.445 430.274 317.309 430.43 318.053 430.742C318.809 431.042 319.439 431.474 319.943 432.038C320.447 432.59 320.825 433.262 321.077 434.054C321.329 434.834 321.455 435.698 321.455 436.646C321.443 437.594 321.311 438.458 321.059 439.238C320.807 440.018 320.429 440.69 319.925 441.254C319.433 441.806 318.815 442.238 318.071 442.55C317.327 442.85 316.457 443 315.461 443H310.943V430.274ZM312.509 431.696V441.578H315.353C316.001 441.578 316.619 441.482 317.207 441.29C317.807 441.086 318.317 440.732 318.737 440.228C319.121 439.784 319.403 439.262 319.583 438.662C319.763 438.05 319.853 437.378 319.853 436.646C319.853 435.89 319.763 435.218 319.583 434.63C319.403 434.042 319.133 433.532 318.773 433.1C318.413 432.668 317.957 432.326 317.405 432.074C316.853 431.822 316.199 431.696 315.443 431.696H312.509ZM323.898 443V430.274H332.448V431.696H325.464V436.466H331.566V437.906H325.464V443H323.898Z" fill="white"/>
<path d="M402.714 443.144C401.406 443.144 400.314 442.868 399.438 442.316C398.574 441.752 397.926 440.984 397.494 440.012C397.074 439.028 396.864 437.906 396.864 436.646C396.864 435.398 397.08 434.288 397.512 433.316C397.944 432.332 398.592 431.558 399.456 430.994C400.332 430.418 401.43 430.13 402.75 430.13C403.686 430.13 404.49 430.28 405.162 430.58C405.846 430.868 406.398 431.27 406.818 431.786C407.238 432.302 407.526 432.908 407.682 433.604H406.098C405.918 432.98 405.528 432.482 404.928 432.11C404.34 431.738 403.596 431.552 402.696 431.552C401.688 431.552 400.872 431.792 400.248 432.272C399.636 432.74 399.186 433.358 398.898 434.126C398.61 434.882 398.466 435.704 398.466 436.592C398.466 437.528 398.616 438.386 398.916 439.166C399.216 439.946 399.684 440.57 400.32 441.038C400.956 441.494 401.766 441.722 402.75 441.722C403.35 441.722 403.884 441.638 404.352 441.47C404.832 441.302 405.228 441.062 405.54 440.75C405.864 440.438 406.086 440.078 406.206 439.67H407.916C407.736 440.366 407.412 440.978 406.944 441.506C406.488 442.022 405.906 442.424 405.198 442.712C404.49 443 403.662 443.144 402.714 443.144ZM408.574 443L412.66 436.646L408.7 430.274H410.608L413.668 435.35L416.71 430.274H418.6L414.64 436.592L418.744 443H416.854L413.65 437.906L410.41 443H408.574ZM424.014 443L419.244 430.274H420.954L425.148 441.65L429.342 430.274H431.034L426.282 443H424.014ZM433.079 443L438.227 431.714H431.495V430.274H439.955V431.57L434.807 443H433.079ZM445.965 443.144C445.389 443.144 444.825 443.084 444.273 442.964C443.733 442.832 443.247 442.622 442.815 442.334C442.383 442.046 442.035 441.668 441.771 441.2C441.519 440.72 441.393 440.138 441.393 439.454C441.393 438.974 441.477 438.536 441.645 438.14C441.813 437.744 442.053 437.402 442.365 437.114C442.689 436.826 443.067 436.598 443.499 436.43C443.019 436.202 442.653 435.92 442.401 435.584C442.149 435.236 441.981 434.876 441.897 434.504C441.813 434.132 441.771 433.796 441.771 433.496C441.771 432.896 441.885 432.386 442.113 431.966C442.353 431.546 442.671 431.198 443.067 430.922C443.475 430.646 443.925 430.448 444.417 430.328C444.921 430.196 445.437 430.13 445.965 430.13C446.493 430.13 447.003 430.196 447.495 430.328C447.999 430.448 448.449 430.646 448.845 430.922C449.253 431.198 449.571 431.546 449.799 431.966C450.039 432.386 450.159 432.896 450.159 433.496C450.159 433.808 450.111 434.144 450.015 434.504C449.931 434.864 449.763 435.212 449.511 435.548C449.259 435.872 448.893 436.148 448.413 436.376C448.869 436.544 449.253 436.778 449.565 437.078C449.889 437.378 450.129 437.732 450.285 438.14C450.453 438.536 450.537 438.974 450.537 439.454C450.537 440.138 450.405 440.72 450.141 441.2C449.889 441.668 449.541 442.046 449.097 442.334C448.665 442.622 448.179 442.832 447.639 442.964C447.099 443.084 446.541 443.144 445.965 443.144ZM445.965 441.722C446.253 441.722 446.565 441.692 446.901 441.632C447.237 441.572 447.555 441.464 447.855 441.308C448.167 441.14 448.419 440.912 448.611 440.624C448.815 440.324 448.917 439.94 448.917 439.472C448.917 438.92 448.773 438.482 448.485 438.158C448.209 437.834 447.843 437.6 447.387 437.456C446.943 437.312 446.469 437.24 445.965 437.24C445.473 437.24 444.999 437.312 444.543 437.456C444.087 437.6 443.715 437.834 443.427 438.158C443.139 438.482 442.995 438.92 442.995 439.472C442.995 439.94 443.091 440.324 443.283 440.624C443.487 440.912 443.745 441.14 444.057 441.308C444.369 441.464 444.693 441.572 445.029 441.632C445.365 441.692 445.677 441.722 445.965 441.722ZM445.965 435.854C446.421 435.854 446.841 435.782 447.225 435.638C447.609 435.482 447.921 435.254 448.161 434.954C448.413 434.642 448.539 434.252 448.539 433.784C448.551 433.232 448.437 432.794 448.197 432.47C447.957 432.146 447.639 431.912 447.243 431.768C446.859 431.624 446.433 431.552 445.965 431.552C445.485 431.552 445.047 431.63 444.651 431.786C444.267 431.93 443.961 432.164 443.733 432.488C443.505 432.8 443.391 433.208 443.391 433.712C443.391 434.216 443.511 434.63 443.751 434.954C444.003 435.266 444.321 435.494 444.705 435.638C445.101 435.782 445.521 435.854 445.965 435.854ZM451.816 443L455.902 436.646L451.942 430.274H453.85L456.91 435.35L459.952 430.274H461.842L457.882 436.592L461.986 443H460.096L456.892 437.906L453.652 443H451.816ZM467.256 443L462.486 430.274H464.196L468.39 441.65L472.584 430.274H474.276L469.524 443H467.256ZM479.687 443.144C479.075 443.144 478.487 443.042 477.923 442.838C477.371 442.634 476.891 442.328 476.483 441.92C476.075 441.5 475.793 440.984 475.637 440.372H477.365C477.581 440.828 477.929 441.17 478.409 441.398C478.901 441.614 479.387 441.722 479.867 441.722C480.515 441.722 481.049 441.59 481.469 441.326C481.901 441.05 482.237 440.678 482.477 440.21C482.729 439.742 482.909 439.22 483.017 438.644C483.125 438.056 483.179 437.45 483.179 436.826C483.179 436.766 483.179 436.7 483.179 436.628C483.179 436.556 483.179 436.49 483.179 436.43C482.951 436.898 482.645 437.276 482.261 437.564C481.877 437.84 481.451 438.044 480.983 438.176C480.515 438.296 480.041 438.356 479.561 438.356C478.817 438.356 478.133 438.206 477.509 437.906C476.897 437.594 476.405 437.144 476.033 436.556C475.673 435.956 475.493 435.23 475.493 434.378C475.493 433.526 475.679 432.782 476.051 432.146C476.423 431.51 476.939 431.018 477.599 430.67C478.271 430.31 479.045 430.13 479.921 430.13C480.857 430.13 481.631 430.328 482.243 430.724C482.867 431.12 483.353 431.648 483.701 432.308C484.061 432.968 484.313 433.694 484.457 434.486C484.601 435.266 484.673 436.046 484.673 436.826C484.673 437.726 484.583 438.56 484.403 439.328C484.223 440.084 483.935 440.75 483.539 441.326C483.143 441.902 482.627 442.352 481.991 442.676C481.355 442.988 480.587 443.144 479.687 443.144ZM479.795 436.916C480.311 436.916 480.779 436.808 481.199 436.592C481.631 436.376 481.973 436.076 482.225 435.692C482.489 435.308 482.621 434.858 482.621 434.342C482.621 433.79 482.501 433.31 482.261 432.902C482.021 432.482 481.691 432.152 481.271 431.912C480.863 431.672 480.395 431.552 479.867 431.552C479.327 431.552 478.847 431.672 478.427 431.912C478.019 432.152 477.695 432.476 477.455 432.884C477.215 433.292 477.095 433.742 477.095 434.234C477.095 435.074 477.335 435.734 477.815 436.214C478.307 436.682 478.967 436.916 479.795 436.916ZM491.282 443.144C490.706 443.144 490.142 443.084 489.59 442.964C489.05 442.832 488.564 442.622 488.132 442.334C487.7 442.046 487.352 441.668 487.088 441.2C486.836 440.72 486.71 440.138 486.71 439.454C486.71 438.974 486.794 438.536 486.962 438.14C487.13 437.744 487.37 437.402 487.682 437.114C488.006 436.826 488.384 436.598 488.816 436.43C488.336 436.202 487.97 435.92 487.718 435.584C487.466 435.236 487.298 434.876 487.214 434.504C487.13 434.132 487.088 433.796 487.088 433.496C487.088 432.896 487.202 432.386 487.43 431.966C487.67 431.546 487.988 431.198 488.384 430.922C488.792 430.646 489.242 430.448 489.734 430.328C490.238 430.196 490.754 430.13 491.282 430.13C491.81 430.13 492.32 430.196 492.812 430.328C493.316 430.448 493.766 430.646 494.162 430.922C494.57 431.198 494.888 431.546 495.116 431.966C495.356 432.386 495.476 432.896 495.476 433.496C495.476 433.808 495.428 434.144 495.332 434.504C495.248 434.864 495.08 435.212 494.828 435.548C494.576 435.872 494.21 436.148 493.73 436.376C494.186 436.544 494.57 436.778 494.882 437.078C495.206 437.378 495.446 437.732 495.602 438.14C495.77 438.536 495.854 438.974 495.854 439.454C495.854 440.138 495.722 440.72 495.458 441.2C495.206 441.668 494.858 442.046 494.414 442.334C493.982 442.622 493.496 442.832 492.956 442.964C492.416 443.084 491.858 443.144 491.282 443.144ZM491.282 441.722C491.57 441.722 491.882 441.692 492.218 441.632C492.554 441.572 492.872 441.464 493.172 441.308C493.484 441.14 493.736 440.912 493.928 440.624C494.132 440.324 494.234 439.94 494.234 439.472C494.234 438.92 494.09 438.482 493.802 438.158C493.526 437.834 493.16 437.6 492.704 437.456C492.26 437.312 491.786 437.24 491.282 437.24C490.79 437.24 490.316 437.312 489.86 437.456C489.404 437.6 489.032 437.834 488.744 438.158C488.456 438.482 488.312 438.92 488.312 439.472C488.312 439.94 488.408 440.324 488.6 440.624C488.804 440.912 489.062 441.14 489.374 441.308C489.686 441.464 490.01 441.572 490.346 441.632C490.682 441.692 490.994 441.722 491.282 441.722ZM491.282 435.854C491.738 435.854 492.158 435.782 492.542 435.638C492.926 435.482 493.238 435.254 493.478 434.954C493.73 434.642 493.856 434.252 493.856 433.784C493.868 433.232 493.754 432.794 493.514 432.47C493.274 432.146 492.956 431.912 492.56 431.768C492.176 431.624 491.75 431.552 491.282 431.552C490.802 431.552 490.364 431.63 489.968 431.786C489.584 431.93 489.278 432.164 489.05 432.488C488.822 432.8 488.708 433.208 488.708 433.712C488.708 434.216 488.828 434.63 489.068 434.954C489.32 435.266 489.638 435.494 490.022 435.638C490.418 435.782 490.838 435.854 491.282 435.854ZM498.681 443L503.829 431.714H497.097V430.274H505.557V431.57L500.409 443H498.681Z" fill="white"/>
</g>
<rect x="24.5" y="321.5" width="1461" height="165" rx="18.5" stroke="#25282D"/>
</g>
</g>
<defs>
<filter id="filter0_b_17829_60230" x="-4" y="-4" width="512" height="458" filterUnits="userSpaceOnUse" color-interpolation-filters="sRGB">
<feFlood flood-opacity="0" result="BackgroundImageFix"/>
<feGaussianBlur in="BackgroundImageFix" stdDeviation="2"/>
<feComposite in2="SourceAlpha" operator="in" result="effect1_backgroundBlur_17829_60230"/>
<feBlend mode="normal" in="SourceGraphic" in2="effect1_backgroundBlur_17829_60230" result="shape"/>
</filter>
<filter id="filter1_d_17829_60230" x="1.4" y="177.4" width="1507.2" height="154.2" filterUnits="userSpaceOnUse" color-interpolation-filters="sRGB">
<feFlood flood-opacity="0" result="BackgroundImageFix"/>
<feColorMatrix in="SourceAlpha" type="matrix" values="0 0 0 0 0 0 0 0 0 0 0 0 0 0 0 0 0 0 127 0" result="hardAlpha"/>
<feOffset/>
<feGaussianBlur stdDeviation="11.3"/>
<feComposite in2="hardAlpha" operator="out"/>
<feColorMatrix type="matrix" values="0 0 0 0 0 0 0 0 0 0 0 0 0 0 0 0 0 0 0.08 0"/>
<feBlend mode="normal" in2="BackgroundImageFix" result="effect1_dropShadow_17829_60230"/>
<feBlend mode="normal" in="SourceGraphic" in2="effect1_dropShadow_17829_60230" result="shape"/>
</filter>
<filter id="filter2_d_17829_60230" x="-0.1" y="296.9" width="1510.2" height="214.2" filterUnits="userSpaceOnUse" color-interpolation-filters="sRGB">
<feFlood flood-opacity="0" result="BackgroundImageFix"/>
<feColorMatrix in="SourceAlpha" type="matrix" values="0 0 0 0 0 0 0 0 0 0 0 0 0 0 0 0 0 0 127 0" result="hardAlpha"/>
<feOffset/>
<feGaussianBlur stdDeviation="12.05"/>
<feComposite in2="hardAlpha" operator="out"/>
<feColorMatrix type="matrix" values="0 0 0 0 0 0 0 0 0 0 0 0 0 0 0 0 0 0 0.08 0"/>
<feBlend mode="normal" in2="BackgroundImageFix" result="effect1_dropShadow_17829_60230"/>
<feBlend mode="normal" in="SourceGraphic" in2="effect1_dropShadow_17829_60230" result="shape"/>
</filter>
<linearGradient id="paint0_linear_17829_60230" x1="5.20243" y1="6.57269" x2="492.429" y2="450" gradientUnits="userSpaceOnUse">
<stop offset="0.0104937" stop-color="#0D0D0D"/>
<stop offset="0.970927" stop-color="#01433B"/>
</linearGradient>
<clipPath id="clip0_17829_60230">
<rect width="504" height="450" fill="white"/>
</clipPath>
<clipPath id="clip1_17829_60230">
<rect x="24" y="321" width="1462" height="166" rx="19" fill="white"/>
</clipPath>
</defs>
</svg>
