<svg width="504" height="504" viewBox="0 0 504 504" fill="none" xmlns="http://www.w3.org/2000/svg">
<g clip-path="url(#clip0_17829_60506)" filter="url(#filter0_b_17829_60506)">
<g filter="url(#filter1_f_17829_60506)">
<ellipse cx="42.5" cy="370" rx="216" ry="369.5" transform="rotate(-90 42.5 370)" fill="#00FFCD" fill-opacity="0.4"/>
</g>
<g clip-path="url(#clip1_17829_60506)">
<rect x="24" y="225" width="692" height="254" rx="18" fill="#181818"/>
<g clip-path="url(#clip2_17829_60506)">
<rect x="48.5" y="249.5" width="387" height="415" rx="11.5" stroke="#363636"/>
<path d="M66.084 275C66.084 271.268 66.084 269.402 67.2434 268.242C68.4027 267.083 70.2687 267.083 74.0007 267.083C77.7326 267.083 79.5986 267.083 80.7579 268.242C81.9173 269.402 81.9173 271.268 81.9173 275C81.9173 278.732 81.9173 280.598 80.7579 281.757C79.5986 282.916 77.7326 282.916 74.0007 282.916C70.2687 282.916 68.4027 282.916 67.2434 281.757C66.084 280.598 66.084 278.732 66.084 275Z" stroke="#00A47E"/>
<path d="M74.2025 279.166V274.999C74.2025 274.607 74.2025 274.41 74.0804 274.288C73.9584 274.166 73.762 274.166 73.3691 274.166" stroke="#00A47E" stroke-linecap="round" stroke-linejoin="round"/>
<path d="M73.994 271.666H74.0015" stroke="#00A47E" stroke-linecap="round" stroke-linejoin="round"/>
<path d="M91.5175 280V270.102H95.3255C95.8575 270.102 96.3428 270.158 96.7815 270.27C97.2201 270.373 97.6028 270.545 97.9295 270.788C98.2561 271.021 98.5081 271.339 98.6855 271.74C98.8628 272.141 98.9515 272.636 98.9515 273.224C98.9515 273.756 98.8581 274.213 98.6715 274.596C98.4848 274.979 98.2281 275.296 97.9015 275.548C97.5748 275.8 97.2061 275.991 96.7955 276.122L98.9095 280H97.2715L95.3115 276.36H93.0015V280H91.5175ZM93.0015 275.03H95.0175C95.3535 275.03 95.6661 275.007 95.9555 274.96C96.2541 274.904 96.5155 274.811 96.7395 274.68C96.9635 274.54 97.1361 274.353 97.2575 274.12C97.3881 273.877 97.4535 273.569 97.4535 273.196C97.4628 272.767 97.3788 272.426 97.2015 272.174C97.0335 271.913 96.7815 271.731 96.4455 271.628C96.1095 271.516 95.7035 271.46 95.2275 271.46H93.0015V275.03ZM102.804 280.084C102.468 280.084 102.142 280.042 101.824 279.958C101.516 279.865 101.241 279.729 100.998 279.552C100.756 279.365 100.56 279.137 100.41 278.866C100.27 278.586 100.2 278.259 100.2 277.886C100.2 277.438 100.284 277.069 100.452 276.78C100.63 276.481 100.863 276.253 101.152 276.094C101.442 275.926 101.773 275.809 102.146 275.744C102.529 275.669 102.926 275.632 103.336 275.632H105.142C105.142 275.268 105.086 274.951 104.974 274.68C104.862 274.4 104.685 274.185 104.442 274.036C104.209 273.877 103.896 273.798 103.504 273.798C103.271 273.798 103.047 273.826 102.832 273.882C102.627 273.929 102.45 274.008 102.3 274.12C102.151 274.232 102.048 274.381 101.992 274.568H100.48C100.536 274.213 100.662 273.91 100.858 273.658C101.054 273.397 101.297 273.182 101.586 273.014C101.876 272.846 102.184 272.725 102.51 272.65C102.846 272.566 103.187 272.524 103.532 272.524C104.596 272.524 105.362 272.837 105.828 273.462C106.304 274.078 106.542 274.927 106.542 276.01V280H105.296L105.24 279.062C105.026 279.351 104.769 279.571 104.47 279.72C104.181 279.869 103.892 279.967 103.602 280.014C103.313 280.061 103.047 280.084 102.804 280.084ZM103.028 278.866C103.448 278.866 103.817 278.796 104.134 278.656C104.452 278.507 104.699 278.297 104.876 278.026C105.054 277.746 105.142 277.419 105.142 277.046V276.738H103.826C103.556 276.738 103.29 276.747 103.028 276.766C102.776 276.775 102.543 276.813 102.328 276.878C102.123 276.934 101.955 277.032 101.824 277.172C101.703 277.312 101.642 277.513 101.642 277.774C101.642 278.026 101.708 278.231 101.838 278.39C101.969 278.549 102.142 278.67 102.356 278.754C102.571 278.829 102.795 278.866 103.028 278.866ZM111.479 280.084C110.704 280.084 110.055 279.925 109.533 279.608C109.019 279.291 108.632 278.852 108.371 278.292C108.119 277.723 107.993 277.069 107.993 276.332C107.993 275.604 108.123 274.955 108.385 274.386C108.655 273.807 109.057 273.355 109.589 273.028C110.13 272.692 110.797 272.524 111.591 272.524C112.132 272.524 112.613 272.617 113.033 272.804C113.453 272.981 113.793 273.247 114.055 273.602C114.325 273.947 114.503 274.381 114.587 274.904H113.145C113.023 274.521 112.818 274.246 112.529 274.078C112.249 273.91 111.917 273.826 111.535 273.826C111.021 273.826 110.611 273.947 110.303 274.19C110.004 274.433 109.785 274.745 109.645 275.128C109.505 275.511 109.435 275.912 109.435 276.332C109.435 276.771 109.505 277.177 109.645 277.55C109.794 277.923 110.018 278.227 110.317 278.46C110.625 278.684 111.026 278.796 111.521 278.796C111.894 278.796 112.239 278.717 112.557 278.558C112.874 278.39 113.079 278.11 113.173 277.718H114.657C114.573 278.259 114.377 278.707 114.069 279.062C113.761 279.407 113.378 279.664 112.921 279.832C112.473 280 111.992 280.084 111.479 280.084ZM116.052 280V270.102H117.494V275.688H118.684L120.756 272.622H122.38L119.958 276.136L122.59 280H120.896L118.796 276.962H117.494V280H116.052ZM123.615 276.668V275.352H128.095V276.668H123.615ZM129.172 280L132.91 270.102H134.828L138.552 280H136.956L136.228 278.012H131.496L130.768 280H129.172ZM131.986 276.682H135.738L133.862 271.516L131.986 276.682Z" fill="white"/>
<path d="M362.122 267.645C362.611 267.155 362.856 266.91 363.127 266.793C363.517 266.625 363.96 266.625 364.351 266.793C364.622 266.91 364.866 267.155 365.356 267.645C365.845 268.134 366.09 268.379 366.207 268.65C366.375 269.04 366.375 269.483 366.207 269.874C366.09 270.145 365.845 270.389 365.356 270.879L361.171 275.063C360.14 276.094 359.625 276.61 358.979 276.915C358.333 277.221 357.608 277.292 356.157 277.436L355.5 277.5L355.565 276.843C355.708 275.392 355.78 274.667 356.085 274.021C356.39 273.376 356.906 272.86 357.937 271.829L362.122 267.645Z" stroke="#00A47E" stroke-linejoin="round"/>
<path d="M352.999 277.5H351.124C350.319 277.5 349.666 278.153 349.666 278.958C349.666 279.764 350.319 280.417 351.124 280.417H359.041C359.846 280.417 360.499 281.07 360.499 281.875C360.499 282.68 359.846 283.333 359.041 283.333H357.166" stroke="#00A47E" stroke-linecap="round" stroke-linejoin="round"/>
<path d="M383.999 271.667V278.334M387.333 275H380.666" stroke="#00A47E" stroke-linecap="round" stroke-linejoin="round"/>
<circle cx="383.999" cy="275" r="8.33333" stroke="#00A47E"/>
<path d="M416.667 274.999L403.334 274.999" stroke="#00A47E" stroke-linecap="round" stroke-linejoin="round"/>
<path d="M412.5 279.166C412.5 279.166 416.667 276.098 416.667 275C416.667 273.902 412.5 270.833 412.5 270.833" stroke="#00A47E" stroke-linecap="round" stroke-linejoin="round"/>
<rect x="64" y="293" width="32" height="32" rx="8" fill="#363636"/>
<path d="M72.7595 314V306.286H70.7715V305.236C71.1449 305.208 71.4809 305.166 71.7795 305.11C72.0782 305.045 72.3442 304.937 72.5775 304.788C72.8109 304.629 73.0162 304.401 73.1935 304.102H74.2435V314H72.7595ZM77.9685 314V306.286H75.9805V305.236C76.3539 305.208 76.6899 305.166 76.9885 305.11C77.2872 305.045 77.5532 304.937 77.7865 304.788C78.0199 304.629 78.2252 304.401 78.4025 304.102H79.4525V314H77.9685ZM85.1935 314.126C84.7642 314.126 84.3582 314.075 83.9755 313.972C83.5928 313.869 83.2428 313.715 82.9255 313.51C82.6175 313.295 82.3562 313.029 82.1415 312.712C81.9362 312.385 81.7915 311.998 81.7075 311.55H83.1915C83.2755 311.793 83.4155 312.003 83.6115 312.18C83.8168 312.357 84.0502 312.497 84.3115 312.6C84.5822 312.703 84.8575 312.754 85.1375 312.754C85.5575 312.754 85.9262 312.684 86.2435 312.544C86.5702 312.395 86.8268 312.18 87.0135 311.9C87.2002 311.62 87.2935 311.261 87.2935 310.822C87.2935 310.215 87.1068 309.744 86.7335 309.408C86.3602 309.072 85.8702 308.904 85.2635 308.904C84.8995 308.904 84.5588 308.969 84.2415 309.1C83.9335 309.221 83.6488 309.394 83.3875 309.618H81.9875L82.3375 304.102H88.4695V305.46H83.6955L83.4715 308.204C83.7328 307.999 84.0455 307.84 84.4095 307.728C84.7828 307.616 85.2075 307.565 85.6835 307.574C86.3182 307.574 86.8688 307.705 87.3355 307.966C87.8115 308.227 88.1755 308.596 88.4275 309.072C88.6888 309.539 88.8195 310.089 88.8195 310.724C88.8195 311.443 88.6562 312.054 88.3295 312.558C88.0122 313.062 87.5782 313.449 87.0275 313.72C86.4862 313.991 85.8748 314.126 85.1935 314.126Z" fill="white"/>
<rect x="100" y="293" width="32" height="32" rx="8" fill="#363636"/>
<path d="M108.76 314V306.286H106.772V305.236C107.145 305.208 107.481 305.166 107.78 305.11C108.078 305.045 108.344 304.937 108.578 304.788C108.811 304.629 109.016 304.401 109.194 304.102H110.244V314H108.76ZM113.969 314V306.286H111.981V305.236C112.354 305.208 112.69 305.166 112.989 305.11C113.287 305.045 113.553 304.937 113.787 304.788C114.02 304.629 114.225 304.401 114.403 304.102H115.453V314H113.969ZM121.194 314.126C120.764 314.126 120.358 314.075 119.976 313.972C119.593 313.869 119.243 313.715 118.926 313.51C118.618 313.295 118.356 313.029 118.142 312.712C117.936 312.385 117.792 311.998 117.708 311.55H119.192C119.276 311.793 119.416 312.003 119.612 312.18C119.817 312.357 120.05 312.497 120.312 312.6C120.582 312.703 120.858 312.754 121.138 312.754C121.558 312.754 121.926 312.684 122.244 312.544C122.57 312.395 122.827 312.18 123.014 311.9C123.2 311.62 123.294 311.261 123.294 310.822C123.294 310.215 123.107 309.744 122.734 309.408C122.36 309.072 121.87 308.904 121.264 308.904C120.9 308.904 120.559 308.969 120.242 309.1C119.934 309.221 119.649 309.394 119.388 309.618H117.988L118.338 304.102H124.47V305.46H119.696L119.472 308.204C119.733 307.999 120.046 307.84 120.41 307.728C120.783 307.616 121.208 307.565 121.684 307.574C122.318 307.574 122.869 307.705 123.336 307.966C123.812 308.227 124.176 308.596 124.428 309.072C124.689 309.539 124.82 310.089 124.82 310.724C124.82 311.443 124.656 312.054 124.33 312.558C124.012 313.062 123.578 313.449 123.028 313.72C122.486 313.991 121.875 314.126 121.194 314.126Z" fill="white"/>
<rect x="136" y="293" width="32" height="32" rx="8" fill="#363636"/>
<path d="M144.76 314V306.286H142.772V305.236C143.145 305.208 143.481 305.166 143.78 305.11C144.078 305.045 144.344 304.937 144.578 304.788C144.811 304.629 145.016 304.401 145.194 304.102H146.244V314H144.76ZM149.969 314V306.286H147.981V305.236C148.354 305.208 148.69 305.166 148.989 305.11C149.287 305.045 149.553 304.937 149.787 304.788C150.02 304.629 150.225 304.401 150.403 304.102H151.453V314H149.969ZM157.194 314.126C156.764 314.126 156.358 314.075 155.976 313.972C155.593 313.869 155.243 313.715 154.926 313.51C154.618 313.295 154.356 313.029 154.142 312.712C153.936 312.385 153.792 311.998 153.708 311.55H155.192C155.276 311.793 155.416 312.003 155.612 312.18C155.817 312.357 156.05 312.497 156.312 312.6C156.582 312.703 156.858 312.754 157.138 312.754C157.558 312.754 157.926 312.684 158.244 312.544C158.57 312.395 158.827 312.18 159.014 311.9C159.2 311.62 159.294 311.261 159.294 310.822C159.294 310.215 159.107 309.744 158.734 309.408C158.36 309.072 157.87 308.904 157.264 308.904C156.9 308.904 156.559 308.969 156.242 309.1C155.934 309.221 155.649 309.394 155.388 309.618H153.988L154.338 304.102H160.47V305.46H155.696L155.472 308.204C155.733 307.999 156.046 307.84 156.41 307.728C156.783 307.616 157.208 307.565 157.684 307.574C158.318 307.574 158.869 307.705 159.336 307.966C159.812 308.227 160.176 308.596 160.428 309.072C160.689 309.539 160.82 310.089 160.82 310.724C160.82 311.443 160.656 312.054 160.33 312.558C160.012 313.062 159.578 313.449 159.028 313.72C158.486 313.991 157.875 314.126 157.194 314.126Z" fill="white"/>
<rect x="172" y="293" width="32" height="32" rx="8" fill="#363636"/>
<path d="M180.76 314V306.286H178.772V305.236C179.145 305.208 179.481 305.166 179.78 305.11C180.078 305.045 180.344 304.937 180.578 304.788C180.811 304.629 181.016 304.401 181.194 304.102H182.244V314H180.76ZM185.969 314V306.286H183.981V305.236C184.354 305.208 184.69 305.166 184.989 305.11C185.287 305.045 185.553 304.937 185.787 304.788C186.02 304.629 186.225 304.401 186.403 304.102H187.453V314H185.969ZM193.194 314.126C192.764 314.126 192.358 314.075 191.976 313.972C191.593 313.869 191.243 313.715 190.926 313.51C190.618 313.295 190.356 313.029 190.142 312.712C189.936 312.385 189.792 311.998 189.708 311.55H191.192C191.276 311.793 191.416 312.003 191.612 312.18C191.817 312.357 192.05 312.497 192.312 312.6C192.582 312.703 192.858 312.754 193.138 312.754C193.558 312.754 193.926 312.684 194.244 312.544C194.57 312.395 194.827 312.18 195.014 311.9C195.2 311.62 195.294 311.261 195.294 310.822C195.294 310.215 195.107 309.744 194.734 309.408C194.36 309.072 193.87 308.904 193.264 308.904C192.9 308.904 192.559 308.969 192.242 309.1C191.934 309.221 191.649 309.394 191.388 309.618H189.988L190.338 304.102H196.47V305.46H191.696L191.472 308.204C191.733 307.999 192.046 307.84 192.41 307.728C192.783 307.616 193.208 307.565 193.684 307.574C194.318 307.574 194.869 307.705 195.336 307.966C195.812 308.227 196.176 308.596 196.428 309.072C196.689 309.539 196.82 310.089 196.82 310.724C196.82 311.443 196.656 312.054 196.33 312.558C196.012 313.062 195.578 313.449 195.028 313.72C194.486 313.991 193.875 314.126 193.194 314.126Z" fill="white"/>
<rect x="208" y="293" width="32" height="32" rx="8" fill="#363636"/>
<path d="M216.76 314V306.286H214.772V305.236C215.145 305.208 215.481 305.166 215.78 305.11C216.078 305.045 216.344 304.937 216.578 304.788C216.811 304.629 217.016 304.401 217.194 304.102H218.244V314H216.76ZM221.969 314V306.286H219.981V305.236C220.354 305.208 220.69 305.166 220.989 305.11C221.287 305.045 221.553 304.937 221.787 304.788C222.02 304.629 222.225 304.401 222.403 304.102H223.453V314H221.969ZM229.194 314.126C228.764 314.126 228.358 314.075 227.976 313.972C227.593 313.869 227.243 313.715 226.926 313.51C226.618 313.295 226.356 313.029 226.142 312.712C225.936 312.385 225.792 311.998 225.708 311.55H227.192C227.276 311.793 227.416 312.003 227.612 312.18C227.817 312.357 228.05 312.497 228.312 312.6C228.582 312.703 228.858 312.754 229.138 312.754C229.558 312.754 229.926 312.684 230.244 312.544C230.57 312.395 230.827 312.18 231.014 311.9C231.2 311.62 231.294 311.261 231.294 310.822C231.294 310.215 231.107 309.744 230.734 309.408C230.36 309.072 229.87 308.904 229.264 308.904C228.9 308.904 228.559 308.969 228.242 309.1C227.934 309.221 227.649 309.394 227.388 309.618H225.988L226.338 304.102H232.47V305.46H227.696L227.472 308.204C227.733 307.999 228.046 307.84 228.41 307.728C228.783 307.616 229.208 307.565 229.684 307.574C230.318 307.574 230.869 307.705 231.336 307.966C231.812 308.227 232.176 308.596 232.428 309.072C232.689 309.539 232.82 310.089 232.82 310.724C232.82 311.443 232.656 312.054 232.33 312.558C232.012 313.062 231.578 313.449 231.028 313.72C230.486 313.991 229.875 314.126 229.194 314.126Z" fill="white"/>
<rect x="244" y="293" width="32" height="32" rx="8" fill="#363636"/>
<path d="M252.76 314V306.286H250.772V305.236C251.145 305.208 251.481 305.166 251.78 305.11C252.078 305.045 252.344 304.937 252.578 304.788C252.811 304.629 253.016 304.401 253.194 304.102H254.244V314H252.76ZM257.969 314V306.286H255.981V305.236C256.354 305.208 256.69 305.166 256.989 305.11C257.287 305.045 257.553 304.937 257.787 304.788C258.02 304.629 258.225 304.401 258.403 304.102H259.453V314H257.969ZM265.194 314.126C264.764 314.126 264.358 314.075 263.976 313.972C263.593 313.869 263.243 313.715 262.926 313.51C262.618 313.295 262.356 313.029 262.142 312.712C261.936 312.385 261.792 311.998 261.708 311.55H263.192C263.276 311.793 263.416 312.003 263.612 312.18C263.817 312.357 264.05 312.497 264.312 312.6C264.582 312.703 264.858 312.754 265.138 312.754C265.558 312.754 265.926 312.684 266.244 312.544C266.57 312.395 266.827 312.18 267.014 311.9C267.2 311.62 267.294 311.261 267.294 310.822C267.294 310.215 267.107 309.744 266.734 309.408C266.36 309.072 265.87 308.904 265.264 308.904C264.9 308.904 264.559 308.969 264.242 309.1C263.934 309.221 263.649 309.394 263.388 309.618H261.988L262.338 304.102H268.47V305.46H263.696L263.472 308.204C263.733 307.999 264.046 307.84 264.41 307.728C264.783 307.616 265.208 307.565 265.684 307.574C266.318 307.574 266.869 307.705 267.336 307.966C267.812 308.227 268.176 308.596 268.428 309.072C268.689 309.539 268.82 310.089 268.82 310.724C268.82 311.443 268.656 312.054 268.33 312.558C268.012 313.062 267.578 313.449 267.028 313.72C266.486 313.991 265.875 314.126 265.194 314.126Z" fill="white"/>
<rect x="280" y="293" width="32" height="32" rx="8" fill="#363636"/>
<path d="M288.76 314V306.286H286.772V305.236C287.145 305.208 287.481 305.166 287.78 305.11C288.078 305.045 288.344 304.937 288.578 304.788C288.811 304.629 289.016 304.401 289.194 304.102H290.244V314H288.76ZM293.969 314V306.286H291.981V305.236C292.354 305.208 292.69 305.166 292.989 305.11C293.287 305.045 293.553 304.937 293.787 304.788C294.02 304.629 294.225 304.401 294.403 304.102H295.453V314H293.969ZM301.194 314.126C300.764 314.126 300.358 314.075 299.976 313.972C299.593 313.869 299.243 313.715 298.926 313.51C298.618 313.295 298.356 313.029 298.142 312.712C297.936 312.385 297.792 311.998 297.708 311.55H299.192C299.276 311.793 299.416 312.003 299.612 312.18C299.817 312.357 300.05 312.497 300.312 312.6C300.582 312.703 300.858 312.754 301.138 312.754C301.558 312.754 301.926 312.684 302.244 312.544C302.57 312.395 302.827 312.18 303.014 311.9C303.2 311.62 303.294 311.261 303.294 310.822C303.294 310.215 303.107 309.744 302.734 309.408C302.36 309.072 301.87 308.904 301.264 308.904C300.9 308.904 300.559 308.969 300.242 309.1C299.934 309.221 299.649 309.394 299.388 309.618H297.988L298.338 304.102H304.47V305.46H299.696L299.472 308.204C299.733 307.999 300.046 307.84 300.41 307.728C300.783 307.616 301.208 307.565 301.684 307.574C302.318 307.574 302.869 307.705 303.336 307.966C303.812 308.227 304.176 308.596 304.428 309.072C304.689 309.539 304.82 310.089 304.82 310.724C304.82 311.443 304.656 312.054 304.33 312.558C304.012 313.062 303.578 313.449 303.028 313.72C302.486 313.991 301.875 314.126 301.194 314.126Z" fill="white"/>
<rect x="316" y="293" width="32" height="32" rx="8" fill="#363636"/>
<path d="M324.76 314V306.286H322.772V305.236C323.145 305.208 323.481 305.166 323.78 305.11C324.078 305.045 324.344 304.937 324.578 304.788C324.811 304.629 325.016 304.401 325.194 304.102H326.244V314H324.76ZM329.969 314V306.286H327.981V305.236C328.354 305.208 328.69 305.166 328.989 305.11C329.287 305.045 329.553 304.937 329.787 304.788C330.02 304.629 330.225 304.401 330.403 304.102H331.453V314H329.969ZM337.194 314.126C336.764 314.126 336.358 314.075 335.976 313.972C335.593 313.869 335.243 313.715 334.926 313.51C334.618 313.295 334.356 313.029 334.142 312.712C333.936 312.385 333.792 311.998 333.708 311.55H335.192C335.276 311.793 335.416 312.003 335.612 312.18C335.817 312.357 336.05 312.497 336.312 312.6C336.582 312.703 336.858 312.754 337.138 312.754C337.558 312.754 337.926 312.684 338.244 312.544C338.57 312.395 338.827 312.18 339.014 311.9C339.2 311.62 339.294 311.261 339.294 310.822C339.294 310.215 339.107 309.744 338.734 309.408C338.36 309.072 337.87 308.904 337.264 308.904C336.9 308.904 336.559 308.969 336.242 309.1C335.934 309.221 335.649 309.394 335.388 309.618H333.988L334.338 304.102H340.47V305.46H335.696L335.472 308.204C335.733 307.999 336.046 307.84 336.41 307.728C336.783 307.616 337.208 307.565 337.684 307.574C338.318 307.574 338.869 307.705 339.336 307.966C339.812 308.227 340.176 308.596 340.428 309.072C340.689 309.539 340.82 310.089 340.82 310.724C340.82 311.443 340.656 312.054 340.33 312.558C340.012 313.062 339.578 313.449 339.028 313.72C338.486 313.991 337.875 314.126 337.194 314.126Z" fill="white"/>
<rect x="352" y="293" width="32" height="32" rx="8" fill="#363636"/>
<path d="M360.76 314V306.286H358.772V305.236C359.145 305.208 359.481 305.166 359.78 305.11C360.078 305.045 360.344 304.937 360.578 304.788C360.811 304.629 361.016 304.401 361.194 304.102H362.244V314H360.76ZM365.969 314V306.286H363.981V305.236C364.354 305.208 364.69 305.166 364.989 305.11C365.287 305.045 365.553 304.937 365.787 304.788C366.02 304.629 366.225 304.401 366.403 304.102H367.453V314H365.969ZM373.194 314.126C372.764 314.126 372.358 314.075 371.976 313.972C371.593 313.869 371.243 313.715 370.926 313.51C370.618 313.295 370.356 313.029 370.142 312.712C369.936 312.385 369.792 311.998 369.708 311.55H371.192C371.276 311.793 371.416 312.003 371.612 312.18C371.817 312.357 372.05 312.497 372.312 312.6C372.582 312.703 372.858 312.754 373.138 312.754C373.558 312.754 373.926 312.684 374.244 312.544C374.57 312.395 374.827 312.18 375.014 311.9C375.2 311.62 375.294 311.261 375.294 310.822C375.294 310.215 375.107 309.744 374.734 309.408C374.36 309.072 373.87 308.904 373.264 308.904C372.9 308.904 372.559 308.969 372.242 309.1C371.934 309.221 371.649 309.394 371.388 309.618H369.988L370.338 304.102H376.47V305.46H371.696L371.472 308.204C371.733 307.999 372.046 307.84 372.41 307.728C372.783 307.616 373.208 307.565 373.684 307.574C374.318 307.574 374.869 307.705 375.336 307.966C375.812 308.227 376.176 308.596 376.428 309.072C376.689 309.539 376.82 310.089 376.82 310.724C376.82 311.443 376.656 312.054 376.33 312.558C376.012 313.062 375.578 313.449 375.028 313.72C374.486 313.991 373.875 314.126 373.194 314.126Z" fill="white"/>
<rect x="388" y="293" width="32" height="32" rx="8" fill="#363636"/>
<path d="M396.76 314V306.286H394.772V305.236C395.145 305.208 395.481 305.166 395.78 305.11C396.078 305.045 396.344 304.937 396.578 304.788C396.811 304.629 397.016 304.401 397.194 304.102H398.244V314H396.76ZM401.969 314V306.286H399.981V305.236C400.354 305.208 400.69 305.166 400.989 305.11C401.287 305.045 401.553 304.937 401.787 304.788C402.02 304.629 402.225 304.401 402.403 304.102H403.453V314H401.969ZM409.194 314.126C408.764 314.126 408.358 314.075 407.976 313.972C407.593 313.869 407.243 313.715 406.926 313.51C406.618 313.295 406.356 313.029 406.142 312.712C405.936 312.385 405.792 311.998 405.708 311.55H407.192C407.276 311.793 407.416 312.003 407.612 312.18C407.817 312.357 408.05 312.497 408.312 312.6C408.582 312.703 408.858 312.754 409.138 312.754C409.558 312.754 409.926 312.684 410.244 312.544C410.57 312.395 410.827 312.18 411.014 311.9C411.2 311.62 411.294 311.261 411.294 310.822C411.294 310.215 411.107 309.744 410.734 309.408C410.36 309.072 409.87 308.904 409.264 308.904C408.9 308.904 408.559 308.969 408.242 309.1C407.934 309.221 407.649 309.394 407.388 309.618H405.988L406.338 304.102H412.47V305.46H407.696L407.472 308.204C407.733 307.999 408.046 307.84 408.41 307.728C408.783 307.616 409.208 307.565 409.684 307.574C410.318 307.574 410.869 307.705 411.336 307.966C411.812 308.227 412.176 308.596 412.428 309.072C412.689 309.539 412.82 310.089 412.82 310.724C412.82 311.443 412.656 312.054 412.33 312.558C412.012 313.062 411.578 313.449 411.028 313.72C410.486 313.991 409.875 314.126 409.194 314.126Z" fill="white"/>
<rect x="64.5" y="329.5" width="31" height="31" rx="7.5" stroke="#363636"/>
<path d="M79.9993 341.667V348.334M83.3327 345H76.666" stroke="#717272" stroke-linecap="round" stroke-linejoin="round"/>
<circle cx="79.9994" cy="345" r="8.33333" stroke="#717272"/>
<rect x="100.5" y="329.5" width="31" height="31" rx="7.5" stroke="#363636"/>
<path d="M115.999 341.667V348.334M119.333 345H112.666" stroke="#717272" stroke-linecap="round" stroke-linejoin="round"/>
<circle cx="115.999" cy="345" r="8.33333" stroke="#717272"/>
<rect x="136.5" y="329.5" width="31" height="31" rx="7.5" stroke="#363636"/>
<path d="M151.999 341.667V348.334M155.333 345H148.666" stroke="#717272" stroke-linecap="round" stroke-linejoin="round"/>
<circle cx="151.999" cy="345" r="8.33333" stroke="#717272"/>
<rect x="172.5" y="329.5" width="31" height="31" rx="7.5" stroke="#363636"/>
<path d="M187.999 341.667V348.334M191.333 345H184.666" stroke="#717272" stroke-linecap="round" stroke-linejoin="round"/>
<circle cx="187.999" cy="345" r="8.33333" stroke="#717272"/>
<rect x="208.5" y="329.5" width="31" height="31" rx="7.5" stroke="#363636"/>
<path d="M223.999 341.667V348.334M227.333 345H220.666" stroke="#717272" stroke-linecap="round" stroke-linejoin="round"/>
<circle cx="223.999" cy="345" r="8.33333" stroke="#717272"/>
<rect x="244.5" y="329.5" width="31" height="31" rx="7.5" stroke="#363636"/>
<path d="M259.999 341.667V348.334M263.333 345H256.666" stroke="#717272" stroke-linecap="round" stroke-linejoin="round"/>
<circle cx="259.999" cy="345" r="8.33333" stroke="#717272"/>
<rect x="280.5" y="329.5" width="31" height="31" rx="7.5" stroke="#363636"/>
<path d="M295.999 341.667V348.334M299.333 345H292.666" stroke="#717272" stroke-linecap="round" stroke-linejoin="round"/>
<circle cx="295.999" cy="345" r="8.33333" stroke="#717272"/>
<rect x="316.5" y="329.5" width="31" height="31" rx="7.5" stroke="#363636"/>
<path d="M331.999 341.667V348.334M335.333 345H328.666" stroke="#717272" stroke-linecap="round" stroke-linejoin="round"/>
<circle cx="331.999" cy="345" r="8.33333" stroke="#717272"/>
<rect x="352.5" y="329.5" width="31" height="31" rx="7.5" stroke="#363636"/>
<path d="M367.999 341.667V348.334M371.333 345H364.666" stroke="#717272" stroke-linecap="round" stroke-linejoin="round"/>
<circle cx="367.999" cy="345" r="8.33333" stroke="#717272"/>
<rect x="388.5" y="329.5" width="31" height="31" rx="7.5" stroke="#363636"/>
<path d="M403.999 341.667V348.334M407.333 345H400.666" stroke="#717272" stroke-linecap="round" stroke-linejoin="round"/>
<circle cx="403.999" cy="345" r="8.33333" stroke="#717272"/>
<rect x="64" y="365" width="32" height="32" rx="8" fill="#363636"/>
<path d="M72.7595 386V378.286H70.7715V377.236C71.1449 377.208 71.4809 377.166 71.7795 377.11C72.0782 377.045 72.3442 376.937 72.5775 376.788C72.8109 376.629 73.0162 376.401 73.1935 376.102H74.2435V386H72.7595ZM77.9685 386V378.286H75.9805V377.236C76.3539 377.208 76.6899 377.166 76.9885 377.11C77.2872 377.045 77.5532 376.937 77.7865 376.788C78.0199 376.629 78.2252 376.401 78.4025 376.102H79.4525V386H77.9685ZM85.1935 386.126C84.7642 386.126 84.3582 386.075 83.9755 385.972C83.5928 385.869 83.2428 385.715 82.9255 385.51C82.6175 385.295 82.3562 385.029 82.1415 384.712C81.9362 384.385 81.7915 383.998 81.7075 383.55H83.1915C83.2755 383.793 83.4155 384.003 83.6115 384.18C83.8168 384.357 84.0502 384.497 84.3115 384.6C84.5822 384.703 84.8575 384.754 85.1375 384.754C85.5575 384.754 85.9262 384.684 86.2435 384.544C86.5702 384.395 86.8268 384.18 87.0135 383.9C87.2002 383.62 87.2935 383.261 87.2935 382.822C87.2935 382.215 87.1068 381.744 86.7335 381.408C86.3602 381.072 85.8702 380.904 85.2635 380.904C84.8995 380.904 84.5588 380.969 84.2415 381.1C83.9335 381.221 83.6488 381.394 83.3875 381.618H81.9875L82.3375 376.102H88.4695V377.46H83.6955L83.4715 380.204C83.7328 379.999 84.0455 379.84 84.4095 379.728C84.7828 379.616 85.2075 379.565 85.6835 379.574C86.3182 379.574 86.8688 379.705 87.3355 379.966C87.8115 380.227 88.1755 380.596 88.4275 381.072C88.6888 381.539 88.8195 382.089 88.8195 382.724C88.8195 383.443 88.6562 384.054 88.3295 384.558C88.0122 385.062 87.5782 385.449 87.0275 385.72C86.4862 385.991 85.8748 386.126 85.1935 386.126Z" fill="white"/>
<rect x="100" y="365" width="32" height="32" rx="8" fill="#363636"/>
<path d="M108.76 386V378.286H106.772V377.236C107.145 377.208 107.481 377.166 107.78 377.11C108.078 377.045 108.344 376.937 108.578 376.788C108.811 376.629 109.016 376.401 109.194 376.102H110.244V386H108.76ZM113.969 386V378.286H111.981V377.236C112.354 377.208 112.69 377.166 112.989 377.11C113.287 377.045 113.553 376.937 113.787 376.788C114.02 376.629 114.225 376.401 114.403 376.102H115.453V386H113.969ZM121.194 386.126C120.764 386.126 120.358 386.075 119.976 385.972C119.593 385.869 119.243 385.715 118.926 385.51C118.618 385.295 118.356 385.029 118.142 384.712C117.936 384.385 117.792 383.998 117.708 383.55H119.192C119.276 383.793 119.416 384.003 119.612 384.18C119.817 384.357 120.05 384.497 120.312 384.6C120.582 384.703 120.858 384.754 121.138 384.754C121.558 384.754 121.926 384.684 122.244 384.544C122.57 384.395 122.827 384.18 123.014 383.9C123.2 383.62 123.294 383.261 123.294 382.822C123.294 382.215 123.107 381.744 122.734 381.408C122.36 381.072 121.87 380.904 121.264 380.904C120.9 380.904 120.559 380.969 120.242 381.1C119.934 381.221 119.649 381.394 119.388 381.618H117.988L118.338 376.102H124.47V377.46H119.696L119.472 380.204C119.733 379.999 120.046 379.84 120.41 379.728C120.783 379.616 121.208 379.565 121.684 379.574C122.318 379.574 122.869 379.705 123.336 379.966C123.812 380.227 124.176 380.596 124.428 381.072C124.689 381.539 124.82 382.089 124.82 382.724C124.82 383.443 124.656 384.054 124.33 384.558C124.012 385.062 123.578 385.449 123.028 385.72C122.486 385.991 121.875 386.126 121.194 386.126Z" fill="white"/>
<rect x="136" y="365" width="32" height="32" rx="8" fill="#363636"/>
<path d="M144.76 386V378.286H142.772V377.236C143.145 377.208 143.481 377.166 143.78 377.11C144.078 377.045 144.344 376.937 144.578 376.788C144.811 376.629 145.016 376.401 145.194 376.102H146.244V386H144.76ZM149.969 386V378.286H147.981V377.236C148.354 377.208 148.69 377.166 148.989 377.11C149.287 377.045 149.553 376.937 149.787 376.788C150.02 376.629 150.225 376.401 150.403 376.102H151.453V386H149.969ZM157.194 386.126C156.764 386.126 156.358 386.075 155.976 385.972C155.593 385.869 155.243 385.715 154.926 385.51C154.618 385.295 154.356 385.029 154.142 384.712C153.936 384.385 153.792 383.998 153.708 383.55H155.192C155.276 383.793 155.416 384.003 155.612 384.18C155.817 384.357 156.05 384.497 156.312 384.6C156.582 384.703 156.858 384.754 157.138 384.754C157.558 384.754 157.926 384.684 158.244 384.544C158.57 384.395 158.827 384.18 159.014 383.9C159.2 383.62 159.294 383.261 159.294 382.822C159.294 382.215 159.107 381.744 158.734 381.408C158.36 381.072 157.87 380.904 157.264 380.904C156.9 380.904 156.559 380.969 156.242 381.1C155.934 381.221 155.649 381.394 155.388 381.618H153.988L154.338 376.102H160.47V377.46H155.696L155.472 380.204C155.733 379.999 156.046 379.84 156.41 379.728C156.783 379.616 157.208 379.565 157.684 379.574C158.318 379.574 158.869 379.705 159.336 379.966C159.812 380.227 160.176 380.596 160.428 381.072C160.689 381.539 160.82 382.089 160.82 382.724C160.82 383.443 160.656 384.054 160.33 384.558C160.012 385.062 159.578 385.449 159.028 385.72C158.486 385.991 157.875 386.126 157.194 386.126Z" fill="white"/>
<rect x="172" y="365" width="32" height="32" rx="8" fill="#363636"/>
<path d="M180.76 386V378.286H178.772V377.236C179.145 377.208 179.481 377.166 179.78 377.11C180.078 377.045 180.344 376.937 180.578 376.788C180.811 376.629 181.016 376.401 181.194 376.102H182.244V386H180.76ZM185.969 386V378.286H183.981V377.236C184.354 377.208 184.69 377.166 184.989 377.11C185.287 377.045 185.553 376.937 185.787 376.788C186.02 376.629 186.225 376.401 186.403 376.102H187.453V386H185.969ZM193.194 386.126C192.764 386.126 192.358 386.075 191.976 385.972C191.593 385.869 191.243 385.715 190.926 385.51C190.618 385.295 190.356 385.029 190.142 384.712C189.936 384.385 189.792 383.998 189.708 383.55H191.192C191.276 383.793 191.416 384.003 191.612 384.18C191.817 384.357 192.05 384.497 192.312 384.6C192.582 384.703 192.858 384.754 193.138 384.754C193.558 384.754 193.926 384.684 194.244 384.544C194.57 384.395 194.827 384.18 195.014 383.9C195.2 383.62 195.294 383.261 195.294 382.822C195.294 382.215 195.107 381.744 194.734 381.408C194.36 381.072 193.87 380.904 193.264 380.904C192.9 380.904 192.559 380.969 192.242 381.1C191.934 381.221 191.649 381.394 191.388 381.618H189.988L190.338 376.102H196.47V377.46H191.696L191.472 380.204C191.733 379.999 192.046 379.84 192.41 379.728C192.783 379.616 193.208 379.565 193.684 379.574C194.318 379.574 194.869 379.705 195.336 379.966C195.812 380.227 196.176 380.596 196.428 381.072C196.689 381.539 196.82 382.089 196.82 382.724C196.82 383.443 196.656 384.054 196.33 384.558C196.012 385.062 195.578 385.449 195.028 385.72C194.486 385.991 193.875 386.126 193.194 386.126Z" fill="white"/>
<rect x="208" y="365" width="32" height="32" rx="8" fill="#363636"/>
<path d="M216.76 386V378.286H214.772V377.236C215.145 377.208 215.481 377.166 215.78 377.11C216.078 377.045 216.344 376.937 216.578 376.788C216.811 376.629 217.016 376.401 217.194 376.102H218.244V386H216.76ZM221.969 386V378.286H219.981V377.236C220.354 377.208 220.69 377.166 220.989 377.11C221.287 377.045 221.553 376.937 221.787 376.788C222.02 376.629 222.225 376.401 222.403 376.102H223.453V386H221.969ZM229.194 386.126C228.764 386.126 228.358 386.075 227.976 385.972C227.593 385.869 227.243 385.715 226.926 385.51C226.618 385.295 226.356 385.029 226.142 384.712C225.936 384.385 225.792 383.998 225.708 383.55H227.192C227.276 383.793 227.416 384.003 227.612 384.18C227.817 384.357 228.05 384.497 228.312 384.6C228.582 384.703 228.858 384.754 229.138 384.754C229.558 384.754 229.926 384.684 230.244 384.544C230.57 384.395 230.827 384.18 231.014 383.9C231.2 383.62 231.294 383.261 231.294 382.822C231.294 382.215 231.107 381.744 230.734 381.408C230.36 381.072 229.87 380.904 229.264 380.904C228.9 380.904 228.559 380.969 228.242 381.1C227.934 381.221 227.649 381.394 227.388 381.618H225.988L226.338 376.102H232.47V377.46H227.696L227.472 380.204C227.733 379.999 228.046 379.84 228.41 379.728C228.783 379.616 229.208 379.565 229.684 379.574C230.318 379.574 230.869 379.705 231.336 379.966C231.812 380.227 232.176 380.596 232.428 381.072C232.689 381.539 232.82 382.089 232.82 382.724C232.82 383.443 232.656 384.054 232.33 384.558C232.012 385.062 231.578 385.449 231.028 385.72C230.486 385.991 229.875 386.126 229.194 386.126Z" fill="white"/>
<rect x="244" y="365" width="32" height="32" rx="8" fill="#363636"/>
<path d="M252.76 386V378.286H250.772V377.236C251.145 377.208 251.481 377.166 251.78 377.11C252.078 377.045 252.344 376.937 252.578 376.788C252.811 376.629 253.016 376.401 253.194 376.102H254.244V386H252.76ZM257.969 386V378.286H255.981V377.236C256.354 377.208 256.69 377.166 256.989 377.11C257.287 377.045 257.553 376.937 257.787 376.788C258.02 376.629 258.225 376.401 258.403 376.102H259.453V386H257.969ZM265.194 386.126C264.764 386.126 264.358 386.075 263.976 385.972C263.593 385.869 263.243 385.715 262.926 385.51C262.618 385.295 262.356 385.029 262.142 384.712C261.936 384.385 261.792 383.998 261.708 383.55H263.192C263.276 383.793 263.416 384.003 263.612 384.18C263.817 384.357 264.05 384.497 264.312 384.6C264.582 384.703 264.858 384.754 265.138 384.754C265.558 384.754 265.926 384.684 266.244 384.544C266.57 384.395 266.827 384.18 267.014 383.9C267.2 383.62 267.294 383.261 267.294 382.822C267.294 382.215 267.107 381.744 266.734 381.408C266.36 381.072 265.87 380.904 265.264 380.904C264.9 380.904 264.559 380.969 264.242 381.1C263.934 381.221 263.649 381.394 263.388 381.618H261.988L262.338 376.102H268.47V377.46H263.696L263.472 380.204C263.733 379.999 264.046 379.84 264.41 379.728C264.783 379.616 265.208 379.565 265.684 379.574C266.318 379.574 266.869 379.705 267.336 379.966C267.812 380.227 268.176 380.596 268.428 381.072C268.689 381.539 268.82 382.089 268.82 382.724C268.82 383.443 268.656 384.054 268.33 384.558C268.012 385.062 267.578 385.449 267.028 385.72C266.486 385.991 265.875 386.126 265.194 386.126Z" fill="white"/>
<rect x="280" y="365" width="32" height="32" rx="8" fill="#363636"/>
<path d="M288.76 386V378.286H286.772V377.236C287.145 377.208 287.481 377.166 287.78 377.11C288.078 377.045 288.344 376.937 288.578 376.788C288.811 376.629 289.016 376.401 289.194 376.102H290.244V386H288.76ZM293.969 386V378.286H291.981V377.236C292.354 377.208 292.69 377.166 292.989 377.11C293.287 377.045 293.553 376.937 293.787 376.788C294.02 376.629 294.225 376.401 294.403 376.102H295.453V386H293.969ZM301.194 386.126C300.764 386.126 300.358 386.075 299.976 385.972C299.593 385.869 299.243 385.715 298.926 385.51C298.618 385.295 298.356 385.029 298.142 384.712C297.936 384.385 297.792 383.998 297.708 383.55H299.192C299.276 383.793 299.416 384.003 299.612 384.18C299.817 384.357 300.05 384.497 300.312 384.6C300.582 384.703 300.858 384.754 301.138 384.754C301.558 384.754 301.926 384.684 302.244 384.544C302.57 384.395 302.827 384.18 303.014 383.9C303.2 383.62 303.294 383.261 303.294 382.822C303.294 382.215 303.107 381.744 302.734 381.408C302.36 381.072 301.87 380.904 301.264 380.904C300.9 380.904 300.559 380.969 300.242 381.1C299.934 381.221 299.649 381.394 299.388 381.618H297.988L298.338 376.102H304.47V377.46H299.696L299.472 380.204C299.733 379.999 300.046 379.84 300.41 379.728C300.783 379.616 301.208 379.565 301.684 379.574C302.318 379.574 302.869 379.705 303.336 379.966C303.812 380.227 304.176 380.596 304.428 381.072C304.689 381.539 304.82 382.089 304.82 382.724C304.82 383.443 304.656 384.054 304.33 384.558C304.012 385.062 303.578 385.449 303.028 385.72C302.486 385.991 301.875 386.126 301.194 386.126Z" fill="white"/>
<rect x="316" y="365" width="32" height="32" rx="8" fill="#363636"/>
<path d="M324.76 386V378.286H322.772V377.236C323.145 377.208 323.481 377.166 323.78 377.11C324.078 377.045 324.344 376.937 324.578 376.788C324.811 376.629 325.016 376.401 325.194 376.102H326.244V386H324.76ZM329.969 386V378.286H327.981V377.236C328.354 377.208 328.69 377.166 328.989 377.11C329.287 377.045 329.553 376.937 329.787 376.788C330.02 376.629 330.225 376.401 330.403 376.102H331.453V386H329.969ZM337.194 386.126C336.764 386.126 336.358 386.075 335.976 385.972C335.593 385.869 335.243 385.715 334.926 385.51C334.618 385.295 334.356 385.029 334.142 384.712C333.936 384.385 333.792 383.998 333.708 383.55H335.192C335.276 383.793 335.416 384.003 335.612 384.18C335.817 384.357 336.05 384.497 336.312 384.6C336.582 384.703 336.858 384.754 337.138 384.754C337.558 384.754 337.926 384.684 338.244 384.544C338.57 384.395 338.827 384.18 339.014 383.9C339.2 383.62 339.294 383.261 339.294 382.822C339.294 382.215 339.107 381.744 338.734 381.408C338.36 381.072 337.87 380.904 337.264 380.904C336.9 380.904 336.559 380.969 336.242 381.1C335.934 381.221 335.649 381.394 335.388 381.618H333.988L334.338 376.102H340.47V377.46H335.696L335.472 380.204C335.733 379.999 336.046 379.84 336.41 379.728C336.783 379.616 337.208 379.565 337.684 379.574C338.318 379.574 338.869 379.705 339.336 379.966C339.812 380.227 340.176 380.596 340.428 381.072C340.689 381.539 340.82 382.089 340.82 382.724C340.82 383.443 340.656 384.054 340.33 384.558C340.012 385.062 339.578 385.449 339.028 385.72C338.486 385.991 337.875 386.126 337.194 386.126Z" fill="white"/>
<rect x="352" y="365" width="32" height="32" rx="8" fill="#363636"/>
<path d="M360.76 386V378.286H358.772V377.236C359.145 377.208 359.481 377.166 359.78 377.11C360.078 377.045 360.344 376.937 360.578 376.788C360.811 376.629 361.016 376.401 361.194 376.102H362.244V386H360.76ZM365.969 386V378.286H363.981V377.236C364.354 377.208 364.69 377.166 364.989 377.11C365.287 377.045 365.553 376.937 365.787 376.788C366.02 376.629 366.225 376.401 366.403 376.102H367.453V386H365.969ZM373.194 386.126C372.764 386.126 372.358 386.075 371.976 385.972C371.593 385.869 371.243 385.715 370.926 385.51C370.618 385.295 370.356 385.029 370.142 384.712C369.936 384.385 369.792 383.998 369.708 383.55H371.192C371.276 383.793 371.416 384.003 371.612 384.18C371.817 384.357 372.05 384.497 372.312 384.6C372.582 384.703 372.858 384.754 373.138 384.754C373.558 384.754 373.926 384.684 374.244 384.544C374.57 384.395 374.827 384.18 375.014 383.9C375.2 383.62 375.294 383.261 375.294 382.822C375.294 382.215 375.107 381.744 374.734 381.408C374.36 381.072 373.87 380.904 373.264 380.904C372.9 380.904 372.559 380.969 372.242 381.1C371.934 381.221 371.649 381.394 371.388 381.618H369.988L370.338 376.102H376.47V377.46H371.696L371.472 380.204C371.733 379.999 372.046 379.84 372.41 379.728C372.783 379.616 373.208 379.565 373.684 379.574C374.318 379.574 374.869 379.705 375.336 379.966C375.812 380.227 376.176 380.596 376.428 381.072C376.689 381.539 376.82 382.089 376.82 382.724C376.82 383.443 376.656 384.054 376.33 384.558C376.012 385.062 375.578 385.449 375.028 385.72C374.486 385.991 373.875 386.126 373.194 386.126Z" fill="white"/>
<rect x="388" y="365" width="32" height="32" rx="8" fill="#363636"/>
<path d="M396.76 386V378.286H394.772V377.236C395.145 377.208 395.481 377.166 395.78 377.11C396.078 377.045 396.344 376.937 396.578 376.788C396.811 376.629 397.016 376.401 397.194 376.102H398.244V386H396.76ZM401.969 386V378.286H399.981V377.236C400.354 377.208 400.69 377.166 400.989 377.11C401.287 377.045 401.553 376.937 401.787 376.788C402.02 376.629 402.225 376.401 402.403 376.102H403.453V386H401.969ZM409.194 386.126C408.764 386.126 408.358 386.075 407.976 385.972C407.593 385.869 407.243 385.715 406.926 385.51C406.618 385.295 406.356 385.029 406.142 384.712C405.936 384.385 405.792 383.998 405.708 383.55H407.192C407.276 383.793 407.416 384.003 407.612 384.18C407.817 384.357 408.05 384.497 408.312 384.6C408.582 384.703 408.858 384.754 409.138 384.754C409.558 384.754 409.926 384.684 410.244 384.544C410.57 384.395 410.827 384.18 411.014 383.9C411.2 383.62 411.294 383.261 411.294 382.822C411.294 382.215 411.107 381.744 410.734 381.408C410.36 381.072 409.87 380.904 409.264 380.904C408.9 380.904 408.559 380.969 408.242 381.1C407.934 381.221 407.649 381.394 407.388 381.618H405.988L406.338 376.102H412.47V377.46H407.696L407.472 380.204C407.733 379.999 408.046 379.84 408.41 379.728C408.783 379.616 409.208 379.565 409.684 379.574C410.318 379.574 410.869 379.705 411.336 379.966C411.812 380.227 412.176 380.596 412.428 381.072C412.689 381.539 412.82 382.089 412.82 382.724C412.82 383.443 412.656 384.054 412.33 384.558C412.012 385.062 411.578 385.449 411.028 385.72C410.486 385.991 409.875 386.126 409.194 386.126Z" fill="white"/>
<rect x="64" y="401" width="32" height="32" rx="8" fill="#15CB52"/>
<path d="M72.7595 422V414.286H70.7715V413.236C71.1449 413.208 71.4809 413.166 71.7795 413.11C72.0782 413.045 72.3442 412.937 72.5775 412.788C72.8109 412.629 73.0162 412.401 73.1935 412.102H74.2435V422H72.7595ZM77.9685 422V414.286H75.9805V413.236C76.3539 413.208 76.6899 413.166 76.9885 413.11C77.2872 413.045 77.5532 412.937 77.7865 412.788C78.0199 412.629 78.2252 412.401 78.4025 412.102H79.4525V422H77.9685ZM85.1935 422.126C84.7642 422.126 84.3582 422.075 83.9755 421.972C83.5928 421.869 83.2428 421.715 82.9255 421.51C82.6175 421.295 82.3562 421.029 82.1415 420.712C81.9362 420.385 81.7915 419.998 81.7075 419.55H83.1915C83.2755 419.793 83.4155 420.003 83.6115 420.18C83.8168 420.357 84.0502 420.497 84.3115 420.6C84.5822 420.703 84.8575 420.754 85.1375 420.754C85.5575 420.754 85.9262 420.684 86.2435 420.544C86.5702 420.395 86.8268 420.18 87.0135 419.9C87.2002 419.62 87.2935 419.261 87.2935 418.822C87.2935 418.215 87.1068 417.744 86.7335 417.408C86.3602 417.072 85.8702 416.904 85.2635 416.904C84.8995 416.904 84.5588 416.969 84.2415 417.1C83.9335 417.221 83.6488 417.394 83.3875 417.618H81.9875L82.3375 412.102H88.4695V413.46H83.6955L83.4715 416.204C83.7328 415.999 84.0455 415.84 84.4095 415.728C84.7828 415.616 85.2075 415.565 85.6835 415.574C86.3182 415.574 86.8688 415.705 87.3355 415.966C87.8115 416.227 88.1755 416.596 88.4275 417.072C88.6888 417.539 88.8195 418.089 88.8195 418.724C88.8195 419.443 88.6562 420.054 88.3295 420.558C88.0122 421.062 87.5782 421.449 87.0275 421.72C86.4862 421.991 85.8748 422.126 85.1935 422.126Z" fill="white"/>
<rect x="100" y="401" width="32" height="32" rx="8" fill="#15CB52"/>
<path d="M108.76 422V414.286H106.772V413.236C107.145 413.208 107.481 413.166 107.78 413.11C108.078 413.045 108.344 412.937 108.578 412.788C108.811 412.629 109.016 412.401 109.194 412.102H110.244V422H108.76ZM113.969 422V414.286H111.981V413.236C112.354 413.208 112.69 413.166 112.989 413.11C113.287 413.045 113.553 412.937 113.787 412.788C114.02 412.629 114.225 412.401 114.403 412.102H115.453V422H113.969ZM121.194 422.126C120.764 422.126 120.358 422.075 119.976 421.972C119.593 421.869 119.243 421.715 118.926 421.51C118.618 421.295 118.356 421.029 118.142 420.712C117.936 420.385 117.792 419.998 117.708 419.55H119.192C119.276 419.793 119.416 420.003 119.612 420.18C119.817 420.357 120.05 420.497 120.312 420.6C120.582 420.703 120.858 420.754 121.138 420.754C121.558 420.754 121.926 420.684 122.244 420.544C122.57 420.395 122.827 420.18 123.014 419.9C123.2 419.62 123.294 419.261 123.294 418.822C123.294 418.215 123.107 417.744 122.734 417.408C122.36 417.072 121.87 416.904 121.264 416.904C120.9 416.904 120.559 416.969 120.242 417.1C119.934 417.221 119.649 417.394 119.388 417.618H117.988L118.338 412.102H124.47V413.46H119.696L119.472 416.204C119.733 415.999 120.046 415.84 120.41 415.728C120.783 415.616 121.208 415.565 121.684 415.574C122.318 415.574 122.869 415.705 123.336 415.966C123.812 416.227 124.176 416.596 124.428 417.072C124.689 417.539 124.82 418.089 124.82 418.724C124.82 419.443 124.656 420.054 124.33 420.558C124.012 421.062 123.578 421.449 123.028 421.72C122.486 421.991 121.875 422.126 121.194 422.126Z" fill="white"/>
<rect x="136" y="401" width="32" height="32" rx="8" fill="#15CB52"/>
<path d="M144.76 422V414.286H142.772V413.236C143.145 413.208 143.481 413.166 143.78 413.11C144.078 413.045 144.344 412.937 144.578 412.788C144.811 412.629 145.016 412.401 145.194 412.102H146.244V422H144.76ZM149.969 422V414.286H147.981V413.236C148.354 413.208 148.69 413.166 148.989 413.11C149.287 413.045 149.553 412.937 149.787 412.788C150.02 412.629 150.225 412.401 150.403 412.102H151.453V422H149.969ZM157.194 422.126C156.764 422.126 156.358 422.075 155.976 421.972C155.593 421.869 155.243 421.715 154.926 421.51C154.618 421.295 154.356 421.029 154.142 420.712C153.936 420.385 153.792 419.998 153.708 419.55H155.192C155.276 419.793 155.416 420.003 155.612 420.18C155.817 420.357 156.05 420.497 156.312 420.6C156.582 420.703 156.858 420.754 157.138 420.754C157.558 420.754 157.926 420.684 158.244 420.544C158.57 420.395 158.827 420.18 159.014 419.9C159.2 419.62 159.294 419.261 159.294 418.822C159.294 418.215 159.107 417.744 158.734 417.408C158.36 417.072 157.87 416.904 157.264 416.904C156.9 416.904 156.559 416.969 156.242 417.1C155.934 417.221 155.649 417.394 155.388 417.618H153.988L154.338 412.102H160.47V413.46H155.696L155.472 416.204C155.733 415.999 156.046 415.84 156.41 415.728C156.783 415.616 157.208 415.565 157.684 415.574C158.318 415.574 158.869 415.705 159.336 415.966C159.812 416.227 160.176 416.596 160.428 417.072C160.689 417.539 160.82 418.089 160.82 418.724C160.82 419.443 160.656 420.054 160.33 420.558C160.012 421.062 159.578 421.449 159.028 421.72C158.486 421.991 157.875 422.126 157.194 422.126Z" fill="white"/>
<rect x="172" y="401" width="32" height="32" rx="8" fill="#15CB52"/>
<path d="M180.76 422V414.286H178.772V413.236C179.145 413.208 179.481 413.166 179.78 413.11C180.078 413.045 180.344 412.937 180.578 412.788C180.811 412.629 181.016 412.401 181.194 412.102H182.244V422H180.76ZM185.969 422V414.286H183.981V413.236C184.354 413.208 184.69 413.166 184.989 413.11C185.287 413.045 185.553 412.937 185.787 412.788C186.02 412.629 186.225 412.401 186.403 412.102H187.453V422H185.969ZM193.194 422.126C192.764 422.126 192.358 422.075 191.976 421.972C191.593 421.869 191.243 421.715 190.926 421.51C190.618 421.295 190.356 421.029 190.142 420.712C189.936 420.385 189.792 419.998 189.708 419.55H191.192C191.276 419.793 191.416 420.003 191.612 420.18C191.817 420.357 192.05 420.497 192.312 420.6C192.582 420.703 192.858 420.754 193.138 420.754C193.558 420.754 193.926 420.684 194.244 420.544C194.57 420.395 194.827 420.18 195.014 419.9C195.2 419.62 195.294 419.261 195.294 418.822C195.294 418.215 195.107 417.744 194.734 417.408C194.36 417.072 193.87 416.904 193.264 416.904C192.9 416.904 192.559 416.969 192.242 417.1C191.934 417.221 191.649 417.394 191.388 417.618H189.988L190.338 412.102H196.47V413.46H191.696L191.472 416.204C191.733 415.999 192.046 415.84 192.41 415.728C192.783 415.616 193.208 415.565 193.684 415.574C194.318 415.574 194.869 415.705 195.336 415.966C195.812 416.227 196.176 416.596 196.428 417.072C196.689 417.539 196.82 418.089 196.82 418.724C196.82 419.443 196.656 420.054 196.33 420.558C196.012 421.062 195.578 421.449 195.028 421.72C194.486 421.991 193.875 422.126 193.194 422.126Z" fill="white"/>
<rect x="208" y="401" width="32" height="32" rx="8" fill="#15CB52"/>
<path d="M216.76 422V414.286H214.772V413.236C215.145 413.208 215.481 413.166 215.78 413.11C216.078 413.045 216.344 412.937 216.578 412.788C216.811 412.629 217.016 412.401 217.194 412.102H218.244V422H216.76ZM221.969 422V414.286H219.981V413.236C220.354 413.208 220.69 413.166 220.989 413.11C221.287 413.045 221.553 412.937 221.787 412.788C222.02 412.629 222.225 412.401 222.403 412.102H223.453V422H221.969ZM229.194 422.126C228.764 422.126 228.358 422.075 227.976 421.972C227.593 421.869 227.243 421.715 226.926 421.51C226.618 421.295 226.356 421.029 226.142 420.712C225.936 420.385 225.792 419.998 225.708 419.55H227.192C227.276 419.793 227.416 420.003 227.612 420.18C227.817 420.357 228.05 420.497 228.312 420.6C228.582 420.703 228.858 420.754 229.138 420.754C229.558 420.754 229.926 420.684 230.244 420.544C230.57 420.395 230.827 420.18 231.014 419.9C231.2 419.62 231.294 419.261 231.294 418.822C231.294 418.215 231.107 417.744 230.734 417.408C230.36 417.072 229.87 416.904 229.264 416.904C228.9 416.904 228.559 416.969 228.242 417.1C227.934 417.221 227.649 417.394 227.388 417.618H225.988L226.338 412.102H232.47V413.46H227.696L227.472 416.204C227.733 415.999 228.046 415.84 228.41 415.728C228.783 415.616 229.208 415.565 229.684 415.574C230.318 415.574 230.869 415.705 231.336 415.966C231.812 416.227 232.176 416.596 232.428 417.072C232.689 417.539 232.82 418.089 232.82 418.724C232.82 419.443 232.656 420.054 232.33 420.558C232.012 421.062 231.578 421.449 231.028 421.72C230.486 421.991 229.875 422.126 229.194 422.126Z" fill="white"/>
<rect x="244" y="401" width="32" height="32" rx="8" fill="#15CB52"/>
<path d="M252.76 422V414.286H250.772V413.236C251.145 413.208 251.481 413.166 251.78 413.11C252.078 413.045 252.344 412.937 252.578 412.788C252.811 412.629 253.016 412.401 253.194 412.102H254.244V422H252.76ZM257.969 422V414.286H255.981V413.236C256.354 413.208 256.69 413.166 256.989 413.11C257.287 413.045 257.553 412.937 257.787 412.788C258.02 412.629 258.225 412.401 258.403 412.102H259.453V422H257.969ZM265.194 422.126C264.764 422.126 264.358 422.075 263.976 421.972C263.593 421.869 263.243 421.715 262.926 421.51C262.618 421.295 262.356 421.029 262.142 420.712C261.936 420.385 261.792 419.998 261.708 419.55H263.192C263.276 419.793 263.416 420.003 263.612 420.18C263.817 420.357 264.05 420.497 264.312 420.6C264.582 420.703 264.858 420.754 265.138 420.754C265.558 420.754 265.926 420.684 266.244 420.544C266.57 420.395 266.827 420.18 267.014 419.9C267.2 419.62 267.294 419.261 267.294 418.822C267.294 418.215 267.107 417.744 266.734 417.408C266.36 417.072 265.87 416.904 265.264 416.904C264.9 416.904 264.559 416.969 264.242 417.1C263.934 417.221 263.649 417.394 263.388 417.618H261.988L262.338 412.102H268.47V413.46H263.696L263.472 416.204C263.733 415.999 264.046 415.84 264.41 415.728C264.783 415.616 265.208 415.565 265.684 415.574C266.318 415.574 266.869 415.705 267.336 415.966C267.812 416.227 268.176 416.596 268.428 417.072C268.689 417.539 268.82 418.089 268.82 418.724C268.82 419.443 268.656 420.054 268.33 420.558C268.012 421.062 267.578 421.449 267.028 421.72C266.486 421.991 265.875 422.126 265.194 422.126Z" fill="white"/>
<rect x="280" y="401" width="32" height="32" rx="8" fill="#15CB52"/>
<path d="M288.76 422V414.286H286.772V413.236C287.145 413.208 287.481 413.166 287.78 413.11C288.078 413.045 288.344 412.937 288.578 412.788C288.811 412.629 289.016 412.401 289.194 412.102H290.244V422H288.76ZM293.969 422V414.286H291.981V413.236C292.354 413.208 292.69 413.166 292.989 413.11C293.287 413.045 293.553 412.937 293.787 412.788C294.02 412.629 294.225 412.401 294.403 412.102H295.453V422H293.969ZM301.194 422.126C300.764 422.126 300.358 422.075 299.976 421.972C299.593 421.869 299.243 421.715 298.926 421.51C298.618 421.295 298.356 421.029 298.142 420.712C297.936 420.385 297.792 419.998 297.708 419.55H299.192C299.276 419.793 299.416 420.003 299.612 420.18C299.817 420.357 300.05 420.497 300.312 420.6C300.582 420.703 300.858 420.754 301.138 420.754C301.558 420.754 301.926 420.684 302.244 420.544C302.57 420.395 302.827 420.18 303.014 419.9C303.2 419.62 303.294 419.261 303.294 418.822C303.294 418.215 303.107 417.744 302.734 417.408C302.36 417.072 301.87 416.904 301.264 416.904C300.9 416.904 300.559 416.969 300.242 417.1C299.934 417.221 299.649 417.394 299.388 417.618H297.988L298.338 412.102H304.47V413.46H299.696L299.472 416.204C299.733 415.999 300.046 415.84 300.41 415.728C300.783 415.616 301.208 415.565 301.684 415.574C302.318 415.574 302.869 415.705 303.336 415.966C303.812 416.227 304.176 416.596 304.428 417.072C304.689 417.539 304.82 418.089 304.82 418.724C304.82 419.443 304.656 420.054 304.33 420.558C304.012 421.062 303.578 421.449 303.028 421.72C302.486 421.991 301.875 422.126 301.194 422.126Z" fill="white"/>
<rect x="316" y="401" width="32" height="32" rx="8" fill="#15CB52"/>
<path d="M324.76 422V414.286H322.772V413.236C323.145 413.208 323.481 413.166 323.78 413.11C324.078 413.045 324.344 412.937 324.578 412.788C324.811 412.629 325.016 412.401 325.194 412.102H326.244V422H324.76ZM329.969 422V414.286H327.981V413.236C328.354 413.208 328.69 413.166 328.989 413.11C329.287 413.045 329.553 412.937 329.787 412.788C330.02 412.629 330.225 412.401 330.403 412.102H331.453V422H329.969ZM337.194 422.126C336.764 422.126 336.358 422.075 335.976 421.972C335.593 421.869 335.243 421.715 334.926 421.51C334.618 421.295 334.356 421.029 334.142 420.712C333.936 420.385 333.792 419.998 333.708 419.55H335.192C335.276 419.793 335.416 420.003 335.612 420.18C335.817 420.357 336.05 420.497 336.312 420.6C336.582 420.703 336.858 420.754 337.138 420.754C337.558 420.754 337.926 420.684 338.244 420.544C338.57 420.395 338.827 420.18 339.014 419.9C339.2 419.62 339.294 419.261 339.294 418.822C339.294 418.215 339.107 417.744 338.734 417.408C338.36 417.072 337.87 416.904 337.264 416.904C336.9 416.904 336.559 416.969 336.242 417.1C335.934 417.221 335.649 417.394 335.388 417.618H333.988L334.338 412.102H340.47V413.46H335.696L335.472 416.204C335.733 415.999 336.046 415.84 336.41 415.728C336.783 415.616 337.208 415.565 337.684 415.574C338.318 415.574 338.869 415.705 339.336 415.966C339.812 416.227 340.176 416.596 340.428 417.072C340.689 417.539 340.82 418.089 340.82 418.724C340.82 419.443 340.656 420.054 340.33 420.558C340.012 421.062 339.578 421.449 339.028 421.72C338.486 421.991 337.875 422.126 337.194 422.126Z" fill="white"/>
<rect x="352" y="401" width="32" height="32" rx="8" fill="#15CB52"/>
<path d="M360.76 422V414.286H358.772V413.236C359.145 413.208 359.481 413.166 359.78 413.11C360.078 413.045 360.344 412.937 360.578 412.788C360.811 412.629 361.016 412.401 361.194 412.102H362.244V422H360.76ZM365.969 422V414.286H363.981V413.236C364.354 413.208 364.69 413.166 364.989 413.11C365.287 413.045 365.553 412.937 365.787 412.788C366.02 412.629 366.225 412.401 366.403 412.102H367.453V422H365.969ZM373.194 422.126C372.764 422.126 372.358 422.075 371.976 421.972C371.593 421.869 371.243 421.715 370.926 421.51C370.618 421.295 370.356 421.029 370.142 420.712C369.936 420.385 369.792 419.998 369.708 419.55H371.192C371.276 419.793 371.416 420.003 371.612 420.18C371.817 420.357 372.05 420.497 372.312 420.6C372.582 420.703 372.858 420.754 373.138 420.754C373.558 420.754 373.926 420.684 374.244 420.544C374.57 420.395 374.827 420.18 375.014 419.9C375.2 419.62 375.294 419.261 375.294 418.822C375.294 418.215 375.107 417.744 374.734 417.408C374.36 417.072 373.87 416.904 373.264 416.904C372.9 416.904 372.559 416.969 372.242 417.1C371.934 417.221 371.649 417.394 371.388 417.618H369.988L370.338 412.102H376.47V413.46H371.696L371.472 416.204C371.733 415.999 372.046 415.84 372.41 415.728C372.783 415.616 373.208 415.565 373.684 415.574C374.318 415.574 374.869 415.705 375.336 415.966C375.812 416.227 376.176 416.596 376.428 417.072C376.689 417.539 376.82 418.089 376.82 418.724C376.82 419.443 376.656 420.054 376.33 420.558C376.012 421.062 375.578 421.449 375.028 421.72C374.486 421.991 373.875 422.126 373.194 422.126Z" fill="white"/>
<rect x="388" y="401" width="32" height="32" rx="8" fill="#15CB52"/>
<path d="M396.76 422V414.286H394.772V413.236C395.145 413.208 395.481 413.166 395.78 413.11C396.078 413.045 396.344 412.937 396.578 412.788C396.811 412.629 397.016 412.401 397.194 412.102H398.244V422H396.76ZM401.969 422V414.286H399.981V413.236C400.354 413.208 400.69 413.166 400.989 413.11C401.287 413.045 401.553 412.937 401.787 412.788C402.02 412.629 402.225 412.401 402.403 412.102H403.453V422H401.969ZM409.194 422.126C408.764 422.126 408.358 422.075 407.976 421.972C407.593 421.869 407.243 421.715 406.926 421.51C406.618 421.295 406.356 421.029 406.142 420.712C405.936 420.385 405.792 419.998 405.708 419.55H407.192C407.276 419.793 407.416 420.003 407.612 420.18C407.817 420.357 408.05 420.497 408.312 420.6C408.582 420.703 408.858 420.754 409.138 420.754C409.558 420.754 409.926 420.684 410.244 420.544C410.57 420.395 410.827 420.18 411.014 419.9C411.2 419.62 411.294 419.261 411.294 418.822C411.294 418.215 411.107 417.744 410.734 417.408C410.36 417.072 409.87 416.904 409.264 416.904C408.9 416.904 408.559 416.969 408.242 417.1C407.934 417.221 407.649 417.394 407.388 417.618H405.988L406.338 412.102H412.47V413.46H407.696L407.472 416.204C407.733 415.999 408.046 415.84 408.41 415.728C408.783 415.616 409.208 415.565 409.684 415.574C410.318 415.574 410.869 415.705 411.336 415.966C411.812 416.227 412.176 416.596 412.428 417.072C412.689 417.539 412.82 418.089 412.82 418.724C412.82 419.443 412.656 420.054 412.33 420.558C412.012 421.062 411.578 421.449 411.028 421.72C410.486 421.991 409.875 422.126 409.194 422.126Z" fill="white"/>
<rect x="64" y="437" width="32" height="32" rx="8" fill="#FD4245"/>
<path d="M72.7595 458V450.286H70.7715V449.236C71.1449 449.208 71.4809 449.166 71.7795 449.11C72.0782 449.045 72.3442 448.937 72.5775 448.788C72.8109 448.629 73.0162 448.401 73.1935 448.102H74.2435V458H72.7595ZM77.9685 458V450.286H75.9805V449.236C76.3539 449.208 76.6899 449.166 76.9885 449.11C77.2872 449.045 77.5532 448.937 77.7865 448.788C78.0199 448.629 78.2252 448.401 78.4025 448.102H79.4525V458H77.9685ZM85.1935 458.126C84.7642 458.126 84.3582 458.075 83.9755 457.972C83.5928 457.869 83.2428 457.715 82.9255 457.51C82.6175 457.295 82.3562 457.029 82.1415 456.712C81.9362 456.385 81.7915 455.998 81.7075 455.55H83.1915C83.2755 455.793 83.4155 456.003 83.6115 456.18C83.8168 456.357 84.0502 456.497 84.3115 456.6C84.5822 456.703 84.8575 456.754 85.1375 456.754C85.5575 456.754 85.9262 456.684 86.2435 456.544C86.5702 456.395 86.8268 456.18 87.0135 455.9C87.2002 455.62 87.2935 455.261 87.2935 454.822C87.2935 454.215 87.1068 453.744 86.7335 453.408C86.3602 453.072 85.8702 452.904 85.2635 452.904C84.8995 452.904 84.5588 452.969 84.2415 453.1C83.9335 453.221 83.6488 453.394 83.3875 453.618H81.9875L82.3375 448.102H88.4695V449.46H83.6955L83.4715 452.204C83.7328 451.999 84.0455 451.84 84.4095 451.728C84.7828 451.616 85.2075 451.565 85.6835 451.574C86.3182 451.574 86.8688 451.705 87.3355 451.966C87.8115 452.227 88.1755 452.596 88.4275 453.072C88.6888 453.539 88.8195 454.089 88.8195 454.724C88.8195 455.443 88.6562 456.054 88.3295 456.558C88.0122 457.062 87.5782 457.449 87.0275 457.72C86.4862 457.991 85.8748 458.126 85.1935 458.126Z" fill="white"/>
<rect x="100" y="437" width="32" height="32" rx="8" fill="#FD4245"/>
<path d="M108.76 458V450.286H106.772V449.236C107.145 449.208 107.481 449.166 107.78 449.11C108.078 449.045 108.344 448.937 108.578 448.788C108.811 448.629 109.016 448.401 109.194 448.102H110.244V458H108.76ZM113.969 458V450.286H111.981V449.236C112.354 449.208 112.69 449.166 112.989 449.11C113.287 449.045 113.553 448.937 113.787 448.788C114.02 448.629 114.225 448.401 114.403 448.102H115.453V458H113.969ZM121.194 458.126C120.764 458.126 120.358 458.075 119.976 457.972C119.593 457.869 119.243 457.715 118.926 457.51C118.618 457.295 118.356 457.029 118.142 456.712C117.936 456.385 117.792 455.998 117.708 455.55H119.192C119.276 455.793 119.416 456.003 119.612 456.18C119.817 456.357 120.05 456.497 120.312 456.6C120.582 456.703 120.858 456.754 121.138 456.754C121.558 456.754 121.926 456.684 122.244 456.544C122.57 456.395 122.827 456.18 123.014 455.9C123.2 455.62 123.294 455.261 123.294 454.822C123.294 454.215 123.107 453.744 122.734 453.408C122.36 453.072 121.87 452.904 121.264 452.904C120.9 452.904 120.559 452.969 120.242 453.1C119.934 453.221 119.649 453.394 119.388 453.618H117.988L118.338 448.102H124.47V449.46H119.696L119.472 452.204C119.733 451.999 120.046 451.84 120.41 451.728C120.783 451.616 121.208 451.565 121.684 451.574C122.318 451.574 122.869 451.705 123.336 451.966C123.812 452.227 124.176 452.596 124.428 453.072C124.689 453.539 124.82 454.089 124.82 454.724C124.82 455.443 124.656 456.054 124.33 456.558C124.012 457.062 123.578 457.449 123.028 457.72C122.486 457.991 121.875 458.126 121.194 458.126Z" fill="white"/>
<rect x="136" y="437" width="32" height="32" rx="8" fill="#FD4245"/>
<path d="M144.76 458V450.286H142.772V449.236C143.145 449.208 143.481 449.166 143.78 449.11C144.078 449.045 144.344 448.937 144.578 448.788C144.811 448.629 145.016 448.401 145.194 448.102H146.244V458H144.76ZM149.969 458V450.286H147.981V449.236C148.354 449.208 148.69 449.166 148.989 449.11C149.287 449.045 149.553 448.937 149.787 448.788C150.02 448.629 150.225 448.401 150.403 448.102H151.453V458H149.969ZM157.194 458.126C156.764 458.126 156.358 458.075 155.976 457.972C155.593 457.869 155.243 457.715 154.926 457.51C154.618 457.295 154.356 457.029 154.142 456.712C153.936 456.385 153.792 455.998 153.708 455.55H155.192C155.276 455.793 155.416 456.003 155.612 456.18C155.817 456.357 156.05 456.497 156.312 456.6C156.582 456.703 156.858 456.754 157.138 456.754C157.558 456.754 157.926 456.684 158.244 456.544C158.57 456.395 158.827 456.18 159.014 455.9C159.2 455.62 159.294 455.261 159.294 454.822C159.294 454.215 159.107 453.744 158.734 453.408C158.36 453.072 157.87 452.904 157.264 452.904C156.9 452.904 156.559 452.969 156.242 453.1C155.934 453.221 155.649 453.394 155.388 453.618H153.988L154.338 448.102H160.47V449.46H155.696L155.472 452.204C155.733 451.999 156.046 451.84 156.41 451.728C156.783 451.616 157.208 451.565 157.684 451.574C158.318 451.574 158.869 451.705 159.336 451.966C159.812 452.227 160.176 452.596 160.428 453.072C160.689 453.539 160.82 454.089 160.82 454.724C160.82 455.443 160.656 456.054 160.33 456.558C160.012 457.062 159.578 457.449 159.028 457.72C158.486 457.991 157.875 458.126 157.194 458.126Z" fill="white"/>
<rect x="172" y="437" width="32" height="32" rx="8" fill="#FD4245"/>
<path d="M180.76 458V450.286H178.772V449.236C179.145 449.208 179.481 449.166 179.78 449.11C180.078 449.045 180.344 448.937 180.578 448.788C180.811 448.629 181.016 448.401 181.194 448.102H182.244V458H180.76ZM185.969 458V450.286H183.981V449.236C184.354 449.208 184.69 449.166 184.989 449.11C185.287 449.045 185.553 448.937 185.787 448.788C186.02 448.629 186.225 448.401 186.403 448.102H187.453V458H185.969ZM193.194 458.126C192.764 458.126 192.358 458.075 191.976 457.972C191.593 457.869 191.243 457.715 190.926 457.51C190.618 457.295 190.356 457.029 190.142 456.712C189.936 456.385 189.792 455.998 189.708 455.55H191.192C191.276 455.793 191.416 456.003 191.612 456.18C191.817 456.357 192.05 456.497 192.312 456.6C192.582 456.703 192.858 456.754 193.138 456.754C193.558 456.754 193.926 456.684 194.244 456.544C194.57 456.395 194.827 456.18 195.014 455.9C195.2 455.62 195.294 455.261 195.294 454.822C195.294 454.215 195.107 453.744 194.734 453.408C194.36 453.072 193.87 452.904 193.264 452.904C192.9 452.904 192.559 452.969 192.242 453.1C191.934 453.221 191.649 453.394 191.388 453.618H189.988L190.338 448.102H196.47V449.46H191.696L191.472 452.204C191.733 451.999 192.046 451.84 192.41 451.728C192.783 451.616 193.208 451.565 193.684 451.574C194.318 451.574 194.869 451.705 195.336 451.966C195.812 452.227 196.176 452.596 196.428 453.072C196.689 453.539 196.82 454.089 196.82 454.724C196.82 455.443 196.656 456.054 196.33 456.558C196.012 457.062 195.578 457.449 195.028 457.72C194.486 457.991 193.875 458.126 193.194 458.126Z" fill="white"/>
<rect x="208" y="437" width="32" height="32" rx="8" fill="#FD4245"/>
<path d="M216.76 458V450.286H214.772V449.236C215.145 449.208 215.481 449.166 215.78 449.11C216.078 449.045 216.344 448.937 216.578 448.788C216.811 448.629 217.016 448.401 217.194 448.102H218.244V458H216.76ZM221.969 458V450.286H219.981V449.236C220.354 449.208 220.69 449.166 220.989 449.11C221.287 449.045 221.553 448.937 221.787 448.788C222.02 448.629 222.225 448.401 222.403 448.102H223.453V458H221.969ZM229.194 458.126C228.764 458.126 228.358 458.075 227.976 457.972C227.593 457.869 227.243 457.715 226.926 457.51C226.618 457.295 226.356 457.029 226.142 456.712C225.936 456.385 225.792 455.998 225.708 455.55H227.192C227.276 455.793 227.416 456.003 227.612 456.18C227.817 456.357 228.05 456.497 228.312 456.6C228.582 456.703 228.858 456.754 229.138 456.754C229.558 456.754 229.926 456.684 230.244 456.544C230.57 456.395 230.827 456.18 231.014 455.9C231.2 455.62 231.294 455.261 231.294 454.822C231.294 454.215 231.107 453.744 230.734 453.408C230.36 453.072 229.87 452.904 229.264 452.904C228.9 452.904 228.559 452.969 228.242 453.1C227.934 453.221 227.649 453.394 227.388 453.618H225.988L226.338 448.102H232.47V449.46H227.696L227.472 452.204C227.733 451.999 228.046 451.84 228.41 451.728C228.783 451.616 229.208 451.565 229.684 451.574C230.318 451.574 230.869 451.705 231.336 451.966C231.812 452.227 232.176 452.596 232.428 453.072C232.689 453.539 232.82 454.089 232.82 454.724C232.82 455.443 232.656 456.054 232.33 456.558C232.012 457.062 231.578 457.449 231.028 457.72C230.486 457.991 229.875 458.126 229.194 458.126Z" fill="white"/>
<rect x="244" y="437" width="32" height="32" rx="8" fill="#FD4245"/>
<path d="M252.76 458V450.286H250.772V449.236C251.145 449.208 251.481 449.166 251.78 449.11C252.078 449.045 252.344 448.937 252.578 448.788C252.811 448.629 253.016 448.401 253.194 448.102H254.244V458H252.76ZM257.969 458V450.286H255.981V449.236C256.354 449.208 256.69 449.166 256.989 449.11C257.287 449.045 257.553 448.937 257.787 448.788C258.02 448.629 258.225 448.401 258.403 448.102H259.453V458H257.969ZM265.194 458.126C264.764 458.126 264.358 458.075 263.976 457.972C263.593 457.869 263.243 457.715 262.926 457.51C262.618 457.295 262.356 457.029 262.142 456.712C261.936 456.385 261.792 455.998 261.708 455.55H263.192C263.276 455.793 263.416 456.003 263.612 456.18C263.817 456.357 264.05 456.497 264.312 456.6C264.582 456.703 264.858 456.754 265.138 456.754C265.558 456.754 265.926 456.684 266.244 456.544C266.57 456.395 266.827 456.18 267.014 455.9C267.2 455.62 267.294 455.261 267.294 454.822C267.294 454.215 267.107 453.744 266.734 453.408C266.36 453.072 265.87 452.904 265.264 452.904C264.9 452.904 264.559 452.969 264.242 453.1C263.934 453.221 263.649 453.394 263.388 453.618H261.988L262.338 448.102H268.47V449.46H263.696L263.472 452.204C263.733 451.999 264.046 451.84 264.41 451.728C264.783 451.616 265.208 451.565 265.684 451.574C266.318 451.574 266.869 451.705 267.336 451.966C267.812 452.227 268.176 452.596 268.428 453.072C268.689 453.539 268.82 454.089 268.82 454.724C268.82 455.443 268.656 456.054 268.33 456.558C268.012 457.062 267.578 457.449 267.028 457.72C266.486 457.991 265.875 458.126 265.194 458.126Z" fill="white"/>
<rect x="280" y="437" width="32" height="32" rx="8" fill="#FD4245"/>
<path d="M288.76 458V450.286H286.772V449.236C287.145 449.208 287.481 449.166 287.78 449.11C288.078 449.045 288.344 448.937 288.578 448.788C288.811 448.629 289.016 448.401 289.194 448.102H290.244V458H288.76ZM293.969 458V450.286H291.981V449.236C292.354 449.208 292.69 449.166 292.989 449.11C293.287 449.045 293.553 448.937 293.787 448.788C294.02 448.629 294.225 448.401 294.403 448.102H295.453V458H293.969ZM301.194 458.126C300.764 458.126 300.358 458.075 299.976 457.972C299.593 457.869 299.243 457.715 298.926 457.51C298.618 457.295 298.356 457.029 298.142 456.712C297.936 456.385 297.792 455.998 297.708 455.55H299.192C299.276 455.793 299.416 456.003 299.612 456.18C299.817 456.357 300.05 456.497 300.312 456.6C300.582 456.703 300.858 456.754 301.138 456.754C301.558 456.754 301.926 456.684 302.244 456.544C302.57 456.395 302.827 456.18 303.014 455.9C303.2 455.62 303.294 455.261 303.294 454.822C303.294 454.215 303.107 453.744 302.734 453.408C302.36 453.072 301.87 452.904 301.264 452.904C300.9 452.904 300.559 452.969 300.242 453.1C299.934 453.221 299.649 453.394 299.388 453.618H297.988L298.338 448.102H304.47V449.46H299.696L299.472 452.204C299.733 451.999 300.046 451.84 300.41 451.728C300.783 451.616 301.208 451.565 301.684 451.574C302.318 451.574 302.869 451.705 303.336 451.966C303.812 452.227 304.176 452.596 304.428 453.072C304.689 453.539 304.82 454.089 304.82 454.724C304.82 455.443 304.656 456.054 304.33 456.558C304.012 457.062 303.578 457.449 303.028 457.72C302.486 457.991 301.875 458.126 301.194 458.126Z" fill="white"/>
<rect x="316" y="437" width="32" height="32" rx="8" fill="#FD4245"/>
<path d="M324.76 458V450.286H322.772V449.236C323.145 449.208 323.481 449.166 323.78 449.11C324.078 449.045 324.344 448.937 324.578 448.788C324.811 448.629 325.016 448.401 325.194 448.102H326.244V458H324.76ZM329.969 458V450.286H327.981V449.236C328.354 449.208 328.69 449.166 328.989 449.11C329.287 449.045 329.553 448.937 329.787 448.788C330.02 448.629 330.225 448.401 330.403 448.102H331.453V458H329.969ZM337.194 458.126C336.764 458.126 336.358 458.075 335.976 457.972C335.593 457.869 335.243 457.715 334.926 457.51C334.618 457.295 334.356 457.029 334.142 456.712C333.936 456.385 333.792 455.998 333.708 455.55H335.192C335.276 455.793 335.416 456.003 335.612 456.18C335.817 456.357 336.05 456.497 336.312 456.6C336.582 456.703 336.858 456.754 337.138 456.754C337.558 456.754 337.926 456.684 338.244 456.544C338.57 456.395 338.827 456.18 339.014 455.9C339.2 455.62 339.294 455.261 339.294 454.822C339.294 454.215 339.107 453.744 338.734 453.408C338.36 453.072 337.87 452.904 337.264 452.904C336.9 452.904 336.559 452.969 336.242 453.1C335.934 453.221 335.649 453.394 335.388 453.618H333.988L334.338 448.102H340.47V449.46H335.696L335.472 452.204C335.733 451.999 336.046 451.84 336.41 451.728C336.783 451.616 337.208 451.565 337.684 451.574C338.318 451.574 338.869 451.705 339.336 451.966C339.812 452.227 340.176 452.596 340.428 453.072C340.689 453.539 340.82 454.089 340.82 454.724C340.82 455.443 340.656 456.054 340.33 456.558C340.012 457.062 339.578 457.449 339.028 457.72C338.486 457.991 337.875 458.126 337.194 458.126Z" fill="white"/>
<rect x="352" y="437" width="32" height="32" rx="8" fill="#FD4245"/>
<path d="M360.76 458V450.286H358.772V449.236C359.145 449.208 359.481 449.166 359.78 449.11C360.078 449.045 360.344 448.937 360.578 448.788C360.811 448.629 361.016 448.401 361.194 448.102H362.244V458H360.76ZM365.969 458V450.286H363.981V449.236C364.354 449.208 364.69 449.166 364.989 449.11C365.287 449.045 365.553 448.937 365.787 448.788C366.02 448.629 366.225 448.401 366.403 448.102H367.453V458H365.969ZM373.194 458.126C372.764 458.126 372.358 458.075 371.976 457.972C371.593 457.869 371.243 457.715 370.926 457.51C370.618 457.295 370.356 457.029 370.142 456.712C369.936 456.385 369.792 455.998 369.708 455.55H371.192C371.276 455.793 371.416 456.003 371.612 456.18C371.817 456.357 372.05 456.497 372.312 456.6C372.582 456.703 372.858 456.754 373.138 456.754C373.558 456.754 373.926 456.684 374.244 456.544C374.57 456.395 374.827 456.18 375.014 455.9C375.2 455.62 375.294 455.261 375.294 454.822C375.294 454.215 375.107 453.744 374.734 453.408C374.36 453.072 373.87 452.904 373.264 452.904C372.9 452.904 372.559 452.969 372.242 453.1C371.934 453.221 371.649 453.394 371.388 453.618H369.988L370.338 448.102H376.47V449.46H371.696L371.472 452.204C371.733 451.999 372.046 451.84 372.41 451.728C372.783 451.616 373.208 451.565 373.684 451.574C374.318 451.574 374.869 451.705 375.336 451.966C375.812 452.227 376.176 452.596 376.428 453.072C376.689 453.539 376.82 454.089 376.82 454.724C376.82 455.443 376.656 456.054 376.33 456.558C376.012 457.062 375.578 457.449 375.028 457.72C374.486 457.991 373.875 458.126 373.194 458.126Z" fill="white"/>
<rect x="388" y="437" width="32" height="32" rx="8" fill="#FD4245"/>
<path d="M396.76 458V450.286H394.772V449.236C395.145 449.208 395.481 449.166 395.78 449.11C396.078 449.045 396.344 448.937 396.578 448.788C396.811 448.629 397.016 448.401 397.194 448.102H398.244V458H396.76ZM401.969 458V450.286H399.981V449.236C400.354 449.208 400.69 449.166 400.989 449.11C401.287 449.045 401.553 448.937 401.787 448.788C402.02 448.629 402.225 448.401 402.403 448.102H403.453V458H401.969ZM409.194 458.126C408.764 458.126 408.358 458.075 407.976 457.972C407.593 457.869 407.243 457.715 406.926 457.51C406.618 457.295 406.356 457.029 406.142 456.712C405.936 456.385 405.792 455.998 405.708 455.55H407.192C407.276 455.793 407.416 456.003 407.612 456.18C407.817 456.357 408.05 456.497 408.312 456.6C408.582 456.703 408.858 456.754 409.138 456.754C409.558 456.754 409.926 456.684 410.244 456.544C410.57 456.395 410.827 456.18 411.014 455.9C411.2 455.62 411.294 455.261 411.294 454.822C411.294 454.215 411.107 453.744 410.734 453.408C410.36 453.072 409.87 452.904 409.264 452.904C408.9 452.904 408.559 452.969 408.242 453.1C407.934 453.221 407.649 453.394 407.388 453.618H405.988L406.338 448.102H412.47V449.46H407.696L407.472 452.204C407.733 451.999 408.046 451.84 408.41 451.728C408.783 451.616 409.208 451.565 409.684 451.574C410.318 451.574 410.869 451.705 411.336 451.966C411.812 452.227 412.176 452.596 412.428 453.072C412.689 453.539 412.82 454.089 412.82 454.724C412.82 455.443 412.656 456.054 412.33 456.558C412.012 457.062 411.578 457.449 411.028 457.72C410.486 457.991 409.875 458.126 409.194 458.126Z" fill="white"/>
<rect x="64" y="473" width="32" height="32" rx="8" fill="#363636"/>
<rect x="100" y="473" width="32" height="32" rx="8" fill="#363636"/>
<rect x="136" y="473" width="32" height="32" rx="8" fill="#363636"/>
<rect x="172" y="473" width="32" height="32" rx="8" fill="#363636"/>
<rect x="208" y="473" width="32" height="32" rx="8" fill="#363636"/>
<rect x="244" y="473" width="32" height="32" rx="8" fill="#363636"/>
<rect x="280" y="473" width="32" height="32" rx="8" fill="#363636"/>
<rect x="316" y="473" width="32" height="32" rx="8" fill="#363636"/>
<rect x="352" y="473" width="32" height="32" rx="8" fill="#363636"/>
<rect x="388" y="473" width="32" height="32" rx="8" fill="#363636"/>
<rect x="452.5" y="249.5" width="387" height="415" rx="11.5" stroke="#363636"/>
<path d="M470.084 275C470.084 271.268 470.084 269.402 471.243 268.242C472.403 267.083 474.269 267.083 478.001 267.083C481.733 267.083 483.599 267.083 484.758 268.242C485.917 269.402 485.917 271.268 485.917 275C485.917 278.732 485.917 280.598 484.758 281.757C483.599 282.916 481.733 282.916 478.001 282.916C474.269 282.916 472.403 282.916 471.243 281.757C470.084 280.598 470.084 278.732 470.084 275Z" stroke="#00A47E"/>
<path d="M478.202 279.166V274.999C478.202 274.607 478.202 274.41 478.08 274.288C477.958 274.166 477.762 274.166 477.369 274.166" stroke="#00A47E" stroke-linecap="round" stroke-linejoin="round"/>
<path d="M477.994 271.666H478.001" stroke="#00A47E" stroke-linecap="round" stroke-linejoin="round"/>
<path d="M495.168 280V270.102H498.976C499.508 270.102 499.993 270.158 500.432 270.27C500.871 270.373 501.253 270.545 501.58 270.788C501.907 271.021 502.159 271.339 502.336 271.74C502.513 272.141 502.602 272.636 502.602 273.224C502.602 273.756 502.509 274.213 502.322 274.596C502.135 274.979 501.879 275.296 501.552 275.548C501.225 275.8 500.857 275.991 500.446 276.122L502.56 280H500.922L498.962 276.36H496.652V280H495.168ZM496.652 275.03H498.668C499.004 275.03 499.317 275.007 499.606 274.96C499.905 274.904 500.166 274.811 500.39 274.68C500.614 274.54 500.787 274.353 500.908 274.12C501.039 273.877 501.104 273.569 501.104 273.196C501.113 272.767 501.029 272.426 500.852 272.174C500.684 271.913 500.432 271.731 500.096 271.628C499.76 271.516 499.354 271.46 498.878 271.46H496.652V275.03ZM506.455 280.084C506.119 280.084 505.792 280.042 505.475 279.958C505.167 279.865 504.891 279.729 504.649 279.552C504.406 279.365 504.21 279.137 504.061 278.866C503.921 278.586 503.851 278.259 503.851 277.886C503.851 277.438 503.935 277.069 504.103 276.78C504.28 276.481 504.513 276.253 504.803 276.094C505.092 275.926 505.423 275.809 505.797 275.744C506.179 275.669 506.576 275.632 506.987 275.632H508.793C508.793 275.268 508.737 274.951 508.625 274.68C508.513 274.4 508.335 274.185 508.093 274.036C507.859 273.877 507.547 273.798 507.155 273.798C506.921 273.798 506.697 273.826 506.483 273.882C506.277 273.929 506.1 274.008 505.951 274.12C505.801 274.232 505.699 274.381 505.643 274.568H504.131C504.187 274.213 504.313 273.91 504.509 273.658C504.705 273.397 504.947 273.182 505.237 273.014C505.526 272.846 505.834 272.725 506.161 272.65C506.497 272.566 506.837 272.524 507.183 272.524C508.247 272.524 509.012 272.837 509.479 273.462C509.955 274.078 510.193 274.927 510.193 276.01V280H508.947L508.891 279.062C508.676 279.351 508.419 279.571 508.121 279.72C507.831 279.869 507.542 279.967 507.253 280.014C506.963 280.061 506.697 280.084 506.455 280.084ZM506.679 278.866C507.099 278.866 507.467 278.796 507.785 278.656C508.102 278.507 508.349 278.297 508.527 278.026C508.704 277.746 508.793 277.419 508.793 277.046V276.738H507.477C507.206 276.738 506.94 276.747 506.679 276.766C506.427 276.775 506.193 276.813 505.979 276.878C505.773 276.934 505.605 277.032 505.475 277.172C505.353 277.312 505.293 277.513 505.293 277.774C505.293 278.026 505.358 278.231 505.489 278.39C505.619 278.549 505.792 278.67 506.007 278.754C506.221 278.829 506.445 278.866 506.679 278.866ZM515.129 280.084C514.354 280.084 513.706 279.925 513.183 279.608C512.67 279.291 512.282 278.852 512.021 278.292C511.769 277.723 511.643 277.069 511.643 276.332C511.643 275.604 511.774 274.955 512.035 274.386C512.306 273.807 512.707 273.355 513.239 273.028C513.78 272.692 514.448 272.524 515.241 272.524C515.782 272.524 516.263 272.617 516.683 272.804C517.103 272.981 517.444 273.247 517.705 273.602C517.976 273.947 518.153 274.381 518.237 274.904H516.795C516.674 274.521 516.468 274.246 516.179 274.078C515.899 273.91 515.568 273.826 515.185 273.826C514.672 273.826 514.261 273.947 513.953 274.19C513.654 274.433 513.435 274.745 513.295 275.128C513.155 275.511 513.085 275.912 513.085 276.332C513.085 276.771 513.155 277.177 513.295 277.55C513.444 277.923 513.668 278.227 513.967 278.46C514.275 278.684 514.676 278.796 515.171 278.796C515.544 278.796 515.89 278.717 516.207 278.558C516.524 278.39 516.73 278.11 516.823 277.718H518.307C518.223 278.259 518.027 278.707 517.719 279.062C517.411 279.407 517.028 279.664 516.571 279.832C516.123 280 515.642 280.084 515.129 280.084ZM519.702 280V270.102H521.144V275.688H522.334L524.406 272.622H526.03L523.608 276.136L526.24 280H524.546L522.446 276.962H521.144V280H519.702ZM527.265 276.668V275.352H531.745V276.668H527.265ZM533.873 280V270.102H537.639C538.115 270.102 538.549 270.144 538.941 270.228C539.342 270.303 539.687 270.438 539.977 270.634C540.266 270.821 540.485 271.077 540.635 271.404C540.793 271.721 540.873 272.123 540.873 272.608C540.873 273.084 540.765 273.513 540.551 273.896C540.336 274.269 540.009 274.549 539.571 274.736C540.159 274.867 540.602 275.133 540.901 275.534C541.209 275.935 541.363 276.463 541.363 277.116C541.363 277.676 541.26 278.143 541.055 278.516C540.849 278.889 540.565 279.183 540.201 279.398C539.837 279.613 539.417 279.767 538.941 279.86C538.465 279.953 537.956 280 537.415 280H533.873ZM535.357 278.642H537.471C537.751 278.642 538.031 278.628 538.311 278.6C538.591 278.563 538.847 278.493 539.081 278.39C539.323 278.287 539.515 278.133 539.655 277.928C539.804 277.723 539.879 277.447 539.879 277.102C539.879 276.813 539.823 276.575 539.711 276.388C539.599 276.192 539.449 276.038 539.263 275.926C539.076 275.814 538.857 275.735 538.605 275.688C538.362 275.641 538.11 275.618 537.849 275.618H535.357V278.642ZM535.357 274.344H537.233C537.55 274.344 537.839 274.316 538.101 274.26C538.371 274.204 538.605 274.111 538.801 273.98C538.997 273.849 539.146 273.686 539.249 273.49C539.361 273.285 539.417 273.037 539.417 272.748C539.426 272.365 539.342 272.085 539.165 271.908C538.997 271.721 538.768 271.6 538.479 271.544C538.189 271.479 537.872 271.446 537.527 271.446H535.357V274.344Z" fill="white"/>
<rect x="468" y="293" width="32" height="32" rx="8" fill="#15CB52"/>
<path d="M476.76 314V306.286H474.772V305.236C475.145 305.208 475.481 305.166 475.78 305.11C476.078 305.045 476.344 304.937 476.578 304.788C476.811 304.629 477.016 304.401 477.194 304.102H478.244V314H476.76ZM481.969 314V306.286H479.981V305.236C480.354 305.208 480.69 305.166 480.989 305.11C481.287 305.045 481.553 304.937 481.787 304.788C482.02 304.629 482.225 304.401 482.403 304.102H483.453V314H481.969ZM489.194 314.126C488.764 314.126 488.358 314.075 487.976 313.972C487.593 313.869 487.243 313.715 486.926 313.51C486.618 313.295 486.356 313.029 486.142 312.712C485.936 312.385 485.792 311.998 485.708 311.55H487.192C487.276 311.793 487.416 312.003 487.612 312.18C487.817 312.357 488.05 312.497 488.312 312.6C488.582 312.703 488.858 312.754 489.138 312.754C489.558 312.754 489.926 312.684 490.244 312.544C490.57 312.395 490.827 312.18 491.014 311.9C491.2 311.62 491.294 311.261 491.294 310.822C491.294 310.215 491.107 309.744 490.734 309.408C490.36 309.072 489.87 308.904 489.264 308.904C488.9 308.904 488.559 308.969 488.242 309.1C487.934 309.221 487.649 309.394 487.388 309.618H485.988L486.338 304.102H492.47V305.46H487.696L487.472 308.204C487.733 307.999 488.046 307.84 488.41 307.728C488.783 307.616 489.208 307.565 489.684 307.574C490.318 307.574 490.869 307.705 491.336 307.966C491.812 308.227 492.176 308.596 492.428 309.072C492.689 309.539 492.82 310.089 492.82 310.724C492.82 311.443 492.656 312.054 492.33 312.558C492.012 313.062 491.578 313.449 491.028 313.72C490.486 313.991 489.875 314.126 489.194 314.126Z" fill="white"/>
<rect x="468" y="329" width="32" height="32" rx="8" fill="#2172F0"/>
<path d="M476.76 350V342.286H474.772V341.236C475.145 341.208 475.481 341.166 475.78 341.11C476.078 341.045 476.344 340.937 476.578 340.788C476.811 340.629 477.016 340.401 477.194 340.102H478.244V350H476.76ZM481.969 350V342.286H479.981V341.236C480.354 341.208 480.69 341.166 480.989 341.11C481.287 341.045 481.553 340.937 481.787 340.788C482.02 340.629 482.225 340.401 482.403 340.102H483.453V350H481.969ZM489.194 350.126C488.764 350.126 488.358 350.075 487.976 349.972C487.593 349.869 487.243 349.715 486.926 349.51C486.618 349.295 486.356 349.029 486.142 348.712C485.936 348.385 485.792 347.998 485.708 347.55H487.192C487.276 347.793 487.416 348.003 487.612 348.18C487.817 348.357 488.05 348.497 488.312 348.6C488.582 348.703 488.858 348.754 489.138 348.754C489.558 348.754 489.926 348.684 490.244 348.544C490.57 348.395 490.827 348.18 491.014 347.9C491.2 347.62 491.294 347.261 491.294 346.822C491.294 346.215 491.107 345.744 490.734 345.408C490.36 345.072 489.87 344.904 489.264 344.904C488.9 344.904 488.559 344.969 488.242 345.1C487.934 345.221 487.649 345.394 487.388 345.618H485.988L486.338 340.102H492.47V341.46H487.696L487.472 344.204C487.733 343.999 488.046 343.84 488.41 343.728C488.783 343.616 489.208 343.565 489.684 343.574C490.318 343.574 490.869 343.705 491.336 343.966C491.812 344.227 492.176 344.596 492.428 345.072C492.689 345.539 492.82 346.089 492.82 346.724C492.82 347.443 492.656 348.054 492.33 348.558C492.012 349.062 491.578 349.449 491.028 349.72C490.486 349.991 489.875 350.126 489.194 350.126Z" fill="white"/>
<rect x="468" y="365" width="32" height="32" rx="8" fill="#15CB52"/>
<path d="M476.76 386V378.286H474.772V377.236C475.145 377.208 475.481 377.166 475.78 377.11C476.078 377.045 476.344 376.937 476.578 376.788C476.811 376.629 477.016 376.401 477.194 376.102H478.244V386H476.76ZM481.969 386V378.286H479.981V377.236C480.354 377.208 480.69 377.166 480.989 377.11C481.287 377.045 481.553 376.937 481.787 376.788C482.02 376.629 482.225 376.401 482.403 376.102H483.453V386H481.969ZM489.194 386.126C488.764 386.126 488.358 386.075 487.976 385.972C487.593 385.869 487.243 385.715 486.926 385.51C486.618 385.295 486.356 385.029 486.142 384.712C485.936 384.385 485.792 383.998 485.708 383.55H487.192C487.276 383.793 487.416 384.003 487.612 384.18C487.817 384.357 488.05 384.497 488.312 384.6C488.582 384.703 488.858 384.754 489.138 384.754C489.558 384.754 489.926 384.684 490.244 384.544C490.57 384.395 490.827 384.18 491.014 383.9C491.2 383.62 491.294 383.261 491.294 382.822C491.294 382.215 491.107 381.744 490.734 381.408C490.36 381.072 489.87 380.904 489.264 380.904C488.9 380.904 488.559 380.969 488.242 381.1C487.934 381.221 487.649 381.394 487.388 381.618H485.988L486.338 376.102H492.47V377.46H487.696L487.472 380.204C487.733 379.999 488.046 379.84 488.41 379.728C488.783 379.616 489.208 379.565 489.684 379.574C490.318 379.574 490.869 379.705 491.336 379.966C491.812 380.227 492.176 380.596 492.428 381.072C492.689 381.539 492.82 382.089 492.82 382.724C492.82 383.443 492.656 384.054 492.33 384.558C492.012 385.062 491.578 385.449 491.028 385.72C490.486 385.991 489.875 386.126 489.194 386.126Z" fill="white"/>
<rect x="468" y="401" width="32" height="32" rx="8" fill="#15CB52"/>
<path d="M476.76 422V414.286H474.772V413.236C475.145 413.208 475.481 413.166 475.78 413.11C476.078 413.045 476.344 412.937 476.578 412.788C476.811 412.629 477.016 412.401 477.194 412.102H478.244V422H476.76ZM481.969 422V414.286H479.981V413.236C480.354 413.208 480.69 413.166 480.989 413.11C481.287 413.045 481.553 412.937 481.787 412.788C482.02 412.629 482.225 412.401 482.403 412.102H483.453V422H481.969ZM489.194 422.126C488.764 422.126 488.358 422.075 487.976 421.972C487.593 421.869 487.243 421.715 486.926 421.51C486.618 421.295 486.356 421.029 486.142 420.712C485.936 420.385 485.792 419.998 485.708 419.55H487.192C487.276 419.793 487.416 420.003 487.612 420.18C487.817 420.357 488.05 420.497 488.312 420.6C488.582 420.703 488.858 420.754 489.138 420.754C489.558 420.754 489.926 420.684 490.244 420.544C490.57 420.395 490.827 420.18 491.014 419.9C491.2 419.62 491.294 419.261 491.294 418.822C491.294 418.215 491.107 417.744 490.734 417.408C490.36 417.072 489.87 416.904 489.264 416.904C488.9 416.904 488.559 416.969 488.242 417.1C487.934 417.221 487.649 417.394 487.388 417.618H485.988L486.338 412.102H492.47V413.46H487.696L487.472 416.204C487.733 415.999 488.046 415.84 488.41 415.728C488.783 415.616 489.208 415.565 489.684 415.574C490.318 415.574 490.869 415.705 491.336 415.966C491.812 416.227 492.176 416.596 492.428 417.072C492.689 417.539 492.82 418.089 492.82 418.724C492.82 419.443 492.656 420.054 492.33 420.558C492.012 421.062 491.578 421.449 491.028 421.72C490.486 421.991 489.875 422.126 489.194 422.126Z" fill="white"/>
<rect x="468" y="437" width="32" height="32" rx="8" fill="#FD4245"/>
<path d="M476.76 458V450.286H474.772V449.236C475.145 449.208 475.481 449.166 475.78 449.11C476.078 449.045 476.344 448.937 476.578 448.788C476.811 448.629 477.016 448.401 477.194 448.102H478.244V458H476.76ZM481.969 458V450.286H479.981V449.236C480.354 449.208 480.69 449.166 480.989 449.11C481.287 449.045 481.553 448.937 481.787 448.788C482.02 448.629 482.225 448.401 482.403 448.102H483.453V458H481.969ZM489.194 458.126C488.764 458.126 488.358 458.075 487.976 457.972C487.593 457.869 487.243 457.715 486.926 457.51C486.618 457.295 486.356 457.029 486.142 456.712C485.936 456.385 485.792 455.998 485.708 455.55H487.192C487.276 455.793 487.416 456.003 487.612 456.18C487.817 456.357 488.05 456.497 488.312 456.6C488.582 456.703 488.858 456.754 489.138 456.754C489.558 456.754 489.926 456.684 490.244 456.544C490.57 456.395 490.827 456.18 491.014 455.9C491.2 455.62 491.294 455.261 491.294 454.822C491.294 454.215 491.107 453.744 490.734 453.408C490.36 453.072 489.87 452.904 489.264 452.904C488.9 452.904 488.559 452.969 488.242 453.1C487.934 453.221 487.649 453.394 487.388 453.618H485.988L486.338 448.102H492.47V449.46H487.696L487.472 452.204C487.733 451.999 488.046 451.84 488.41 451.728C488.783 451.616 489.208 451.565 489.684 451.574C490.318 451.574 490.869 451.705 491.336 451.966C491.812 452.227 492.176 452.596 492.428 453.072C492.689 453.539 492.82 454.089 492.82 454.724C492.82 455.443 492.656 456.054 492.33 456.558C492.012 457.062 491.578 457.449 491.028 457.72C490.486 457.991 489.875 458.126 489.194 458.126Z" fill="white"/>
<rect x="468" y="473" width="32" height="32" rx="8" fill="#15CB52"/>
</g>
</g>
<rect x="24.5" y="225.5" width="691" height="253" rx="17.5" stroke="#25282D"/>
</g>
<defs>
<filter id="filter0_b_17829_60506" x="-4" y="-4" width="512" height="512" filterUnits="userSpaceOnUse" color-interpolation-filters="sRGB">
<feFlood flood-opacity="0" result="BackgroundImageFix"/>
<feGaussianBlur in="BackgroundImageFix" stdDeviation="2"/>
<feComposite in2="SourceAlpha" operator="in" result="effect1_backgroundBlur_17829_60506"/>
<feBlend mode="normal" in="SourceGraphic" in2="effect1_backgroundBlur_17829_60506" result="shape"/>
</filter>
<filter id="filter1_f_17829_60506" x="-647" y="-166" width="1379" height="1072" filterUnits="userSpaceOnUse" color-interpolation-filters="sRGB">
<feFlood flood-opacity="0" result="BackgroundImageFix"/>
<feBlend mode="normal" in="SourceGraphic" in2="BackgroundImageFix" result="shape"/>
<feGaussianBlur stdDeviation="160" result="effect1_foregroundBlur_17829_60506"/>
</filter>
<clipPath id="clip0_17829_60506">
<rect width="504" height="504" fill="white"/>
</clipPath>
<clipPath id="clip1_17829_60506">
<rect x="24" y="225" width="692" height="254" rx="18" fill="white"/>
</clipPath>
<clipPath id="clip2_17829_60506">
<rect width="644" height="416" fill="white" transform="translate(48 249)"/>
</clipPath>
</defs>
</svg>
