<svg width="350" height="350" viewBox="0 0 350 350" fill="none" xmlns="http://www.w3.org/2000/svg">
<g clip-path="url(#clip0_17861_52836)" filter="url(#filter0_b_17861_52836)">
<g filter="url(#filter1_f_17861_52836)">
<ellipse cx="5.09764" cy="503.705" rx="236.761" ry="369.837" transform="rotate(-107.708 5.09764 503.705)" fill="#00FFCD" fill-opacity="0.4"/>
</g>
<g filter="url(#filter2_d_17861_52836)">
<rect x="-0.203125" y="283" width="115" height="63" rx="15.2" transform="rotate(8.02719 -0.203125 283)" fill="#1A3307" shape-rendering="crispEdges"/>
<rect x="0.137099" y="283.452" width="114.2" height="62.2" rx="14.8" transform="rotate(8.02719 0.137099 283.452)" stroke="#25282D" stroke-width="0.8" shape-rendering="crispEdges"/>
<path d="M5.95013 303.056L7.05588 295.215L8.44216 295.411L7.96983 298.76L11.6296 299.276L12.1019 295.927L13.4771 296.121L12.3714 303.962L10.9962 303.768L11.4513 300.54L7.79154 300.024L7.33641 303.252L5.95013 303.056ZM15.7574 304.518C15.4839 304.48 15.2303 304.406 14.9968 304.298C14.7632 304.19 14.5602 304.052 14.3878 303.884C14.2164 303.709 14.0867 303.506 13.9986 303.275C13.919 303.037 13.9001 302.771 13.9418 302.475C13.9949 302.098 14.1121 301.802 14.2934 301.586C14.4757 301.363 14.7014 301.206 14.9705 301.116C15.247 301.027 15.551 300.983 15.8826 300.984C16.2152 300.978 16.5589 301.001 16.9138 301.051L18.0561 301.212C18.0926 300.953 18.0832 300.725 18.028 300.529C17.9737 300.325 17.8657 300.156 17.7039 300.02C17.5495 299.885 17.3355 299.798 17.062 299.759C16.8845 299.734 16.715 299.733 16.5535 299.756C16.4004 299.772 16.2622 299.816 16.1388 299.889C16.0238 299.956 15.9347 300.053 15.8716 300.18L14.4853 299.984C14.5798 299.688 14.7198 299.444 14.9053 299.252C15.0993 299.053 15.3207 298.899 15.5698 298.791C15.8262 298.684 16.0995 298.617 16.3899 298.59C16.6812 298.556 16.9711 298.559 17.2595 298.6C18.1097 298.72 18.6927 299.051 19.0083 299.593C19.3313 300.136 19.4308 300.848 19.3068 301.727L18.8626 304.877L17.6648 304.708L17.7379 303.949C17.5324 304.177 17.303 304.333 17.0497 304.418C16.7965 304.503 16.5568 304.544 16.3309 304.543C16.1038 304.548 15.9127 304.54 15.7574 304.518ZM16.1784 303.458C16.4742 303.5 16.7445 303.481 16.9893 303.403C17.2342 303.324 17.4372 303.194 17.5984 303.013C17.7671 302.834 17.8696 302.614 17.9061 302.356L17.9327 302.167L16.868 302.017C16.6906 301.992 16.5121 301.974 16.3326 301.964C16.1615 301.947 16.002 301.955 15.8543 301.987C15.7075 302.012 15.583 302.066 15.4808 302.149C15.3859 302.234 15.3259 302.365 15.3009 302.542C15.2759 302.72 15.2999 302.87 15.373 302.994C15.4535 303.118 15.5635 303.22 15.703 303.3C15.8499 303.381 16.0084 303.434 16.1784 303.458ZM22.3836 305.453C22.1027 305.413 21.8259 305.344 21.5533 305.245C21.288 305.147 21.0428 305.015 20.8176 304.847C20.5934 304.672 20.4167 304.455 20.2874 304.196C20.1581 303.936 20.0926 303.625 20.0909 303.263L21.455 303.456C21.4912 303.627 21.5649 303.773 21.676 303.894C21.7955 304.009 21.9366 304.104 22.0994 304.18C22.2706 304.249 22.4412 304.296 22.6112 304.32C22.7148 304.334 22.8267 304.343 22.9471 304.345C23.0749 304.348 23.1936 304.334 23.3034 304.304C23.4206 304.276 23.5181 304.225 23.5961 304.153C23.6752 304.074 23.7246 303.964 23.7444 303.824C23.7632 303.691 23.7408 303.582 23.6773 303.497C23.6149 303.406 23.5239 303.329 23.4045 303.267C23.2861 303.197 23.1403 303.135 22.967 303.081C22.6585 302.969 22.3283 302.851 21.9764 302.726C21.6256 302.594 21.3291 302.424 21.0869 302.216C20.9854 302.134 20.9002 302.043 20.8314 301.942C20.7626 301.842 20.7059 301.736 20.6614 301.624C20.6252 301.506 20.6013 301.382 20.5894 301.252C20.585 301.123 20.5931 300.985 20.614 300.837C20.6578 300.527 20.7577 300.273 20.9136 300.076C21.0779 299.873 21.2767 299.72 21.5099 299.618C21.7515 299.508 22.0175 299.44 22.3078 299.413C22.5982 299.386 22.8912 299.394 23.1869 299.436C23.5862 299.492 23.9396 299.606 24.2472 299.777C24.5548 299.949 24.7975 300.179 24.9755 300.468C25.1608 300.758 25.2475 301.106 25.2355 301.512L23.949 301.33C23.9381 301.14 23.8444 300.976 23.6678 300.838C23.4986 300.701 23.2698 300.612 22.9815 300.572C22.878 300.557 22.7692 300.553 22.6552 300.56C22.5422 300.559 22.4308 300.573 22.321 300.603C22.2197 300.626 22.1301 300.674 22.052 300.746C21.9814 300.819 21.9378 300.915 21.9211 301.033C21.9054 301.144 21.9178 301.244 21.9581 301.332C22.0057 301.422 22.0809 301.504 22.1834 301.579C22.2944 301.647 22.4249 301.711 22.575 301.77C22.8191 301.857 23.0742 301.946 23.3405 302.036C23.6068 302.126 23.8361 302.212 24.0284 302.291C24.2556 302.391 24.4564 302.518 24.631 302.671C24.8065 302.816 24.932 302.996 25.0073 303.21C25.0911 303.418 25.1116 303.673 25.0689 303.976C25.0188 304.331 24.9032 304.617 24.722 304.832C24.5481 305.049 24.3335 305.207 24.0781 305.307C23.8228 305.407 23.5468 305.466 23.2501 305.484C22.9534 305.503 22.6646 305.492 22.3836 305.453ZM25.8186 305.858L26.9243 298.017L28.2774 298.208L27.8895 300.958C28.0729 300.781 28.277 300.644 28.5017 300.547C28.7265 300.451 28.9571 300.393 29.1936 300.373C29.4311 300.346 29.6534 300.347 29.8604 300.377C30.4149 300.455 30.8339 300.638 31.1175 300.927C31.401 301.216 31.5769 301.573 31.6452 301.997C31.721 302.422 31.7229 302.89 31.6509 303.4L31.1974 306.617L29.8444 306.426L30.2651 303.442C30.2932 303.243 30.3071 303.037 30.3067 302.826C30.3064 302.615 30.2733 302.422 30.2075 302.247C30.1501 302.065 30.0437 301.911 29.8883 301.783C29.7402 301.657 29.5294 301.574 29.2559 301.536C28.9971 301.499 28.7675 301.523 28.567 301.608C28.3675 301.686 28.1993 301.809 28.0624 301.978C27.9328 302.148 27.8265 302.341 27.7435 302.555C27.6604 302.77 27.6033 302.988 27.572 303.21L27.1716 306.049L25.8186 305.858ZM35.7769 307.262L36.8826 299.422L39.9768 299.858C40.3761 299.914 40.7474 300.008 41.0908 300.139C41.4353 300.263 41.7307 300.441 41.9772 300.672C42.2247 300.895 42.4031 301.18 42.5125 301.528C42.6219 301.875 42.6427 302.289 42.5749 302.769C42.5186 303.168 42.3988 303.51 42.2156 303.793C42.0324 304.076 41.8005 304.304 41.5199 304.475C41.2467 304.648 40.9323 304.766 40.5765 304.829L41.8654 308.121L40.3128 307.902L39.1701 304.857L37.562 304.63L37.1632 307.458L35.7769 307.262ZM37.7356 303.399L39.2549 303.613C39.5063 303.649 39.7381 303.662 39.9504 303.655C40.171 303.64 40.3658 303.596 40.5346 303.522C40.7108 303.449 40.851 303.337 40.9553 303.186C41.068 303.028 41.1463 302.82 41.1902 302.563C41.234 302.252 41.2018 301.999 41.0938 301.803C40.9931 301.607 40.826 301.456 40.5925 301.347C40.3663 301.24 40.0869 301.163 39.7541 301.116L38.0906 300.881L37.7356 303.399ZM44.8261 308.618C44.5525 308.579 44.2989 308.506 44.0654 308.397C43.8318 308.289 43.6288 308.151 43.4564 307.983C43.285 307.808 43.1553 307.605 43.0673 307.374C42.9876 307.137 42.9687 306.87 43.0104 306.575C43.0636 306.197 43.1808 305.901 43.362 305.685C43.5443 305.462 43.77 305.305 44.0391 305.215C44.3156 305.126 44.6196 305.082 44.9512 305.084C45.2838 305.078 45.6275 305.1 45.9824 305.15L47.1247 305.311C47.1612 305.052 47.1518 304.825 47.0966 304.628C47.0424 304.425 46.9343 304.255 46.7725 304.119C46.6181 303.984 46.4041 303.897 46.1306 303.859C45.9531 303.834 45.7837 303.833 45.6221 303.855C45.4691 303.871 45.3308 303.916 45.2074 303.989C45.0924 304.056 45.0034 304.152 44.9402 304.279L43.5539 304.084C43.6484 303.788 43.7885 303.544 43.974 303.351C44.1679 303.152 44.3894 302.999 44.6384 302.891C44.8948 302.783 45.1681 302.716 45.4585 302.69C45.7499 302.655 46.0397 302.658 46.3281 302.699C47.1783 302.819 47.7613 303.15 48.0769 303.692C48.4 304.235 48.4994 304.947 48.3754 305.827L47.9312 308.976L46.7334 308.807L46.8065 308.049C46.601 308.276 46.3716 308.432 46.1184 308.517C45.8651 308.602 45.6255 308.644 45.3995 308.642C45.1725 308.648 44.9813 308.64 44.8261 308.618ZM45.2471 307.557C45.5428 307.599 45.8131 307.581 46.0579 307.502C46.3028 307.423 46.5058 307.294 46.667 307.113C46.8357 306.933 46.9382 306.714 46.9747 306.455L47.0013 306.266L45.9366 306.116C45.7592 306.091 45.5807 306.074 45.4012 306.063C45.2301 306.047 45.0707 306.054 44.9229 306.086C44.7761 306.111 44.6516 306.165 44.5494 306.249C44.4545 306.333 44.3945 306.464 44.3695 306.642C44.3445 306.819 44.3685 306.97 44.4416 307.093C44.5221 307.218 44.6321 307.32 44.7716 307.4C44.9185 307.481 45.077 307.533 45.2471 307.557ZM51.5425 309.554C50.8993 309.463 50.4548 309.219 50.2091 308.823C49.9634 308.426 49.8849 307.913 49.9735 307.285L50.3551 304.579L49.4568 304.452L49.6257 303.255L50.5241 303.381L50.7555 301.74L52.1085 301.931L51.8771 303.572L53.6515 303.822L53.4826 305.02L51.7082 304.77L51.3625 307.221C51.3354 307.413 51.3331 307.59 51.3555 307.751C51.378 307.913 51.4421 308.046 51.5479 308.152C51.6537 308.257 51.8096 308.328 52.0156 308.365C52.193 308.39 52.3487 308.382 52.4828 308.34C52.6168 308.299 52.7297 308.247 52.8214 308.184L53.1307 309.28C52.9735 309.378 52.801 309.452 52.6131 309.501C52.4327 309.551 52.2516 309.578 52.07 309.583C51.8884 309.587 51.7126 309.578 51.5425 309.554ZM56.4105 310.251C55.8043 310.166 55.3044 309.967 54.9111 309.655C54.5251 309.345 54.2525 308.952 54.0932 308.477C53.9424 307.996 53.9087 307.459 53.9921 306.868C54.0756 306.276 54.26 305.771 54.5454 305.351C54.8392 304.925 55.2151 304.612 55.673 304.413C56.1383 304.214 56.6704 304.158 57.2693 304.242C57.7129 304.305 58.0896 304.441 58.3994 304.65C58.7102 304.852 58.9572 305.106 59.1404 305.411C59.3311 305.717 59.4573 306.051 59.5192 306.414C59.5811 306.777 59.5813 307.151 59.5196 307.534C59.4997 307.622 59.4798 307.709 59.4599 307.797C59.4411 307.877 59.4175 307.965 59.3891 308.059L55.2857 307.48C55.2714 307.742 55.3046 307.988 55.3852 308.218C55.4733 308.449 55.612 308.642 55.8013 308.797C55.998 308.953 56.2553 309.053 56.5732 309.098C56.758 309.124 56.9386 309.127 57.1149 309.107C57.2923 309.079 57.4505 309.026 57.5898 308.947C57.7364 308.87 57.8424 308.76 57.9076 308.619L59.2606 308.81C59.105 309.218 58.8791 309.536 58.5828 309.766C58.2865 309.996 57.9483 310.148 57.5683 310.222C57.1957 310.298 56.8098 310.308 56.4105 310.251ZM55.4502 306.474L58.2671 306.871C58.3016 306.627 58.2774 306.398 58.1946 306.182C58.1119 305.967 57.9748 305.789 57.7834 305.649C57.6005 305.503 57.3649 305.409 57.0765 305.369C56.766 305.325 56.4983 305.351 56.2736 305.448C56.0489 305.544 55.867 305.684 55.7279 305.868C55.5889 306.052 55.4963 306.254 55.4502 306.474Z" fill="#6BBC2E"/>
<path d="M4.62236 332.155L6.24579 320.644L3.1627 320.209L3.50052 317.813C4.10887 317.884 4.66329 317.91 5.16378 317.89C5.66635 317.855 6.12759 317.739 6.5475 317.542C6.9695 317.33 7.35434 317.007 7.70202 316.574L10.0088 316.899L7.79417 332.603L4.62236 332.155ZM13.265 333.374L14.8884 321.862L11.8053 321.428L12.1431 319.032C12.7515 319.103 13.3059 319.128 13.8064 319.108C14.309 319.074 14.7702 318.958 15.1901 318.761C15.6121 318.549 15.9969 318.226 16.3446 317.792L18.6514 318.118L16.4368 333.821L13.265 333.374ZM19.0019 334.183L19.371 331.566L24.2283 328.564C24.5763 328.341 24.9729 328.096 25.4181 327.827C25.8801 327.545 26.323 327.238 26.7469 326.905C27.1856 326.575 27.5535 326.212 27.8505 325.817C28.1624 325.424 28.3506 324.998 28.4153 324.539C28.5049 323.903 28.3783 323.358 28.0354 322.902C27.7072 322.449 27.166 322.169 26.4119 322.062C25.7021 321.962 25.1173 322.046 24.6574 322.313C24.2143 322.567 23.9066 322.931 23.7343 323.404L20.6734 322.972C20.9102 321.935 21.3427 321.114 21.971 320.509C22.6161 319.891 23.3767 319.47 24.2527 319.247C25.1288 319.024 26.0252 318.977 26.942 319.106C27.9327 319.246 28.8086 319.558 29.5698 320.042C30.3309 320.526 30.8981 321.157 31.2711 321.933C31.6463 322.695 31.7609 323.593 31.6149 324.629C31.4898 325.516 31.2061 326.298 30.7638 326.974C30.3384 327.638 29.7936 328.24 29.1293 328.78C28.4671 329.305 27.7341 329.797 26.9303 330.257L24.1614 331.925L30.4385 332.81L30.0256 335.738L19.0019 334.183ZM34.2294 336.625C33.6971 336.55 33.269 336.323 32.9452 335.946C32.6214 335.569 32.5023 335.077 32.5878 334.47C32.6754 333.849 32.929 333.387 33.3487 333.085C33.7833 332.784 34.2593 332.67 34.7768 332.743C35.2944 332.816 35.713 333.056 36.0326 333.463C36.3543 333.855 36.4714 334.362 36.3838 334.983C36.2962 335.604 36.0446 336.051 35.6291 336.324C35.2135 336.598 34.747 336.698 34.2294 336.625ZM46.0091 337.992L46.4158 335.108L38.453 333.986L38.7939 331.568L47.5583 322.194L51.3956 322.735L49.9942 332.672L51.7687 332.923L51.362 335.806L49.5876 335.556L49.1809 338.439L46.0091 337.992ZM42.4972 331.615L46.8224 332.225L47.7295 325.793L42.4972 331.615ZM62.7542 340.353L64.5528 327.6L59.7618 326.924L60.1778 323.974L72.976 325.779L72.56 328.729L67.7468 328.05L65.9482 340.804L62.7542 340.353ZM72.6185 341.745L74.8331 326.041L78.0049 326.488L77.0884 332.987L83.8756 333.944L84.7922 327.445L87.9861 327.896L85.7715 343.599L82.5775 343.149L83.4628 336.872L76.6755 335.915L75.7903 342.192L72.6185 341.745ZM93.2059 344.806C92.6588 344.729 92.1052 344.591 91.5452 344.391C90.9852 344.191 90.481 343.917 90.0327 343.567C89.5864 343.202 89.2276 342.752 88.9564 342.216C88.6872 341.665 88.5529 341.013 88.5537 340.259L91.7033 340.703C91.7545 340.982 91.8775 341.233 92.0722 341.457C92.2816 341.682 92.528 341.86 92.8112 341.991C93.1092 342.123 93.4135 342.211 93.724 342.255C93.9311 342.284 94.1402 342.299 94.3513 342.298C94.5625 342.298 94.7631 342.266 94.9531 342.202C95.143 342.139 95.2991 342.047 95.4214 341.929C95.5458 341.796 95.6236 341.618 95.6549 341.396C95.6882 341.16 95.6404 340.965 95.5113 340.811C95.3822 340.657 95.1898 340.524 94.934 340.412C94.6804 340.286 94.3887 340.162 94.059 340.04C93.4715 339.822 92.8417 339.582 92.1697 339.321C91.4976 339.061 90.9321 338.74 90.4732 338.358C90.287 338.181 90.1251 337.992 89.9875 337.792C89.8498 337.592 89.7449 337.373 89.6727 337.137C89.6004 336.9 89.5514 336.66 89.5257 336.415C89.502 336.155 89.5099 335.885 89.5495 335.604C89.6392 334.968 89.8484 334.447 90.1771 334.041C90.5227 333.622 90.9445 333.305 91.4426 333.088C91.9406 332.872 92.4789 332.744 93.0575 332.705C93.6382 332.651 94.2242 332.666 94.8157 332.75C95.6142 332.862 96.3348 333.1 96.9775 333.462C97.6222 333.809 98.1278 334.288 98.4943 334.897C98.8628 335.492 99.0384 336.226 99.0209 337.098L96.0487 336.679C96.0355 336.345 95.8723 336.058 95.5593 335.818C95.2484 335.563 94.8416 335.4 94.3388 335.329C94.1614 335.304 93.9671 335.292 93.7559 335.292C93.5595 335.295 93.3747 335.321 93.2017 335.372C93.0286 335.423 92.8809 335.508 92.7586 335.627C92.6384 335.73 92.5637 335.886 92.5345 336.093C92.5116 336.255 92.5351 336.409 92.6051 336.555C92.6898 336.703 92.8146 336.833 92.9796 336.947C93.1593 337.063 93.377 337.177 93.6328 337.288C94.1188 337.477 94.6059 337.659 95.0941 337.834C95.5991 337.995 96.044 338.156 96.4286 338.316C96.902 338.488 97.3216 338.721 97.6875 339.014C98.0682 339.309 98.355 339.681 98.548 340.13C98.7579 340.567 98.8169 341.111 98.7252 341.761C98.6209 342.501 98.3865 343.094 98.0219 343.54C97.6595 343.971 97.207 344.292 96.6647 344.502C96.1371 344.714 95.5692 344.838 94.961 344.873C94.3677 344.91 93.7826 344.888 93.2059 344.806Z" fill="#6BBC2E"/>
</g>
<g filter="url(#filter3_d_17861_52836)">
<rect x="195.125" y="220" width="115.2" height="63" rx="15.2" transform="rotate(9.24885 195.125 220)" fill="#470B0B" shape-rendering="crispEdges"/>
<rect x="195.456" y="220.459" width="114.4" height="62.2" rx="14.8" transform="rotate(9.24885 195.456 220.459)" stroke="#25282D" stroke-width="0.8" shape-rendering="crispEdges"/>
<path d="M201.239 240.246L202.512 232.43L205.452 232.909C206.042 233.005 206.535 233.18 206.933 233.434C207.339 233.682 207.628 234.02 207.8 234.449C207.98 234.879 208.018 235.411 207.915 236.045C207.816 236.649 207.601 237.133 207.27 237.495C206.939 237.857 206.528 238.104 206.037 238.236C205.548 238.36 205.009 238.375 204.419 238.279L203.015 238.05L202.621 240.471L201.239 240.246ZM203.217 236.812L204.599 237.037C205.107 237.12 205.536 237.065 205.885 236.872C206.234 236.679 206.451 236.321 206.537 235.798C206.611 235.341 206.538 234.977 206.317 234.707C206.097 234.429 205.719 234.246 205.181 234.159L203.688 233.916L203.217 236.812ZM210.708 241.867C210.111 241.77 209.615 241.564 209.22 241.25C208.832 240.938 208.557 240.537 208.394 240.049C208.239 239.563 208.211 239.017 208.309 238.413C208.409 237.801 208.612 237.293 208.92 236.89C209.229 236.478 209.618 236.182 210.086 236.001C210.554 235.82 211.087 235.779 211.684 235.876C212.273 235.972 212.761 236.18 213.148 236.5C213.535 236.82 213.805 237.227 213.959 237.721C214.114 238.208 214.142 238.757 214.043 239.369C213.945 239.966 213.746 240.471 213.444 240.883C213.151 241.289 212.771 241.579 212.304 241.753C211.837 241.926 211.305 241.964 210.708 241.867ZM210.897 240.638C211.265 240.698 211.573 240.665 211.821 240.539C212.076 240.414 212.276 240.228 212.423 239.979C212.569 239.731 212.667 239.452 212.718 239.142C212.768 238.833 212.764 238.533 212.705 238.244C212.647 237.954 212.516 237.71 212.314 237.51C212.121 237.305 211.84 237.172 211.471 237.112C211.103 237.052 210.79 237.088 210.534 237.22C210.279 237.345 210.078 237.536 209.931 237.792C209.784 238.04 209.685 238.323 209.634 238.64C209.583 238.949 209.587 239.249 209.646 239.538C209.714 239.822 209.845 240.062 210.039 240.26C210.243 240.452 210.528 240.578 210.897 240.638ZM215.88 242.63L215.004 236.507L216.497 236.75L216.961 241.285L218.918 237.144L220.509 237.404L221.051 241.951L222.919 237.796L224.389 238.036L221.617 243.564L220.003 243.301L219.427 238.895L217.494 242.893L215.88 242.63ZM226.749 244.479C226.144 244.381 225.649 244.172 225.262 243.851C224.883 243.532 224.619 243.134 224.47 242.656C224.329 242.171 224.307 241.634 224.403 241.045C224.499 240.455 224.694 239.954 224.988 239.54C225.291 239.12 225.674 238.816 226.136 238.626C226.605 238.438 227.138 238.392 227.735 238.49C228.178 238.562 228.551 238.706 228.856 238.922C229.163 239.131 229.404 239.389 229.581 239.698C229.765 240.008 229.884 240.345 229.938 240.709C229.993 241.074 229.985 241.447 229.915 241.829C229.893 241.916 229.871 242.003 229.85 242.091C229.829 242.17 229.804 242.257 229.773 242.351L225.683 241.685C225.663 241.946 225.691 242.193 225.767 242.424C225.85 242.657 225.985 242.853 226.171 243.012C226.364 243.172 226.619 243.278 226.936 243.33C227.12 243.36 227.301 243.366 227.477 243.35C227.655 243.326 227.815 243.276 227.955 243.201C228.104 243.126 228.212 243.019 228.28 242.879L229.629 243.099C229.465 243.503 229.232 243.817 228.931 244.04C228.63 244.264 228.288 244.408 227.907 244.475C227.533 244.543 227.147 244.544 226.749 244.479ZM225.869 240.682L228.677 241.139C228.717 240.896 228.697 240.666 228.619 240.449C228.541 240.232 228.408 240.052 228.219 239.907C228.04 239.757 227.806 239.659 227.519 239.612C227.209 239.561 226.941 239.582 226.714 239.674C226.487 239.765 226.303 239.902 226.16 240.083C226.017 240.264 225.92 240.463 225.869 240.682ZM230.5 245.011L231.449 239.185L232.676 239.385L232.629 240.16C232.812 239.963 233.006 239.821 233.209 239.733C233.421 239.639 233.638 239.583 233.86 239.566C234.09 239.551 234.315 239.561 234.536 239.597C234.617 239.61 234.691 239.622 234.757 239.633C234.831 239.645 234.889 239.658 234.932 239.673L234.724 240.955L234.37 240.898C233.987 240.835 233.65 240.856 233.361 240.96C233.072 241.064 232.839 241.242 232.661 241.493C232.484 241.744 232.364 242.069 232.299 242.467L231.849 245.23L230.5 245.011Z" fill="#F24949"/>
<path d="M202.064 269.944C201.327 269.824 200.656 269.624 200.051 269.344C199.448 269.049 198.928 268.67 198.489 268.205C198.065 267.742 197.732 267.189 197.489 266.544C197.26 265.902 197.153 265.165 197.167 264.336L200.285 264.843C200.325 265.152 200.442 265.459 200.634 265.763C200.827 266.066 201.087 266.328 201.414 266.548C201.756 266.77 202.156 266.918 202.613 266.993C203.173 267.084 203.66 267.065 204.074 266.935C204.491 266.792 204.832 266.56 205.096 266.239C205.36 265.919 205.531 265.516 205.61 265.03C205.73 264.293 205.591 263.665 205.191 263.146C204.808 262.614 204.197 262.28 203.357 262.143C202.871 262.064 202.399 262.078 201.943 262.186C201.504 262.28 201.069 262.444 200.638 262.677L197.94 262.237L199.689 253.308L209.992 254.986L209.52 257.882L202.202 256.69L201.507 259.845C202 259.608 202.543 259.477 203.137 259.452C203.748 259.416 204.34 259.452 204.912 259.56C205.925 259.755 206.751 260.116 207.391 260.644C208.031 261.172 208.476 261.835 208.724 262.632C208.987 263.431 209.039 264.324 208.878 265.312C208.683 266.506 208.253 267.48 207.585 268.233C206.932 268.99 206.122 269.508 205.153 269.789C204.199 270.073 203.169 270.124 202.064 269.944ZM212 271.676C211.47 271.589 211.046 271.354 210.731 270.97C210.415 270.585 210.306 270.091 210.405 269.487C210.506 268.868 210.769 268.411 211.195 268.118C211.636 267.826 212.114 267.723 212.63 267.807C213.146 267.891 213.559 268.14 213.87 268.553C214.184 268.952 214.29 269.461 214.189 270.08C214.088 270.699 213.827 271.141 213.406 271.405C212.985 271.67 212.516 271.76 212 271.676ZM218.335 272.412L220.204 260.938L217.131 260.437L217.52 258.05C218.126 258.133 218.68 258.171 219.181 258.161C219.684 258.137 220.148 258.031 220.572 257.843C220.998 257.64 221.39 257.326 221.747 256.9L224.046 257.274L221.497 272.927L218.335 272.412ZM231.045 274.482L233.594 258.829L236.689 259.333L235.311 267.801L236.836 268.049L240.415 264.048L243.886 264.613L239.269 269.557L242.299 276.315L238.717 275.731L236.519 270.834L234.861 270.564L234.141 274.986L231.045 274.482ZM246.137 276.939L244.861 260.664L248.376 261.236L249.134 273.864L253.881 262.133L258.06 262.813L258.795 275.438L263.454 263.691L266.793 264.235L260.463 279.272L256.086 278.56L255.274 266.263L250.647 277.674L246.137 276.939Z" fill="#F24949"/>
</g>
<g filter="url(#filter4_d_17861_52836)">
<rect x="46" y="233.314" width="115.2" height="63.2" rx="15.2" transform="rotate(-5.13704 46 233.314)" fill="#0E2C44" shape-rendering="crispEdges"/>
<rect x="46.4342" y="233.677" width="114.4" height="62.4" rx="14.8" transform="rotate(-5.13704 46.4342 233.677)" stroke="#25282D" stroke-width="0.8" shape-rendering="crispEdges"/>
<path d="M59.9078 251.231C59.3798 251.279 58.8746 251.245 58.392 251.131C57.9162 251.009 57.5065 250.787 57.1627 250.466C56.8183 250.137 56.572 249.691 56.4238 249.127L57.8405 248.999C57.9558 249.281 58.1175 249.495 58.3256 249.642C58.5411 249.787 58.7857 249.881 59.0594 249.924C59.3325 249.96 59.6066 249.965 59.8818 249.94C60.1272 249.918 60.355 249.868 60.5653 249.789C60.7824 249.702 60.9549 249.578 61.0829 249.416C61.2182 249.254 61.2749 249.05 61.2528 248.805C61.2361 248.619 61.1818 248.474 61.09 248.37C61.0049 248.257 60.8884 248.17 60.7404 248.109C60.5992 248.039 60.4299 247.991 60.2326 247.963C60.0413 247.92 59.8358 247.886 59.6161 247.861C59.3965 247.836 59.1802 247.807 58.9673 247.773C58.7544 247.74 58.5513 247.691 58.358 247.626C58.1127 247.565 57.8738 247.493 57.6413 247.409C57.4156 247.317 57.214 247.2 57.0363 247.059C56.8661 246.916 56.7223 246.735 56.6049 246.513C56.4875 246.291 56.4144 246.02 56.3857 245.7C56.3529 245.336 56.3843 245.018 56.4799 244.747C56.5823 244.468 56.7262 244.234 56.9116 244.045C57.1044 243.855 57.3229 243.701 57.5671 243.581C57.8187 243.461 58.08 243.366 58.3512 243.297C58.6298 243.227 58.8955 243.181 59.1483 243.158C59.6391 243.114 60.0927 243.155 60.509 243.283C60.9327 243.41 61.2901 243.633 61.5811 243.951C61.8722 244.27 62.0604 244.695 62.1457 245.227L60.7959 245.349C60.7434 245.099 60.6361 244.906 60.474 244.77C60.3113 244.628 60.1153 244.533 59.8862 244.486C59.6564 244.432 59.4114 244.416 59.1511 244.44C58.9726 244.456 58.7955 244.487 58.6197 244.532C58.4513 244.577 58.2998 244.644 58.1652 244.731C58.038 244.817 57.9355 244.927 57.8576 245.062C57.7865 245.188 57.7593 245.344 57.776 245.53C57.7907 245.694 57.8447 245.835 57.9379 245.954C58.0304 246.066 58.1509 246.156 58.2996 246.225C58.4557 246.294 58.6371 246.352 58.8439 246.401C59.1136 246.482 59.4032 246.535 59.7128 246.559C60.0298 246.583 60.3299 246.628 60.6131 246.692C60.8875 246.742 61.1412 246.813 61.3744 246.905C61.6143 246.988 61.823 247.101 62.0007 247.242C62.1777 247.376 62.3208 247.551 62.4301 247.766C62.5462 247.973 62.6179 248.229 62.6453 248.534C62.6854 248.98 62.6377 249.366 62.5022 249.693C62.3734 250.012 62.1764 250.281 61.9112 250.5C61.6535 250.718 61.3501 250.888 61.0012 251.009C60.659 251.122 60.2945 251.196 59.9078 251.231ZM66.4229 250.623C65.7759 250.681 65.2876 250.545 64.9581 250.215C64.6285 249.885 64.4353 249.403 64.3785 248.771L64.1338 246.049L63.2302 246.131L63.1219 244.926L64.0255 244.845L63.8771 243.194L65.238 243.071L65.3864 244.722L67.1712 244.562L67.2795 245.767L65.4947 245.927L65.7163 248.392C65.7337 248.586 65.7717 248.758 65.8304 248.911C65.8891 249.063 65.9819 249.178 66.1089 249.257C66.2359 249.335 66.4039 249.369 66.6128 249.358C66.7912 249.342 66.941 249.298 67.0621 249.227C67.1832 249.156 67.2813 249.08 67.3564 248.998L67.907 249.995C67.7764 250.126 67.6252 250.237 67.4534 250.328C67.2891 250.418 67.119 250.485 66.9432 250.531C66.7674 250.577 66.5939 250.608 66.4229 250.623ZM70.5634 250.262C70.2882 250.287 70.0246 250.273 69.7725 250.221C69.5204 250.168 69.2913 250.08 69.0853 249.956C68.8785 249.825 68.706 249.657 68.5676 249.452C68.436 249.239 68.3568 248.983 68.3301 248.686C68.296 248.307 68.3426 247.991 68.4699 247.74C68.5966 247.481 68.7807 247.277 69.0222 247.128C69.2711 246.978 69.5572 246.866 69.8804 246.792C70.2029 246.711 70.5426 246.654 70.8996 246.622L72.0486 246.519C72.0252 246.258 71.9642 246.039 71.8657 245.86C71.7665 245.674 71.6227 245.534 71.4342 245.438C71.2531 245.342 71.025 245.306 70.7498 245.331C70.5713 245.347 70.406 245.384 70.2538 245.443C70.1085 245.494 69.984 245.569 69.8805 245.668C69.7837 245.759 69.719 245.873 69.6865 246.011L68.2921 246.137C68.3167 245.827 68.3974 245.557 68.5342 245.328C68.6778 245.09 68.8585 244.89 69.0763 244.728C69.3016 244.565 69.5525 244.438 69.8291 244.345C70.105 244.246 70.3879 244.183 70.678 244.157C71.5332 244.08 72.1762 244.269 72.607 244.725C73.0453 245.181 73.3042 245.851 73.3838 246.736L73.6686 249.904L72.4639 250.012L72.3622 249.257C72.2139 249.525 72.0261 249.729 71.7988 249.87C71.5715 250.01 71.3477 250.105 71.1273 250.155C70.9075 250.212 70.7195 250.248 70.5634 250.262ZM70.7318 249.133C71.0293 249.107 71.2883 249.027 71.5088 248.895C71.7293 248.763 71.8974 248.59 72.0132 248.377C72.1365 248.164 72.1864 247.927 72.163 247.667L72.146 247.477L71.0751 247.573C70.8966 247.589 70.7188 247.613 70.5416 247.644C70.3713 247.667 70.2178 247.71 70.0812 247.775C69.9439 247.832 69.835 247.913 69.7544 248.018C69.6813 248.122 69.6528 248.263 69.6688 248.442C69.6849 248.62 69.7425 248.761 69.8418 248.865C69.9485 248.968 70.0789 249.042 70.233 249.088C70.3945 249.134 70.5608 249.149 70.7318 249.133ZM77.3165 249.644C76.6695 249.702 76.1812 249.566 75.8516 249.235C75.5221 248.905 75.3289 248.424 75.2721 247.792L75.0274 245.07L74.1238 245.151L74.0155 243.947L74.9191 243.865L74.7706 242.214L76.1316 242.092L76.28 243.743L78.0648 243.583L78.1731 244.787L76.3883 244.948L76.6099 247.413C76.6273 247.606 76.6653 247.779 76.724 247.931C76.7826 248.083 76.8755 248.199 77.0025 248.277C77.1295 248.356 77.2974 248.39 77.5063 248.378C77.6848 248.362 77.8346 248.319 77.9557 248.248C78.0767 248.177 78.1748 248.101 78.25 248.019L78.8006 249.015C78.67 249.147 78.5188 249.258 78.347 249.349C78.1826 249.438 78.0125 249.506 77.8367 249.552C77.6609 249.598 77.4875 249.628 77.3165 249.644ZM82.182 249.217C81.3342 249.294 80.6638 249.133 80.1707 248.735C79.6851 248.336 79.4018 247.687 79.3209 246.787L79.0251 243.496L80.386 243.374L80.6738 246.575C80.7019 246.888 80.7672 247.156 80.8697 247.379C80.9797 247.601 81.1333 247.767 81.3306 247.877C81.5346 247.979 81.7817 248.016 82.0717 247.99C82.384 247.962 82.6238 247.877 82.7909 247.735C82.9648 247.584 83.0785 247.39 83.1322 247.153C83.1858 246.916 83.1993 246.648 83.1725 246.351L82.8847 243.149L84.2456 243.027L84.5414 246.318C84.6243 247.24 84.4547 247.937 84.0324 248.41C83.6168 248.875 83 249.144 82.182 249.217ZM88.3288 248.665C88.0462 248.69 87.7609 248.686 87.473 248.652C87.1925 248.617 86.9235 248.544 86.666 248.432C86.4079 248.313 86.1864 248.141 86.0014 247.918C85.8164 247.695 85.6818 247.407 85.5976 247.055L86.9697 246.932C87.0439 247.09 87.1489 247.215 87.2847 247.308C87.4272 247.393 87.5864 247.453 87.7621 247.49C87.9446 247.519 88.1214 247.525 88.2924 247.51C88.3965 247.5 88.5074 247.483 88.6251 247.457C88.7501 247.431 88.8627 247.391 88.9628 247.337C89.0704 247.282 89.1539 247.211 89.2135 247.123C89.2724 247.028 89.2955 246.91 89.2828 246.769C89.2708 246.635 89.2242 246.534 89.1432 246.466C89.0615 246.391 88.9554 246.337 88.825 246.304C88.6938 246.263 88.5377 246.236 88.3566 246.222C88.0308 246.184 87.6823 246.144 87.3112 246.102C86.9395 246.053 86.6121 245.955 86.329 245.808C86.2114 245.751 86.1077 245.682 86.0179 245.6C85.9281 245.518 85.8487 245.428 85.7799 245.329C85.7178 245.222 85.6662 245.107 85.6251 244.983C85.5914 244.859 85.5679 244.722 85.5545 244.574C85.5264 244.261 85.5659 243.992 85.6729 243.765C85.7867 243.529 85.9455 243.335 86.1491 243.182C86.3595 243.021 86.603 242.894 86.8795 242.801C87.1561 242.709 87.4431 242.65 87.7406 242.623C88.1422 242.587 88.5123 242.617 88.8509 242.714C89.1894 242.811 89.4783 242.98 89.7173 243.221C89.9638 243.461 90.1274 243.78 90.2081 244.178L88.9142 244.294C88.8603 244.111 88.7316 243.973 88.5282 243.879C88.3323 243.784 88.0893 243.75 87.7993 243.776C87.6952 243.785 87.5883 243.806 87.4788 243.838C87.3686 243.863 87.2634 243.903 87.1633 243.957C87.07 244.003 86.9935 244.069 86.934 244.157C86.8818 244.244 86.8611 244.347 86.8718 244.466C86.8818 244.578 86.9165 244.672 86.976 244.749C87.0428 244.826 87.1347 244.889 87.2516 244.938C87.3752 244.98 87.5168 245.012 87.6763 245.035C87.9339 245.064 88.2026 245.093 88.4824 245.12C88.7622 245.147 89.0049 245.178 89.2104 245.212C89.4543 245.258 89.6787 245.335 89.8834 245.444C90.0875 245.545 90.2506 245.692 90.3727 245.883C90.5017 246.067 90.5798 246.311 90.6073 246.616C90.6393 246.973 90.5917 247.277 90.4644 247.528C90.3445 247.779 90.1716 247.982 89.9456 248.137C89.7197 248.292 89.4644 248.413 89.1797 248.498C88.895 248.584 88.6114 248.639 88.3288 248.665Z" fill="#2899F4"/>
<path d="M66.331 279.861C65.2304 279.959 64.1888 279.881 63.2061 279.624C62.2383 279.366 61.4012 278.894 60.6948 278.208C60.0033 277.521 59.5229 276.597 59.2537 275.436L62.5109 275.144C62.6903 275.637 62.9724 276.024 63.3575 276.305C63.7412 276.57 64.1845 276.747 64.6873 276.837C65.205 276.926 65.7391 276.945 66.2894 276.896C66.7058 276.858 67.1102 276.769 67.5024 276.629C67.8946 276.489 68.2058 276.281 68.4359 276.005C68.6809 275.728 68.784 275.374 68.7452 274.943C68.7158 274.616 68.6174 274.355 68.4499 274.16C68.2973 273.964 68.0818 273.818 67.8034 273.723C67.5385 273.612 67.2155 273.521 66.8343 273.451C66.5139 273.389 66.18 273.344 65.8326 273.316C65.5 273.286 65.1661 273.241 64.8309 273.181C64.5105 273.12 64.1963 273.043 63.8881 272.951C63.3096 272.853 62.7506 272.723 62.2113 272.562C61.6707 272.385 61.1849 272.152 60.7539 271.861C60.3216 271.555 59.9637 271.159 59.6803 270.675C59.4117 270.19 59.2453 269.59 59.1811 268.876C59.1116 268.102 59.1792 267.437 59.3839 266.878C59.6035 266.319 59.9136 265.849 60.3142 265.468C60.7283 265.071 61.1944 264.752 61.7124 264.51C62.2453 264.267 62.7836 264.084 63.3272 263.96C63.8709 263.836 64.3881 263.752 64.8789 263.708C65.9052 263.616 66.8434 263.711 67.6935 263.995C68.5436 264.278 69.2611 264.754 69.8458 265.421C70.4306 266.088 70.8089 266.961 70.9809 268.04L67.8798 268.319C67.7802 267.878 67.5838 267.528 67.2907 267.27C66.9976 267.011 66.6368 266.834 66.2083 266.737C65.7947 266.639 65.335 266.613 64.8293 266.659C64.5021 266.688 64.185 266.747 63.878 266.834C63.571 266.922 63.2971 267.044 63.0563 267.201C62.829 267.341 62.6504 267.522 62.5204 267.743C62.4052 267.964 62.361 268.223 62.3878 268.52C62.4145 268.818 62.5197 269.07 62.7034 269.279C62.8857 269.472 63.1404 269.637 63.4674 269.772C63.808 269.892 64.2 269.999 64.6434 270.094C65.1029 270.203 65.5821 270.28 66.081 270.325C66.5798 270.37 67.059 270.447 67.5186 270.555C68.0972 270.653 68.6412 270.784 69.1508 270.948C69.659 271.098 70.113 271.312 70.5129 271.59C70.9115 271.855 71.2363 272.215 71.4873 272.672C71.737 273.115 71.8926 273.678 71.9541 274.362C72.0357 275.269 71.9341 276.058 71.6495 276.729C71.3785 277.383 70.9703 277.929 70.425 278.368C69.8946 278.805 69.273 279.146 68.5603 279.39C67.8475 279.634 67.1044 279.791 66.331 279.861ZM74.6401 278.934L73.2201 263.138L76.3435 262.857L77.7635 278.653L74.6401 278.934ZM85.6301 278.103C84.3957 278.214 83.325 278.063 82.4182 277.65C81.5115 277.236 80.7874 276.604 80.2461 275.753C79.7035 274.887 79.378 273.852 79.2697 272.647C79.1601 271.428 79.3024 270.343 79.6968 269.393C80.0899 268.428 80.6943 267.646 81.5102 267.048C82.3409 266.449 83.3512 266.096 84.5411 265.989C85.4335 265.909 86.2277 265.987 86.9237 266.224C87.6347 266.46 88.2447 266.825 88.7539 267.319C89.278 267.812 89.6837 268.405 89.971 269.099C90.2718 269.777 90.4515 270.525 90.5102 271.345C90.5289 271.553 90.5395 271.754 90.542 271.949C90.5446 272.144 90.5322 272.34 90.505 272.537L82.451 273.261C82.5358 273.703 82.699 274.101 82.9406 274.454C83.1823 274.807 83.499 275.079 83.8909 275.268C84.2964 275.442 84.7817 275.503 85.3469 275.452C85.7187 275.419 86.0574 275.351 86.3631 275.248C86.6674 275.131 86.9231 274.973 87.1301 274.775C87.3372 274.576 87.4747 274.354 87.5425 274.108L90.6213 273.831C90.5068 274.726 90.2073 275.48 89.7226 276.093C89.2529 276.705 88.6582 277.179 87.9386 277.513C87.2177 277.833 86.4482 278.03 85.6301 278.103ZM82.3214 271.069L87.4304 270.609C87.3794 270.209 87.2419 269.847 87.0178 269.522C86.8072 269.181 86.5067 268.923 86.1161 268.748C85.7391 268.557 85.268 268.487 84.7028 268.538C84.1376 268.589 83.6717 268.743 83.305 269.001C82.9533 269.258 82.6967 269.573 82.5355 269.947C82.3877 270.306 82.3164 270.679 82.3214 271.069ZM98.4628 276.949C97.2283 277.06 96.1576 276.909 95.2509 276.496C94.3441 276.083 93.6201 275.451 93.0788 274.6C92.5361 273.734 92.2106 272.699 92.1023 271.494C91.9927 270.274 92.1351 269.189 92.5294 268.239C92.9225 267.274 93.5269 266.493 94.3428 265.895C95.1735 265.295 96.1838 264.942 97.3737 264.835C98.2661 264.755 99.0603 264.833 99.7564 265.071C100.467 265.307 101.077 265.672 101.587 266.166C102.111 266.658 102.516 267.252 102.804 267.945C103.104 268.623 103.284 269.372 103.343 270.191C103.362 270.399 103.372 270.601 103.375 270.795C103.377 270.99 103.365 271.186 103.338 271.383L95.2837 272.107C95.3684 272.55 95.5316 272.947 95.7732 273.3C96.0149 273.654 96.3317 273.925 96.7236 274.115C97.129 274.288 97.6143 274.349 98.1795 274.299C98.5513 274.265 98.8901 274.197 99.1957 274.095C99.5 273.977 99.7557 273.819 99.9628 273.621C100.17 273.422 100.307 273.2 100.375 272.954L103.454 272.677C103.339 273.572 103.04 274.326 102.555 274.94C102.086 275.552 101.491 276.025 100.771 276.36C100.05 276.679 99.2808 276.876 98.4628 276.949ZM95.154 269.915L100.263 269.456C100.212 269.055 100.075 268.693 99.8504 268.368C99.6398 268.027 99.3393 267.77 98.9487 267.595C98.5717 267.404 98.1006 267.334 97.5354 267.384C96.9702 267.435 96.5043 267.59 96.1377 267.847C95.7859 268.104 95.5294 268.419 95.3681 268.794C95.2204 269.152 95.149 269.526 95.154 269.915ZM106.3 280.518L104.848 264.366L107.77 264.103L108.059 265.561C108.483 264.938 108.987 264.466 109.573 264.143C110.174 263.819 110.846 263.624 111.59 263.557C112.75 263.453 113.733 263.634 114.54 264.102C115.346 264.569 115.977 265.247 116.432 266.135C116.9 267.008 117.185 268.009 117.287 269.14C117.391 270.3 117.284 271.359 116.965 272.317C116.66 273.259 116.137 274.034 115.397 274.64C114.656 275.231 113.697 275.58 112.522 275.685C112.017 275.731 111.535 275.714 111.079 275.635C110.622 275.556 110.213 275.436 109.854 275.273C109.493 275.096 109.182 274.891 108.922 274.66L109.423 280.237L106.3 280.518ZM111.734 272.923C112.433 272.86 112.97 272.654 113.343 272.306C113.717 271.957 113.964 271.538 114.085 271.047C114.204 270.541 114.24 270.028 114.194 269.508C114.143 268.943 114.005 268.415 113.781 267.926C113.558 267.436 113.224 267.061 112.781 266.801C112.351 266.525 111.787 266.418 111.088 266.481C110.463 266.537 109.949 266.741 109.546 267.092C109.141 267.428 108.849 267.852 108.67 268.363C108.492 268.873 108.427 269.411 108.478 269.977C108.529 270.542 108.681 271.06 108.933 271.533C109.2 272.003 109.563 272.368 110.021 272.627C110.494 272.884 111.065 272.983 111.734 272.923Z" fill="#2899F4"/>
</g>
<g filter="url(#filter5_d_17861_52836)">
<rect x="236" y="299.475" width="115.2" height="63" rx="15.2" transform="rotate(-6.71694 236 299.475)" fill="#44280D" shape-rendering="crispEdges"/>
<rect x="236.444" y="299.825" width="114.4" height="62.2" rx="14.8" transform="rotate(-6.71694 236.444 299.825)" stroke="#25282D" stroke-width="0.8" shape-rendering="crispEdges"/>
<path d="M248.928 317.084L248.151 310.488L245.693 310.777L245.543 309.509L251.839 308.768L251.988 310.036L249.53 310.325L250.307 316.921L248.928 317.084ZM255.612 316.375C255.004 316.447 254.47 316.382 254.011 316.181C253.558 315.978 253.195 315.668 252.92 315.249C252.651 314.822 252.482 314.312 252.412 313.719C252.343 313.125 252.392 312.59 252.561 312.111C252.737 311.624 253.021 311.226 253.413 310.917C253.813 310.607 254.313 310.416 254.913 310.345C255.358 310.293 255.757 310.329 256.11 310.453C256.462 310.569 256.766 310.751 257.02 310.999C257.283 311.247 257.49 311.538 257.642 311.874C257.794 312.209 257.889 312.57 257.927 312.956C257.931 313.046 257.934 313.136 257.937 313.226C257.939 313.308 257.938 313.399 257.935 313.497L253.819 313.982C253.872 314.238 253.967 314.468 254.103 314.67C254.247 314.871 254.43 315.022 254.653 315.124C254.883 315.225 255.157 315.256 255.476 315.219C255.661 315.197 255.837 315.154 256.002 315.089C256.167 315.017 256.306 314.925 256.421 314.814C256.543 314.702 256.618 314.569 256.645 314.416L258.002 314.256C257.955 314.69 257.818 315.056 257.59 315.353C257.361 315.651 257.073 315.884 256.725 316.053C256.383 316.221 256.013 316.328 255.612 316.375ZM253.722 312.967L256.548 312.634C256.519 312.389 256.437 312.173 256.302 311.986C256.167 311.799 255.989 311.662 255.769 311.575C255.555 311.48 255.303 311.45 255.014 311.484C254.702 311.521 254.45 311.614 254.257 311.765C254.065 311.915 253.924 312.097 253.837 312.31C253.749 312.524 253.711 312.743 253.722 312.967ZM259.365 315.855L258.675 309.993L259.921 309.846L260.088 310.503C260.213 310.285 260.354 310.114 260.513 309.99C260.678 309.858 260.85 309.759 261.03 309.693C261.218 309.625 261.397 309.582 261.567 309.562C261.938 309.518 262.262 309.555 262.539 309.673C262.824 309.79 263.057 309.988 263.241 310.267C263.364 310.042 263.512 309.855 263.682 309.707C263.852 309.552 264.037 309.433 264.238 309.349C264.437 309.258 264.652 309.198 264.882 309.171C265.334 309.118 265.709 309.172 266.006 309.332C266.302 309.485 266.533 309.721 266.699 310.04C266.863 310.352 266.97 310.719 267.02 311.141L267.463 314.901L266.106 315.061L265.714 311.735C265.697 311.587 265.671 311.432 265.637 311.27C265.603 311.109 265.544 310.962 265.461 310.829C265.385 310.695 265.282 310.59 265.153 310.515C265.024 310.44 264.852 310.415 264.637 310.441C264.422 310.466 264.25 310.535 264.12 310.648C263.997 310.753 263.9 310.888 263.83 311.055C263.766 311.213 263.726 311.386 263.711 311.576C263.702 311.758 263.708 311.937 263.729 312.115L264.104 315.296L262.747 315.456L262.354 312.119C262.337 311.978 262.308 311.831 262.268 311.678C262.234 311.517 262.179 311.369 262.103 311.235C262.034 311.093 261.931 310.985 261.794 310.911C261.665 310.836 261.493 310.811 261.278 310.836C260.966 310.873 260.739 310.986 260.596 311.176C260.46 311.365 260.377 311.585 260.347 311.837C260.324 312.088 260.325 312.324 260.351 312.547L260.722 315.695L259.365 315.855ZM268.972 316.911L268.027 308.891L269.295 308.742L269.455 309.524C269.649 309.193 269.897 308.938 270.2 308.759C270.502 308.581 270.846 308.469 271.231 308.424C271.81 308.355 272.304 308.433 272.714 308.655C273.123 308.877 273.447 309.204 273.686 309.634C273.925 310.065 274.078 310.566 274.145 311.137C274.212 311.708 274.176 312.234 274.038 312.717C273.898 313.192 273.648 313.586 273.286 313.899C272.931 314.204 272.461 314.391 271.875 314.46C271.6 314.493 271.345 314.493 271.108 314.46C270.878 314.427 270.668 314.365 270.477 314.275C270.293 314.184 270.134 314.075 269.999 313.948L270.329 316.751L268.972 316.911ZM271.519 313.262C271.897 313.217 272.184 313.1 272.38 312.912C272.575 312.716 272.705 312.479 272.77 312.201C272.834 311.915 272.848 311.62 272.813 311.316C272.775 310.997 272.688 310.707 272.552 310.445C272.423 310.182 272.238 309.978 271.995 309.834C271.753 309.689 271.446 309.639 271.075 309.683C270.734 309.723 270.455 309.842 270.238 310.041C270.027 310.231 269.879 310.47 269.792 310.758C269.706 311.047 269.682 311.35 269.719 311.669C269.758 311.995 269.849 312.289 269.992 312.55C270.135 312.804 270.334 312.999 270.591 313.134C270.846 313.262 271.156 313.304 271.519 313.262ZM278.217 313.713C277.609 313.785 277.075 313.72 276.615 313.518C276.163 313.316 275.799 313.006 275.524 312.587C275.256 312.16 275.087 311.65 275.017 311.056C274.947 310.463 274.997 309.927 275.166 309.449C275.342 308.962 275.626 308.564 276.018 308.255C276.417 307.944 276.917 307.754 277.518 307.683C277.963 307.631 278.362 307.667 278.715 307.79C279.067 307.907 279.37 308.089 279.625 308.337C279.887 308.585 280.095 308.876 280.247 309.211C280.399 309.547 280.494 309.908 280.532 310.294C280.535 310.384 280.538 310.474 280.541 310.564C280.544 310.646 280.543 310.736 280.539 310.835L276.424 311.319C276.477 311.576 276.571 311.806 276.708 312.008C276.852 312.209 277.035 312.36 277.258 312.462C277.488 312.562 277.762 312.594 278.081 312.556C278.266 312.535 278.442 312.491 278.607 312.427C278.771 312.355 278.911 312.263 279.026 312.152C279.148 312.04 279.222 311.907 279.249 311.753L280.606 311.594C280.56 312.028 280.422 312.393 280.194 312.691C279.966 312.988 279.678 313.222 279.329 313.391C278.988 313.559 278.617 313.666 278.217 313.713ZM276.327 310.305L279.152 309.972C279.123 309.727 279.042 309.511 278.907 309.324C278.772 309.137 278.594 309 278.373 308.913C278.159 308.818 277.908 308.788 277.618 308.822C277.307 308.858 277.055 308.952 276.862 309.102C276.669 309.253 276.529 309.435 276.441 309.648C276.354 309.862 276.316 310.08 276.327 310.305ZM281.97 313.192L281.28 307.33L282.514 307.185L282.682 307.943C282.805 307.703 282.951 307.513 283.123 307.373C283.301 307.224 283.494 307.111 283.703 307.034C283.919 306.956 284.139 306.903 284.361 306.877C284.443 306.868 284.517 306.859 284.584 306.851C284.658 306.842 284.718 306.839 284.763 306.841L284.915 308.132L284.559 308.173C284.173 308.219 283.856 308.331 283.606 308.511C283.357 308.691 283.182 308.926 283.08 309.216C282.979 309.506 282.952 309.851 282.999 310.252L283.327 313.032L281.97 313.192ZM288.138 312.545C287.864 312.577 287.6 312.571 287.347 312.525C287.093 312.48 286.862 312.398 286.652 312.28C286.442 312.154 286.265 311.991 286.121 311.79C285.984 311.581 285.897 311.328 285.863 311.031C285.818 310.653 285.856 310.336 285.976 310.082C286.096 309.819 286.274 309.61 286.511 309.455C286.756 309.298 287.039 309.178 287.36 309.095C287.68 309.005 288.018 308.939 288.374 308.897L289.52 308.762C289.489 308.502 289.422 308.285 289.319 308.109C289.215 307.926 289.067 307.789 288.876 307.699C288.692 307.608 288.463 307.578 288.189 307.611C288.011 307.632 287.847 307.673 287.696 307.736C287.552 307.791 287.43 307.869 287.329 307.971C287.235 308.065 287.173 308.181 287.145 308.32L285.754 308.484C285.77 308.174 285.844 307.902 285.974 307.668C286.111 307.427 286.286 307.222 286.499 307.054C286.72 306.885 286.967 306.751 287.241 306.651C287.514 306.544 287.795 306.473 288.085 306.439C288.937 306.338 289.585 306.51 290.029 306.954C290.479 307.397 290.757 308.06 290.861 308.942L291.233 312.101L290.031 312.243L289.909 311.49C289.768 311.763 289.586 311.972 289.363 312.119C289.139 312.265 288.918 312.366 288.699 312.422C288.481 312.486 288.294 312.526 288.138 312.545ZM288.276 311.412C288.572 311.377 288.829 311.291 289.046 311.152C289.263 311.014 289.426 310.837 289.536 310.621C289.653 310.404 289.696 310.166 289.666 309.906L289.644 309.717L288.576 309.843C288.398 309.864 288.221 309.892 288.045 309.928C287.875 309.956 287.723 310.004 287.588 310.072C287.452 310.133 287.346 310.217 287.268 310.324C287.198 310.43 287.173 310.572 287.194 310.75C287.215 310.928 287.276 311.067 287.379 311.168C287.488 311.268 287.62 311.339 287.776 311.381C287.938 311.422 288.105 311.432 288.276 311.412ZM294.872 311.74C294.227 311.816 293.735 311.694 293.396 311.373C293.058 311.052 292.851 310.576 292.777 309.946L292.458 307.232L291.557 307.338L291.415 306.137L292.316 306.031L292.122 304.384L293.479 304.225L293.673 305.871L295.453 305.661L295.594 306.863L293.815 307.072L294.104 309.53C294.127 309.723 294.17 309.895 294.232 310.045C294.295 310.196 294.391 310.308 294.52 310.383C294.649 310.458 294.818 310.487 295.027 310.47C295.205 310.449 295.353 310.402 295.472 310.328C295.591 310.254 295.687 310.175 295.76 310.091L296.338 311.072C296.211 311.207 296.063 311.322 295.894 311.417C295.732 311.511 295.564 311.584 295.389 311.634C295.215 311.685 295.042 311.72 294.872 311.74ZM299.724 311.18C298.878 311.28 298.204 311.138 297.7 310.753C297.204 310.368 296.902 309.727 296.797 308.83L296.41 305.548L297.767 305.389L298.143 308.581C298.18 308.892 298.253 309.158 298.361 309.379C298.477 309.598 298.636 309.76 298.836 309.864C299.043 309.96 299.291 309.991 299.58 309.957C299.891 309.92 300.128 309.828 300.292 309.681C300.461 309.526 300.57 309.329 300.617 309.09C300.664 308.852 300.67 308.584 300.635 308.288L300.259 305.095L301.616 304.935L302.002 308.217C302.111 309.136 301.96 309.838 301.551 310.322C301.149 310.798 300.54 311.084 299.724 311.18ZM303.597 310.645L302.907 304.783L304.141 304.638L304.31 305.396C304.432 305.156 304.578 304.966 304.75 304.826C304.928 304.677 305.121 304.564 305.33 304.487C305.546 304.409 305.766 304.356 305.988 304.33C306.07 304.321 306.144 304.312 306.211 304.304C306.285 304.295 306.345 304.292 306.39 304.294L306.542 305.584L306.186 305.626C305.801 305.672 305.483 305.784 305.233 305.964C304.984 306.144 304.809 306.379 304.708 306.669C304.606 306.959 304.579 307.304 304.627 307.705L304.954 310.485L303.597 310.645ZM310.413 309.921C309.805 309.993 309.271 309.928 308.811 309.727C308.359 309.524 307.995 309.214 307.721 308.795C307.452 308.368 307.283 307.858 307.213 307.265C307.143 306.671 307.193 306.136 307.362 305.657C307.538 305.17 307.822 304.772 308.214 304.463C308.614 304.153 309.114 303.962 309.714 303.891C310.159 303.839 310.558 303.875 310.911 303.999C311.263 304.115 311.567 304.297 311.821 304.545C312.083 304.793 312.291 305.084 312.443 305.419C312.595 305.755 312.69 306.116 312.728 306.502C312.731 306.592 312.735 306.682 312.738 306.772C312.74 306.854 312.739 306.945 312.736 307.043L308.62 307.528C308.673 307.784 308.768 308.014 308.904 308.216C309.048 308.417 309.231 308.568 309.454 308.67C309.684 308.771 309.958 308.802 310.277 308.765C310.462 308.743 310.638 308.7 310.803 308.635C310.967 308.563 311.107 308.471 311.222 308.36C311.344 308.248 311.418 308.115 311.446 307.962L312.803 307.802C312.756 308.236 312.619 308.602 312.39 308.899C312.162 309.197 311.874 309.43 311.526 309.599C311.184 309.767 310.814 309.874 310.413 309.921ZM308.523 306.513L311.348 306.18C311.32 305.935 311.238 305.719 311.103 305.532C310.968 305.345 310.79 305.208 310.57 305.121C310.355 305.026 310.104 304.996 309.815 305.03C309.503 305.067 309.251 305.16 309.058 305.311C308.865 305.461 308.725 305.643 308.638 305.856C308.55 306.07 308.512 306.288 308.523 306.513Z" fill="#EF7F16"/>
<path d="M251.124 346.025L255.623 332.526L248.104 333.412L247.756 330.453L258.901 329.14L259.182 331.521L254.661 345.609L251.124 346.025ZM267.934 344.226C267.193 344.313 266.464 344.316 265.747 344.235C265.029 344.139 264.359 343.94 263.737 343.637C263.128 343.318 262.617 342.867 262.202 342.284C261.802 341.7 261.551 340.97 261.448 340.095C261.38 339.517 261.4 338.988 261.509 338.509C261.631 338.014 261.835 337.569 262.119 337.174C262.416 336.763 262.789 336.419 263.238 336.14C262.808 335.935 262.446 335.677 262.154 335.366C261.86 335.04 261.629 334.676 261.462 334.274C261.294 333.873 261.185 333.458 261.134 333.027C261.042 332.241 261.12 331.563 261.368 330.992C261.615 330.407 261.979 329.921 262.46 329.533C262.939 329.131 263.496 328.817 264.131 328.592C264.764 328.352 265.414 328.193 266.082 328.114C266.764 328.034 267.434 328.038 268.09 328.126C268.746 328.199 269.354 328.383 269.915 328.678C270.474 328.958 270.943 329.361 271.32 329.888C271.696 330.4 271.931 331.049 272.023 331.835C272.07 332.236 272.052 332.651 271.967 333.082C271.896 333.497 271.747 333.89 271.52 334.263C271.308 334.634 271.016 334.961 270.643 335.246C271.142 335.397 271.583 335.631 271.966 335.947C272.349 336.263 272.659 336.655 272.894 337.123C273.13 337.592 273.283 338.13 273.355 338.738C273.458 339.613 273.375 340.375 273.105 341.023C272.836 341.671 272.435 342.222 271.902 342.676C271.367 343.115 270.754 343.465 270.063 343.727C269.385 343.972 268.676 344.138 267.934 344.226ZM267.618 341.353C267.945 341.315 268.267 341.239 268.584 341.127C268.902 341.014 269.184 340.861 269.432 340.666C269.678 340.457 269.86 340.217 269.979 339.948C270.111 339.661 270.154 339.326 270.108 338.94C270.053 338.465 269.888 338.094 269.616 337.825C269.342 337.542 268.989 337.35 268.556 337.251C268.137 337.135 267.66 337.108 267.126 337.171C266.607 337.232 266.142 337.37 265.731 337.583C265.333 337.781 265.034 338.049 264.833 338.388C264.631 338.713 264.558 339.113 264.614 339.587C264.659 339.973 264.779 340.289 264.974 340.537C265.166 340.77 265.399 340.961 265.672 341.109C265.959 341.241 266.269 341.324 266.604 341.36C266.939 341.396 267.277 341.394 267.618 341.353ZM266.862 334.744C267.337 334.688 267.729 334.566 268.038 334.38C268.359 334.176 268.593 333.923 268.738 333.621C268.895 333.301 268.953 332.964 268.912 332.608C268.859 332.163 268.72 331.811 268.494 331.552C268.266 331.278 267.966 331.088 267.592 330.981C267.232 330.858 266.814 330.825 266.34 330.881C265.88 330.935 265.489 331.064 265.167 331.267C264.859 331.454 264.624 331.699 264.465 332.004C264.32 332.306 264.271 332.658 264.318 333.058C264.365 333.459 264.503 333.796 264.731 334.07C264.958 334.344 265.252 334.542 265.613 334.665C265.986 334.772 266.403 334.798 266.862 334.744ZM284.448 331.387C283.811 331.462 283.21 331.405 282.646 331.216C282.098 331.025 281.639 330.703 281.27 330.25C280.901 329.797 280.674 329.215 280.59 328.503C280.505 327.776 280.595 327.142 280.862 326.599C281.127 326.042 281.51 325.59 282.011 325.246C282.51 324.886 283.071 324.67 283.694 324.596C284.317 324.523 284.904 324.597 285.457 324.817C286.024 325.036 286.494 325.387 286.866 325.869C287.237 326.337 287.465 326.934 287.551 327.661C287.635 328.373 287.542 328.993 287.274 329.52C287.02 330.046 286.642 330.474 286.139 330.804C285.65 331.118 285.086 331.312 284.448 331.387ZM284.249 329.313C284.62 329.269 284.911 329.122 285.122 328.872C285.346 328.605 285.435 328.271 285.388 327.87C285.34 327.47 285.177 327.166 284.897 326.958C284.632 326.749 284.314 326.666 283.943 326.71C283.572 326.754 283.274 326.909 283.05 327.176C282.826 327.443 282.738 327.777 282.785 328.177C282.832 328.577 282.996 328.881 283.276 329.089C283.554 329.282 283.879 329.356 284.249 329.313ZM298.644 340.609C297.027 340.799 295.61 340.636 294.391 340.117C293.185 339.583 292.215 338.75 291.48 337.618C290.76 336.485 290.306 335.118 290.117 333.516C289.925 331.885 290.054 330.426 290.504 329.14C290.969 327.852 291.726 326.808 292.774 326.008C293.821 325.193 295.138 324.692 296.725 324.505C297.926 324.364 299.026 324.445 300.024 324.748C301.02 325.037 301.855 325.548 302.528 326.28C303.213 326.997 303.699 327.924 303.983 329.064L300.913 329.425C300.635 328.721 300.174 328.196 299.532 327.851C298.903 327.489 298.107 327.365 297.143 327.478C296.075 327.604 295.251 327.949 294.671 328.514C294.104 329.062 293.725 329.738 293.534 330.542C293.341 331.332 293.295 332.149 293.394 332.995C293.497 333.87 293.743 334.683 294.133 335.434C294.522 336.185 295.064 336.768 295.759 337.182C296.47 337.595 297.351 337.739 298.404 337.615C299.027 337.542 299.573 337.387 300.041 337.151C300.508 336.901 300.876 336.579 301.146 336.187C301.43 335.792 301.603 335.344 301.664 334.84L304.845 334.466C304.846 335.623 304.575 336.64 304.031 337.516C303.488 338.392 302.751 339.095 301.821 339.626C300.89 340.142 299.83 340.469 298.644 340.609Z" fill="#EF7F16"/>
</g>
</g>
<defs>
<filter id="filter0_b_17861_52836" x="-4" y="-4" width="358" height="358" filterUnits="userSpaceOnUse" color-interpolation-filters="sRGB">
<feFlood flood-opacity="0" result="BackgroundImageFix"/>
<feGaussianBlur in="BackgroundImageFix" stdDeviation="2"/>
<feComposite in2="SourceAlpha" operator="in" result="effect1_backgroundBlur_17861_52836"/>
<feBlend mode="normal" in="SourceGraphic" in2="effect1_backgroundBlur_17861_52836" result="shape"/>
</filter>
<filter id="filter1_f_17861_52836" x="-634.572" y="-28.3906" width="1279.34" height="1064.19" filterUnits="userSpaceOnUse" color-interpolation-filters="sRGB">
<feFlood flood-opacity="0" result="BackgroundImageFix"/>
<feBlend mode="normal" in="SourceGraphic" in2="BackgroundImageFix" result="shape"/>
<feGaussianBlur stdDeviation="140" result="effect1_foregroundBlur_17861_52836"/>
</filter>
<filter id="filter2_d_17861_52836" x="-29.8" y="263" width="164.27" height="120.041" filterUnits="userSpaceOnUse" color-interpolation-filters="sRGB">
<feFlood flood-opacity="0" result="BackgroundImageFix"/>
<feColorMatrix in="SourceAlpha" type="matrix" values="0 0 0 0 0 0 0 0 0 0 0 0 0 0 0 0 0 0 127 0" result="hardAlpha"/>
<feOffset dy="0.8"/>
<feGaussianBlur stdDeviation="10.4"/>
<feComposite in2="hardAlpha" operator="out"/>
<feColorMatrix type="matrix" values="0 0 0 0 0 0 0 0 0 0 0 0 0 0 0 0 0 0 0.25 0"/>
<feBlend mode="normal" in2="BackgroundImageFix" result="effect1_dropShadow_17861_52836"/>
<feBlend mode="normal" in="SourceGraphic" in2="effect1_dropShadow_17861_52836" result="shape"/>
</filter>
<filter id="filter3_d_17861_52836" x="164.2" y="200" width="165.428" height="122.296" filterUnits="userSpaceOnUse" color-interpolation-filters="sRGB">
<feFlood flood-opacity="0" result="BackgroundImageFix"/>
<feColorMatrix in="SourceAlpha" type="matrix" values="0 0 0 0 0 0 0 0 0 0 0 0 0 0 0 0 0 0 127 0" result="hardAlpha"/>
<feOffset dy="0.8"/>
<feGaussianBlur stdDeviation="10.4"/>
<feComposite in2="hardAlpha" operator="out"/>
<feColorMatrix type="matrix" values="0 0 0 0 0 0 0 0 0 0 0 0 0 0 0 0 0 0 0.25 0"/>
<feBlend mode="normal" in2="BackgroundImageFix" result="effect1_dropShadow_17861_52836"/>
<feBlend mode="normal" in="SourceGraphic" in2="effect1_dropShadow_17861_52836" result="shape"/>
</filter>
<filter id="filter4_d_17861_52836" x="25.2" y="203" width="161.996" height="114.861" filterUnits="userSpaceOnUse" color-interpolation-filters="sRGB">
<feFlood flood-opacity="0" result="BackgroundImageFix"/>
<feColorMatrix in="SourceAlpha" type="matrix" values="0 0 0 0 0 0 0 0 0 0 0 0 0 0 0 0 0 0 127 0" result="hardAlpha"/>
<feOffset dy="0.8"/>
<feGaussianBlur stdDeviation="10.4"/>
<feComposite in2="hardAlpha" operator="out"/>
<feColorMatrix type="matrix" values="0 0 0 0 0 0 0 0 0 0 0 0 0 0 0 0 0 0 0.25 0"/>
<feBlend mode="normal" in2="BackgroundImageFix" result="effect1_dropShadow_17861_52836"/>
<feBlend mode="normal" in="SourceGraphic" in2="effect1_dropShadow_17861_52836" result="shape"/>
</filter>
<filter id="filter5_d_17861_52836" x="215.2" y="266" width="163.377" height="117.642" filterUnits="userSpaceOnUse" color-interpolation-filters="sRGB">
<feFlood flood-opacity="0" result="BackgroundImageFix"/>
<feColorMatrix in="SourceAlpha" type="matrix" values="0 0 0 0 0 0 0 0 0 0 0 0 0 0 0 0 0 0 127 0" result="hardAlpha"/>
<feOffset dy="0.8"/>
<feGaussianBlur stdDeviation="10.4"/>
<feComposite in2="hardAlpha" operator="out"/>
<feColorMatrix type="matrix" values="0 0 0 0 0 0 0 0 0 0 0 0 0 0 0 0 0 0 0.25 0"/>
<feBlend mode="normal" in2="BackgroundImageFix" result="effect1_dropShadow_17861_52836"/>
<feBlend mode="normal" in="SourceGraphic" in2="effect1_dropShadow_17861_52836" result="shape"/>
</filter>
<clipPath id="clip0_17861_52836">
<rect width="350" height="350" fill="white"/>
</clipPath>
</defs>
</svg>
