<svg width="504" height="450" viewBox="0 0 504 450" fill="none" xmlns="http://www.w3.org/2000/svg">
<g clip-path="url(#clip0_17829_60084)" filter="url(#filter0_b_17829_60084)">
<g filter="url(#filter1_f_17829_60084)">
<ellipse cx="5.09764" cy="503.705" rx="236.761" ry="369.837" transform="rotate(-107.708 5.09764 503.705)" fill="#00FFCD" fill-opacity="0.4"/>
</g>
<g filter="url(#filter2_d_17829_60084)">
<rect x="-8.96875" y="339" width="144" height="79" rx="19" transform="rotate(8.02719 -8.96875 339)" fill="#1A3307" shape-rendering="crispEdges"/>
<rect x="-8.54347" y="339.565" width="143" height="78" rx="18.5" transform="rotate(8.02719 -8.54347 339.565)" stroke="#25282D" shape-rendering="crispEdges"/>
<path d="M-1.18832 364.335L0.193869 354.534L1.92672 354.778L1.33631 358.965L5.91105 359.61L6.50146 355.424L8.22045 355.666L6.83826 365.467L5.11927 365.225L5.68817 361.19L1.11344 360.545L0.544536 364.579L-1.18832 364.335ZM11.0708 366.163C10.7289 366.115 10.4119 366.023 10.12 365.887C9.82803 365.752 9.57429 365.58 9.35876 365.37C9.14454 365.151 8.98239 364.898 8.87232 364.609C8.77279 364.312 8.74909 363.979 8.80123 363.609C8.8677 363.138 9.0142 362.767 9.24075 362.497C9.4686 362.218 9.75071 362.023 10.0871 361.91C10.4327 361.798 10.8128 361.744 11.2272 361.745C11.643 361.738 12.0727 361.766 12.5163 361.828L13.9442 362.03C13.9898 361.706 13.978 361.422 13.909 361.176C13.8412 360.922 13.7062 360.709 13.5039 360.54C13.3109 360.371 13.0434 360.263 12.7015 360.214C12.4797 360.183 12.2678 360.181 12.0659 360.209C11.8746 360.23 11.7018 360.285 11.5475 360.377C11.4038 360.46 11.2924 360.581 11.2135 360.74L9.48068 360.495C9.59881 360.125 9.77381 359.82 10.0057 359.58C10.2481 359.331 10.525 359.139 10.8362 359.004C11.1567 358.87 11.4984 358.786 11.8614 358.753C12.2256 358.71 12.5879 358.714 12.9483 358.765C14.0112 358.914 14.7398 359.328 15.1344 360.006C15.5382 360.685 15.6626 361.574 15.5075 362.674L14.9522 366.611L13.4551 366.4L13.5464 365.452C13.2895 365.736 13.0028 365.931 12.6862 366.037C12.3696 366.143 12.0701 366.195 11.7876 366.193C11.5038 366.2 11.2649 366.19 11.0708 366.163ZM11.5971 364.837C11.9668 364.89 12.3046 364.866 12.6107 364.768C12.9167 364.67 13.1705 364.508 13.3721 364.282C13.5828 364.057 13.711 363.783 13.7567 363.459L13.7899 363.224L12.4591 363.036C12.2373 363.005 12.0141 362.983 11.7897 362.97C11.5759 362.949 11.3766 362.959 11.1919 362.999C11.0084 363.029 10.8528 363.097 10.725 363.202C10.6064 363.307 10.5314 363.471 10.5001 363.693C10.4689 363.915 10.4989 364.103 10.5902 364.257C10.6908 364.413 10.8283 364.54 11.0028 364.64C11.1864 364.742 11.3845 364.807 11.5971 364.837ZM19.3535 367.331C19.0023 367.281 18.6564 367.195 18.3156 367.071C17.9841 366.949 17.6776 366.784 17.396 366.574C17.1158 366.356 16.8949 366.084 16.7333 365.76C16.5717 365.435 16.4898 365.047 16.4877 364.594L18.1928 364.834C18.2381 365.048 18.3301 365.231 18.469 365.382C18.6184 365.526 18.7948 365.645 18.9983 365.74C19.2122 365.826 19.4255 365.885 19.6381 365.915C19.7675 365.933 19.9074 365.943 20.0579 365.946C20.2176 365.949 20.3661 365.933 20.5033 365.895C20.6497 365.86 20.7717 365.797 20.8692 365.707C20.968 365.608 21.0298 365.47 21.0546 365.295C21.078 365.128 21.0501 364.992 20.9707 364.887C20.8926 364.772 20.7789 364.676 20.6296 364.598C20.4816 364.512 20.2993 364.434 20.0828 364.366C19.6971 364.226 19.2843 364.079 18.8445 363.922C18.406 363.757 18.0354 363.544 17.7326 363.285C17.6058 363.182 17.4993 363.068 17.4133 362.943C17.3273 362.818 17.2564 362.685 17.2007 362.545C17.1556 362.398 17.1256 362.243 17.1108 362.08C17.1052 361.919 17.1155 361.746 17.1415 361.562C17.1963 361.173 17.3211 360.856 17.516 360.61C17.7215 360.357 17.9699 360.166 18.2614 360.037C18.5634 359.9 18.8959 359.815 19.2588 359.782C19.6217 359.748 19.988 359.757 20.3577 359.809C20.8568 359.88 21.2985 360.022 21.683 360.237C22.0675 360.451 22.3709 360.739 22.5933 361.1C22.825 361.463 22.9333 361.898 22.9184 362.404L21.3103 362.178C21.2967 361.94 21.1795 361.735 20.9588 361.563C20.7473 361.391 20.4613 361.28 20.1009 361.23C19.9715 361.211 19.8355 361.206 19.693 361.214C19.5518 361.213 19.4125 361.231 19.2753 361.269C19.1487 361.298 19.0366 361.357 18.9391 361.447C18.8508 361.539 18.7962 361.658 18.7754 361.806C18.7558 361.945 18.7712 362.069 18.8216 362.18C18.8812 362.292 18.9751 362.395 19.1033 362.489C19.242 362.574 19.4052 362.654 19.5928 362.727C19.8979 362.836 20.2168 362.947 20.5496 363.06C20.8825 363.173 21.1691 363.279 21.4095 363.379C21.6935 363.504 21.9446 363.662 22.1627 363.853C22.3821 364.035 22.539 364.26 22.6332 364.527C22.7379 364.787 22.7636 365.107 22.7101 365.486C22.6476 365.929 22.503 366.286 22.2765 366.556C22.0592 366.826 21.7909 367.024 21.4717 367.149C21.1525 367.274 20.8075 367.347 20.4366 367.371C20.0658 367.394 19.7047 367.38 19.3535 367.331ZM23.6473 367.837L25.0294 358.036L26.7207 358.275L26.2359 361.713C26.4651 361.491 26.7202 361.319 27.0012 361.199C27.2821 361.078 27.5704 361.006 27.866 360.981C28.1629 360.948 28.4408 360.949 28.6995 360.986C29.3927 361.084 29.9165 361.313 30.2708 361.674C30.6252 362.035 30.8451 362.481 30.9306 363.011C31.0252 363.543 31.0276 364.128 30.9377 364.765L30.3707 368.786L28.6795 368.547L29.2054 364.818C29.2406 364.569 29.2579 364.312 29.2574 364.048C29.257 363.784 29.2156 363.542 29.1334 363.323C29.0617 363.096 28.9287 362.903 28.7344 362.744C28.5493 362.586 28.2858 362.483 27.9438 362.435C27.6204 362.389 27.3333 362.419 27.0827 362.525C26.8335 362.622 26.6232 362.776 26.452 362.988C26.29 363.2 26.1571 363.441 26.0533 363.709C25.9496 363.977 25.8781 364.25 25.839 364.527L25.3385 368.076L23.6473 367.837ZM36.0951 369.593L37.4773 359.792L41.345 360.337C41.8441 360.408 42.3082 360.525 42.7375 360.689C43.1681 360.844 43.5374 361.066 43.8455 361.355C44.1548 361.634 44.3779 361.99 44.5146 362.424C44.6514 362.858 44.6774 363.376 44.5927 363.977C44.5223 364.476 44.3726 364.902 44.1435 365.256C43.9145 365.611 43.6246 365.895 43.2739 366.109C42.9324 366.325 42.5394 366.472 42.0947 366.551L43.7058 370.666L41.765 370.393L40.3366 366.586L38.3265 366.302L37.828 369.837L36.0951 369.593ZM38.5435 364.764L40.4427 365.031C40.7569 365.076 41.0467 365.093 41.312 365.083C41.5878 365.066 41.8312 365.01 42.0423 364.918C42.2625 364.826 42.4378 364.686 42.5682 364.497C42.709 364.3 42.8069 364.04 42.8618 363.718C42.9165 363.33 42.8763 363.013 42.7413 362.768C42.6154 362.524 42.4065 362.335 42.1146 362.199C41.8319 362.065 41.4826 361.969 41.0667 361.91L38.9873 361.617L38.5435 364.764ZM47.4066 371.287C47.0646 371.239 46.7477 371.147 46.4557 371.012C46.1638 370.876 45.9101 370.704 45.6945 370.494C45.4803 370.276 45.3182 370.022 45.2081 369.733C45.1086 369.436 45.0849 369.103 45.137 368.733C45.2035 368.262 45.35 367.891 45.5765 367.622C45.8044 367.343 46.0865 367.147 46.4229 367.034C46.7685 366.923 47.1485 366.868 47.563 366.87C47.9788 366.862 48.4084 366.89 48.8521 366.952L50.2799 367.154C50.3255 366.83 50.3138 366.546 50.2447 366.301C50.177 366.046 50.0419 365.834 49.8397 365.664C49.6467 365.495 49.3792 365.387 49.0372 365.339C48.8154 365.307 48.6036 365.306 48.4017 365.334C48.2103 365.354 48.0375 365.41 47.8833 365.501C47.7395 365.584 47.6282 365.705 47.5493 365.864L45.8164 365.62C45.9346 365.25 46.1096 364.945 46.3415 364.704C46.5839 364.455 46.8607 364.263 47.172 364.128C47.4925 363.994 47.8342 363.911 48.1971 363.877C48.5613 363.834 48.9237 363.838 49.2841 363.889C50.3469 364.039 51.0756 364.452 51.4702 365.13C51.874 365.809 51.9983 366.699 51.8432 367.798L51.288 371.736L49.7908 371.524L49.8822 370.576C49.6253 370.86 49.3386 371.055 49.022 371.161C48.7054 371.268 48.4058 371.32 48.1234 371.318C47.8396 371.325 47.6007 371.314 47.4066 371.287ZM47.9328 369.962C48.3025 370.014 48.6404 369.991 48.9464 369.892C49.2525 369.794 49.5063 369.632 49.7078 369.406C49.9186 369.181 50.0468 368.907 50.0924 368.584L50.1257 368.348L48.7948 368.16C48.573 368.129 48.3499 368.107 48.1255 368.094C47.9116 368.073 47.7123 368.083 47.5276 368.123C47.3442 368.154 47.1886 368.221 47.0607 368.326C46.9421 368.432 46.8672 368.595 46.8359 368.817C46.8046 369.039 46.8347 369.227 46.926 369.381C47.0266 369.537 47.1641 369.665 47.3385 369.765C47.5222 369.866 47.7203 369.932 47.9328 369.962ZM55.8022 372.457C54.9981 372.344 54.4425 372.039 54.1354 371.543C53.8283 371.048 53.7301 370.407 53.8409 369.621L54.3179 366.239L53.1951 366.08L53.4062 364.583L54.5291 364.742L54.8184 362.69L56.5097 362.928L56.2204 364.98L58.4384 365.293L58.2273 366.79L56.0092 366.477L55.5772 369.541C55.5433 369.781 55.5404 370.002 55.5684 370.204C55.5965 370.406 55.6767 370.573 55.8089 370.705C55.9411 370.836 56.136 370.925 56.3935 370.971C56.6153 371.002 56.8099 370.992 56.9775 370.94C57.145 370.888 57.2861 370.824 57.4008 370.745L57.7874 372.115C57.5909 372.238 57.3753 372.33 57.1405 372.391C56.9149 372.454 56.6886 372.488 56.4615 372.493C56.2345 372.499 56.0147 372.487 55.8022 372.457ZM61.8872 373.329C61.1293 373.222 60.5046 372.974 60.0129 372.584C59.5304 372.196 59.1896 371.705 58.9906 371.111C58.802 370.509 58.7599 369.839 58.8642 369.1C58.9685 368.36 59.199 367.728 59.5557 367.204C59.923 366.671 60.3929 366.28 60.9653 366.031C61.5469 365.783 62.2121 365.712 62.9607 365.818C63.5152 365.896 63.986 366.066 64.3732 366.328C64.7618 366.581 65.0705 366.897 65.2996 367.278C65.5378 367.661 65.6957 368.079 65.773 368.533C65.8504 368.987 65.8506 369.453 65.7736 369.933C65.7487 370.042 65.7238 370.152 65.6989 370.261C65.6753 370.362 65.6458 370.471 65.6104 370.588L60.4812 369.865C60.4633 370.192 60.5047 370.5 60.6056 370.787C60.7157 371.076 60.889 371.317 61.1256 371.511C61.3715 371.706 61.6931 371.831 62.0905 371.887C62.3215 371.92 62.5473 371.924 62.7676 371.898C62.9893 371.863 63.1872 371.797 63.3613 371.699C63.5446 371.602 63.677 371.466 63.7585 371.289L65.4497 371.527C65.2553 372.037 64.9729 372.435 64.6025 372.722C64.2321 373.01 63.8094 373.2 63.3344 373.293C62.8687 373.388 62.3862 373.4 61.8872 373.329ZM60.6868 368.607L64.208 369.104C64.251 368.799 64.2208 368.512 64.1173 368.243C64.0139 367.974 63.8425 367.752 63.6033 367.577C63.3746 367.393 63.0801 367.277 62.7197 367.226C62.3315 367.171 61.997 367.204 61.716 367.324C61.4351 367.445 61.2077 367.62 61.0339 367.85C60.8601 368.08 60.7444 368.333 60.6868 368.607Z" fill="#6BBC2E"/>
<path d="M-2.8141 400.462L-0.784809 386.072L-4.63868 385.529L-4.21639 382.534C-3.45595 382.623 -2.76293 382.655 -2.13733 382.63C-1.50912 382.586 -0.932564 382.441 -0.407672 382.195C0.119826 381.93 0.600877 381.527 1.03548 380.985L3.91895 381.391L1.15067 401.021L-2.8141 400.462ZM7.98916 401.985L10.0184 387.596L6.16458 387.052L6.58686 384.058C7.3473 384.146 8.04033 384.178 8.66593 384.153C9.29414 384.11 9.87069 383.965 10.3956 383.719C10.9231 383.454 11.4041 383.05 11.8387 382.508L14.7222 382.915L11.9539 402.545L7.98916 401.985ZM15.1604 402.997L15.6217 399.725L21.6933 395.972C22.1284 395.694 22.6241 395.387 23.1805 395.051C23.758 394.699 24.3117 394.315 24.8416 393.9C25.3899 393.487 25.8498 393.033 26.2211 392.539C26.6109 392.047 26.8462 391.515 26.927 390.942C27.0391 390.147 26.8808 389.465 26.4521 388.895C26.0419 388.329 25.3655 387.979 24.4228 387.846C23.5356 387.721 22.8046 387.825 22.2297 388.159C21.6759 388.476 21.2913 388.931 21.0759 389.523L17.2497 388.983C17.5457 387.687 18.0863 386.66 18.8717 385.904C19.6781 385.131 20.6288 384.606 21.7239 384.326C22.8189 384.047 23.9394 383.988 25.0854 384.15C26.3238 384.325 27.4187 384.715 28.3702 385.32C29.3216 385.926 30.0305 386.714 30.4969 387.684C30.9659 388.637 31.1091 389.76 30.9266 391.053C30.7702 392.162 30.4156 393.14 29.8628 393.986C29.331 394.815 28.6499 395.568 27.8196 396.242C26.9919 396.899 26.0756 397.514 25.0708 398.089L21.6098 400.174L29.4561 401.28L28.94 404.94L15.1604 402.997ZM34.1947 406.049C33.5293 405.955 32.9942 405.672 32.5895 405.2C32.1847 404.728 32.0358 404.114 32.1427 403.356C32.2522 402.579 32.5692 402.002 33.0939 401.624C33.637 401.248 34.2321 401.105 34.879 401.197C35.5259 401.288 36.0492 401.588 36.4487 402.097C36.8508 402.587 36.9972 403.22 36.8877 403.997C36.7782 404.773 36.4637 405.332 35.9443 405.673C35.4249 406.015 34.8417 406.14 34.1947 406.049ZM48.9194 407.758L49.4277 404.153L39.4742 402.75L39.9003 399.728L50.8559 388.011L55.6524 388.687L53.9007 401.108L56.1188 401.421L55.6105 405.025L53.3924 404.712L52.8841 408.317L48.9194 407.758ZM44.5295 399.787L49.936 400.549L51.0699 392.509L44.5295 399.787ZM69.8507 410.709L72.099 394.767L66.1102 393.923L66.6303 390.235L82.628 392.491L82.1079 396.179L76.0915 395.33L73.8432 411.273L69.8507 410.709ZM82.1811 412.448L84.9493 392.819L88.9141 393.378L87.7685 401.501L96.2525 402.698L97.3982 394.574L101.391 395.137L98.6224 414.767L94.6299 414.204L95.7364 406.358L87.2524 405.161L86.1458 413.007L82.1811 412.448ZM107.915 416.275C107.231 416.179 106.54 416.006 105.839 415.756C105.139 415.507 104.509 415.164 103.949 414.726C103.391 414.271 102.943 413.708 102.603 413.038C102.267 412.35 102.099 411.534 102.1 410.592L106.037 411.147C106.101 411.495 106.255 411.809 106.498 412.089C106.76 412.371 107.068 412.593 107.422 412.756C107.795 412.922 108.175 413.032 108.563 413.087C108.822 413.123 109.083 413.141 109.347 413.141C109.611 413.14 109.862 413.1 110.099 413.021C110.337 412.941 110.532 412.827 110.685 412.679C110.84 412.512 110.937 412.29 110.977 412.013C111.018 411.717 110.958 411.473 110.797 411.281C110.636 411.089 110.395 410.923 110.075 410.783C109.758 410.625 109.394 410.47 108.982 410.318C108.247 410.045 107.46 409.745 106.62 409.419C105.78 409.094 105.073 408.692 104.499 408.215C104.267 407.994 104.064 407.758 103.892 407.508C103.72 407.257 103.589 406.984 103.499 406.689C103.409 406.393 103.347 406.092 103.315 405.786C103.285 405.462 103.295 405.124 103.345 404.773C103.457 403.978 103.718 403.327 104.129 402.819C104.561 402.295 105.089 401.899 105.711 401.628C106.334 401.358 107.007 401.198 107.73 401.149C108.456 401.082 109.188 401.101 109.928 401.205C110.926 401.346 111.826 401.642 112.63 402.095C113.436 402.529 114.068 403.127 114.526 403.889C114.986 404.633 115.206 405.55 115.184 406.64L111.469 406.116C111.452 405.699 111.248 405.34 110.857 405.04C110.468 404.721 109.96 404.518 109.331 404.429C109.11 404.398 108.867 404.382 108.603 404.383C108.357 404.386 108.126 404.419 107.91 404.483C107.694 404.547 107.509 404.653 107.356 404.801C107.206 404.931 107.113 405.125 107.076 405.384C107.047 405.587 107.077 405.78 107.164 405.962C107.27 406.146 107.426 406.31 107.632 406.452C107.857 406.596 108.129 406.739 108.449 406.878C109.056 407.114 109.665 407.342 110.276 407.56C110.907 407.762 111.463 407.963 111.944 408.163C112.535 408.378 113.06 408.669 113.517 409.035C113.993 409.404 114.352 409.869 114.593 410.431C114.855 410.977 114.929 411.656 114.814 412.47C114.684 413.394 114.391 414.135 113.935 414.693C113.482 415.232 112.917 415.633 112.239 415.895C111.579 416.161 110.869 416.315 110.109 416.359C109.368 416.405 108.636 416.377 107.915 416.275Z" fill="#6BBC2E"/>
</g>
<g filter="url(#filter3_d_17829_60084)">
<rect x="389" y="359.843" width="144" height="79" rx="19" transform="rotate(-6.71694 389 359.843)" fill="#44280D" shape-rendering="crispEdges"/>
<rect x="389.555" y="360.281" width="143" height="78" rx="18.5" transform="rotate(-6.71694 389.555 360.281)" stroke="#25282D" shape-rendering="crispEdges"/>
<path d="M405.189 382.102L404.218 373.857L401.146 374.219L400.959 372.634L408.829 371.707L409.015 373.292L405.942 373.654L406.914 381.899L405.189 382.102ZM413.545 381.217C412.785 381.306 412.118 381.225 411.543 380.973C410.977 380.72 410.523 380.332 410.179 379.809C409.844 379.275 409.633 378.637 409.545 377.896C409.458 377.154 409.52 376.484 409.731 375.886C409.951 375.278 410.306 374.78 410.796 374.393C411.296 374.006 411.921 373.768 412.671 373.679C413.228 373.614 413.726 373.658 414.167 373.813C414.607 373.959 414.987 374.186 415.305 374.497C415.633 374.806 415.892 375.17 416.082 375.589C416.273 376.009 416.392 376.46 416.439 376.943C416.443 377.055 416.447 377.167 416.451 377.28C416.453 377.383 416.453 377.496 416.448 377.618L411.304 378.224C411.37 378.545 411.488 378.832 411.659 379.085C411.839 379.336 412.068 379.525 412.346 379.652C412.633 379.778 412.976 379.818 413.375 379.771C413.607 379.743 413.826 379.689 414.032 379.609C414.238 379.519 414.412 379.404 414.556 379.265C414.708 379.125 414.802 378.959 414.835 378.767L416.532 378.567C416.473 379.11 416.302 379.567 416.017 379.939C415.731 380.311 415.371 380.602 414.935 380.813C414.509 381.023 414.046 381.158 413.545 381.217ZM411.183 376.956L414.714 376.54C414.678 376.234 414.576 375.964 414.407 375.73C414.239 375.496 414.017 375.325 413.741 375.217C413.473 375.098 413.158 375.06 412.797 375.102C412.407 375.148 412.092 375.265 411.851 375.453C411.61 375.641 411.435 375.869 411.326 376.135C411.216 376.402 411.168 376.675 411.183 376.956ZM418.236 380.565L417.373 373.238L418.93 373.055L419.14 373.876C419.296 373.604 419.473 373.39 419.671 373.235C419.877 373.07 420.092 372.946 420.318 372.863C420.552 372.779 420.776 372.725 420.989 372.7C421.453 372.645 421.857 372.691 422.204 372.838C422.559 372.984 422.851 373.232 423.081 373.581C423.235 373.3 423.419 373.066 423.632 372.882C423.845 372.687 424.076 372.538 424.327 372.433C424.577 372.319 424.845 372.245 425.132 372.212C425.698 372.145 426.166 372.212 426.538 372.413C426.908 372.604 427.196 372.899 427.403 373.297C427.609 373.687 427.743 374.146 427.805 374.674L428.358 379.373L426.662 379.573L426.172 375.416C426.151 375.231 426.118 375.037 426.076 374.835C426.033 374.633 425.96 374.449 425.856 374.283C425.761 374.116 425.633 373.985 425.471 373.891C425.31 373.798 425.095 373.767 424.826 373.798C424.557 373.83 424.342 373.916 424.18 374.058C424.026 374.189 423.905 374.358 423.817 374.566C423.737 374.763 423.687 374.98 423.668 375.217C423.657 375.444 423.665 375.669 423.691 375.891L424.159 379.868L422.463 380.068L421.972 375.897C421.951 375.72 421.915 375.537 421.865 375.345C421.822 375.144 421.753 374.959 421.658 374.792C421.572 374.614 421.443 374.479 421.272 374.386C421.111 374.292 420.896 374.261 420.627 374.293C420.238 374.339 419.954 374.48 419.775 374.717C419.605 374.954 419.501 375.229 419.463 375.543C419.434 375.857 419.436 376.153 419.469 376.431L419.932 380.366L418.236 380.565ZM430.245 381.886L429.064 371.861L430.649 371.675L430.849 372.652C431.091 372.238 431.401 371.92 431.779 371.697C432.157 371.473 432.587 371.334 433.069 371.277C433.792 371.192 434.41 371.288 434.922 371.566C435.434 371.844 435.839 372.252 436.137 372.79C436.435 373.328 436.627 373.954 436.711 374.668C436.795 375.382 436.75 376.04 436.577 376.643C436.402 377.237 436.089 377.73 435.637 378.121C435.193 378.503 434.605 378.736 433.873 378.823C433.53 378.863 433.211 378.863 432.915 378.823C432.628 378.781 432.365 378.704 432.126 378.591C431.897 378.477 431.697 378.341 431.528 378.182L431.941 381.686L430.245 381.886ZM433.429 377.324C433.902 377.269 434.26 377.123 434.505 376.887C434.749 376.642 434.911 376.346 434.992 375.998C435.073 375.641 435.09 375.272 435.046 374.892C434.999 374.494 434.89 374.131 434.72 373.803C434.559 373.474 434.327 373.22 434.024 373.039C433.721 372.859 433.337 372.796 432.874 372.85C432.447 372.901 432.098 373.05 431.827 373.298C431.564 373.536 431.378 373.835 431.27 374.195C431.162 374.556 431.132 374.935 431.179 375.334C431.227 375.742 431.34 376.109 431.52 376.435C431.698 376.753 431.948 376.996 432.268 377.165C432.588 377.325 432.975 377.378 433.429 377.324ZM441.801 377.889C441.041 377.978 440.374 377.897 439.799 377.645C439.233 377.392 438.779 377.004 438.435 376.481C438.1 375.947 437.888 375.309 437.801 374.568C437.714 373.826 437.776 373.157 437.987 372.558C438.207 371.95 438.562 371.452 439.052 371.066C439.551 370.678 440.177 370.44 440.927 370.351C441.484 370.286 441.982 370.33 442.423 370.485C442.863 370.631 443.243 370.859 443.561 371.169C443.889 371.478 444.148 371.842 444.338 372.261C444.529 372.681 444.647 373.132 444.695 373.615C444.699 373.727 444.703 373.84 444.706 373.952C444.709 374.055 444.708 374.168 444.704 374.291L439.56 374.896C439.626 375.218 439.744 375.504 439.915 375.757C440.095 376.008 440.324 376.197 440.602 376.324C440.889 376.45 441.232 376.49 441.631 376.443C441.862 376.416 442.082 376.362 442.288 376.281C442.494 376.191 442.668 376.076 442.812 375.937C442.964 375.797 443.058 375.631 443.091 375.439L444.788 375.239C444.729 375.782 444.558 376.239 444.272 376.611C443.987 376.983 443.627 377.274 443.191 377.485C442.765 377.695 442.302 377.83 441.801 377.889ZM439.438 373.628L442.97 373.212C442.934 372.906 442.832 372.636 442.663 372.402C442.495 372.168 442.272 371.997 441.997 371.889C441.729 371.77 441.414 371.732 441.053 371.774C440.663 371.82 440.348 371.937 440.107 372.125C439.866 372.314 439.691 372.541 439.581 372.808C439.472 373.074 439.424 373.348 439.438 373.628ZM446.492 377.238L445.629 369.91L447.172 369.729L447.383 370.676C447.535 370.377 447.719 370.139 447.933 369.963C448.156 369.777 448.397 369.636 448.659 369.539C448.929 369.442 449.203 369.377 449.481 369.344C449.583 369.332 449.676 369.321 449.759 369.311C449.852 369.3 449.927 369.296 449.983 369.299L450.173 370.912L449.729 370.964C449.247 371.021 448.85 371.162 448.538 371.386C448.226 371.611 448.007 371.905 447.88 372.267C447.754 372.63 447.72 373.061 447.779 373.562L448.188 377.038L446.492 377.238ZM454.203 376.428C453.86 376.469 453.53 376.461 453.213 376.404C452.896 376.347 452.607 376.245 452.345 376.097C452.082 375.94 451.861 375.736 451.681 375.485C451.509 375.223 451.402 374.907 451.358 374.536C451.302 374.063 451.35 373.668 451.5 373.349C451.649 373.022 451.872 372.76 452.169 372.566C452.475 372.37 452.828 372.22 453.23 372.116C453.63 372.004 454.052 371.921 454.497 371.869L455.93 371.7C455.891 371.375 455.808 371.103 455.678 370.884C455.548 370.655 455.363 370.484 455.125 370.371C454.895 370.257 454.609 370.22 454.266 370.261C454.043 370.287 453.838 370.339 453.65 370.418C453.47 370.486 453.317 370.584 453.191 370.711C453.073 370.829 452.996 370.974 452.961 371.147L451.223 371.352C451.243 370.964 451.334 370.625 451.497 370.333C451.668 370.031 451.887 369.775 452.154 369.565C452.43 369.354 452.739 369.186 453.081 369.061C453.423 368.927 453.774 368.838 454.136 368.796C455.202 368.67 456.012 368.885 456.566 369.44C457.129 369.994 457.476 370.822 457.605 371.925L458.07 375.874L456.569 376.051L456.416 375.11C456.24 375.451 456.012 375.712 455.733 375.896C455.454 376.079 455.177 376.205 454.904 376.275C454.631 376.354 454.397 376.405 454.203 376.428ZM454.374 375.012C454.745 374.969 455.066 374.861 455.337 374.688C455.608 374.515 455.812 374.293 455.949 374.023C456.096 373.752 456.15 373.455 456.112 373.13L456.084 372.894L454.749 373.051C454.527 373.077 454.306 373.113 454.085 373.158C453.873 373.192 453.683 373.252 453.515 373.338C453.345 373.414 453.212 373.519 453.115 373.653C453.027 373.785 452.996 373.962 453.022 374.185C453.048 374.407 453.125 374.582 453.253 374.708C453.39 374.832 453.555 374.921 453.749 374.973C453.953 375.025 454.161 375.038 454.374 375.012ZM462.62 375.423C461.813 375.518 461.198 375.365 460.775 374.963C460.352 374.562 460.094 373.968 460.001 373.18L459.602 369.787L458.475 369.92L458.299 368.418L459.425 368.286L459.182 366.228L460.879 366.028L461.121 368.086L463.346 367.824L463.523 369.325L461.298 369.587L461.66 372.66C461.688 372.901 461.742 373.116 461.82 373.304C461.899 373.492 462.019 373.633 462.18 373.727C462.342 373.82 462.553 373.857 462.813 373.835C463.036 373.809 463.221 373.75 463.37 373.657C463.519 373.564 463.639 373.466 463.73 373.361L464.452 374.587C464.294 374.756 464.109 374.9 463.897 375.019C463.695 375.137 463.485 375.227 463.267 375.29C463.048 375.354 462.833 375.398 462.62 375.423ZM468.685 374.723C467.628 374.847 466.785 374.669 466.155 374.189C465.534 373.708 465.158 372.906 465.026 371.784L464.543 367.683L466.239 367.483L466.709 371.473C466.755 371.863 466.846 372.195 466.981 372.47C467.126 372.745 467.324 372.947 467.574 373.077C467.833 373.197 468.143 373.236 468.504 373.193C468.894 373.147 469.19 373.033 469.394 372.849C469.606 372.655 469.742 372.409 469.801 372.11C469.859 371.812 469.867 371.477 469.823 371.107L469.353 367.116L471.05 366.916L471.533 371.018C471.668 372.168 471.48 373.045 470.969 373.65C470.466 374.245 469.704 374.603 468.685 374.723ZM473.526 374.054L472.663 366.726L474.206 366.545L474.417 367.493C474.569 367.193 474.753 366.955 474.967 366.779C475.189 366.593 475.431 366.452 475.692 366.356C475.963 366.258 476.237 366.193 476.515 366.16C476.617 366.148 476.71 366.137 476.793 366.127C476.886 366.116 476.961 366.112 477.017 366.115L477.207 367.728L476.762 367.78C476.28 367.837 475.883 367.978 475.572 368.202C475.26 368.427 475.041 368.721 474.914 369.083C474.788 369.446 474.754 369.878 474.813 370.378L475.222 373.854L473.526 374.054ZM482.046 373.149C481.286 373.239 480.619 373.157 480.044 372.906C479.479 372.653 479.024 372.264 478.68 371.741C478.345 371.207 478.134 370.57 478.046 369.828C477.959 369.087 478.021 368.417 478.233 367.819C478.452 367.21 478.807 366.712 479.297 366.326C479.797 365.938 480.422 365.7 481.173 365.612C481.729 365.546 482.227 365.591 482.669 365.745C483.109 365.891 483.488 366.119 483.806 366.429C484.134 366.738 484.393 367.102 484.583 367.522C484.774 367.941 484.893 368.392 484.94 368.875C484.944 368.988 484.948 369.1 484.952 369.212C484.954 369.315 484.954 369.428 484.949 369.551L479.805 370.157C479.871 370.478 479.989 370.765 480.16 371.017C480.34 371.268 480.569 371.458 480.847 371.585C481.134 371.711 481.477 371.75 481.876 371.703C482.108 371.676 482.327 371.622 482.534 371.541C482.739 371.451 482.914 371.337 483.057 371.197C483.21 371.057 483.303 370.891 483.337 370.699L485.033 370.5C484.975 371.042 484.803 371.499 484.518 371.871C484.233 372.243 483.872 372.535 483.437 372.746C483.01 372.956 482.547 373.09 482.046 373.149ZM479.684 368.888L483.215 368.472C483.179 368.166 483.077 367.896 482.908 367.663C482.74 367.429 482.518 367.257 482.242 367.149C481.974 367.03 481.659 366.992 481.298 367.035C480.909 367.08 480.594 367.197 480.353 367.386C480.112 367.574 479.936 367.801 479.827 368.068C479.717 368.334 479.669 368.608 479.684 368.888Z" fill="#EF7F16"/>
<path d="M408.276 417.987L413.901 401.113L404.502 402.22L404.067 398.522L417.999 396.881L418.349 399.856L412.698 417.466L408.276 417.987ZM429.29 415.738C428.363 415.847 427.452 415.851 426.556 415.749C425.659 415.63 424.821 415.38 424.044 415.002C423.282 414.603 422.643 414.039 422.125 413.311C421.625 412.58 421.311 411.668 421.182 410.574C421.097 409.851 421.123 409.191 421.259 408.592C421.411 407.972 421.665 407.416 422.021 406.923C422.393 406.41 422.859 405.979 423.419 405.631C422.882 405.375 422.43 405.052 422.065 404.663C421.697 404.255 421.409 403.8 421.199 403.299C420.99 402.797 420.853 402.277 420.79 401.74C420.674 400.757 420.772 399.909 421.083 399.196C421.391 398.464 421.846 397.856 422.447 397.372C423.045 396.869 423.741 396.477 424.535 396.196C425.327 395.896 426.14 395.696 426.974 395.598C427.827 395.498 428.664 395.503 429.485 395.613C430.304 395.704 431.064 395.934 431.765 396.303C432.465 396.653 433.05 397.157 433.523 397.816C433.993 398.456 434.286 399.267 434.401 400.249C434.46 400.75 434.437 401.27 434.331 401.808C434.242 402.326 434.055 402.818 433.772 403.284C433.507 403.747 433.142 404.157 432.676 404.512C433.3 404.702 433.851 404.994 434.33 405.389C434.809 405.784 435.195 406.274 435.49 406.859C435.784 407.445 435.976 408.118 436.066 408.878C436.195 409.972 436.091 410.924 435.754 411.734C435.417 412.544 434.915 413.233 434.249 413.8C433.581 414.349 432.815 414.787 431.951 415.114C431.104 415.421 430.217 415.628 429.29 415.738ZM428.895 412.147C429.303 412.099 429.705 412.005 430.102 411.864C430.499 411.723 430.852 411.531 431.162 411.288C431.47 411.026 431.697 410.727 431.846 410.39C432.01 410.032 432.064 409.612 432.008 409.13C431.938 408.537 431.733 408.073 431.392 407.737C431.05 407.382 430.608 407.143 430.067 407.019C429.543 406.874 428.947 406.841 428.279 406.919C427.63 406.996 427.049 407.168 426.536 407.435C426.038 407.681 425.664 408.017 425.414 408.441C425.161 408.847 425.069 409.346 425.139 409.939C425.196 410.421 425.346 410.817 425.589 411.127C425.83 411.418 426.121 411.656 426.463 411.842C426.82 412.006 427.209 412.111 427.627 412.155C428.046 412.2 428.469 412.197 428.895 412.147ZM427.95 403.885C428.543 403.815 429.033 403.663 429.419 403.43C429.821 403.176 430.113 402.86 430.294 402.481C430.491 402.082 430.564 401.66 430.511 401.215C430.446 400.659 430.272 400.219 429.989 399.895C429.705 399.553 429.329 399.315 428.862 399.182C428.412 399.028 427.89 398.986 427.297 399.056C426.722 399.124 426.234 399.285 425.831 399.539C425.445 399.772 425.153 400.079 424.953 400.46C424.772 400.838 424.711 401.278 424.77 401.778C424.829 402.279 425.001 402.7 425.285 403.043C425.57 403.385 425.938 403.633 426.388 403.787C426.855 403.92 427.375 403.953 427.95 403.885ZM449.933 399.689C449.135 399.783 448.385 399.712 447.68 399.475C446.994 399.236 446.42 398.834 445.959 398.268C445.498 397.702 445.215 396.974 445.11 396.084C445.003 395.176 445.116 394.383 445.45 393.704C445.781 393.007 446.26 392.443 446.886 392.013C447.51 391.563 448.211 391.293 448.989 391.201C449.768 391.109 450.502 391.201 451.193 391.477C451.902 391.751 452.489 392.189 452.955 392.792C453.418 393.377 453.703 394.123 453.81 395.031C453.915 395.921 453.8 396.696 453.464 397.356C453.147 398.014 452.674 398.548 452.046 398.961C451.434 399.352 450.73 399.595 449.933 399.689ZM449.684 397.096C450.147 397.042 450.511 396.858 450.775 396.545C451.055 396.211 451.166 395.794 451.107 395.293C451.048 394.793 450.843 394.413 450.493 394.153C450.161 393.892 449.764 393.788 449.3 393.843C448.837 393.897 448.465 394.092 448.185 394.425C447.905 394.759 447.794 395.176 447.853 395.677C447.912 396.177 448.117 396.557 448.467 396.817C448.815 397.058 449.22 397.151 449.684 397.096ZM467.677 411.217C465.656 411.455 463.884 411.25 462.361 410.602C460.854 409.934 459.641 408.893 458.722 407.478C457.823 406.062 457.255 404.353 457.019 402.35C456.779 400.311 456.94 398.488 457.502 396.88C458.083 395.271 459.029 393.966 460.34 392.966C461.648 391.947 463.295 391.321 465.278 391.087C466.78 390.91 468.154 391.011 469.402 391.391C470.647 391.752 471.691 392.39 472.531 393.306C473.389 394.201 473.995 395.361 474.351 396.785L470.513 397.237C470.165 396.357 469.59 395.701 468.787 395.269C468.001 394.817 467.005 394.662 465.8 394.803C464.466 394.961 463.436 395.392 462.711 396.098C462.002 396.783 461.528 397.628 461.289 398.633C461.049 399.62 460.99 400.642 461.115 401.699C461.244 402.793 461.551 403.809 462.038 404.748C462.524 405.687 463.202 406.415 464.071 406.933C464.959 407.449 466.061 407.629 467.377 407.474C468.156 407.382 468.838 407.189 469.424 406.895C470.007 406.582 470.467 406.18 470.804 405.689C471.159 405.196 471.375 404.635 471.452 404.006L475.428 403.537C475.429 404.984 475.09 406.255 474.411 407.35C473.732 408.445 472.811 409.324 471.649 409.988C470.484 410.632 469.16 411.042 467.677 411.217Z" fill="#EF7F16"/>
</g>
<g filter="url(#filter4_d_17829_60084)">
<rect x="234.695" y="258" width="144" height="79" rx="19" transform="rotate(9.24885 234.695 258)" fill="#470B0B" shape-rendering="crispEdges"/>
<rect x="235.108" y="258.574" width="143" height="78" rx="18.5" transform="rotate(9.24885 235.108 258.574)" stroke="#25282D" shape-rendering="crispEdges"/>
<path d="M241.93 283.494L243.52 273.725L247.196 274.324C247.933 274.444 248.55 274.662 249.047 274.98C249.554 275.289 249.916 275.712 250.131 276.248C250.355 276.786 250.403 277.451 250.274 278.243C250.151 278.999 249.883 279.603 249.468 280.055C249.054 280.508 248.541 280.817 247.927 280.982C247.316 281.137 246.642 281.155 245.905 281.035L244.15 280.749L243.657 283.776L241.93 283.494ZM244.402 279.202L246.129 279.483C246.765 279.587 247.301 279.518 247.737 279.277C248.173 279.036 248.445 278.588 248.551 277.934C248.644 277.363 248.553 276.909 248.277 276.57C248.003 276.223 247.529 275.995 246.857 275.885L244.991 275.582L244.402 279.202ZM253.766 285.521C253.02 285.4 252.4 285.143 251.906 284.75C251.421 284.359 251.077 283.859 250.873 283.249C250.679 282.64 250.644 281.958 250.767 281.203C250.891 280.438 251.146 279.804 251.531 279.299C251.917 278.785 252.403 278.415 252.988 278.189C253.574 277.963 254.239 277.91 254.985 278.032C255.722 278.152 256.332 278.412 256.816 278.812C257.299 279.212 257.637 279.721 257.83 280.339C258.024 280.947 258.058 281.634 257.934 282.398C257.812 283.145 257.563 283.775 257.186 284.291C256.82 284.798 256.345 285.161 255.761 285.378C255.177 285.595 254.512 285.643 253.766 285.521ZM254.002 283.985C254.462 284.06 254.847 284.019 255.157 283.861C255.475 283.705 255.726 283.471 255.909 283.161C256.092 282.85 256.215 282.501 256.278 282.114C256.341 281.728 256.336 281.353 256.262 280.991C256.189 280.63 256.026 280.324 255.773 280.075C255.531 279.818 255.18 279.652 254.72 279.577C254.259 279.502 253.869 279.547 253.549 279.713C253.23 279.869 252.978 280.107 252.794 280.427C252.611 280.737 252.487 281.091 252.423 281.487C252.36 281.874 252.365 282.248 252.438 282.61C252.523 282.964 252.686 283.265 252.93 283.513C253.184 283.752 253.541 283.91 254.002 283.985ZM260.23 286.474L259.136 278.821L261.001 279.125L261.582 284.794L264.028 279.618L266.017 279.942L266.695 285.626L269.03 280.432L270.867 280.731L267.402 287.642L265.384 287.314L264.664 281.806L262.248 286.803L260.23 286.474ZM273.817 288.786C273.061 288.663 272.442 288.401 271.958 288.001C271.484 287.603 271.154 287.104 270.968 286.507C270.792 285.901 270.764 285.23 270.884 284.493C271.004 283.756 271.248 283.129 271.616 282.612C271.995 282.088 272.473 281.707 273.05 281.47C273.637 281.234 274.304 281.177 275.05 281.299C275.603 281.389 276.07 281.569 276.451 281.839C276.834 282.1 277.136 282.424 277.357 282.809C277.587 283.197 277.736 283.618 277.804 284.074C277.871 284.529 277.862 284.996 277.774 285.473C277.747 285.582 277.72 285.691 277.693 285.8C277.667 285.9 277.635 286.008 277.597 286.125L272.485 285.293C272.46 285.62 272.495 285.928 272.589 286.217C272.693 286.509 272.861 286.753 273.094 286.952C273.336 287.152 273.654 287.284 274.051 287.349C274.281 287.386 274.506 287.395 274.727 287.374C274.95 287.344 275.149 287.282 275.325 287.188C275.51 287.095 275.646 286.961 275.731 286.786L277.417 287.06C277.211 287.566 276.921 287.958 276.544 288.237C276.168 288.516 275.741 288.698 275.264 288.781C274.797 288.865 274.314 288.867 273.817 288.786ZM272.717 284.04L276.227 284.611C276.276 284.307 276.252 284.02 276.155 283.748C276.057 283.477 275.89 283.251 275.655 283.071C275.43 282.883 275.138 282.76 274.779 282.702C274.392 282.639 274.057 282.664 273.773 282.779C273.49 282.894 273.259 283.064 273.08 283.29C272.902 283.517 272.781 283.766 272.717 284.04ZM278.506 289.45L279.692 282.168L281.225 282.418L281.167 283.387C281.396 283.141 281.638 282.963 281.892 282.853C282.157 282.735 282.429 282.666 282.706 282.645C282.993 282.626 283.275 282.638 283.551 282.683C283.652 282.7 283.744 282.715 283.827 282.728C283.919 282.743 283.992 282.76 284.046 282.778L283.785 284.381L283.343 284.309C282.864 284.231 282.444 284.257 282.082 284.387C281.72 284.518 281.429 284.74 281.208 285.053C280.986 285.367 280.835 285.773 280.754 286.27L280.192 289.725L278.506 289.45Z" fill="#F24949"/>
<path d="M243.617 320.469C242.695 320.319 241.857 320.069 241.1 319.719C240.347 319.351 239.696 318.876 239.148 318.295C238.618 317.717 238.201 317.025 237.897 316.219C237.612 315.416 237.478 314.496 237.496 313.459L241.392 314.093C241.443 314.48 241.589 314.863 241.829 315.242C242.07 315.622 242.395 315.949 242.804 316.224C243.232 316.501 243.731 316.687 244.302 316.78C245.003 316.894 245.612 316.87 246.13 316.708C246.651 316.529 247.076 316.239 247.406 315.838C247.736 315.438 247.951 314.934 248.05 314.326C248.2 313.405 248.025 312.62 247.525 311.971C247.047 311.307 246.283 310.889 245.233 310.718C244.625 310.619 244.036 310.637 243.465 310.771C242.916 310.89 242.373 311.094 241.833 311.385L238.462 310.836L240.648 299.674L253.527 301.771L252.937 305.391L243.79 303.902L242.92 307.845C243.536 307.549 244.215 307.385 244.958 307.355C245.722 307.309 246.462 307.354 247.177 307.489C248.442 307.733 249.475 308.185 250.276 308.845C251.076 309.504 251.631 310.332 251.942 311.329C252.271 312.328 252.335 313.445 252.134 314.679C251.891 316.171 251.352 317.389 250.518 318.331C249.702 319.276 248.689 319.924 247.478 320.276C246.285 320.63 244.998 320.694 243.617 320.469ZM256.037 322.634C255.373 322.526 254.845 322.232 254.45 321.751C254.055 321.271 253.92 320.653 254.043 319.898C254.169 319.124 254.498 318.553 255.03 318.186C255.581 317.822 256.179 317.692 256.824 317.798C257.469 317.903 257.986 318.214 258.374 318.731C258.766 319.23 258.899 319.866 258.773 320.64C258.647 321.413 258.32 321.966 257.794 322.296C257.267 322.626 256.682 322.739 256.037 322.634ZM263.956 323.555L266.292 309.211L262.45 308.586L262.936 305.601C263.695 305.706 264.387 305.752 265.013 305.741C265.642 305.711 266.221 305.578 266.751 305.343C267.284 305.089 267.774 304.696 268.22 304.164L271.094 304.632L267.908 324.198L263.956 323.555ZM279.843 326.142L283.029 306.575L286.898 307.205L285.175 317.79L287.082 318.1L291.556 313.099L295.895 313.805L290.122 319.986L293.91 328.432L289.433 327.703L286.685 321.582L284.612 321.244L283.712 326.772L279.843 326.142ZM298.707 329.213L297.112 308.869L301.507 309.584L302.454 325.37L308.388 310.705L313.611 311.555L314.531 327.336L320.354 312.653L324.527 313.333L316.615 332.13L311.144 331.239L310.129 315.868L304.345 330.132L298.707 329.213Z" fill="#F24949"/>
</g>
<g filter="url(#filter5_d_17829_60084)">
<rect x="57" y="211.894" width="144" height="79" rx="19" transform="rotate(-5.13704 57 211.894)" fill="#0E2C44" shape-rendering="crispEdges"/>
<rect x="57.5428" y="212.347" width="143" height="78" rx="18.5" transform="rotate(-5.13704 57.5428 212.347)" stroke="#25282D" shape-rendering="crispEdges"/>
<path d="M73.9102 234.583C73.2502 234.642 72.6186 234.6 72.0154 234.458C71.4207 234.305 70.9084 234.028 70.4787 233.626C70.0482 233.215 69.7403 232.657 69.5551 231.952L71.326 231.793C71.4701 232.145 71.6722 232.413 71.9323 232.596C72.2017 232.778 72.5075 232.895 72.8496 232.949C73.191 232.993 73.5336 233 73.8776 232.969C74.1843 232.941 74.4692 232.878 74.7321 232.78C75.0034 232.671 75.219 232.516 75.3789 232.314C75.5481 232.111 75.619 231.857 75.5914 231.55C75.5705 231.317 75.5026 231.136 75.3879 231.006C75.2815 230.866 75.1359 230.757 74.9509 230.68C74.7744 230.593 74.5628 230.532 74.3161 230.498C74.077 230.444 73.8201 230.402 73.5455 230.37C73.271 230.339 73.0006 230.302 72.7345 230.261C72.4683 230.219 72.2145 230.157 71.9729 230.076C71.6662 230 71.3676 229.91 71.077 229.805C70.7949 229.69 70.5428 229.544 70.3208 229.367C70.108 229.189 69.9282 228.962 69.7815 228.685C69.6347 228.407 69.5434 228.069 69.5075 227.669C69.4665 227.214 69.5058 226.816 69.6253 226.478C69.7532 226.129 69.9331 225.836 70.1648 225.6C70.4059 225.363 70.679 225.169 70.9842 225.02C71.2987 224.87 71.6254 224.752 71.9644 224.665C72.3126 224.577 72.6447 224.519 72.9608 224.491C73.5743 224.436 74.1412 224.488 74.6616 224.647C75.1913 224.806 75.638 225.084 76.0018 225.483C76.3656 225.881 76.6008 226.413 76.7075 227.078L75.0203 227.23C74.9547 226.917 74.8206 226.676 74.6179 226.507C74.4145 226.328 74.1695 226.21 73.8831 226.151C73.5959 226.083 73.2896 226.064 72.9642 226.093C72.7411 226.113 72.5197 226.152 72.3 226.209C72.0895 226.266 71.9001 226.348 71.7319 226.457C71.5729 226.565 71.4447 226.703 71.3474 226.871C71.2585 227.029 71.2245 227.224 71.2454 227.457C71.2638 227.661 71.3312 227.838 71.4477 227.987C71.5633 228.126 71.714 228.239 71.8998 228.325C72.095 228.411 72.3218 228.484 72.5803 228.545C72.9173 228.646 73.2793 228.712 73.6663 228.743C74.0626 228.773 74.4377 228.828 74.7917 228.909C75.1347 228.972 75.4519 229.06 75.7433 229.175C76.0432 229.279 76.3042 229.42 76.5262 229.596C76.7474 229.764 76.9264 229.982 77.063 230.251C77.2081 230.51 77.2977 230.83 77.332 231.211C77.3821 231.768 77.3225 232.252 77.1531 232.661C76.9921 233.059 76.7459 233.395 76.4144 233.669C76.0922 233.941 75.713 234.153 75.2768 234.305C74.8491 234.447 74.3936 234.539 73.9102 234.583ZM82.054 233.822C81.2452 233.895 80.6349 233.725 80.223 233.312C79.811 232.899 79.5695 232.298 79.4985 231.508L79.1926 228.106L78.0632 228.207L77.9278 226.701L79.0572 226.6L78.8717 224.536L80.5729 224.383L80.7584 226.447L82.9894 226.246L83.1248 227.752L80.8938 227.953L81.1708 231.034C81.1925 231.276 81.24 231.492 81.3134 231.682C81.3867 231.872 81.5027 232.016 81.6615 232.115C81.8203 232.213 82.0302 232.255 82.2913 232.241C82.5144 232.221 82.7016 232.166 82.853 232.078C83.0043 231.989 83.127 231.894 83.2209 231.792L83.9091 233.037C83.7459 233.202 83.5569 233.341 83.3421 233.454C83.1367 233.566 82.9241 233.65 82.7043 233.708C82.4846 233.765 82.2678 233.803 82.054 233.822ZM87.2296 233.371C86.8856 233.402 86.5561 233.385 86.241 233.319C85.9259 233.254 85.6395 233.144 85.3819 232.989C85.1235 232.825 84.9078 232.615 84.7349 232.358C84.5704 232.092 84.4714 231.773 84.438 231.401C84.3954 230.927 84.4536 230.533 84.6128 230.219C84.7711 229.895 85.0012 229.64 85.3031 229.454C85.6142 229.267 85.9718 229.127 86.3758 229.034C86.779 228.932 87.2037 228.861 87.6499 228.821L89.0861 228.692C89.0568 228.367 88.9806 228.092 88.8575 227.869C88.7335 227.637 88.5537 227.461 88.3181 227.341C88.0917 227.221 87.8066 227.177 87.4626 227.208C87.2395 227.228 87.0329 227.274 86.8427 227.348C86.6609 227.411 86.5054 227.504 86.376 227.629C86.255 227.742 86.1742 227.886 86.1334 228.058L84.3905 228.215C84.4213 227.828 84.5222 227.491 84.6931 227.203C84.8726 226.906 85.0984 226.656 85.3707 226.454C85.6523 226.25 85.966 226.091 86.3117 225.976C86.6566 225.851 87.0103 225.772 87.3728 225.74C88.4419 225.644 89.2456 225.881 89.7842 226.451C90.332 227.02 90.6557 227.858 90.7551 228.964L91.1111 232.924L89.6052 233.059L89.4781 232.115C89.2927 232.45 89.058 232.705 88.7739 232.881C88.4898 233.056 88.21 233.175 87.9344 233.237C87.6597 233.309 87.4248 233.354 87.2296 233.371ZM87.4401 231.961C87.812 231.927 88.1357 231.828 88.4113 231.662C88.687 231.497 88.8972 231.281 89.0419 231.015C89.196 230.749 89.2584 230.452 89.2291 230.127L89.2078 229.89L87.8692 230.01C87.6461 230.03 87.4239 230.06 87.2024 230.098C86.9895 230.127 86.7976 230.182 86.6268 230.263C86.4552 230.334 86.3191 230.436 86.2184 230.566C86.127 230.696 86.0913 230.873 86.1114 231.096C86.1314 231.319 86.2035 231.495 86.3276 231.625C86.461 231.753 86.624 231.847 86.8166 231.904C87.0185 231.961 87.2263 231.98 87.4401 231.961ZM95.6709 232.598C94.8622 232.671 94.2519 232.501 93.8399 232.088C93.428 231.675 93.1865 231.074 93.1154 230.284L92.8096 226.881L91.6801 226.983L91.5448 225.477L92.6742 225.376L92.4887 223.312L94.1898 223.159L94.3753 225.223L96.6063 225.022L96.7417 226.528L94.5107 226.729L94.7878 229.81C94.8095 230.052 94.857 230.268 94.9303 230.458C95.0037 230.648 95.1197 230.792 95.2785 230.89C95.4372 230.989 95.6472 231.031 95.9083 231.017C96.1314 230.997 96.3186 230.942 96.4699 230.854C96.6213 230.765 96.7439 230.67 96.8378 230.568L97.5261 231.813C97.3628 231.978 97.1738 232.116 96.9591 232.229C96.7536 232.342 96.541 232.426 96.3213 232.484C96.1015 232.541 95.8847 232.579 95.6709 232.598ZM101.753 232.066C100.693 232.161 99.8551 231.96 99.2388 231.462C98.6317 230.964 98.2776 230.152 98.1765 229.028L97.8067 224.914L99.5078 224.761L99.8676 228.763C99.9027 229.153 99.9843 229.488 100.112 229.767C100.25 230.045 100.442 230.253 100.689 230.39C100.944 230.517 101.252 230.564 101.615 230.532C102.005 230.497 102.305 230.39 102.514 230.212C102.731 230.024 102.874 229.781 102.941 229.485C103.008 229.188 103.024 228.854 102.991 228.482L102.631 224.48L104.332 224.327L104.702 228.441C104.806 229.594 104.594 230.465 104.066 231.056C103.546 231.637 102.775 231.974 101.753 232.066ZM109.436 231.375C109.083 231.407 108.727 231.401 108.367 231.358C108.016 231.315 107.68 231.223 107.358 231.084C107.035 230.935 106.758 230.721 106.527 230.442C106.296 230.162 106.128 229.803 106.022 229.362L107.738 229.208C107.83 229.406 107.962 229.563 108.131 229.679C108.309 229.785 108.508 229.86 108.728 229.906C108.956 229.942 109.177 229.95 109.391 229.931C109.521 229.919 109.66 229.898 109.807 229.866C109.963 229.833 110.104 229.783 110.229 229.715C110.363 229.647 110.468 229.558 110.542 229.448C110.616 229.329 110.645 229.181 110.629 229.004C110.614 228.837 110.556 228.711 110.454 228.627C110.352 228.533 110.22 228.465 110.057 228.423C109.893 228.373 109.698 228.339 109.471 228.321C109.064 228.274 108.628 228.224 108.164 228.172C107.7 228.11 107.29 227.988 106.937 227.804C106.79 227.733 106.66 227.646 106.548 227.544C106.435 227.442 106.336 227.329 106.25 227.205C106.173 227.072 106.108 226.928 106.057 226.773C106.015 226.617 105.985 226.447 105.968 226.261C105.933 225.87 105.983 225.533 106.117 225.249C106.259 224.955 106.457 224.713 106.712 224.521C106.975 224.32 107.279 224.161 107.625 224.046C107.971 223.93 108.329 223.856 108.701 223.822C109.203 223.777 109.666 223.815 110.089 223.936C110.512 224.058 110.873 224.269 111.172 224.57C111.48 224.87 111.685 225.269 111.786 225.766L110.168 225.911C110.101 225.683 109.94 225.51 109.686 225.392C109.441 225.274 109.137 225.231 108.774 225.263C108.644 225.275 108.511 225.301 108.374 225.342C108.236 225.373 108.105 225.422 107.98 225.49C107.863 225.547 107.767 225.63 107.693 225.74C107.628 225.849 107.602 225.978 107.615 226.127C107.628 226.266 107.671 226.384 107.745 226.481C107.829 226.576 107.944 226.655 108.09 226.717C108.244 226.768 108.421 226.809 108.621 226.838C108.943 226.874 109.279 226.91 109.628 226.944C109.978 226.978 110.281 227.016 110.538 227.059C110.843 227.116 111.124 227.212 111.38 227.349C111.635 227.476 111.839 227.659 111.991 227.898C112.152 228.127 112.25 228.432 112.284 228.813C112.325 229.26 112.265 229.64 112.106 229.954C111.956 230.267 111.74 230.521 111.457 230.715C111.175 230.909 110.856 231.06 110.5 231.167C110.144 231.274 109.79 231.343 109.436 231.375Z" fill="#2899F4"/>
<path d="M82.2899 270.086C80.9141 270.21 79.6121 270.112 78.3838 269.791C77.1741 269.469 76.1277 268.879 75.2447 268.021C74.3803 267.162 73.7798 266.007 73.4432 264.556L77.5148 264.19C77.739 264.807 78.0917 265.291 78.573 265.641C79.0526 265.973 79.6067 266.195 80.2353 266.307C80.8824 266.418 81.55 266.442 82.2379 266.38C82.7584 266.333 83.2638 266.222 83.7541 266.047C84.2444 265.872 84.6334 265.612 84.921 265.268C85.2272 264.921 85.3561 264.479 85.3077 263.94C85.2709 263.531 85.1478 263.204 84.9385 262.961C84.7478 262.715 84.4784 262.533 84.1304 262.415C83.7993 262.276 83.3955 262.162 82.919 262.074C82.5186 261.997 82.1012 261.941 81.6669 261.905C81.2512 261.868 80.8338 261.812 80.4148 261.737C80.0143 261.66 79.6215 261.564 79.2363 261.449C78.5131 261.327 77.8144 261.165 77.1403 260.963C76.4645 260.743 75.8573 260.45 75.3185 260.086C74.7781 259.704 74.3308 259.21 73.9765 258.605C73.6408 257.998 73.4328 257.248 73.3526 256.356C73.2657 255.389 73.3502 254.557 73.606 253.859C73.8805 253.159 74.2681 252.572 74.7688 252.096C75.2865 251.599 75.8691 251.2 76.5167 250.898C77.1828 250.595 77.8557 250.366 78.5352 250.211C79.2147 250.056 79.8613 249.951 80.4748 249.896C81.7576 249.781 82.9304 249.9 83.993 250.254C85.0557 250.609 85.9525 251.203 86.6834 252.037C87.4143 252.87 87.8873 253.962 88.1023 255.311L84.2259 255.659C84.1014 255.108 83.8559 254.671 83.4895 254.348C83.1231 254.025 82.6721 253.803 82.1365 253.682C81.6195 253.56 81.0449 253.527 80.4128 253.584C80.0038 253.621 79.6074 253.694 79.2237 253.804C78.8399 253.913 78.4975 254.066 78.1965 254.261C77.9124 254.437 77.6891 254.663 77.5266 254.94C77.3827 255.215 77.3274 255.539 77.3609 255.911C77.3943 256.283 77.5258 256.599 77.7554 256.859C77.9833 257.101 78.3016 257.307 78.7104 257.476C79.1362 257.625 79.6261 257.759 80.1803 257.878C80.7548 258.014 81.3538 258.11 81.9774 258.167C82.6009 258.223 83.1999 258.319 83.7744 258.455C84.4976 258.577 85.1777 258.741 85.8146 258.946C86.4498 259.133 87.0174 259.4 87.5173 259.749C88.0155 260.079 88.4215 260.53 88.7353 261.101C89.0474 261.654 89.2419 262.358 89.3188 263.213C89.4207 264.348 89.2938 265.334 88.9381 266.171C88.5993 266.989 88.089 267.672 87.4074 268.221C86.7444 268.768 85.9674 269.194 85.0765 269.499C84.1855 269.804 83.2567 270 82.2899 270.086ZM92.6763 268.928L90.9013 249.183L94.8055 248.832L96.5805 268.577L92.6763 268.928ZM106.414 267.89C104.871 268.028 103.532 267.839 102.399 267.323C101.265 266.806 100.36 266.016 99.6838 264.952C99.0055 263.87 98.5987 262.576 98.4633 261.07C98.3262 259.546 98.5042 258.19 98.9972 257.002C99.4885 255.796 100.244 254.819 101.264 254.071C102.302 253.322 103.565 252.88 105.052 252.747C106.168 252.646 107.161 252.745 108.031 253.041C108.919 253.336 109.682 253.792 110.319 254.41C110.974 255.026 111.481 255.767 111.84 256.635C112.216 257.482 112.441 258.417 112.514 259.441C112.537 259.702 112.551 259.954 112.554 260.197C112.557 260.44 112.541 260.685 112.507 260.932L102.44 261.837C102.546 262.39 102.75 262.887 103.052 263.328C103.354 263.77 103.75 264.109 104.24 264.346C104.747 264.563 105.353 264.64 106.06 264.576C106.525 264.534 106.948 264.449 107.33 264.321C107.71 264.175 108.03 263.977 108.289 263.729C108.548 263.481 108.719 263.203 108.804 262.896L112.653 262.55C112.51 263.668 112.135 264.611 111.529 265.377C110.942 266.142 110.199 266.734 109.299 267.152C108.398 267.552 107.436 267.798 106.414 267.89ZM102.278 259.097L108.664 258.522C108.6 258.022 108.429 257.569 108.148 257.163C107.885 256.737 107.509 256.415 107.021 256.196C106.55 255.957 105.961 255.87 105.255 255.933C104.548 255.997 103.966 256.19 103.507 256.512C103.068 256.833 102.747 257.227 102.545 257.695C102.361 258.143 102.272 258.61 102.278 259.097ZM122.455 266.448C120.911 266.586 119.573 266.397 118.44 265.881C117.306 265.364 116.401 264.574 115.725 263.51C115.046 262.428 114.639 261.134 114.504 259.628C114.367 258.104 114.545 256.747 115.038 255.56C115.529 254.354 116.285 253.377 117.305 252.629C118.343 251.88 119.606 251.438 121.093 251.305C122.209 251.204 123.202 251.303 124.072 251.599C124.96 251.894 125.723 252.35 126.359 252.968C127.014 253.584 127.522 254.325 127.881 255.193C128.257 256.04 128.481 256.975 128.555 257.999C128.578 258.26 128.591 258.512 128.594 258.755C128.598 258.998 128.582 259.243 128.548 259.49L118.481 260.395C118.587 260.948 118.791 261.445 119.093 261.886C119.395 262.328 119.791 262.667 120.281 262.904C120.787 263.121 121.394 263.197 122.1 263.134C122.565 263.092 122.989 263.007 123.371 262.879C123.751 262.733 124.071 262.535 124.33 262.287C124.588 262.039 124.76 261.761 124.845 261.453L128.694 261.107C128.55 262.226 128.176 263.169 127.57 263.935C126.983 264.7 126.24 265.292 125.34 265.71C124.439 266.11 123.477 266.356 122.455 266.448ZM118.319 257.655L124.705 257.08C124.641 256.58 124.469 256.127 124.189 255.721C123.926 255.295 123.55 254.973 123.062 254.754C122.591 254.515 122.002 254.428 121.295 254.491C120.589 254.555 120.007 254.748 119.548 255.07C119.108 255.391 118.788 255.785 118.586 256.253C118.402 256.701 118.312 257.168 118.319 257.655ZM132.251 270.908L130.436 250.718L134.089 250.389L134.45 252.212C134.979 251.434 135.61 250.843 136.343 250.44C137.093 250.035 137.933 249.791 138.863 249.707C140.313 249.577 141.542 249.804 142.551 250.388C143.559 250.972 144.348 251.819 144.916 252.93C145.501 254.021 145.857 255.273 145.985 256.686C146.115 258.136 145.981 259.46 145.583 260.657C145.201 261.835 144.548 262.803 143.623 263.561C142.696 264.3 141.498 264.736 140.029 264.868C139.397 264.924 138.795 264.904 138.224 264.805C137.653 264.706 137.143 264.555 136.694 264.352C136.243 264.13 135.854 263.875 135.528 263.585L136.155 270.557L132.251 270.908ZM139.044 261.414C139.918 261.335 140.588 261.078 141.055 260.643C141.522 260.207 141.831 259.683 141.982 259.069C142.131 258.438 142.177 257.796 142.118 257.146C142.055 256.439 141.883 255.78 141.603 255.168C141.323 254.556 140.906 254.087 140.352 253.762C139.815 253.417 139.11 253.283 138.236 253.362C137.455 253.432 136.812 253.687 136.308 254.126C135.803 254.546 135.438 255.075 135.214 255.714C134.991 256.353 134.91 257.025 134.974 257.732C135.037 258.438 135.227 259.086 135.542 259.676C135.876 260.265 136.33 260.721 136.902 261.044C137.493 261.366 138.207 261.489 139.044 261.414Z" fill="#2899F4"/>
</g>
</g>
<defs>
<filter id="filter0_b_17829_60084" x="-4" y="-4" width="512" height="458" filterUnits="userSpaceOnUse" color-interpolation-filters="sRGB">
<feFlood flood-opacity="0" result="BackgroundImageFix"/>
<feGaussianBlur in="BackgroundImageFix" stdDeviation="2"/>
<feComposite in2="SourceAlpha" operator="in" result="effect1_backgroundBlur_17829_60084"/>
<feBlend mode="normal" in="SourceGraphic" in2="effect1_backgroundBlur_17829_60084" result="shape"/>
</filter>
<filter id="filter1_f_17829_60084" x="-634.572" y="-28.3906" width="1279.34" height="1064.19" filterUnits="userSpaceOnUse" color-interpolation-filters="sRGB">
<feFlood flood-opacity="0" result="BackgroundImageFix"/>
<feBlend mode="normal" in="SourceGraphic" in2="BackgroundImageFix" result="shape"/>
<feGaussianBlur stdDeviation="140" result="effect1_foregroundBlur_17829_60084"/>
</filter>
<filter id="filter2_d_17829_60084" x="-46" y="314" width="205.621" height="150.335" filterUnits="userSpaceOnUse" color-interpolation-filters="sRGB">
<feFlood flood-opacity="0" result="BackgroundImageFix"/>
<feColorMatrix in="SourceAlpha" type="matrix" values="0 0 0 0 0 0 0 0 0 0 0 0 0 0 0 0 0 0 127 0" result="hardAlpha"/>
<feOffset dy="1"/>
<feGaussianBlur stdDeviation="13"/>
<feComposite in2="hardAlpha" operator="out"/>
<feColorMatrix type="matrix" values="0 0 0 0 0 0 0 0 0 0 0 0 0 0 0 0 0 0 0.25 0"/>
<feBlend mode="normal" in2="BackgroundImageFix" result="effect1_dropShadow_17829_60084"/>
<feBlend mode="normal" in="SourceGraphic" in2="effect1_dropShadow_17829_60084" result="shape"/>
</filter>
<filter id="filter3_d_17829_60084" x="363" y="318" width="204.252" height="147.301" filterUnits="userSpaceOnUse" color-interpolation-filters="sRGB">
<feFlood flood-opacity="0" result="BackgroundImageFix"/>
<feColorMatrix in="SourceAlpha" type="matrix" values="0 0 0 0 0 0 0 0 0 0 0 0 0 0 0 0 0 0 127 0" result="hardAlpha"/>
<feOffset dy="1"/>
<feGaussianBlur stdDeviation="13"/>
<feComposite in2="hardAlpha" operator="out"/>
<feColorMatrix type="matrix" values="0 0 0 0 0 0 0 0 0 0 0 0 0 0 0 0 0 0 0.25 0"/>
<feBlend mode="normal" in2="BackgroundImageFix" result="effect1_dropShadow_17829_60084"/>
<feBlend mode="normal" in="SourceGraphic" in2="effect1_dropShadow_17829_60084" result="shape"/>
</filter>
<filter id="filter4_d_17829_60084" x="195.998" y="233" width="206.826" height="153.117" filterUnits="userSpaceOnUse" color-interpolation-filters="sRGB">
<feFlood flood-opacity="0" result="BackgroundImageFix"/>
<feColorMatrix in="SourceAlpha" type="matrix" values="0 0 0 0 0 0 0 0 0 0 0 0 0 0 0 0 0 0 127 0" result="hardAlpha"/>
<feOffset dy="1"/>
<feGaussianBlur stdDeviation="13"/>
<feComposite in2="hardAlpha" operator="out"/>
<feColorMatrix type="matrix" values="0 0 0 0 0 0 0 0 0 0 0 0 0 0 0 0 0 0 0.25 0"/>
<feBlend mode="normal" in2="BackgroundImageFix" result="effect1_dropShadow_17829_60084"/>
<feBlend mode="normal" in="SourceGraphic" in2="effect1_dropShadow_17829_60084" result="shape"/>
</filter>
<filter id="filter5_d_17829_60084" x="31" y="174" width="202.496" height="143.576" filterUnits="userSpaceOnUse" color-interpolation-filters="sRGB">
<feFlood flood-opacity="0" result="BackgroundImageFix"/>
<feColorMatrix in="SourceAlpha" type="matrix" values="0 0 0 0 0 0 0 0 0 0 0 0 0 0 0 0 0 0 127 0" result="hardAlpha"/>
<feOffset dy="1"/>
<feGaussianBlur stdDeviation="13"/>
<feComposite in2="hardAlpha" operator="out"/>
<feColorMatrix type="matrix" values="0 0 0 0 0 0 0 0 0 0 0 0 0 0 0 0 0 0 0.25 0"/>
<feBlend mode="normal" in2="BackgroundImageFix" result="effect1_dropShadow_17829_60084"/>
<feBlend mode="normal" in="SourceGraphic" in2="effect1_dropShadow_17829_60084" result="shape"/>
</filter>
<clipPath id="clip0_17829_60084">
<rect width="504" height="450" fill="white"/>
</clipPath>
</defs>
</svg>
